DBRep_DrawableShape

CASCADE Topology V1, (c) Matra-Datavision
Locations 71
1
              1               0               0               0 
              0               1               0               0 
              0               0               1               0 
1
              1               0               0               0 
              0               1               0               0 
              0               0               1               0 
1
              1               0               0               0 
              0               1               0               0 
              0               0               1               0 
2  2 1 3 -1 0
1
              1               0               0               0 
              0               1               0               0 
              0               0               1               0 
1
              1               0               0               0 
              0               1               0               0 
              0               0               1               0 
1
              1               0               0               0 
              0               1               0               0 
              0               0               1               0 
1
              1               0               0               0 
              0               1               0               0 
              0               0               1               0 
1
              1               0               0               0 
              0               1               0               0 
              0               0               1               0 
2  5 -1 6 1 7 -1 8 1 9 -1 0
1
              1               0               0               0 
              0               1               0               0 
              0               0               1               0 
2  11 1 5 -1 6 1 7 -1 8 1 9 -1 0
2  11 -1 0
2  5 1 11 -1 0
2  1 -1 3 1 2 -1 9 1 8 -1 7 1 6 -1 5 1 11 -1 0
2  1 -1 3 1 2 -1 0
1
              1              -0               0              -0 
              0 2.22044604925031e-16              -1            36.3 
              0               1 2.22044604925031e-16               0 
1
              1               0               0               0 
              0               1               0             4.8 
              0               0               1 -1.06581410364015e-15 
2  17 1 9 -1 18 1 0
2  5 -1 6 1 7 -1 8 1 9 -1 18 -1 9 1 17 -1 0
2  17 -1 0
2  1 -1 3 1 2 -1 18 -1 9 1 17 -1 0
2  8 1 9 -1 2 1 3 -1 0
2  6 1 7 -1 0
2  11 1 5 -1 6 1 7 -1 0
2  1 -1 3 1 2 -1 9 1 8 -1 7 1 6 -1 0
2  1 -1 3 1 2 -1 9 1 8 -1 0
1
              1               0               0               0 
              0               1               0               0 
              0               0               1              18 
2  11 1 5 -1 28 1 6 1 7 -1 0
2  28 -1 5 1 11 -1 0
2  1 -1 3 1 2 -1 9 1 8 -1 7 1 6 -1 28 -1 5 1 11 -1 0
1
              0               0              -1              -0 
             -1               0               0              -0 
              0               1               0               0 
2  32 1 7 -1 0
2  6 1 32 -1 0
2  1 -1 3 1 2 -1 9 1 8 -1 7 1 32 -1 0
2  6 1 7 -1 8 1 9 -1 2 1 3 -1 0
2  11 1 5 -1 0
2  11 1 5 -1 28 1 0
1
              1               0               0              55 
              0               1               0              -0 
              0               0               1              -0 
2  32 1 7 -1 39 1 0
2  6 1 7 -1 39 -1 7 1 32 -1 0
2  32 -1 0
2  1 -1 3 1 2 -1 9 1 8 -1 39 -1 7 1 32 -1 0
2  6 1 7 -1 8 1 9 -1 0
2  17 1 9 -1 0
2  6 1 7 -1 8 1 17 -1 0
2  9 1 17 -1 0
2  1 -1 3 1 2 -1 9 1 17 -1 0
2  8 1 9 -1 0
2  18 -1 9 1 17 -1 0
2  9 -1 18 1 2 1 3 -1 0
2  17 1 9 -1 18 1 2 1 3 -1 0
1
              1               0               0              -0 
              0 2.22044604925031e-16              -1            41.1 
              0               1 2.22044604925031e-16              -0 
2  53 1 3 -1 0
2  9 -1 18 1 2 1 53 -1 0
2  3 1 53 -1 0
2  1 -1 3 1 53 -1 0
2  7 1 32 -1 0
2  5 -1 28 1 6 1 7 -1 0
2  7 1 6 -1 0
2  5 -1 28 1 6 1 32 -1 0
2  7 -1 39 1 0
2  5 -1 28 1 6 1 7 -1 39 -1 7 1 32 -1 0
2  1 -1 0
1
              1               0               0               0 
              0               1               0               9 
              0               0               1 -1.99840144432528e-15 
2  53 1 3 -1 65 1 0
2  65 -1 3 1 53 -1 0
2  53 -1 0
2  1 -1 65 -1 3 1 53 -1 0
2  7 1 6 -1 28 -1 5 1 11 -1 0
2  3 -1 65 1 0
Curve2ds 124
1 0 0 -1 0 
1 0 -0 1 0 
1 -5.8499999999999517 0 0 1 
1 0 0 1 0 
1 -5.8499999999999517 16.100000000002169 1 0 
1 0 0 1 0 
1 49.150000000000048 16.100000000002169 0 -1 
1 0 0 1 0 
1 49.150000000000048 -1.7124079931818414e-12 -1 0 
1 0 -0 1 0 
2 41.102273902416364 -0.099999999997834266 1 0 -0 1 2.2000000000000028
1 0 0 1 0 
1 2.1977260975836899 2.1000000000021686 1 0 
1 0 0 1 0 
1 31.450000000000045 2.1000000000021686 0 1 
1 11.5 -2.55351295663786e-15 0 -1 
1 31.450000000000045 6.9000000000021657 -1 0 
1 11.5 28.499999999999996 0 -1 
1 2.950000000000049 2.1000000000021686 0 1 
1 0 0 0 -1 
1 2.1977260975836899 2.1000000000021686 1 0 
1 0 0 1 0 
2 2.1977260975836899 -0.099999999997834266 1 0 -0 1 2.1999999999999993
1 0 0 1 0 
1 5.8499999999999517 0 0 -1 
1 0 0 0 -1 
1 5.8499999999999517 -16.399110814157837 -1 0 
1 0 0 0 -1 
1 0 -0 0 -1 
1 3.0961224411737809 0 0 -1 
1 16.100000000002169 0 0 -1 
1 0 0 0 -1 
1 0 -18 1 0 
1 -5.8499999999999517 0 0 1 
1 4.1000000000000014 -18 0 1 
1 4.1000000000000014 -18 0 1 
1 4.1000000000000014 -13.4 -1 0 
1 4.1000000000000014 -13.4 -1 0 
1 2.1000000000000014 -13.4 -0.57357643635112388 -0.81915204428893729 
1 2.1000000000000014 -13.4 -0.57357643635112388 -0.81915204428893729 
1 55 0 0 -1 
1 0 0 0 -1 
1 0 -18 1 0 
1 -5.8499999999999517 16.100000000002169 1 0 
1 16.100000000003881 0 0 -1 
1 0 -0 0 -1 
1 14.000000000002167 -13.4 0.57357643635112388 -0.81915204428893729 
1 0 0 0.81915204428893729 0.57357643635112388 
1 12.000000000002167 -13.4 1 0 
1 0 -2 0 1 
1 12.000000000002167 -18 0 1 
1 4.5999999999999996 -2 -1 0 
1 0 -18 1 0 
1 49.150000000000048 16.100000000002169 0 -1 
1 5.8499999999999162 0 0 -1 
1 0.045470212415233323 0 0 -1 
1 55 -16.399110814157837 -1 0 
1 55 -16.399110814157837 -1 0 
1 1.5707963267948966 0 0 -1 
1 38.904547804832674 0 0 -1 
7 0 0  8 9 2  1.5707963267948983 -13.399999999996906  1.3801305617474404 -13.400000000595963  1.1894647977002251 -13.530536996473529  0.99879903364671918 -13.791610105567088  0.80813326960651466 -14.173099360996275  0.61746750555221297 -14.654747500666417  0.42680174150996208 -15.208167262910138  0.23613597746269219 -15.800672344313464  0.045470212415234253 -16.399110814160291 
 0 9 1.525326114379663 9
3 3.8355829503621193 -46.952273902416316 -1 0 -0 -1 3.8355829503658958 2.2000000000000002
1 0.75227390241635916 0 0 -1 
1 0 0 1 0 
1 0.75227390241635916 -11.5 1 0 
1 0 0 1 0 
1 29.252273902416356 -11.5 0 1 
1 0 0 1 0 
1 -8.0477260975836415 -13.4 1 0 
1 0 0 0 -1 
1 0 0 0 -1 
1 1.5707963267948966 0 0 -1 
1 0 0 0 -1 
1 28.499999999999996 0 0 -1 
1 7.1054273576010082e-16 -4.7999999999999972 1 0 
1 0 28.499999999999996 1 0 
1 0 0 0 1 
1 0 -4.7999999999999972 1 0 
1 11.5 0 -1 0 
1 -5.9164567891575885e-31 -4.7999999999999972 1 0 
2 6.2499999999999982 24.749999999999996 0 1 -1 0 1.25
1 0 0 1 0 
2 6.2499999999999982 3.75 0 1 -1 0 1.25
1 0 0 1 0 
1 11.5 2.55351295663786e-15 0 -1 
1 0 0 0 -1 
7 0 0  8 9 2  3.0961224411737831 -16.399110814157854  2.9054566761264224 -15.800672344311351  2.7147909120792519 -15.208167262942879  2.5241251480219944 -14.654747500542726  2.3334593839917943 -14.173099361200002  2.1427936199315809 -13.791610105487052  1.9521278558877384 -13.530536996515366  1.7614620918422574 -13.400000000595965  1.5707963267948966 -13.39999999999692 
 4.7578591928006997 9 6.2831853071795862 9
3 3.8355829503621193 -8.0477260975836415 -1 0 -0 -1 3.8355829503658958 2.2000000000000002
1 0 0 1 0 
1 0 -16.399110814157837 0 -1 
1 1.6008891858421634 0 0 -1 
1 -5.8499999999999517 0 1 0 
1 -16.399110814157837 -5.8499999999999517 1 0 
1 -16.399110814157837 -5.8499999999999517 1 0 
1 -5.8499999999999517 4.1000000000000014 1 0 
1 -5.8499999999999517 4.1000000000000014 1 0 
1 0 -18 1 0 
1 -5.8499999999999517 0 0 1 
1 2.9991108141578362 2.1000000000000014 1 0 
1 0 -16.399110814157837 0 -1 
1 4.5999999999999996 2.1000000000000014 0 -1 
1 49.150000000000048 0 0 1 
1 5.8499999999999162 0 0 -1 
1 -16.399110814157837 -49.150000000000084 1 0 
1 55 -18 -1 0 
1 -5.8499999999999517 0 1 0 
1 3.6612382708038114 0 0 -1 
1 0 0 0 -1 
1 0 0 0 -1 
1 6.2831853071795862 0 0 -1 
1 0 -9 1 0 
2 0 -1.25 0 1 1 -0 1.25
1 0 0 0 -1 
1 6.2831853071795862 0 0 -1 
1 0 -9 1 0 
2 0 -1.25 0 1 1 -0 1.25
2 41.102273902416364 -0.099999999997834266 1 0 -0 1 2.2000000000000028
2 -0.099999999997834266 -46.952273902416316 0 -1 1 0 2.2000000000000028
1 2.1977260975836899 2.1000000000021686 1 0 
1 2.1000000000021686 -8.0477260975836415 0 -1 
2 2.1977260975836899 -0.099999999997834266 1 0 -0 1 2.1999999999999993
2 -0.099999999997834266 -8.0477260975836415 0 -1 1 0 2.1999999999999993
1 1.6008891858421634 0 0 -1 
1 0 0 0 -1 
Curves 62
1 5.8499999999999517 34.199999999997829 0 -1 0 0 
1 0 34.199999999997829 0 0 1 0 
1 0 50.299999999999997 0 1 0 0 
1 55 50.299999999999997 0 0 -1 0 
1 55 34.199999999996116 0 -1 0 0 
2 46.952273902416316 34.099999999999994 0 0 0 1 1 0 -0 -0 1 0 2.2000000000000002
1 8.0477260975836415 36.299999999999997 0 1 0 0 
1 37.299999999999997 36.299999999999997 0 0 1 -2.2204460492503131e-16 
1 37.299999999999997 0 0 -1 0 0 
1 8.8000000000000007 36.299999999999997 0 0 1 -2.2204460492503131e-16 
1 8.0477260975836415 36.299999999999997 0 1 0 0 
2 8.0477260975836415 34.099999999999994 0 0 0 1 1 0 -0 -0 1 0 2.2000000000000002
1 0 34.199999999997829 0 0 0 1 
1 0 34.199999999997829 16.399110814157837 1 -0 -0 
1 5.8499999999999517 34.199999999997829 0 0 0 1 
1 0 50.299999999999997 0 0 0 1 
1 0 34.199999999997829 0 0 1 0 
1 -38.29999999999783 18 0 0 -1 0 
1 -38.29999999999783 13.4 0 1 0 0 
1 -36.29999999999783 13.4 0 0.57357643635112388 0.81915204428893729 0 
1 55 50.299999999999997 0 0 0 1 
1 0 50.299999999999997 0 1 0 0 
1 55 34.199999999996116 0 0 0 1 
1 -36.29999999999783 13.4 0 0.57357643635112388 0.81915204428893729 0 
1 -38.29999999999783 13.4 0 1 0 0 
1 -38.29999999999783 18 0 0 -1 0 
1 55 50.299999999999997 0 0 -1 0 
1 49.150000000000084 34.199999999996116 0 0 0 1 
1 0 34.199999999997829 16.399110814157837 1 -0 -0 
1 46.952273902416316 36.299999999999997 0 0 0 1 
3 46.952273902416316 34.099999999999994 16.541925614828923 -0 -0.81915204428893729 -0.57357643635112388 0 0.57357643635112388 -0.81915204428893729 1 -0 0 3.8355829503658958 2.2000000000000002
1 8.8000000000000007 0 0 0 1 0 
1 8.8000000000000007 11.5 0 1 0 0 
1 37.299999999999997 11.5 0 0 -1 0 
1 0 36.29999999999783 13.4 1 -0 -0 
1 8.0477260975836415 36.299999999999997 0 0 0 1 
1 37.299999999999997 36.299999999999997 11.5 0 1 -2.2204460492503131e-16 
1 37.299999999999997 11.5 0 0 -1 0 
1 8.8000000000000007 11.5 0 1 0 0 
1 8.8000000000000007 0 0 0 1 0 
2 33.549999999999997 5.25 0 0 0 1 1 0 -0 -0 1 0 1.25
2 12.550000000000001 5.25 0 0 0 1 1 0 -0 -0 1 0 1.25
1 8.8000000000000007 36.299999999999997 11.5 0 1 -2.2204460492503131e-16 
3 8.0477260975836415 34.099999999999994 16.541925614828923 -0 -0.81915204428893729 -0.57357643635112388 0 0.57357643635112388 -0.81915204428893729 1 -0 0 3.8355829503658958 2.2000000000000002
1 -34.199999999997829 16.399110814157837 0 0 1 0 
1 0 34.199999999997829 18 1 -0 -0 
1 5.8499999999999517 34.199999999997829 0 0 0 1 
1 0 38.29999999999783 18 1 -0 -0 
1 -34.199999999997829 18 0 -1 0 0 
1 -34.199999999997829 16.399110814157837 0 0 1 0 
1 -34.199999999997829 18 0 -1 0 0 
1 49.150000000000084 34.199999999996116 0 0 0 1 
1 0 34.199999999997829 18 1 -0 -0 
1 0 34.199999999997829 16.399110814157837 1 -0 -0 
1 34.799999999999997 41.099999999999994 5.25 0 1 -2.2204460492503131e-16 
2 33.549999999999997 5.25 0 0 0 1 1 0 -0 -0 1 0 1.25
1 13.800000000000001 41.099999999999994 5.25 0 1 -2.2204460492503131e-16 
2 12.550000000000001 5.25 0 0 0 1 1 0 -0 -0 1 0 1.25
2 46.952273902416316 34.099999999999994 0 0 0 1 1 0 -0 -0 1 0 2.2000000000000002
1 8.0477260975836415 36.299999999999997 0 1 0 0 
2 8.0477260975836415 34.099999999999994 0 0 0 1 1 0 -0 -0 1 0 2.2000000000000002
1 0 34.199999999997829 18 1 -0 -0 
Polygon3D 0
PolygonOnTriangulations 0
Surfaces 26
1 5.8499999999999517 34.199999999997829 0 0 0 1 1 0 -0 -0 1 0 
1 5.8499999999999517 34.199999999997829 0 0 -1 0 -1 0 0 -0 -0 -1 
1 0 34.199999999997829 0 -1 0 0 0 1 0 0 0 -1 
1 0 50.299999999999997 0 0 1 0 1 0 0 0 0 -1 
1 55 50.299999999999997 0 1 0 -0 0 -1 0 0 -0 -1 
1 55 34.199999999996116 0 0 -1 0 -1 0 0 -0 -0 -1 
2 46.952273902416316 34.099999999999994 0 -0 -0 -1 1 0 0 -0 1 -0 2.2000000000000002
1 8.0477260975836415 36.299999999999997 0 0 1 0 1 0 0 0 0 -1 
1 37.299999999999997 36.299999999999997 11.5 -1 0 -0 0 -2.2204460492503131e-16 -1 -0 -1 2.2204460492503131e-16 
1 8.8000000000000007 36.299999999999997 11.5 0 -1 0 0 -0 -1 1 0 0 
1 8.8000000000000007 36.299999999999997 0 1 -0 0 0 2.2204460492503131e-16 1 -0 -1 2.2204460492503131e-16 
2 8.0477260975836415 34.099999999999994 0 -0 -0 -1 1 0 0 -0 1 -0 2.2000000000000002
1 0 34.199999999997829 16.399110814157837 0 -1 0 0 0 1 -1 0 0 
1 5.8499999999999517 34.199999999997829 0 0 0 1 1 0 -0 -0 1 0 
1 0 34.199999999997829 0 -1 0 0 0 1 0 0 0 -1 
1 0 36.29999999999783 13.4 1 0 0 -0 0 1 0 -1 0 
1 55 34.199999999996116 0 0 -1 0 -1 0 0 -0 -0 -1 
1 0 36.29999999999783 13.4 -0 -0.81915204428893729 -0.57357643635112388 0 -0.57357643635112388 0.81915204428893729 -1 0 0 
1 8.8000000000000007 36.299999999999997 11.5 0 -2.2204460492503131e-16 -1 1 0 0 0 -1 2.2204460492503131e-16 
2 33.549999999999997 41.099999999999994 5.25 0 -1 2.2204460492503131e-16 1 0 0 -0 2.2204460492503131e-16 1 1.25
2 12.550000000000001 41.099999999999994 5.25 0 -1 2.2204460492503131e-16 1 0 0 -0 2.2204460492503131e-16 1 1.25
1 5.8499999999999517 34.199999999997829 0 0 0 1 1 0 -0 -0 1 0 
1 0 34.199999999997829 16.399110814157837 0 -1 0 0 0 1 -1 0 0 
1 34.799999999999997 41.099999999999994 5.25 0 1 0 0 -0 1 1 0 -0 
1 13.800000000000001 41.099999999999994 5.25 0 1 0 0 -0 1 1 0 -0 
1 0 34.199999999997829 18 0 -0 1 0 1 0 -1 0 0 
Triangulations 0

TShapes 158
Ve
1.00001000304068e-07
5.84999999999995 34.1999999999978 0
0 0

0101101
*
Ve
1e-07
0 34.1999999999978 0
0 0

0101101
*
Ed
 1e-07 1 1 0
1  1 0 0 5.84999999999995
2  1 1 13 0 5.84999999999995
2  2 2 14 0 5.84999999999995
0

0101000
+158 15 -157 15 *
Ve
1e-07
0 50.3 0
0 0

0101101
*
Ed
 1e-07 1 1 0
1  2 0 0 16.1000000000022
2  3 1 13 0 16.1000000000022
2  4 3 14 0 16.1000000000022
0

0101000
+157 15 -155 15 *
Ve
1e-07
55 50.3 0
0 0

0101101
*
Ed
 1e-07 1 1 0
1  3 0 0 55
2  5 1 13 0 55
2  6 4 14 0 55
0

0101000
+155 15 -153 15 *
Ve
1e-07
55 34.1999999999961 0
0 0

0101101
*
Ed
 1e-07 1 1 0
1  4 0 0 16.1000000000039
2  7 1 13 0 16.1000000000039
2  8 5 14 0 16.1000000000039
0

0101000
+153 15 -151 15 *
Ve
1e-07
49.1500000000001 34.1999999999961 0
0 0

0101101
*
Ed
 1e-07 1 1 0
1  5 0 0 5.84999999999992
2  9 1 13 0 5.84999999999992
2  10 6 14 0 5.84999999999992
0

0101000
+151 15 -149 15 *
Ve
1e-07
46.9522739024163 36.3 0
0 0

0101101
*
Ed
 1e-07 1 1 0
1  6 0 0.0454702124152333 1.5707963267949
2  11 1 13 0.0454702124152333 1.5707963267949
2  12 7 14 0.0454702124152333 1.5707963267949
0

0101000
+149 15 -147 15 *
Ve
1e-07
37.3 36.3 0
0 0

0101101
*
Ed
 1e-07 1 1 0
1  7 0 29.2522739024164 38.9045478048327
2  13 1 13 29.2522739024164 38.9045478048327
2  14 8 14 29.2522739024164 38.9045478048327
0

0101000
+145 15 -147 15 *
Ve
1e-07
37.3 41.1 -1.06581410364015e-15
0 0

0101101
*
Ed
 1e-07 1 1 0
1  8 0 0 4.8
2  15 1 10 0 4.8
2  16 9 0 0 4.8
0

0101000
+145 16 -143 16 *
Ve
1e-07
8.8 41.1 -1.06581410364015e-15
0 0

0101101
*
Ed
 1e-07 1 1 0
1  9 0 0 28.5
2  17 1 20 0 28.5
2  18 10 21 0 28.5
0

0101000
+143 22 -141 22 *
Ve
1e-07
8.8 36.3 0
0 0

0101101
*
Ed
 1e-07 1 1 0
1  10 0 0 4.8
2  19 1 10 0 4.8
2  20 11 0 0 4.8
0

0101000
+139 16 -141 16 *
Ve
1e-07
8.04772609758364 36.3 0
0 0

0101101
*
Ed
 1e-07 1 1 0
1  11 0 0 0.752273902416359
2  21 1 13 0 0.752273902416359
2  22 8 14 0 0.752273902416359
0

0101000
+137 15 -139 15 *
Ed
 1e-07 1 1 0
1  12 0 1.5707963267949 3.09612244117378
2  23 1 13 1.5707963267949 3.09612244117378
2  24 12 14 1.5707963267949 3.09612244117378
0

0101000
+137 15 -158 15 *
Wi

0101000
-156 12 -154 12 -152 12 -150 12 -148 12 -146 12 +144 12 -142 0 -140 19 +138 0 
+136 12 -135 12 *
Fa
0  1e-07 1 10

0101000
+134 0 *
Ve
1e-07
0 34.1999999999978 16.3991108141578
0 0

0101101
*
Ed
 1e-07 1 1 0
1  13 0 0 16.3991108141578
2  25 2 0 0 16.3991108141578
2  26 3 0 0 16.3991108141578
0

0101000
+157 26 -132 26 *
Ve
1.00001000280431e-07
5.84999999999995 34.1999999999978 16.3991108141578
0 0

0101101
*
Ed
 1e-07 1 1 0
1  14 0 0 5.84999999999995
2  27 2 24 0 5.84999999999995
2  28 13 0 0 5.84999999999995
0

0101000
+132 27 -130 27 *
Ed
 1e-07 1 1 0
1  15 0 0 16.3991108141578
2  29 2 0 0 16.3991108141578
2  30 12 0 0 16.3991108141578
0

0101000
+158 26 -130 26 *
Wi

0101000
-156 25 -131 24 -129 0 +128 24 *
Fa
0  1e-07 2 24

0101000
+127 0 *
Ve
1e-07
0 50.3 18
0 0

0101101
*
Ed
 1e-07 1 1 0
1  16 0 0 18
2  31 3 0 0 18
2  32 4 0 0 18
0

0101000
+155 26 -125 26 *
Ve
1e-07
0 38.2999999999978 18
0 0

0101101
*
Ed
 1e-07 1 1 0
1  17 0 4.1 16.1000000000022
2  33 3 30 4.1 16.1000000000022
2  34 14 13 4.1 16.1000000000022
0

0101000
+123 31 -125 31 *
Ve
1e-07
0 38.2999999999978 13.4
0 0

0101101
*
Ed
 1e-07 1 1 0
1  18 0 0 4.6
2  35 3 34 0 4.6
2  36 15 34 0 4.6
0

0101000
+123 35 -121 35 *
Ve
1e-07
0 36.2999999999978 13.4
0 0

0101101
*
Ed
 1e-07 1 1 0
1  19 0 0 2
2  37 3 34 0 2
2  38 15 34 0 2
0

0101000
+121 35 -119 35 *
Ed
 1e-07 1 1 0
1  20 0 0 3.66123827080381
2  39 3 34 0 3.66123827080381
2  40 15 34 0 3.66123827080381
0

0101000
+119 35 -132 35 *
Wi

0101000
-154 25 -124 24 +122 29 -120 33 -118 33 -117 33 +131 24 *
Fa
0  1e-07 3 24

0101000
+116 0 *
Ve
1e-07
55 50.3 18
0 0

0101101
*
Ed
 1e-07 1 1 0
1  21 0 0 18
2  41 4 0 0 18
2  42 5 0 0 18
0

0101000
+153 26 -114 26 *
Ed
 1e-07 1 1 0
1  22 0 0 55
2  43 4 30 0 55
2  44 14 13 0 55
0

0101000
+125 31 -114 31 *
Wi

0101000
+124 0 -113 0 -152 37 +112 38 *
Fa
0  1e-07 4 0

0101000
+111 0 *
Ve
1e-07
55 34.1999999999978 16.3991108141578
0 0

0101101
*
Ed
 1e-07 1 1 0
1  23 0 0 16.3991108141578
2  45 5 0 0 16.3991108141578
2  46 6 0 0 16.3991108141578
0

0101000
+151 26 -109 26 *
Ve
1e-07
55 36.2999999999978 13.4
0 0

0101101
*
Ed
 1e-07 1 1 0
1  24 0 0 3.66123827080381
2  47 5 41 0 3.66123827080381
2  48 16 42 0 3.66123827080381
0

0101000
+107 43 -109 43 *
Ve
1e-07
55 38.2999999999978 13.4
0 0

0101101
*
Ed
 1e-07 1 1 0
1  25 0 0 2
2  49 5 41 0 2
2  50 16 42 0 2
0

0101000
+105 43 -107 43 *
Ve
1e-07
55 38.2999999999978 18
0 0

0101101
*
Ed
 1e-07 1 1 0
1  26 0 0 4.6
2  51 5 41 0 4.6
2  52 16 42 0 4.6
0

0101000
+103 43 -105 43 *
Ed
 1e-07 1 1 0
1  27 0 0 12.0000000000022
2  53 5 30 0 12.0000000000022
2  54 14 13 0 12.0000000000022
0

0101000
+114 31 -103 31 *
Wi

0101000
-150 25 -108 24 +106 40 +104 40 +102 40 +101 29 +113 24 *
Fa
0  1e-07 5 24

0101000
+100 0 *
Ve
1.00000856203997e-07
49.1500000000001 34.199999999997 16.3991108141578
0 0

0101101
*
Ed
 1e-07 1 1 0
1  28 0 0 16.3991108141578
2  55 6 0 0 16.3991108141578
2  56 7 0 0 16.3991108141578
0

0101000
+149 26 -98 26 *
Ed
 1e-07 1 1 0
1  29 0 49.1500000000001 55
2  57 6 24 49.1500000000001 55
2  58 17 24 49.1500000000001 55
0

0101000
+98 27 -109 27 *
Wi

0101000
-148 25 -97 24 -96 0 +108 24 *
Fa
0  1e-07 6 24

0101000
+95 0 *
Ve
3.09025897662363e-06
46.9522739024163 36.2999999999989 13.4
0 0

0101101
*
Ed
 1e-07 1 1 0
1  30 0 0 13.4
2  59 7 0 0 13.4
2  60 8 0 0 13.4
4 G1 7 0 8 0
0

0101000
+147 26 -93 26 *
Ed
 1e-07 1 1 0
1  31 0 0 1.52532611437966
2  61 7 24 0 1.52532611437966
2  62 18 0 0 1.52532611437966
0

0101000
+93 27 -98 27 *
Wi

0101000
-146 25 -92 24 -91 0 +97 24 *
Fa
0  1e-07 7 24

0101000
+90 0 *
Ve
1e-07
8.8 36.3 11.5
0 0

0101101
*
Ed
 1e-07 1 1 0
1  32 0 0 11.5
2  63 8 46 0 11.5
2  64 11 47 0 11.5
0

0101000
+139 48 -88 48 *
Ve
1e-07
37.3 36.3 11.5
0 0

0101101
*
Ed
 1e-07 1 1 0
1  33 0 0 28.5
2  65 8 46 0 28.5
2  66 19 47 0 28.5
0

0101000
+88 48 -86 48 *
Ed
 1e-07 1 1 0
1  34 0 0 11.5
2  67 8 46 0 11.5
2  68 9 47 0 11.5
0

0101000
+86 48 -145 48 *
Ve
3.06254309903064e-06
8.04772609758364 36.2999999999989 13.4
0 0

0101101
*
Ed
 1e-07 1 1 0
1  35 0 8.04772609758364 46.9522739024163
2  69 8 24 8.04772609758364 46.9522739024163
2  70 18 0 8.04772609758364 46.9522739024163
0

0101000
+83 27 -93 27 *
Ed
 1e-07 1 1 0
1  36 0 0 13.4
2  71 8 0 0 13.4
2  72 12 0 0 13.4
4 G1 8 0 12 0
0

0101000
+137 26 -83 26 *
Wi

0101000
-136 12 -87 45 -85 45 -84 45 -144 12 -92 44 +82 49 +81 44 *
Fa
0  1e-07 8 44

0101000
+80 0 *
Ve
1e-07
37.3 41.1 11.5
0 0

0101101
*
Ed
 1e-07 1 1 0
1  37 0 0 4.8
2  73 9 0 0 4.8
2  74 19 0 0 4.8
0

0101000
+86 16 -78 16 *
Ed
 1e-07 1 1 0
1  38 0 0 11.5
2  75 9 50 0 11.5
2  76 10 21 0 11.5
0

0101000
+78 22 -143 22 *
Wi

0101000
+77 0 -84 45 +76 19 -142 0 *
Fa
0  1e-07 9 0

0101000
+75 0 *
Ve
1e-07
8.8 41.1 11.5
0 0

0101101
*
Ed
 1e-07 1 1 0
1  39 0 0 28.5
2  77 10 21 0 28.5
2  78 19 50 0 28.5
0

0101000
+73 22 -78 22 *
Ed
 1e-07 1 1 0
1  40 0 0 11.5
2  79 10 21 0 11.5
2  80 11 50 0 11.5
0

0101000
+141 22 -73 22 *
Wi

0101000
-72 52 -71 52 -76 52 -140 52 *
Ve
1e-07
34.8 41.1 5.25
0 0

0101101
*
Ed
 1e-07 1 1 0
1  41 0 0 6.28318530717959
2  81 10 55 0 6.28318530717959
2  82 20 56 0 6.28318530717959
0

0101100
+69 57 -69 57 *
Wi

0101000
-68 54 *
Ve
1e-07
13.8 41.1 5.25
0 0

0101101
*
Ed
 1e-07 1 1 0
1  42 0 0 6.28318530717959
2  83 10 55 0 6.28318530717959
2  84 21 56 0 6.28318530717959
0

0101100
+66 57 -66 57 *
Wi

0101000
-65 54 *
Fa
0  1e-07 10 51

0101000
+70 0 +67 0 +64 0 *
Ed
 1e-07 1 1 0
1  43 0 0 4.8
2  85 11 0 0 4.8
2  86 19 0 0 4.8
0

0101000
+88 16 -73 16 *
Wi

0101000
+138 0 -87 45 +71 19 -62 0 *
Fa
0  1e-07 11 0

0101000
+61 0 *
Ed
 1e-07 1 1 0
1  44 0 4.7578591928007 6.28318530717959
2  87 12 24 4.7578591928007 6.28318530717959
2  88 18 0 4.7578591928007 6.28318530717959
0

0101000
+130 27 -83 27 *
Wi

0101000
-135 25 -128 24 -59 0 +81 24 *
Fa
0  1e-07 12 24

0101000
+58 0 *
Ve
1.00000014210855e-07
0 34.1999999999978 18
0 0

0101101
*
Ed
 1e-07 1 1 0
1  45 0 0 1.60088918584216
2  89 13 58 0 1.60088918584216
2  90 15 34 0 1.60088918584216
0

0101000
+132 35 -56 35 *
Ve
1.00001000304068e-07
5.84999999999995 34.1999999999978 18
0 0

0101101
*
Ed
 1e-07 1 1 0
1  46 0 0 5.84999999999995
2  91 13 0 0 5.84999999999995
2  92 22 59 0 5.84999999999995
0

0101000
+56 27 -54 27 *
Ed
 1e-07 1 1 0
1  47 0 16.3991108141578 18
2  93 13 60 16.3991108141578 18
2  94 23 60 16.3991108141578 18
0

0101000
+130 26 -54 26 *
Wi

0101000
-55 33 -53 0 +52 24 +129 0 *
Fa
0  1e-07 13 0

0101000
+51 0 *
Ed
 1e-07 1 1 0
1  48 0 0 55
2  95 14 59 0 55
2  96 22 59 0 55
0

0101000
+123 27 -103 27 *
Wi

0101000
-122 29 -112 29 -101 29 +49 0 *
Fa
0  1e-07 14 59

0101000
+48 0 *
Ed
 1e-07 1 1 0
1  49 0 0 4.1
2  97 15 34 0 4.1
2  98 22 61 0 4.1
0

0101000
+56 35 -123 35 *
Wi

0101000
+117 33 +118 33 +120 33 +46 33 +55 33 *
Fa
0  1e-07 15 24

0101000
+45 0 *
Ve
1.00000866862138e-07
55 34.199999999997 18
0 0

0101101
*
Ed
 1e-07 1 1 0
1  50 0 0 1.60088918584216
2  99 16 42 0 1.60088918584216
2  100 17 41 0 1.60088918584216
0

0101000
+109 43 -43 43 *
Ed
 1e-07 1 1 0
1  51 0 0 4.1
2  101 16 42 0 4.1
2  102 22 63 0 4.1
0

0101000
+43 43 -103 43 *
Wi

0101000
-106 40 -104 40 -42 40 -102 40 -41 40 *
Fa
0  1e-07 16 62

0101000
+40 0 *
Ve
1e-07
49.1500000000001 34.1999999999961 18
0 0

0101101
*
Ed
 1e-07 1 1 0
1  52 0 16.3991108141578 18
2  103 17 0 16.3991108141578 18
2  104 23 60 16.3991108141578 18
0

0101000
+98 26 -38 26 *
Ed
 1e-07 1 1 0
1  53 0 49.1500000000001 55
2  105 17 24 49.1500000000001 55
2  106 22 59 49.1500000000001 55
0

0101000
+38 27 -43 27 *
Wi

0101000
+96 0 -37 24 -36 0 +42 40 *
Fa
0  1e-07 17 24

0101000
+35 0 *
Ed
 1e-07 1 1 0
1  54 0 5.84999999999995 49.1500000000001
2  107 18 0 5.84999999999995 49.1500000000001
2  108 23 0 5.84999999999995 49.1500000000001
0

0101000
+130 27 -98 27 *
Wi

0101000
+59 0 -33 0 +91 0 +82 0 *
Fa
0  1e-07 18 0

0101000
+32 0 *
Wi

0101000
+62 0 -85 45 +72 19 -77 0 *
Fa
0  1e-07 19 0

0101000
+30 0 *
Ve
1e-07
34.8 50.1 5.25
0 0

0101101
*
Ed
 1e-07 1 1 0
1  55 0 0 9
3  109 110CN 20 0 0 9
0

0101000
+69 64 -28 64 *
Ed
 1e-07 1 1 0
1  56 0 0 6.28318530717959
2  111 20 67 0 6.28318530717959
2  112 24 68 0 6.28318530717959
0

0101100
+28 69 -28 69 *
Wi

0101000
-68 54 -27 0 +26 66 +27 0 *
Fa
0  1e-07 20 0

0101000
+25 0 *
Ve
1e-07
13.8 50.1 5.25
0 0

0101101
*
Ed
 1e-07 1 1 0
1  57 0 0 9
3  113 114CN 21 0 0 9
0

0101000
+66 64 -23 64 *
Ed
 1e-07 1 1 0
1  58 0 0 6.28318530717959
2  115 21 67 0 6.28318530717959
2  116 25 68 0 6.28318530717959
0

0101100
+23 69 -23 69 *
Wi

0101000
-65 54 -22 0 +21 66 +22 0 *
Fa
0  1e-07 21 0

0101000
+20 0 *
Ve
1e-07
46.9522739024163 36.3 18
0 0

0101101
*
Ed
 1e-07 1 1 0
1  59 0 0.0454702124152333 1.5707963267949
2  117 22 13 0.0454702124152333 1.5707963267949
2  118 26 70 0.0454702124152333 1.5707963267949
0

0101000
+38 31 -18 31 *
Ve
1e-07
8.04772609758364 36.3 18
0 0

0101101
*
Ed
 1e-07 1 1 0
1  60 0 0 38.9045478048327
2  119 22 13 0 38.9045478048327
2  120 26 70 0 38.9045478048327
0

0101000
+16 31 -18 31 *
Ed
 1e-07 1 1 0
1  61 0 1.5707963267949 3.09612244117378
2  121 22 13 1.5707963267949 3.09612244117378
2  122 26 70 1.5707963267949 3.09612244117378
0

0101000
+16 31 -54 31 *
Wi

0101000
-46 33 -49 0 +41 40 +36 0 -17 29 +15 29 -14 29 +53 0 *
Fa
0  1e-07 22 59

0101000
+13 0 *
Ed
 1e-07 1 1 0
1  62 0 5.84999999999995 49.1500000000001
2  123 23 0 5.84999999999995 49.1500000000001
2  124 26 0 5.84999999999995 49.1500000000001
0

0101000
+54 27 -38 27 *
Wi

0101000
-52 24 -11 0 +37 24 +33 0 *
Fa
0  1e-07 23 0

0101000
+10 0 *
Wi

0101100
+26 0 *
Fa
0  1e-07 24 0

0101000
-8 53 *
Wi

0101100
+21 0 *
Fa
0  1e-07 25 0

0101000
-6 53 *
Wi

0101000
+14 29 -15 29 +17 29 +11 0 *
Fa
0  1e-07 26 0

0101000
+4 0 *
Sh

0101100
-133 4 +126 23 +115 23 +110 36 +99 23 +94 23 +89 23 -79 4 +74 4 +63 0 
+60 4 +57 23 +50 23 +47 23 +44 23 +39 23 +34 23 +31 23 +29 4 -24 0 
-19 0 +12 23 +9 23 -7 71 -5 71 +3 23 *
So

0100000
+2 0 *

+1 1 