DBRep_DrawableShape

CASCADE Topology V1, (c) Matra-Datavision
Locations 53
1
              1               0               0               0 
              0               1               0               0 
              0               0               1               0 
1
              1               0               0               0 
              0               1               0               0 
              0               0               1               0 
1
              1               0               0               0 
              0               1               0               0 
              0               0               1               0 
1
              1               0               0               0 
              0               1               0               0 
              0               0               1               0 
1
              1               0               0               0 
              0               1               0               0 
              0               0               1               0 
1
              1               0               0               0 
              0               1               0               0 
              0               0               1               0 
2  2 -1 3 1 4 -1 5 1 6 -1 0
1
              1               0               0               0 
              0               1               0               0 
              0               0               1               0 
2  8 1 2 -1 3 1 4 -1 5 1 6 -1 0
2  8 -1 0
2  2 1 8 -1 0
2  1 -1 6 1 5 -1 4 1 3 -1 2 1 8 -1 0
2  1 -1 0
1
              1              -0               0              -0 
              0 2.22044604925031e-16              -1            36.3 
              0               1 2.22044604925031e-16               0 
1
              1               0               0               0 
              0               1               0             4.8 
              0               0               1 -1.06581410364015e-15 
2  14 1 6 -1 15 1 0
2  2 -1 3 1 4 -1 5 1 6 -1 15 -1 6 1 14 -1 0
2  14 -1 0
2  1 -1 15 -1 6 1 14 -1 0
2  5 1 6 -1 0
2  3 1 4 -1 0
2  8 1 2 -1 3 1 4 -1 0
2  1 -1 6 1 5 -1 4 1 3 -1 0
2  1 -1 6 1 5 -1 0
1
              1               0               0               0 
              0               1               0               0 
              0               0               1              18 
2  8 1 2 -1 25 1 3 1 4 -1 0
2  25 -1 2 1 8 -1 0
2  1 -1 6 1 5 -1 4 1 3 -1 25 -1 2 1 8 -1 0
1
              0               0              -1              -0 
             -1               0               0              -0 
              0               1               0               0 
2  29 1 4 -1 0
2  3 1 29 -1 0
2  1 -1 6 1 5 -1 4 1 29 -1 0
2  3 1 4 -1 5 1 6 -1 0
2  8 1 2 -1 0
2  8 1 2 -1 25 1 0
1
              1               0               0              55 
              0               1               0              -0 
              0               0               1              -0 
2  29 1 4 -1 36 1 0
2  3 1 4 -1 36 -1 4 1 29 -1 0
2  29 -1 0
2  1 -1 6 1 5 -1 36 -1 4 1 29 -1 0
2  14 1 6 -1 0
2  3 1 4 -1 5 1 14 -1 0
2  6 1 14 -1 0
2  1 -1 6 1 14 -1 0
2  15 -1 6 1 14 -1 0
2  6 -1 15 1 0
2  4 1 29 -1 0
2  2 -1 25 1 3 1 4 -1 0
2  4 1 3 -1 0
2  2 -1 25 1 3 1 29 -1 0
2  4 -1 36 1 0
2  2 -1 25 1 3 1 4 -1 36 -1 4 1 29 -1 0
2  4 1 3 -1 25 -1 2 1 8 -1 0
Curve2ds 112
1 0 0 -1 0 
1 0 -0 1 0 
1 -5.8499999999999517 0 0 1 
1 0 0 1 0 
1 -5.8499999999999517 16.100000000002169 1 0 
1 0 0 1 0 
1 49.150000000000048 16.100000000002169 0 -1 
1 0 0 1 0 
1 49.150000000000048 -1.7124079931818414e-12 -1 0 
1 0 -0 1 0 
2 41.102273902416364 -0.099999999997834266 1 0 -0 1 2.2000000000000028
1 0 0 1 0 
1 2.1977260975836899 2.1000000000021686 1 0 
1 0 0 1 0 
1 31.450000000000045 2.1000000000021686 0 1 
1 11.5 -2.55351295663786e-15 0 -1 
1 31.450000000000045 6.9000000000021657 -1 0 
1 11.5 28.499999999999996 0 -1 
1 2.950000000000049 2.1000000000021686 0 1 
1 0 0 0 -1 
1 2.1977260975836899 2.1000000000021686 1 0 
1 0 0 1 0 
2 2.1977260975836899 -0.099999999997834266 1 0 -0 1 2.1999999999999993
1 0 0 1 0 
1 5.8499999999999517 0 0 -1 
1 0 0 0 -1 
1 5.8499999999999517 -16.399110814157837 -1 0 
1 0 0 0 -1 
1 0 -0 0 -1 
1 3.0961224411737809 0 0 -1 
1 16.100000000002169 0 0 -1 
1 0 0 0 -1 
1 0 -18 1 0 
1 -5.8499999999999517 0 0 1 
1 4.1000000000000014 -18 0 1 
1 4.1000000000000014 -18 0 1 
1 4.1000000000000014 -13.4 -1 0 
1 4.1000000000000014 -13.4 -1 0 
1 2.1000000000000014 -13.4 -0.57357643635112388 -0.81915204428893729 
1 2.1000000000000014 -13.4 -0.57357643635112388 -0.81915204428893729 
1 55 0 0 -1 
1 0 0 0 -1 
1 0 -18 1 0 
1 -5.8499999999999517 16.100000000002169 1 0 
1 16.100000000003881 0 0 -1 
1 0 -0 0 -1 
1 14.000000000002167 -13.4 0.57357643635112388 -0.81915204428893729 
1 0 0 0.81915204428893729 0.57357643635112388 
1 12.000000000002167 -13.4 1 0 
1 0 -2 0 1 
1 12.000000000002167 -18 0 1 
1 4.5999999999999996 -2 -1 0 
1 0 -18 1 0 
1 49.150000000000048 16.100000000002169 0 -1 
1 5.8499999999999162 0 0 -1 
1 0.045470212415233323 0 0 -1 
1 55 -16.399110814157837 -1 0 
1 55 -16.399110814157837 -1 0 
1 1.5707963267948966 0 0 -1 
1 38.904547804832674 0 0 -1 
7 0 0  8 9 2  1.5707963267948983 -13.399999999996906  1.3801305617474404 -13.400000000595963  1.1894647977002251 -13.530536996473529  0.99879903364671918 -13.791610105567088  0.80813326960651466 -14.173099360996275  0.61746750555221297 -14.654747500666417  0.42680174150996208 -15.208167262910138  0.23613597746269219 -15.800672344313464  0.045470212415234253 -16.399110814160291 
 0 9 1.525326114379663 9
3 3.8355829503621193 -46.952273902416316 -1 0 -0 -1 3.8355829503658958 2.2000000000000002
1 0.75227390241635916 0 0 -1 
1 0 0 1 0 
1 0.75227390241635916 -11.5 1 0 
1 0 0 1 0 
1 29.252273902416356 -11.5 0 1 
1 0 0 1 0 
1 -8.0477260975836415 -13.4 1 0 
1 0 0 0 -1 
1 0 0 0 -1 
1 1.5707963267948966 0 0 -1 
1 0 0 0 -1 
1 28.499999999999996 0 0 -1 
1 7.1054273576010082e-16 -4.7999999999999972 1 0 
1 0 28.499999999999996 1 0 
1 0 0 0 1 
1 0 -4.7999999999999972 1 0 
1 11.5 0 -1 0 
1 -5.9164567891575885e-31 -4.7999999999999972 1 0 
1 11.5 2.55351295663786e-15 0 -1 
1 0 0 0 -1 
7 0 0  8 9 2  3.0961224411737831 -16.399110814157854  2.9054566761264224 -15.800672344311351  2.7147909120792519 -15.208167262942879  2.5241251480219944 -14.654747500542726  2.3334593839917943 -14.173099361200002  2.1427936199315809 -13.791610105487052  1.9521278558877384 -13.530536996515366  1.7614620918422574 -13.400000000595965  1.5707963267948966 -13.39999999999692 
 4.7578591928006997 9 6.2831853071795862 9
3 3.8355829503621193 -8.0477260975836415 -1 0 -0 -1 3.8355829503658958 2.2000000000000002
1 0 0 1 0 
1 0 -16.399110814157837 0 -1 
1 1.6008891858421634 0 0 -1 
1 -5.8499999999999517 0 1 0 
1 -16.399110814157837 -5.8499999999999517 1 0 
1 -16.399110814157837 -5.8499999999999517 1 0 
1 -5.8499999999999517 4.1000000000000014 1 0 
1 -5.8499999999999517 4.1000000000000014 1 0 
1 0 -18 1 0 
1 -5.8499999999999517 0 0 1 
1 2.9991108141578362 2.1000000000000014 1 0 
1 0 -16.399110814157837 0 -1 
1 4.5999999999999996 2.1000000000000014 0 -1 
1 49.150000000000048 0 0 1 
1 5.8499999999999162 0 0 -1 
1 -16.399110814157837 -49.150000000000084 1 0 
1 55 -18 -1 0 
1 -5.8499999999999517 0 1 0 
1 3.6612382708038114 0 0 -1 
1 0 0 0 -1 
2 41.102273902416364 -0.099999999997834266 1 0 -0 1 2.2000000000000028
2 -0.099999999997834266 -46.952273902416316 0 -1 1 0 2.2000000000000028
1 2.1977260975836899 2.1000000000021686 1 0 
1 2.1000000000021686 -8.0477260975836415 0 -1 
2 2.1977260975836899 -0.099999999997834266 1 0 -0 1 2.1999999999999993
2 -0.099999999997834266 -8.0477260975836415 0 -1 1 0 2.1999999999999993
1 1.6008891858421634 0 0 -1 
1 0 0 0 -1 
Curves 56
1 5.8499999999999517 34.199999999997829 0 -1 0 0 
1 0 34.199999999997829 0 0 1 0 
1 0 50.299999999999997 0 1 0 0 
1 55 50.299999999999997 0 0 -1 0 
1 55 34.199999999996116 0 -1 0 0 
2 46.952273902416316 34.099999999999994 0 0 0 1 1 0 -0 -0 1 0 2.2000000000000002
1 8.0477260975836415 36.299999999999997 0 1 0 0 
1 37.299999999999997 36.299999999999997 0 0 1 -2.2204460492503131e-16 
1 37.299999999999997 0 0 -1 0 0 
1 8.8000000000000007 36.299999999999997 0 0 1 -2.2204460492503131e-16 
1 8.0477260975836415 36.299999999999997 0 1 0 0 
2 8.0477260975836415 34.099999999999994 0 0 0 1 1 0 -0 -0 1 0 2.2000000000000002
1 0 34.199999999997829 0 0 0 1 
1 0 34.199999999997829 16.399110814157837 1 -0 -0 
1 5.8499999999999517 34.199999999997829 0 0 0 1 
1 0 50.299999999999997 0 0 0 1 
1 0 34.199999999997829 0 0 1 0 
1 -38.29999999999783 18 0 0 -1 0 
1 -38.29999999999783 13.4 0 1 0 0 
1 -36.29999999999783 13.4 0 0.57357643635112388 0.81915204428893729 0 
1 55 50.299999999999997 0 0 0 1 
1 0 50.299999999999997 0 1 0 0 
1 55 34.199999999996116 0 0 0 1 
1 -36.29999999999783 13.4 0 0.57357643635112388 0.81915204428893729 0 
1 -38.29999999999783 13.4 0 1 0 0 
1 -38.29999999999783 18 0 0 -1 0 
1 55 50.299999999999997 0 0 -1 0 
1 49.150000000000084 34.199999999996116 0 0 0 1 
1 0 34.199999999997829 16.399110814157837 1 -0 -0 
1 46.952273902416316 36.299999999999997 0 0 0 1 
3 46.952273902416316 34.099999999999994 16.541925614828923 -0 -0.81915204428893729 -0.57357643635112388 0 0.57357643635112388 -0.81915204428893729 1 -0 0 3.8355829503658958 2.2000000000000002
1 8.8000000000000007 0 0 0 1 0 
1 8.8000000000000007 11.5 0 1 0 0 
1 37.299999999999997 11.5 0 0 -1 0 
1 0 36.29999999999783 13.4 1 -0 -0 
1 8.0477260975836415 36.299999999999997 0 0 0 1 
1 37.299999999999997 36.299999999999997 11.5 0 1 -2.2204460492503131e-16 
1 37.299999999999997 11.5 0 0 -1 0 
1 8.8000000000000007 11.5 0 1 0 0 
1 8.8000000000000007 0 0 0 1 0 
1 8.8000000000000007 36.299999999999997 11.5 0 1 -2.2204460492503131e-16 
3 8.0477260975836415 34.099999999999994 16.541925614828923 -0 -0.81915204428893729 -0.57357643635112388 0 0.57357643635112388 -0.81915204428893729 1 -0 0 3.8355829503658958 2.2000000000000002
1 -34.199999999997829 16.399110814157837 0 0 1 0 
1 0 34.199999999997829 18 1 -0 -0 
1 5.8499999999999517 34.199999999997829 0 0 0 1 
1 0 38.29999999999783 18 1 -0 -0 
1 -34.199999999997829 18 0 -1 0 0 
1 -34.199999999997829 16.399110814157837 0 0 1 0 
1 -34.199999999997829 18 0 -1 0 0 
1 49.150000000000084 34.199999999996116 0 0 0 1 
1 0 34.199999999997829 18 1 -0 -0 
1 0 34.199999999997829 16.399110814157837 1 -0 -0 
2 46.952273902416316 34.099999999999994 0 0 0 1 1 0 -0 -0 1 0 2.2000000000000002
1 8.0477260975836415 36.299999999999997 0 1 0 0 
2 8.0477260975836415 34.099999999999994 0 0 0 1 1 0 -0 -0 1 0 2.2000000000000002
1 0 34.199999999997829 18 1 -0 -0 
Polygon3D 0
PolygonOnTriangulations 0
Surfaces 22
1 5.8499999999999517 34.199999999997829 0 0 0 1 1 0 -0 -0 1 0 
1 5.8499999999999517 34.199999999997829 0 0 -1 0 -1 0 0 -0 -0 -1 
1 0 34.199999999997829 0 -1 0 0 0 1 0 0 0 -1 
1 0 50.299999999999997 0 0 1 0 1 0 0 0 0 -1 
1 55 50.299999999999997 0 1 0 -0 0 -1 0 0 -0 -1 
1 55 34.199999999996116 0 0 -1 0 -1 0 0 -0 -0 -1 
2 46.952273902416316 34.099999999999994 0 -0 -0 -1 1 0 0 -0 1 -0 2.2000000000000002
1 8.0477260975836415 36.299999999999997 0 0 1 0 1 0 0 0 0 -1 
1 37.299999999999997 36.299999999999997 11.5 -1 0 -0 0 -2.2204460492503131e-16 -1 -0 -1 2.2204460492503131e-16 
1 8.8000000000000007 36.299999999999997 11.5 0 -1 0 0 -0 -1 1 0 0 
1 8.8000000000000007 36.299999999999997 0 1 -0 0 0 2.2204460492503131e-16 1 -0 -1 2.2204460492503131e-16 
2 8.0477260975836415 34.099999999999994 0 -0 -0 -1 1 0 0 -0 1 -0 2.2000000000000002
1 0 34.199999999997829 16.399110814157837 0 -1 0 0 0 1 -1 0 0 
1 5.8499999999999517 34.199999999997829 0 0 0 1 1 0 -0 -0 1 0 
1 0 34.199999999997829 0 -1 0 0 0 1 0 0 0 -1 
1 0 36.29999999999783 13.4 1 0 0 -0 0 1 0 -1 0 
1 55 34.199999999996116 0 0 -1 0 -1 0 0 -0 -0 -1 
1 0 36.29999999999783 13.4 -0 -0.81915204428893729 -0.57357643635112388 0 -0.57357643635112388 0.81915204428893729 -1 0 0 
1 8.8000000000000007 36.299999999999997 11.5 0 -2.2204460492503131e-16 -1 1 0 0 0 -1 2.2204460492503131e-16 
1 5.8499999999999517 34.199999999997829 0 0 0 1 1 0 -0 -0 1 0 
1 0 34.199999999997829 16.399110814157837 0 -1 0 0 0 1 -1 0 0 
1 0 34.199999999997829 18 0 -0 1 0 1 0 -1 0 0 
Triangulations 0

TShapes 138
Ve
1.00001000304068e-07
5.84999999999995 34.1999999999978 0
0 0

0101101
*
Ve
1e-07
0 34.1999999999978 0
0 0

0101101
*
Ed
 1e-07 1 1 0
1  1 0 0 5.84999999999995
2  1 1 10 0 5.84999999999995
2  2 2 11 0 5.84999999999995
0

0101000
+138 12 -137 12 *
Ve
1e-07
0 50.3 0
0 0

0101101
*
Ed
 1e-07 1 1 0
1  2 0 0 16.1000000000022
2  3 1 10 0 16.1000000000022
2  4 3 11 0 16.1000000000022
0

0101000
+137 12 -135 12 *
Ve
1e-07
55 50.3 0
0 0

0101101
*
Ed
 1e-07 1 1 0
1  3 0 0 55
2  5 1 10 0 55
2  6 4 11 0 55
0

0101000
+135 12 -133 12 *
Ve
1e-07
55 34.1999999999961 0
0 0

0101101
*
Ed
 1e-07 1 1 0
1  4 0 0 16.1000000000039
2  7 1 10 0 16.1000000000039
2  8 5 11 0 16.1000000000039
0

0101000
+133 12 -131 12 *
Ve
1e-07
49.1500000000001 34.1999999999961 0
0 0

0101101
*
Ed
 1e-07 1 1 0
1  5 0 0 5.84999999999992
2  9 1 10 0 5.84999999999992
2  10 6 11 0 5.84999999999992
0

0101000
+131 12 -129 12 *
Ve
1e-07
46.9522739024163 36.3 0
0 0

0101101
*
Ed
 1e-07 1 1 0
1  6 0 0.0454702124152333 1.5707963267949
2  11 1 10 0.0454702124152333 1.5707963267949
2  12 7 11 0.0454702124152333 1.5707963267949
0

0101000
+129 12 -127 12 *
Ve
1e-07
37.3 36.3 0
0 0

0101101
*
Ed
 1e-07 1 1 0
1  7 0 29.2522739024164 38.9045478048327
2  13 1 10 29.2522739024164 38.9045478048327
2  14 8 11 29.2522739024164 38.9045478048327
0

0101000
+125 12 -127 12 *
Ve
1e-07
37.3 41.1 -1.06581410364015e-15
0 0

0101101
*
Ed
 1e-07 1 1 0
1  8 0 0 4.8
2  15 1 7 0 4.8
2  16 9 0 0 4.8
0

0101000
+125 13 -123 13 *
Ve
1e-07
8.8 41.1 -1.06581410364015e-15
0 0

0101101
*
Ed
 1e-07 1 1 0
1  9 0 0 28.5
2  17 1 17 0 28.5
2  18 10 18 0 28.5
0

0101000
+123 19 -121 19 *
Ve
1e-07
8.8 36.3 0
0 0

0101101
*
Ed
 1e-07 1 1 0
1  10 0 0 4.8
2  19 1 7 0 4.8
2  20 11 0 0 4.8
0

0101000
+119 13 -121 13 *
Ve
1e-07
8.04772609758364 36.3 0
0 0

0101101
*
Ed
 1e-07 1 1 0
1  11 0 0 0.752273902416359
2  21 1 10 0 0.752273902416359
2  22 8 11 0 0.752273902416359
0

0101000
+117 12 -119 12 *
Ed
 1e-07 1 1 0
1  12 0 1.5707963267949 3.09612244117378
2  23 1 10 1.5707963267949 3.09612244117378
2  24 12 11 1.5707963267949 3.09612244117378
0

0101000
+117 12 -138 12 *
Wi

0101000
-136 9 -134 9 -132 9 -130 9 -128 9 -126 9 +124 9 -122 0 -120 16 +118 0 
+116 9 -115 9 *
Fa
0  1e-07 1 7

0101000
+114 0 *
Ve
1e-07
0 34.1999999999978 16.3991108141578
0 0

0101101
*
Ed
 1e-07 1 1 0
1  13 0 0 16.3991108141578
2  25 2 0 0 16.3991108141578
2  26 3 0 0 16.3991108141578
0

0101000
+137 23 -112 23 *
Ve
1.00001000280431e-07
5.84999999999995 34.1999999999978 16.3991108141578
0 0

0101101
*
Ed
 1e-07 1 1 0
1  14 0 0 5.84999999999995
2  27 2 21 0 5.84999999999995
2  28 13 0 0 5.84999999999995
0

0101000
+112 24 -110 24 *
Ed
 1e-07 1 1 0
1  15 0 0 16.3991108141578
2  29 2 0 0 16.3991108141578
2  30 12 0 0 16.3991108141578
0

0101000
+138 23 -110 23 *
Wi

0101000
-136 22 -111 21 -109 0 +108 21 *
Fa
0  1e-07 2 21

0101000
+107 0 *
Ve
1e-07
0 50.3 18
0 0

0101101
*
Ed
 1e-07 1 1 0
1  16 0 0 18
2  31 3 0 0 18
2  32 4 0 0 18
0

0101000
+135 23 -105 23 *
Ve
1e-07
0 38.2999999999978 18
0 0

0101101
*
Ed
 1e-07 1 1 0
1  17 0 4.1 16.1000000000022
2  33 3 27 4.1 16.1000000000022
2  34 14 10 4.1 16.1000000000022
0

0101000
+103 28 -105 28 *
Ve
1e-07
0 38.2999999999978 13.4
0 0

0101101
*
Ed
 1e-07 1 1 0
1  18 0 0 4.6
2  35 3 31 0 4.6
2  36 15 31 0 4.6
0

0101000
+103 32 -101 32 *
Ve
1e-07
0 36.2999999999978 13.4
0 0

0101101
*
Ed
 1e-07 1 1 0
1  19 0 0 2
2  37 3 31 0 2
2  38 15 31 0 2
0

0101000
+101 32 -99 32 *
Ed
 1e-07 1 1 0
1  20 0 0 3.66123827080381
2  39 3 31 0 3.66123827080381
2  40 15 31 0 3.66123827080381
0

0101000
+99 32 -112 32 *
Wi

0101000
-134 22 -104 21 +102 26 -100 30 -98 30 -97 30 +111 21 *
Fa
0  1e-07 3 21

0101000
+96 0 *
Ve
1e-07
55 50.3 18
0 0

0101101
*
Ed
 1e-07 1 1 0
1  21 0 0 18
2  41 4 0 0 18
2  42 5 0 0 18
0

0101000
+133 23 -94 23 *
Ed
 1e-07 1 1 0
1  22 0 0 55
2  43 4 27 0 55
2  44 14 10 0 55
0

0101000
+105 28 -94 28 *
Wi

0101000
+104 0 -93 0 -132 34 +92 35 *
Fa
0  1e-07 4 0

0101000
+91 0 *
Ve
1e-07
55 34.1999999999978 16.3991108141578
0 0

0101101
*
Ed
 1e-07 1 1 0
1  23 0 0 16.3991108141578
2  45 5 0 0 16.3991108141578
2  46 6 0 0 16.3991108141578
0

0101000
+131 23 -89 23 *
Ve
1e-07
55 36.2999999999978 13.4
0 0

0101101
*
Ed
 1e-07 1 1 0
1  24 0 0 3.66123827080381
2  47 5 38 0 3.66123827080381
2  48 16 39 0 3.66123827080381
0

0101000
+87 40 -89 40 *
Ve
1e-07
55 38.2999999999978 13.4
0 0

0101101
*
Ed
 1e-07 1 1 0
1  25 0 0 2
2  49 5 38 0 2
2  50 16 39 0 2
0

0101000
+85 40 -87 40 *
Ve
1e-07
55 38.2999999999978 18
0 0

0101101
*
Ed
 1e-07 1 1 0
1  26 0 0 4.6
2  51 5 38 0 4.6
2  52 16 39 0 4.6
0

0101000
+83 40 -85 40 *
Ed
 1e-07 1 1 0
1  27 0 0 12.0000000000022
2  53 5 27 0 12.0000000000022
2  54 14 10 0 12.0000000000022
0

0101000
+94 28 -83 28 *
Wi

0101000
-130 22 -88 21 +86 37 +84 37 +82 37 +81 26 +93 21 *
Fa
0  1e-07 5 21

0101000
+80 0 *
Ve
1.00000856203997e-07
49.1500000000001 34.199999999997 16.3991108141578
0 0

0101101
*
Ed
 1e-07 1 1 0
1  28 0 0 16.3991108141578
2  55 6 0 0 16.3991108141578
2  56 7 0 0 16.3991108141578
0

0101000
+129 23 -78 23 *
Ed
 1e-07 1 1 0
1  29 0 49.1500000000001 55
2  57 6 21 49.1500000000001 55
2  58 17 21 49.1500000000001 55
0

0101000
+78 24 -89 24 *
Wi

0101000
-128 22 -77 21 -76 0 +88 21 *
Fa
0  1e-07 6 21

0101000
+75 0 *
Ve
3.09025897662363e-06
46.9522739024163 36.2999999999989 13.4
0 0

0101101
*
Ed
 1e-07 1 1 0
1  30 0 0 13.4
2  59 7 0 0 13.4
2  60 8 0 0 13.4
4 G1 7 0 8 0
0

0101000
+127 23 -73 23 *
Ed
 1e-07 1 1 0
1  31 0 0 1.52532611437966
2  61 7 21 0 1.52532611437966
2  62 18 0 0 1.52532611437966
0

0101000
+73 24 -78 24 *
Wi

0101000
-126 22 -72 21 -71 0 +77 21 *
Fa
0  1e-07 7 21

0101000
+70 0 *
Ve
1e-07
8.8 36.3 11.5
0 0

0101101
*
Ed
 1e-07 1 1 0
1  32 0 0 11.5
2  63 8 42 0 11.5
2  64 11 43 0 11.5
0

0101000
+119 44 -68 44 *
Ve
1e-07
37.3 36.3 11.5
0 0

0101101
*
Ed
 1e-07 1 1 0
1  33 0 0 28.5
2  65 8 42 0 28.5
2  66 19 43 0 28.5
0

0101000
+68 44 -66 44 *
Ed
 1e-07 1 1 0
1  34 0 0 11.5
2  67 8 42 0 11.5
2  68 9 43 0 11.5
0

0101000
+66 44 -125 44 *
Ve
3.06254309903064e-06
8.04772609758364 36.2999999999989 13.4
0 0

0101101
*
Ed
 1e-07 1 1 0
1  35 0 8.04772609758364 46.9522739024163
2  69 8 21 8.04772609758364 46.9522739024163
2  70 18 0 8.04772609758364 46.9522739024163
0

0101000
+63 24 -73 24 *
Ed
 1e-07 1 1 0
1  36 0 0 13.4
2  71 8 0 0 13.4
2  72 12 0 0 13.4
4 G1 8 0 12 0
0

0101000
+117 23 -63 23 *
Wi

0101000
-116 9 -67 41 -65 41 -64 41 -124 9 -72 33 +62 20 +61 33 *
Fa
0  1e-07 8 33

0101000
+60 0 *
Ve
1e-07
37.3 41.1 11.5
0 0

0101101
*
Ed
 1e-07 1 1 0
1  37 0 0 4.8
2  73 9 0 0 4.8
2  74 19 0 0 4.8
0

0101000
+66 13 -58 13 *
Ed
 1e-07 1 1 0
1  38 0 0 11.5
2  75 9 45 0 11.5
2  76 10 18 0 11.5
0

0101000
+58 19 -123 19 *
Wi

0101000
+57 0 -64 41 +56 16 -122 0 *
Fa
0  1e-07 9 0

0101000
+55 0 *
Ve
1e-07
8.8 41.1 11.5
0 0

0101101
*
Ed
 1e-07 1 1 0
1  39 0 0 28.5
2  77 10 18 0 28.5
2  78 19 45 0 28.5
0

0101000
+53 19 -58 19 *
Ed
 1e-07 1 1 0
1  40 0 0 11.5
2  79 10 18 0 11.5
2  80 11 45 0 11.5
0

0101000
+121 19 -53 19 *
Wi

0101000
-52 16 -51 16 -56 16 -120 16 *
Fa
0  1e-07 10 46

0101000
+50 0 *
Ed
 1e-07 1 1 0
1  41 0 0 4.8
2  81 11 0 0 4.8
2  82 19 0 0 4.8
0

0101000
+68 13 -53 13 *
Wi

0101000
+118 0 -67 41 +51 16 -48 0 *
Fa
0  1e-07 11 0

0101000
+47 0 *
Ed
 1e-07 1 1 0
1  42 0 4.7578591928007 6.28318530717959
2  83 12 21 4.7578591928007 6.28318530717959
2  84 18 0 4.7578591928007 6.28318530717959
0

0101000
+110 24 -63 24 *
Wi

0101000
-115 22 -108 21 -45 0 +61 21 *
Fa
0  1e-07 12 21

0101000
+44 0 *
Ve
1.00000014210855e-07
0 34.1999999999978 18
0 0

0101101
*
Ed
 1e-07 1 1 0
1  43 0 0 1.60088918584216
2  85 13 47 0 1.60088918584216
2  86 15 31 0 1.60088918584216
0

0101000
+112 32 -42 32 *
Ve
1.00001000304068e-07
5.84999999999995 34.1999999999978 18
0 0

0101101
*
Ed
 1e-07 1 1 0
1  44 0 0 5.84999999999995
2  87 13 0 0 5.84999999999995
2  88 20 48 0 5.84999999999995
0

0101000
+42 24 -40 24 *
Ed
 1e-07 1 1 0
1  45 0 16.3991108141578 18
2  89 13 49 16.3991108141578 18
2  90 21 49 16.3991108141578 18
0

0101000
+110 23 -40 23 *
Wi

0101000
-41 30 -39 0 +38 21 +109 0 *
Fa
0  1e-07 13 0

0101000
+37 0 *
Ed
 1e-07 1 1 0
1  46 0 0 55
2  91 14 48 0 55
2  92 20 48 0 55
0

0101000
+103 24 -83 24 *
Wi

0101000
-102 26 -92 26 -81 26 +35 0 *
Fa
0  1e-07 14 48

0101000
+34 0 *
Ed
 1e-07 1 1 0
1  47 0 0 4.1
2  93 15 31 0 4.1
2  94 20 50 0 4.1
0

0101000
+42 32 -103 32 *
Wi

0101000
+97 30 +98 30 +100 30 +32 30 +41 30 *
Fa
0  1e-07 15 21

0101000
+31 0 *
Ve
1.00000866862138e-07
55 34.199999999997 18
0 0

0101101
*
Ed
 1e-07 1 1 0
1  48 0 0 1.60088918584216
2  95 16 39 0 1.60088918584216
2  96 17 38 0 1.60088918584216
0

0101000
+89 40 -29 40 *
Ed
 1e-07 1 1 0
1  49 0 0 4.1
2  97 16 39 0 4.1
2  98 20 52 0 4.1
0

0101000
+29 40 -83 40 *
Wi

0101000
-86 37 -84 37 -28 37 -82 37 -27 37 *
Fa
0  1e-07 16 51

0101000
+26 0 *
Ve
1e-07
49.1500000000001 34.1999999999961 18
0 0

0101101
*
Ed
 1e-07 1 1 0
1  50 0 16.3991108141578 18
2  99 17 0 16.3991108141578 18
2  100 21 49 16.3991108141578 18
0

0101000
+78 23 -24 23 *
Ed
 1e-07 1 1 0
1  51 0 49.1500000000001 55
2  101 17 21 49.1500000000001 55
2  102 20 48 49.1500000000001 55
0

0101000
+24 24 -29 24 *
Wi

0101000
+76 0 -23 21 -22 0 +28 37 *
Fa
0  1e-07 17 21

0101000
+21 0 *
Ed
 1e-07 1 1 0
1  52 0 5.84999999999995 49.1500000000001
2  103 18 0 5.84999999999995 49.1500000000001
2  104 21 0 5.84999999999995 49.1500000000001
0

0101000
+110 24 -78 24 *
Wi

0101000
+45 0 -19 0 +71 0 +62 0 *
Fa
0  1e-07 18 0

0101000
+18 0 *
Wi

0101000
+48 0 -65 41 +52 16 -57 0 *
Fa
0  1e-07 19 0

0101000
+16 0 *
Ve
1e-07
46.9522739024163 36.3 18
0 0

0101101
*
Ed
 1e-07 1 1 0
1  53 0 0.0454702124152333 1.5707963267949
2  105 20 10 0.0454702124152333 1.5707963267949
2  106 22 53 0.0454702124152333 1.5707963267949
0

0101000
+24 28 -14 28 *
Ve
1e-07
8.04772609758364 36.3 18
0 0

0101101
*
Ed
 1e-07 1 1 0
1  54 0 0 38.9045478048327
2  107 20 10 0 38.9045478048327
2  108 22 53 0 38.9045478048327
0

0101000
+12 28 -14 28 *
Ed
 1e-07 1 1 0
1  55 0 1.5707963267949 3.09612244117378
2  109 20 10 1.5707963267949 3.09612244117378
2  110 22 53 1.5707963267949 3.09612244117378
0

0101000
+12 28 -40 28 *
Wi

0101000
-32 30 -35 0 +27 37 +22 0 -13 26 +11 26 -10 26 +39 0 *
Fa
0  1e-07 20 48

0101000
+9 0 *
Ed
 1e-07 1 1 0
1  56 0 5.84999999999995 49.1500000000001
2  111 21 0 5.84999999999995 49.1500000000001
2  112 22 0 5.84999999999995 49.1500000000001
0

0101000
+40 24 -24 24 *
Wi

0101000
-38 21 -7 0 +23 21 +19 0 *
Fa
0  1e-07 21 0

0101000
+6 0 *
Wi

0101000
+10 26 -11 26 +13 26 +7 0 *
Fa
0  1e-07 22 0

0101000
+4 0 *
Sh

0101100
-113 0 +106 20 +95 20 +90 33 +79 20 +74 20 +69 20 -59 0 +54 0 +49 0 
+46 0 +43 20 +36 20 +33 20 +30 20 +25 20 +20 20 +17 20 +15 0 +8 20 
+5 20 +3 20 *
So

0100000
+2 0 *

+1 1 