DBRep_DrawableShape

CASCADE Topology V1, (c) Matra-Datavision
Locations 81
1
              1               0               0               0 
              0               1               0               0 
              0               0               1               0 
1
              1               0               0               0 
              0               1               0               0 
              0               0               1               0 
1
              1               0               0               0 
              0               1               0               0 
              0               0               1               0 
1
              1               0               0               0 
              0               1               0               0 
              0               0               1               0 
1
              1               0               0               0 
              0               1               0               0 
              0               0               1               0 
2  2 1 3 -1 4 1 5 -1 0
1
              1               0               0               0 
              0               1               0               0 
              0               0               1               0 
1
              1               0               0               0 
              0               1               0               0 
              0               0               1               0 
1
              1               0               0               0 
              0               1               0               0 
              0               0               1               0 
1
              1               0               0               0 
              0               1               0               0 
              0               0               1               0 
1
              1               0               0               0 
              0               1               0               0 
              0               0               1               0 
2  7 -1 8 1 9 -1 10 1 11 -1 0
1
              1               0               0               0 
              0               1               0               0 
              0               0               1               0 
2  13 1 7 -1 8 1 9 -1 10 1 11 -1 0
2  13 -1 0
2  7 1 13 -1 0
2  1 -1 5 1 4 -1 3 1 2 -1 11 1 10 -1 9 1 8 -1 7 1 13 -1 0
2  1 -1 5 1 4 -1 3 1 2 -1 0
1
              1              -0               0              -0 
              0 2.22044604925031e-16              -1            36.3 
              0               1 2.22044604925031e-16               0 
1
              1               0               0               0 
              0               1               0             4.8 
              0               0               1 -1.06581410364015e-15 
2  19 1 11 -1 20 1 0
2  7 -1 8 1 9 -1 10 1 11 -1 20 -1 11 1 19 -1 0
2  19 -1 0
2  1 -1 5 1 4 -1 3 1 2 -1 20 -1 11 1 19 -1 0
2  10 1 11 -1 2 1 3 -1 4 1 5 -1 0
2  8 1 9 -1 0
2  13 1 7 -1 8 1 9 -1 0
2  1 -1 5 1 4 -1 3 1 2 -1 11 1 10 -1 9 1 8 -1 0
2  1 -1 5 1 4 -1 3 1 2 -1 11 1 10 -1 0
1
              1               0               0               0 
              0               1               0               0 
              0               0               1              18 
2  13 1 7 -1 30 1 8 1 9 -1 0
2  30 -1 7 1 13 -1 0
2  1 -1 5 1 4 -1 3 1 2 -1 11 1 10 -1 9 1 8 -1 30 -1 7 1 13 -1 0
1
              0               0              -1              -0 
             -1               0               0              -0 
              0               1               0               0 
2  34 1 9 -1 0
2  8 1 34 -1 0
2  1 -1 5 1 4 -1 3 1 2 -1 11 1 10 -1 9 1 34 -1 0
2  8 1 9 -1 10 1 11 -1 2 1 3 -1 4 1 5 -1 0
2  13 1 7 -1 8 1 9 -1 10 1 11 -1 2 1 3 -1 4 1 5 -1 0
2  13 1 7 -1 30 1 8 1 9 -1 10 1 11 -1 2 1 3 -1 4 1 5 -1 0
2  1 -1 0
1
              1               0               0              55 
              0               1               0              -0 
              0               0               1              -0 
2  34 1 9 -1 42 1 0
2  8 1 9 -1 42 -1 9 1 34 -1 0
2  34 -1 0
2  1 -1 5 1 4 -1 3 1 2 -1 11 1 10 -1 42 -1 9 1 34 -1 0
2  8 1 9 -1 10 1 11 -1 0
2  19 1 11 -1 0
2  8 1 9 -1 10 1 19 -1 0
2  11 1 19 -1 0
2  1 -1 5 1 4 -1 3 1 2 -1 11 1 19 -1 0
2  10 1 11 -1 0
2  20 -1 11 1 19 -1 0
2  11 -1 20 1 2 1 3 -1 4 1 5 -1 0
2  19 1 11 -1 20 1 2 1 3 -1 4 1 5 -1 0
1
              1               0               0              -0 
              0 2.22044604925031e-16              -1            41.1 
              0               1 2.22044604925031e-16              -0 
2  56 1 3 -1 4 1 5 -1 0
2  11 -1 20 1 2 1 56 -1 0
2  3 1 56 -1 0
2  1 -1 5 1 4 -1 3 1 56 -1 0
1
              1               0               0              -0 
              0 2.22044604925031e-16              -1            41.1 
              0               1 2.22044604925031e-16              -0 
2  61 1 5 -1 0
2  11 -1 20 1 2 1 3 -1 4 1 61 -1 0
2  5 1 61 -1 0
2  1 -1 5 1 61 -1 0
2  9 1 34 -1 0
2  7 -1 30 1 8 1 9 -1 0
2  9 1 8 -1 0
2  7 -1 30 1 8 1 34 -1 0
2  9 -1 42 1 0
2  7 -1 30 1 8 1 9 -1 42 -1 9 1 34 -1 0
2  4 1 5 -1 0
2  56 1 3 -1 0
2  1 -1 5 1 4 -1 0
1
              1               0               0               0 
              0               1               0               9 
              0               0               1 -1.99840144432528e-15 
2  56 1 3 -1 75 1 0
2  75 -1 3 1 56 -1 0
2  56 -1 0
2  1 -1 5 1 4 -1 75 -1 3 1 56 -1 0
2  9 1 8 -1 30 -1 7 1 13 -1 0
2  3 -1 75 1 4 1 5 -1 0
Curve2ds 148
1 0 0 -1 0 
1 0 -0 1 0 
1 -5.8499999999999517 0 0 1 
1 0 0 1 0 
1 -5.8499999999999517 16.100000000002169 1 0 
1 0 0 1 0 
1 49.150000000000048 16.100000000002169 0 -1 
1 0 0 1 0 
1 49.150000000000048 -1.7124079931818414e-12 -1 0 
1 0 -0 1 0 
2 41.102273902416364 -0.099999999997834266 1 0 -0 1 2.2000000000000028
1 0 0 1 0 
1 2.1977260975836899 2.1000000000021686 1 0 
1 0 0 1 0 
1 31.450000000000045 2.1000000000021686 0 1 
1 11.5 -2.55351295663786e-15 0 -1 
1 31.450000000000045 6.9000000000021657 -1 0 
1 11.5 28.499999999999996 0 -1 
1 2.950000000000049 2.1000000000021686 0 1 
1 0 0 0 -1 
1 2.1977260975836899 2.1000000000021686 1 0 
1 0 0 1 0 
2 2.1977260975836899 -0.099999999997834266 1 0 -0 1 2.1999999999999993
1 0 0 1 0 
1 5.8499999999999517 0 0 -1 
1 0 0 0 -1 
1 5.8499999999999517 -16.399110814157837 -1 0 
1 0 0 0 -1 
1 0 -0 0 -1 
1 3.0961224411737809 0 0 -1 
1 16.100000000002169 0 0 -1 
1 0 0 0 -1 
1 0 -18 1 0 
1 -5.8499999999999517 0 0 1 
1 4.1000000000000014 -18 0 1 
1 4.1000000000000014 -18 0 1 
1 4.1000000000000014 -13.4 -1 0 
1 4.1000000000000014 -13.4 -1 0 
1 2.1000000000000014 -13.4 -0.57357643635112388 -0.81915204428893729 
1 2.1000000000000014 -13.4 -0.57357643635112388 -0.81915204428893729 
1 0 -18 1 0 
1 -5.8499999999999517 16.100000000002169 1 0 
1 55 0 0 -1 
1 0 0 0 -1 
8 -4.4250000000000025 5.174999999999998
1 29.800000000000001 -4.375 0 -1 
8 -4.4250000000000025 5.174999999999998
1 4.3749999999999982 -9.2000000000000046 -1 2.2204460492503131e-16 
8 9.9499999999999993 15.35
1 14.9 -0.749999999999998 1 0 
8 9.9499999999999993 15.35
1 14.9 -9.2000000000000028 -1 0 
8 -9.1749999999999989 0.4250000000000021
1 25.300000000000001 -0.375 0 1 
8 -9.1749999999999989 0.4250000000000021
1 -0.37499999999999795 -9.2000000000000028 -1 -2.2204460492503131e-16 
8 -17.600000000000001 -12.200000000000001
1 12.65 -8.7499999999999982 -1 0 
8 -17.600000000000001 -12.200000000000001
1 -12.65 -9.2000000000000028 -1 -0 
1 16.100000000003881 0 0 -1 
1 0 -0 0 -1 
1 14.000000000002167 -13.4 0.57357643635112388 -0.81915204428893729 
1 0 0 0.81915204428893729 0.57357643635112388 
1 12.000000000002167 -13.4 1 0 
1 0 -2 0 1 
1 12.000000000002167 -18 0 1 
1 4.5999999999999996 -2 -1 0 
1 0 -18 1 0 
1 49.150000000000048 16.100000000002169 0 -1 
1 5.8499999999999162 0 0 -1 
1 0.045470212415233323 0 0 -1 
1 55 -16.399110814157837 -1 0 
1 55 -16.399110814157837 -1 0 
1 1.5707963267948966 0 0 -1 
1 38.904547804832674 0 0 -1 
7 0 0  8 9 2  1.5707963267948983 -13.399999999996906  1.3801305617474404 -13.400000000595963  1.1894647977002251 -13.530536996473529  0.99879903364671918 -13.791610105567088  0.80813326960651466 -14.173099360996275  0.61746750555221297 -14.654747500666417  0.42680174150996208 -15.208167262910138  0.23613597746269219 -15.800672344313464  0.045470212415234253 -16.399110814160291 
 0 9 1.525326114379663 9
3 3.8355829503621193 -46.952273902416316 -1 0 -0 -1 3.8355829503658958 2.2000000000000002
1 0.75227390241635916 0 0 -1 
1 0 0 1 0 
1 0.75227390241635916 -11.5 1 0 
1 0 0 1 0 
1 29.252273902416356 -11.5 0 1 
1 0 0 1 0 
1 -8.0477260975836415 -13.4 1 0 
1 0 0 0 -1 
1 0 0 0 -1 
1 1.5707963267948966 0 0 -1 
1 0 0 0 -1 
1 28.499999999999996 0 0 -1 
1 7.1054273576010082e-16 -4.7999999999999972 1 0 
1 0 28.499999999999996 1 0 
1 0 0 0 1 
1 0 -4.7999999999999972 1 0 
1 11.5 0 -1 0 
1 -5.9164567891575885e-31 -4.7999999999999972 1 0 
2 6.2499999999999982 3.75 0 1 -1 0 1.25
1 0 0 1 0 
2 6.2499999999999982 24.749999999999996 0 1 -1 0 1.25
1 0 0 1 0 
1 2.7499999999999982 21 1 0 
1 0 0 1 0 
1 2.7499999999999982 16.5 0 1 
1 0 0 1 0 
1 10.749999999999998 16.5 -1 0 
1 0 0 1 0 
1 10.749999999999998 21 0 -1 
1 0 0 1 0 
1 11.5 2.55351295663786e-15 0 -1 
1 0 0 0 -1 
7 0 0  8 9 2  3.0961224411737831 -16.399110814157854  2.9054566761264224 -15.800672344311351  2.7147909120792519 -15.208167262942879  2.5241251480219944 -14.654747500542726  2.3334593839917943 -14.173099361200002  2.1427936199315809 -13.791610105487052  1.9521278558877384 -13.530536996515366  1.7614620918422574 -13.400000000595965  1.5707963267948966 -13.39999999999692 
 4.7578591928006997 9 6.2831853071795862 9
3 3.8355829503621193 -8.0477260975836415 -1 0 -0 -1 3.8355829503658958 2.2000000000000002
1 0 0 1 0 
1 0 -16.399110814157837 0 -1 
1 1.6008891858421634 0 0 -1 
1 -5.8499999999999517 0 1 0 
1 -16.399110814157837 -5.8499999999999517 1 0 
1 -16.399110814157837 -5.8499999999999517 1 0 
1 -5.8499999999999517 4.1000000000000014 1 0 
1 -5.8499999999999517 4.1000000000000014 1 0 
1 0 -18 1 0 
1 -5.8499999999999517 0 0 1 
1 8 -1.7763568394002505e-15 0 -1 
1 0 0 0 -1 
1 0 0 0 -1 
1 4.5 0 0 -1 
1 4.5 0 0 -1 
1 0 0 0 -1 
1 8 1.7763568394002505e-15 0 -1 
1 0 0 0 -1 
1 2.9991108141578362 2.1000000000000014 1 0 
1 0 -16.399110814157837 0 -1 
1 4.5999999999999996 2.1000000000000014 0 -1 
1 49.150000000000048 0 0 1 
1 5.8499999999999162 0 0 -1 
1 -16.399110814157837 -49.150000000000084 1 0 
1 55 -18 -1 0 
1 -5.8499999999999517 0 1 0 
1 3.6612382708038114 0 0 -1 
1 0 0 0 -1 
1 0 0 0 -1 
1 6.2831853071795862 0 0 -1 
1 0 -9 1 0 
2 0 -1.25 0 1 1 -0 1.25
1 0 0 0 -1 
1 6.2831853071795862 0 0 -1 
1 0 -9 1 0 
2 0 -1.25 0 1 1 -0 1.25
2 41.102273902416364 -0.099999999997834266 1 0 -0 1 2.2000000000000028
2 -0.099999999997834266 -46.952273902416316 0 -1 1 0 2.2000000000000028
1 2.1977260975836899 2.1000000000021686 1 0 
1 2.1000000000021686 -8.0477260975836415 0 -1 
2 2.1977260975836899 -0.099999999997834266 1 0 -0 1 2.1999999999999993
2 -0.099999999997834266 -8.0477260975836415 0 -1 1 0 2.1999999999999993
1 1.6008891858421634 0 0 -1 
1 0 0 0 -1 
Curves 74
1 5.8499999999999517 34.199999999997829 0 -1 0 0 
1 0 34.199999999997829 0 0 1 0 
1 0 50.299999999999997 0 1 0 0 
1 55 50.299999999999997 0 0 -1 0 
1 55 34.199999999996116 0 -1 0 0 
2 46.952273902416316 34.099999999999994 0 0 0 1 1 0 -0 -0 1 0 2.2000000000000002
1 8.0477260975836415 36.299999999999997 0 1 0 0 
1 37.299999999999997 36.299999999999997 0 0 1 -2.2204460492503131e-16 
1 37.299999999999997 0 0 -1 0 0 
1 8.8000000000000007 36.299999999999997 0 0 1 -2.2204460492503131e-16 
1 8.0477260975836415 36.299999999999997 0 1 0 0 
2 8.0477260975836415 34.099999999999994 0 0 0 1 1 0 -0 -0 1 0 2.2000000000000002
1 0 34.199999999997829 0 0 0 1 
1 0 34.199999999997829 16.399110814157837 1 -0 -0 
1 5.8499999999999517 34.199999999997829 0 0 0 1 
1 0 50.299999999999997 0 0 0 1 
1 0 34.199999999997829 0 0 1 0 
1 -38.29999999999783 18 0 0 -1 0 
1 -38.29999999999783 13.4 0 1 0 0 
1 -36.29999999999783 13.4 0 0.57357643635112388 0.81915204428893729 0 
1 0 50.299999999999997 0 1 0 0 
1 55 50.299999999999997 0 0 0 1 
1 29.800000000000001 50.299999999999997 4.375 -0 0 1 
1 14.9 50.299999999999997 0.749999999999998 1 0 0 
1 25.300000000000001 50.299999999999997 0.375 0 0 -1 
1 12.65 50.299999999999997 8.7499999999999982 -1 0 -0 
1 55 34.199999999996116 0 0 0 1 
1 -36.29999999999783 13.4 0 0.57357643635112388 0.81915204428893729 0 
1 -38.29999999999783 13.4 0 1 0 0 
1 -38.29999999999783 18 0 0 -1 0 
1 55 50.299999999999997 0 0 -1 0 
1 49.150000000000084 34.199999999996116 0 0 0 1 
1 0 34.199999999997829 16.399110814157837 1 -0 -0 
1 46.952273902416316 36.299999999999997 0 0 0 1 
3 46.952273902416316 34.099999999999994 16.541925614828923 -0 -0.81915204428893729 -0.57357643635112388 0 0.57357643635112388 -0.81915204428893729 1 -0 0 3.8355829503658958 2.2000000000000002
1 8.8000000000000007 0 0 0 1 0 
1 8.8000000000000007 11.5 0 1 0 0 
1 37.299999999999997 11.5 0 0 -1 0 
1 0 36.29999999999783 13.4 1 -0 -0 
1 8.0477260975836415 36.299999999999997 0 0 0 1 
1 37.299999999999997 36.299999999999997 11.5 0 1 -2.2204460492503131e-16 
1 37.299999999999997 11.5 0 0 -1 0 
1 8.8000000000000007 11.5 0 1 0 0 
1 8.8000000000000007 0 0 0 1 0 
2 12.550000000000001 5.25 0 0 0 1 1 0 -0 -0 1 0 1.25
2 33.549999999999997 5.25 0 0 0 1 1 0 -0 -0 1 0 1.25
1 29.800000000000001 8.75 0 0 -1 0 
1 25.300000000000001 8.75 0 1 0 0 
1 25.300000000000001 0.75 0 0 1 0 
1 29.800000000000001 0.75 0 -1 0 0 
1 8.8000000000000007 36.299999999999997 11.5 0 1 -2.2204460492503131e-16 
3 8.0477260975836415 34.099999999999994 16.541925614828923 -0 -0.81915204428893729 -0.57357643635112388 0 0.57357643635112388 -0.81915204428893729 1 -0 0 3.8355829503658958 2.2000000000000002
1 -34.199999999997829 16.399110814157837 0 0 1 0 
1 0 34.199999999997829 18 1 -0 -0 
1 5.8499999999999517 34.199999999997829 0 0 0 1 
1 0 38.29999999999783 18 1 -0 -0 
1 -34.199999999997829 18 0 -1 0 0 
1 29.800000000000001 41.099999999999994 0.75 0 1 -2.2204460492503131e-16 
1 29.800000000000001 41.099999999999994 8.75 0 1 -2.2204460492503131e-16 
1 25.300000000000001 41.099999999999994 0.75 0 1 -2.2204460492503131e-16 
1 25.300000000000001 41.099999999999994 8.75 0 1 -2.2204460492503131e-16 
1 -34.199999999997829 16.399110814157837 0 0 1 0 
1 -34.199999999997829 18 0 -1 0 0 
1 49.150000000000084 34.199999999996116 0 0 0 1 
1 0 34.199999999997829 18 1 -0 -0 
1 0 34.199999999997829 16.399110814157837 1 -0 -0 
1 13.800000000000001 41.099999999999994 5.25 0 1 -2.2204460492503131e-16 
2 12.550000000000001 5.25 0 0 0 1 1 0 -0 -0 1 0 1.25
1 34.799999999999997 41.099999999999994 5.25 0 1 -2.2204460492503131e-16 
2 33.549999999999997 5.25 0 0 0 1 1 0 -0 -0 1 0 1.25
2 46.952273902416316 34.099999999999994 0 0 0 1 1 0 -0 -0 1 0 2.2000000000000002
1 8.0477260975836415 36.299999999999997 0 1 0 0 
2 8.0477260975836415 34.099999999999994 0 0 0 1 1 0 -0 -0 1 0 2.2000000000000002
1 0 34.199999999997829 18 1 -0 -0 
Polygon3D 0
PolygonOnTriangulations 0
Surfaces 30
1 5.8499999999999517 34.199999999997829 0 0 0 1 1 0 -0 -0 1 0 
1 5.8499999999999517 34.199999999997829 0 0 -1 0 -1 0 0 -0 -0 -1 
1 0 34.199999999997829 0 -1 0 0 0 1 0 0 0 -1 
1 0 50.299999999999997 0 0 1 0 1 0 0 0 0 -1 
1 55 50.299999999999997 0 1 0 -0 0 -1 0 0 -0 -1 
1 55 34.199999999996116 0 0 -1 0 -1 0 0 -0 -0 -1 
2 46.952273902416316 34.099999999999994 0 -0 -0 -1 1 0 0 -0 1 -0 2.2000000000000002
1 8.0477260975836415 36.299999999999997 0 0 1 0 1 0 0 0 0 -1 
1 37.299999999999997 36.299999999999997 11.5 -1 0 -0 0 -2.2204460492503131e-16 -1 -0 -1 2.2204460492503131e-16 
1 8.8000000000000007 36.299999999999997 11.5 0 -1 0 0 -0 -1 1 0 0 
1 8.8000000000000007 36.299999999999997 0 1 -0 0 0 2.2204460492503131e-16 1 -0 -1 2.2204460492503131e-16 
2 8.0477260975836415 34.099999999999994 0 -0 -0 -1 1 0 0 -0 1 -0 2.2000000000000002
1 0 34.199999999997829 16.399110814157837 0 -1 0 0 0 1 -1 0 0 
1 5.8499999999999517 34.199999999997829 0 0 0 1 1 0 -0 -0 1 0 
1 0 34.199999999997829 0 -1 0 0 0 1 0 0 0 -1 
1 29.800000000000001 41.099999999999994 8.75 -1 0 -0 0 -2.2204460492503131e-16 -1 -0 -1 2.2204460492503131e-16 
1 29.800000000000001 41.099999999999994 0.75 0 2.2204460492503131e-16 1 -1 0 0 0 -1 2.2204460492503131e-16 
1 25.300000000000001 41.099999999999994 0.75 1 -0 0 0 2.2204460492503131e-16 1 -0 -1 2.2204460492503131e-16 
1 25.300000000000001 41.099999999999994 8.75 0 -2.2204460492503131e-16 -1 1 0 0 0 -1 2.2204460492503131e-16 
1 0 36.29999999999783 13.4 1 0 0 -0 0 1 0 -1 0 
1 55 34.199999999996116 0 0 -1 0 -1 0 0 -0 -0 -1 
1 0 36.29999999999783 13.4 -0 -0.81915204428893729 -0.57357643635112388 0 -0.57357643635112388 0.81915204428893729 -1 0 0 
1 8.8000000000000007 36.299999999999997 11.5 0 -2.2204460492503131e-16 -1 1 0 0 0 -1 2.2204460492503131e-16 
2 12.550000000000001 41.099999999999994 5.25 0 -1 2.2204460492503131e-16 1 0 0 -0 2.2204460492503131e-16 1 1.25
2 33.549999999999997 41.099999999999994 5.25 0 -1 2.2204460492503131e-16 1 0 0 -0 2.2204460492503131e-16 1 1.25
1 5.8499999999999517 34.199999999997829 0 0 0 1 1 0 -0 -0 1 0 
1 0 34.199999999997829 16.399110814157837 0 -1 0 0 0 1 -1 0 0 
1 13.800000000000001 41.099999999999994 5.25 0 1 0 0 -0 1 1 0 -0 
1 34.799999999999997 41.099999999999994 5.25 0 1 0 0 -0 1 1 0 -0 
1 0 34.199999999997829 18 0 -0 1 0 1 0 -1 0 0 
Triangulations 0

TShapes 188
Ve
1.00001000304068e-07
5.84999999999995 34.1999999999978 0
0 0

0101101
*
Ve
1e-07
0 34.1999999999978 0
0 0

0101101
*
Ed
 1e-07 1 1 0
1  1 0 0 5.84999999999995
2  1 1 15 0 5.84999999999995
2  2 2 16 0 5.84999999999995
0

0101000
+188 17 -187 17 *
Ve
1e-07
0 50.3 0
0 0

0101101
*
Ed
 1e-07 1 1 0
1  2 0 0 16.1000000000022
2  3 1 15 0 16.1000000000022
2  4 3 16 0 16.1000000000022
0

0101000
+187 17 -185 17 *
Ve
1e-07
55 50.3 0
0 0

0101101
*
Ed
 1e-07 1 1 0
1  3 0 0 55
2  5 1 15 0 55
2  6 4 16 0 55
0

0101000
+185 17 -183 17 *
Ve
1e-07
55 34.1999999999961 0
0 0

0101101
*
Ed
 1e-07 1 1 0
1  4 0 0 16.1000000000039
2  7 1 15 0 16.1000000000039
2  8 5 16 0 16.1000000000039
0

0101000
+183 17 -181 17 *
Ve
1e-07
49.1500000000001 34.1999999999961 0
0 0

0101101
*
Ed
 1e-07 1 1 0
1  5 0 0 5.84999999999992
2  9 1 15 0 5.84999999999992
2  10 6 16 0 5.84999999999992
0

0101000
+181 17 -179 17 *
Ve
1e-07
46.9522739024163 36.3 0
0 0

0101101
*
Ed
 1e-07 1 1 0
1  6 0 0.0454702124152333 1.5707963267949
2  11 1 15 0.0454702124152333 1.5707963267949
2  12 7 16 0.0454702124152333 1.5707963267949
0

0101000
+179 17 -177 17 *
Ve
1e-07
37.3 36.3 0
0 0

0101101
*
Ed
 1e-07 1 1 0
1  7 0 29.2522739024164 38.9045478048327
2  13 1 15 29.2522739024164 38.9045478048327
2  14 8 16 29.2522739024164 38.9045478048327
0

0101000
+175 17 -177 17 *
Ve
1e-07
37.3 41.1 -1.06581410364015e-15
0 0

0101101
*
Ed
 1e-07 1 1 0
1  8 0 0 4.8
2  15 1 12 0 4.8
2  16 9 0 0 4.8
0

0101000
+175 18 -173 18 *
Ve
1e-07
8.8 41.1 -1.06581410364015e-15
0 0

0101101
*
Ed
 1e-07 1 1 0
1  9 0 0 28.5
2  17 1 22 0 28.5
2  18 10 23 0 28.5
0

0101000
+173 24 -171 24 *
Ve
1e-07
8.8 36.3 0
0 0

0101101
*
Ed
 1e-07 1 1 0
1  10 0 0 4.8
2  19 1 12 0 4.8
2  20 11 0 0 4.8
0

0101000
+169 18 -171 18 *
Ve
1e-07
8.04772609758364 36.3 0
0 0

0101101
*
Ed
 1e-07 1 1 0
1  11 0 0 0.752273902416359
2  21 1 15 0 0.752273902416359
2  22 8 16 0 0.752273902416359
0

0101000
+167 17 -169 17 *
Ed
 1e-07 1 1 0
1  12 0 1.5707963267949 3.09612244117378
2  23 1 15 1.5707963267949 3.09612244117378
2  24 12 16 1.5707963267949 3.09612244117378
0

0101000
+167 17 -188 17 *
Wi

0101000
-186 14 -184 14 -182 14 -180 14 -178 14 -176 14 +174 14 -172 0 -170 21 +168 0 
+166 14 -165 14 *
Fa
0  1e-07 1 12

0101000
+164 0 *
Ve
1e-07
0 34.1999999999978 16.3991108141578
0 0

0101101
*
Ed
 1e-07 1 1 0
1  13 0 0 16.3991108141578
2  25 2 0 0 16.3991108141578
2  26 3 0 0 16.3991108141578
0

0101000
+187 28 -162 28 *
Ve
1.00001000280431e-07
5.84999999999995 34.1999999999978 16.3991108141578
0 0

0101101
*
Ed
 1e-07 1 1 0
1  14 0 0 5.84999999999995
2  27 2 26 0 5.84999999999995
2  28 13 0 0 5.84999999999995
0

0101000
+162 29 -160 29 *
Ed
 1e-07 1 1 0
1  15 0 0 16.3991108141578
2  29 2 0 0 16.3991108141578
2  30 12 0 0 16.3991108141578
0

0101000
+188 28 -160 28 *
Wi

0101000
-186 27 -161 26 -159 0 +158 26 *
Fa
0  1e-07 2 26

0101000
+157 0 *
Ve
1e-07
0 50.3 18
0 0

0101101
*
Ed
 1e-07 1 1 0
1  16 0 0 18
2  31 3 0 0 18
2  32 4 0 0 18
0

0101000
+185 28 -155 28 *
Ve
1e-07
0 38.2999999999978 18
0 0

0101101
*
Ed
 1e-07 1 1 0
1  17 0 4.1 16.1000000000022
2  33 3 32 4.1 16.1000000000022
2  34 14 15 4.1 16.1000000000022
0

0101000
+153 33 -155 33 *
Ve
1e-07
0 38.2999999999978 13.4
0 0

0101101
*
Ed
 1e-07 1 1 0
1  18 0 0 4.6
2  35 3 36 0 4.6
2  36 15 36 0 4.6
0

0101000
+153 37 -151 37 *
Ve
1e-07
0 36.2999999999978 13.4
0 0

0101101
*
Ed
 1e-07 1 1 0
1  19 0 0 2
2  37 3 36 0 2
2  38 15 36 0 2
0

0101000
+151 37 -149 37 *
Ed
 1e-07 1 1 0
1  20 0 0 3.66123827080381
2  39 3 36 0 3.66123827080381
2  40 15 36 0 3.66123827080381
0

0101000
+149 37 -162 37 *
Wi

0101000
-184 27 -154 26 +152 31 -150 35 -148 35 -147 35 +161 26 *
Fa
0  1e-07 3 26

0101000
+146 0 *
Ve
1e-07
55 50.3 18
0 0

0101101
*
Ed
 1e-07 1 1 0
1  21 0 0 55
2  41 4 32 0 55
2  42 14 15 0 55
0

0101000
+155 33 -144 33 *
Ed
 1e-07 1 1 0
1  22 0 0 18
2  43 4 0 0 18
2  44 5 0 0 18
0

0101000
+183 28 -144 28 *
Wi

0101000
+154 38 -182 39 +143 40 -142 38 *
Ve
2.00001e-07
29.8 50.3 0.749999999999998
0 0

0101101
*
Ve
2.00001e-07
29.8 50.3 8.75
0 0

0101101
*
Ed
 1e-07 1 1 0
1  23 0 -3.625 4.375
2  45 4 38 -3.625 4.375
2  46 16 0 -3.625 4.375
0

0101000
+140 41 -139 41 *
Ve
2.00001e-07
25.3 50.3 0.749999999999998
0 0

0101101
*
Ed
 1e-07 1 1 0
1  24 0 10.4 14.9
2  47 4 38 10.4 14.9
2  48 17 0 10.4 14.9
0

0101000
+137 41 -140 41 *
Ve
2.00001e-07
25.3 50.3 8.75
0 0

0101101
*
Ed
 1e-07 1 1 0
1  25 0 -8.375 -0.374999999999998
2  49 4 38 -8.375 -0.374999999999998
2  50 18 0 -8.375 -0.374999999999998
0

0101000
+135 41 -137 41 *
Ed
 1e-07 1 1 0
1  26 0 -17.15 -12.65
2  51 4 38 -17.15 -12.65
2  52 19 0 -17.15 -12.65
0

0101000
+139 41 -135 41 *
Wi

0101000
+138 0 +136 0 +134 0 +133 0 *
Fa
0  1e-07 4 38

0101000
+141 0 +132 0 *
Ve
1e-07
55 34.1999999999978 16.3991108141578
0 0

0101101
*
Ed
 1e-07 1 1 0
1  27 0 0 16.3991108141578
2  53 5 0 0 16.3991108141578
2  54 6 0 0 16.3991108141578
0

0101000
+181 28 -130 28 *
Ve
1e-07
55 36.2999999999978 13.4
0 0

0101101
*
Ed
 1e-07 1 1 0
1  28 0 0 3.66123827080381
2  55 5 44 0 3.66123827080381
2  56 20 45 0 3.66123827080381
0

0101000
+128 46 -130 46 *
Ve
1e-07
55 38.2999999999978 13.4
0 0

0101101
*
Ed
 1e-07 1 1 0
1  29 0 0 2
2  57 5 44 0 2
2  58 20 45 0 2
0

0101000
+126 46 -128 46 *
Ve
1e-07
55 38.2999999999978 18
0 0

0101101
*
Ed
 1e-07 1 1 0
1  30 0 0 4.6
2  59 5 44 0 4.6
2  60 20 45 0 4.6
0

0101000
+124 46 -126 46 *
Ed
 1e-07 1 1 0
1  31 0 0 12.0000000000022
2  61 5 32 0 12.0000000000022
2  62 14 15 0 12.0000000000022
0

0101000
+144 33 -124 33 *
Wi

0101000
-180 27 -129 26 +127 43 +125 43 +123 43 +122 31 +142 26 *
Fa
0  1e-07 5 26

0101000
+121 0 *
Ve
1.00000856203997e-07
49.1500000000001 34.199999999997 16.3991108141578
0 0

0101101
*
Ed
 1e-07 1 1 0
1  32 0 0 16.3991108141578
2  63 6 0 0 16.3991108141578
2  64 7 0 0 16.3991108141578
0

0101000
+179 28 -119 28 *
Ed
 1e-07 1 1 0
1  33 0 49.1500000000001 55
2  65 6 26 49.1500000000001 55
2  66 21 26 49.1500000000001 55
0

0101000
+119 29 -130 29 *
Wi

0101000
-178 27 -118 26 -117 0 +129 26 *
Fa
0  1e-07 6 26

0101000
+116 0 *
Ve
3.09025897662363e-06
46.9522739024163 36.2999999999989 13.4
0 0

0101101
*
Ed
 1e-07 1 1 0
1  34 0 0 13.4
2  67 7 0 0 13.4
2  68 8 0 0 13.4
4 G1 7 0 8 0
0

0101000
+177 28 -114 28 *
Ed
 1e-07 1 1 0
1  35 0 0 1.52532611437966
2  69 7 26 0 1.52532611437966
2  70 22 0 0 1.52532611437966
0

0101000
+114 29 -119 29 *
Wi

0101000
-176 27 -113 26 -112 0 +118 26 *
Fa
0  1e-07 7 26

0101000
+111 0 *
Ve
1e-07
8.8 36.3 11.5
0 0

0101101
*
Ed
 1e-07 1 1 0
1  36 0 0 11.5
2  71 8 49 0 11.5
2  72 11 50 0 11.5
0

0101000
+169 51 -109 51 *
Ve
1e-07
37.3 36.3 11.5
0 0

0101101
*
Ed
 1e-07 1 1 0
1  37 0 0 28.5
2  73 8 49 0 28.5
2  74 23 50 0 28.5
0

0101000
+109 51 -107 51 *
Ed
 1e-07 1 1 0
1  38 0 0 11.5
2  75 8 49 0 11.5
2  76 9 50 0 11.5
0

0101000
+107 51 -175 51 *
Ve
3.06254309903064e-06
8.04772609758364 36.2999999999989 13.4
0 0

0101101
*
Ed
 1e-07 1 1 0
1  39 0 8.04772609758364 46.9522739024163
2  77 8 26 8.04772609758364 46.9522739024163
2  78 22 0 8.04772609758364 46.9522739024163
0

0101000
+104 29 -114 29 *
Ed
 1e-07 1 1 0
1  40 0 0 13.4
2  79 8 0 0 13.4
2  80 12 0 0 13.4
4 G1 8 0 12 0
0

0101000
+167 28 -104 28 *
Wi

0101000
-166 14 -108 48 -106 48 -105 48 -174 14 -113 47 +103 52 +102 47 *
Fa
0  1e-07 8 47

0101000
+101 0 *
Ve
1e-07
37.3 41.1 11.5
0 0

0101101
*
Ed
 1e-07 1 1 0
1  41 0 0 4.8
2  81 9 0 0 4.8
2  82 23 0 0 4.8
0

0101000
+107 18 -99 18 *
Ed
 1e-07 1 1 0
1  42 0 0 11.5
2  83 9 53 0 11.5
2  84 10 23 0 11.5
0

0101000
+99 24 -173 24 *
Wi

0101000
+98 0 -105 48 +97 21 -172 0 *
Fa
0  1e-07 9 0

0101000
+96 0 *
Ve
1e-07
8.8 41.1 11.5
0 0

0101101
*
Ed
 1e-07 1 1 0
1  43 0 0 28.5
2  85 10 23 0 28.5
2  86 23 53 0 28.5
0

0101000
+94 24 -99 24 *
Ed
 1e-07 1 1 0
1  44 0 0 11.5
2  87 10 23 0 11.5
2  88 11 53 0 11.5
0

0101000
+171 24 -94 24 *
Wi

0101000
-93 55 -92 55 -97 55 -170 55 *
Ve
1e-07
13.8 41.1 5.25
0 0

0101101
*
Ed
 1e-07 1 1 0
1  45 0 0 6.28318530717959
2  89 10 58 0 6.28318530717959
2  90 24 59 0 6.28318530717959
0

0101100
+90 60 -90 60 *
Wi

0101000
-89 57 *
Ve
1e-07
34.8 41.1 5.25
0 0

0101101
*
Ed
 1e-07 1 1 0
1  46 0 0 6.28318530717959
2  91 10 58 0 6.28318530717959
2  92 25 59 0 6.28318530717959
0

0101100
+87 60 -87 60 *
Wi

0101000
-86 57 *
Ve
1e-07
29.8 41.1 8.75
0 0

0101101
*
Ve
1e-07
29.8 41.1 0.75
0 0

0101101
*
Ed
 1e-07 1 1 0
1  47 0 0 8
2  93 10 63 0 8
2  94 16 64 0 8
0

0101000
+84 65 -83 65 *
Ve
1e-07
25.3 41.1 8.75
0 0

0101101
*
Ed
 1e-07 1 1 0
1  48 0 0 4.5
2  95 10 63 0 4.5
2  96 19 64 0 4.5
0

0101000
+81 65 -84 65 *
Ve
1e-07
25.3 41.1 0.75
0 0

0101101
*
Ed
 1e-07 1 1 0
1  49 0 0 8
2  97 10 63 0 8
2  98 18 64 0 8
0

0101000
+79 65 -81 65 *
Ed
 1e-07 1 1 0
1  50 0 0 4.5
2  99 10 63 0 4.5
2  100 17 64 0 4.5
0

0101000
+83 65 -79 65 *
Wi

0101000
+82 62 +80 62 +78 62 +77 62 *
Fa
0  1e-07 10 54

0101000
+91 0 +88 0 +85 0 +76 0 *
Ed
 1e-07 1 1 0
1  51 0 0 4.8
2  101 11 0 0 4.8
2  102 23 0 0 4.8
0

0101000
+109 18 -94 18 *
Wi

0101000
+168 0 -108 48 +92 21 -74 0 *
Fa
0  1e-07 11 0

0101000
+73 0 *
Ed
 1e-07 1 1 0
1  52 0 4.7578591928007 6.28318530717959
2  103 12 26 4.7578591928007 6.28318530717959
2  104 22 0 4.7578591928007 6.28318530717959
0

0101000
+160 29 -104 29 *
Wi

0101000
-165 27 -158 26 -71 0 +102 26 *
Fa
0  1e-07 12 26

0101000
+70 0 *
Ve
1.00000014210855e-07
0 34.1999999999978 18
0 0

0101101
*
Ed
 1e-07 1 1 0
1  53 0 0 1.60088918584216
2  105 13 66 0 1.60088918584216
2  106 15 36 0 1.60088918584216
0

0101000
+162 37 -68 37 *
Ve
1.00001000304068e-07
5.84999999999995 34.1999999999978 18
0 0

0101101
*
Ed
 1e-07 1 1 0
1  54 0 0 5.84999999999995
2  107 13 0 0 5.84999999999995
2  108 26 67 0 5.84999999999995
0

0101000
+68 29 -66 29 *
Ed
 1e-07 1 1 0
1  55 0 16.3991108141578 18
2  109 13 68 16.3991108141578 18
2  110 27 68 16.3991108141578 18
0

0101000
+160 28 -66 28 *
Wi

0101000
-67 35 -65 0 +64 26 +159 0 *
Fa
0  1e-07 13 0

0101000
+63 0 *
Ed
 1e-07 1 1 0
1  56 0 0 55
2  111 14 67 0 55
2  112 26 67 0 55
0

0101000
+153 29 -124 29 *
Wi

0101000
-152 31 -143 31 -122 31 +61 0 *
Fa
0  1e-07 14 67

0101000
+60 0 *
Ed
 1e-07 1 1 0
1  57 0 0 4.1
2  113 15 36 0 4.1
2  114 26 69 0 4.1
0

0101000
+68 37 -153 37 *
Wi

0101000
+147 35 +148 35 +150 35 +58 35 +67 35 *
Fa
0  1e-07 15 26

0101000
+57 0 *
Ed
 1e-07 1 1 0
1  58 0 0 9.2
2  115 16 0 0 9.2
2  116 17 0 0 9.2
0

0101000
+83 41 -140 41 *
Ed
 1e-07 1 1 0
1  59 0 0 9.2
2  117 16 0 0 9.2
2  118 19 0 0 9.2
0

0101000
+84 41 -139 41 *
Wi

0101000
-82 62 -55 0 -138 0 +54 0 *
Fa
0  1e-07 16 0

0101000
+53 0 *
Ed
 1e-07 1 1 0
1  60 0 0 9.2
2  119 17 0 0 9.2
2  120 18 0 0 9.2
0

0101000
+79 41 -137 41 *
Wi

0101000
-77 62 -51 0 -136 0 +55 0 *
Fa
0  1e-07 17 0

0101000
+50 0 *
Ed
 1e-07 1 1 0
1  61 0 0 9.2
2  121 18 0 0 9.2
2  122 19 0 0 9.2
0

0101000
+81 41 -135 41 *
Wi

0101000
-78 62 -48 0 -134 0 +51 0 *
Fa
0  1e-07 18 0

0101000
+47 0 *
Wi

0101000
-80 62 -54 0 -133 0 +48 0 *
Fa
0  1e-07 19 0

0101000
+45 0 *
Ve
1.00000866862138e-07
55 34.199999999997 18
0 0

0101101
*
Ed
 1e-07 1 1 0
1  62 0 0 1.60088918584216
2  123 20 45 0 1.60088918584216
2  124 21 44 0 1.60088918584216
0

0101000
+130 46 -43 46 *
Ed
 1e-07 1 1 0
1  63 0 0 4.1
2  125 20 45 0 4.1
2  126 26 71 0 4.1
0

0101000
+43 46 -124 46 *
Wi

0101000
-127 43 -125 43 -42 43 -123 43 -41 43 *
Fa
0  1e-07 20 70

0101000
+40 0 *
Ve
1e-07
49.1500000000001 34.1999999999961 18
0 0

0101101
*
Ed
 1e-07 1 1 0
1  64 0 16.3991108141578 18
2  127 21 0 16.3991108141578 18
2  128 27 68 16.3991108141578 18
0

0101000
+119 28 -38 28 *
Ed
 1e-07 1 1 0
1  65 0 49.1500000000001 55
2  129 21 26 49.1500000000001 55
2  130 26 67 49.1500000000001 55
0

0101000
+38 29 -43 29 *
Wi

0101000
+117 0 -37 26 -36 0 +42 43 *
Fa
0  1e-07 21 26

0101000
+35 0 *
Ed
 1e-07 1 1 0
1  66 0 5.84999999999995 49.1500000000001
2  131 22 0 5.84999999999995 49.1500000000001
2  132 27 0 5.84999999999995 49.1500000000001
0

0101000
+160 29 -119 29 *
Wi

0101000
+71 0 -33 0 +112 0 +103 0 *
Fa
0  1e-07 22 0

0101000
+32 0 *
Wi

0101000
+74 0 -106 48 +93 21 -98 0 *
Fa
0  1e-07 23 0

0101000
+30 0 *
Ve
1e-07
13.8 50.1 5.25
0 0

0101101
*
Ed
 1e-07 1 1 0
1  67 0 0 9
3  133 134CN 24 0 0 9
0

0101000
+90 74 -28 74 *
Ed
 1e-07 1 1 0
1  68 0 0 6.28318530717959
2  135 24 77 0 6.28318530717959
2  136 28 78 0 6.28318530717959
0

0101100
+28 79 -28 79 *
Wi

0101000
-89 73 -27 0 +26 76 +27 0 *
Fa
0  1e-07 24 0

0101000
+25 0 *
Ve
1e-07
34.8 50.1 5.25
0 0

0101101
*
Ed
 1e-07 1 1 0
1  69 0 0 9
3  137 138CN 25 0 0 9
0

0101000
+87 74 -23 74 *
Ed
 1e-07 1 1 0
1  70 0 0 6.28318530717959
2  139 25 77 0 6.28318530717959
2  140 29 78 0 6.28318530717959
0

0101100
+23 79 -23 79 *
Wi

0101000
-86 73 -22 0 +21 76 +22 0 *
Fa
0  1e-07 25 0

0101000
+20 0 *
Ve
1e-07
46.9522739024163 36.3 18
0 0

0101101
*
Ed
 1e-07 1 1 0
1  71 0 0.0454702124152333 1.5707963267949
2  141 26 15 0.0454702124152333 1.5707963267949
2  142 30 80 0.0454702124152333 1.5707963267949
0

0101000
+38 33 -18 33 *
Ve
1e-07
8.04772609758364 36.3 18
0 0

0101101
*
Ed
 1e-07 1 1 0
1  72 0 0 38.9045478048327
2  143 26 15 0 38.9045478048327
2  144 30 80 0 38.9045478048327
0

0101000
+16 33 -18 33 *
Ed
 1e-07 1 1 0
1  73 0 1.5707963267949 3.09612244117378
2  145 26 15 1.5707963267949 3.09612244117378
2  146 30 80 1.5707963267949 3.09612244117378
0

0101000
+16 33 -66 33 *
Wi

0101000
-58 35 -61 0 +41 43 +36 0 -17 31 +15 31 -14 31 +65 0 *
Fa
0  1e-07 26 67

0101000
+13 0 *
Ed
 1e-07 1 1 0
1  74 0 5.84999999999995 49.1500000000001
2  147 27 0 5.84999999999995 49.1500000000001
2  148 30 0 5.84999999999995 49.1500000000001
0

0101000
+66 29 -38 29 *
Wi

0101000
-64 26 -11 0 +37 26 +33 0 *
Fa
0  1e-07 27 0

0101000
+10 0 *
Wi

0101100
+26 0 *
Fa
0  1e-07 28 0

0101000
-8 56 *
Wi

0101100
+21 0 *
Fa
0  1e-07 29 0

0101000
-6 56 *
Wi

0101000
+14 31 -15 31 +17 31 +11 0 *
Fa
0  1e-07 30 0

0101000
+4 0 *
Sh

0101100
-163 6 +156 25 +145 25 +131 0 +120 25 +115 25 +110 25 -100 6 +95 6 +75 0 
+72 6 +69 25 +62 25 +59 25 +56 25 +52 0 +49 0 +46 0 +44 0 +39 25 
+34 25 +31 25 +29 6 -24 72 -19 72 +12 25 +9 25 -7 81 -5 81 +3 25 
*
So

0100000
+2 0 *

+1 1 