DBRep_DrawableShape

CASCADE Topology V1, (c) Matra-Datavision
Locations 35
1
              1               0               0               0 
              0               1               0               0 
              0               0               1               0 
1
              1               0               0               0 
              0               1               0               0 
              0               0               1               0 
1
              1               0               0               0 
              0               1               0               0 
              0               0               1               0 
1
              1               0               0               0 
              0               1               0               0 
              0               0               1               0 
2  2 -1 3 1 4 -1 0
1
              1               0               0               0 
              0               1               0               0 
              0               0               1               0 
2  6 -1 0
2  2 1 6 -1 0
2  1 -1 4 1 3 -1 2 1 6 -1 0
2  3 1 4 -1 0
2  6 1 2 -1 3 1 4 -1 0
2  1 -1 4 1 3 -1 0
2  1 -1 0
1
              1               0               0               0 
              0               1               0               0 
              0               0               1              18 
2  6 1 2 -1 14 1 3 1 4 -1 0
2  14 -1 2 1 6 -1 0
2  1 -1 4 1 3 -1 14 -1 2 1 6 -1 0
1
              0               0              -1              -0 
             -1               0               0              -0 
              0               1               0               0 
2  18 1 4 -1 0
2  3 1 18 -1 0
2  1 -1 4 1 18 -1 0
2  6 1 2 -1 0
2  6 1 2 -1 14 1 0
1
              1               0               0              55 
              0               1               0              -0 
              0               0               1              -0 
2  18 1 4 -1 24 1 0
2  3 1 4 -1 24 -1 4 1 18 -1 0
2  18 -1 0
2  1 -1 24 -1 4 1 18 -1 0
2  4 1 18 -1 0
2  2 -1 14 1 3 1 4 -1 0
2  4 1 3 -1 0
2  2 -1 14 1 3 1 18 -1 0
2  4 -1 24 1 0
2  2 -1 14 1 3 1 4 -1 24 -1 4 1 18 -1 0
2  4 1 3 -1 14 -1 2 1 6 -1 0
Curve2ds 88
1 0 0 -1 0 
1 0 -0 1 0 
1 -5.8499999999999517 0 0 1 
1 0 0 1 0 
1 -5.8499999999999517 16.100000000002169 1 0 
1 0 0 1 0 
1 49.150000000000048 16.100000000002169 0 -1 
1 0 0 1 0 
1 49.150000000000048 -1.7124079931818414e-12 -1 0 
1 0 -0 1 0 
2 41.102273902416364 -0.099999999997834266 1 0 -0 1 2.2000000000000028
1 0 0 1 0 
1 2.1977260975836899 2.1000000000021686 1 0 
1 0 0 1 0 
2 2.1977260975836899 -0.099999999997834266 1 0 -0 1 2.1999999999999993
1 0 0 1 0 
1 5.8499999999999517 0 0 -1 
1 0 0 0 -1 
1 5.8499999999999517 -16.399110814157837 -1 0 
1 0 0 0 -1 
1 0 -0 0 -1 
1 3.0961224411737809 0 0 -1 
1 16.100000000002169 0 0 -1 
1 0 0 0 -1 
1 0 -18 1 0 
1 -5.8499999999999517 0 0 1 
1 4.1000000000000014 -18 0 1 
1 4.1000000000000014 -18 0 1 
1 4.1000000000000014 -13.4 -1 0 
1 4.1000000000000014 -13.4 -1 0 
1 2.1000000000000014 -13.4 -0.57357643635112388 -0.81915204428893729 
1 2.1000000000000014 -13.4 -0.57357643635112388 -0.81915204428893729 
1 55 0 0 -1 
1 0 0 0 -1 
1 0 -18 1 0 
1 -5.8499999999999517 16.100000000002169 1 0 
1 16.100000000003881 0 0 -1 
1 0 -0 0 -1 
1 14.000000000002167 -13.4 0.57357643635112388 -0.81915204428893729 
1 0 0 0.81915204428893729 0.57357643635112388 
1 12.000000000002167 -13.4 1 0 
1 0 -2 0 1 
1 12.000000000002167 -18 0 1 
1 4.5999999999999996 -2 -1 0 
1 0 -18 1 0 
1 49.150000000000048 16.100000000002169 0 -1 
1 5.8499999999999162 0 0 -1 
1 0.045470212415233323 0 0 -1 
1 55 -16.399110814157837 -1 0 
1 55 -16.399110814157837 -1 0 
1 1.5707963267948966 0 0 -1 
1 38.904547804832674 0 0 -1 
7 0 0  8 9 2  1.5707963267948983 -13.399999999996906  1.3801305617474404 -13.400000000595963  1.1894647977002251 -13.530536996473529  0.99879903364671918 -13.791610105567088  0.80813326960651466 -14.173099360996275  0.61746750555221297 -14.654747500666417  0.42680174150996208 -15.208167262910138  0.23613597746269219 -15.800672344313464  0.045470212415234253 -16.399110814160291 
 0 9 1.525326114379663 9
3 3.8355829503621193 -46.952273902416316 -1 0 -0 -1 3.8355829503658958 2.2000000000000002
1 -8.0477260975836415 -13.4 1 0 
1 0 0 0 -1 
1 0 0 0 -1 
1 1.5707963267948966 0 0 -1 
7 0 0  8 9 2  3.0961224411737831 -16.399110814157854  2.9054566761264224 -15.800672344311351  2.7147909120792519 -15.208167262942879  2.5241251480219944 -14.654747500542726  2.3334593839917943 -14.173099361200002  2.1427936199315809 -13.791610105487052  1.9521278558877384 -13.530536996515366  1.7614620918422574 -13.400000000595965  1.5707963267948966 -13.39999999999692 
 4.7578591928006997 9 6.2831853071795862 9
3 3.8355829503621193 -8.0477260975836415 -1 0 -0 -1 3.8355829503658958 2.2000000000000002
1 0 0 1 0 
1 0 -16.399110814157837 0 -1 
1 1.6008891858421634 0 0 -1 
1 -5.8499999999999517 0 1 0 
1 -16.399110814157837 -5.8499999999999517 1 0 
1 -16.399110814157837 -5.8499999999999517 1 0 
1 -5.8499999999999517 4.1000000000000014 1 0 
1 -5.8499999999999517 4.1000000000000014 1 0 
1 0 -18 1 0 
1 -5.8499999999999517 0 0 1 
1 2.9991108141578362 2.1000000000000014 1 0 
1 0 -16.399110814157837 0 -1 
1 4.5999999999999996 2.1000000000000014 0 -1 
1 49.150000000000048 0 0 1 
1 5.8499999999999162 0 0 -1 
1 -16.399110814157837 -49.150000000000084 1 0 
1 55 -18 -1 0 
1 -5.8499999999999517 0 1 0 
1 3.6612382708038114 0 0 -1 
1 0 0 0 -1 
2 41.102273902416364 -0.099999999997834266 1 0 -0 1 2.2000000000000028
2 -0.099999999997834266 -46.952273902416316 0 -1 1 0 2.2000000000000028
1 2.1977260975836899 2.1000000000021686 1 0 
1 2.1000000000021686 -8.0477260975836415 0 -1 
2 2.1977260975836899 -0.099999999997834266 1 0 -0 1 2.1999999999999993
2 -0.099999999997834266 -8.0477260975836415 0 -1 1 0 2.1999999999999993
1 1.6008891858421634 0 0 -1 
1 0 0 0 -1 
Curves 44
1 5.8499999999999517 34.199999999997829 0 -1 0 0 
1 0 34.199999999997829 0 0 1 0 
1 0 50.299999999999997 0 1 0 0 
1 55 50.299999999999997 0 0 -1 0 
1 55 34.199999999996116 0 -1 0 0 
2 46.952273902416316 34.099999999999994 0 0 0 1 1 0 -0 -0 1 0 2.2000000000000002
1 8.0477260975836415 36.299999999999997 0 1 0 0 
2 8.0477260975836415 34.099999999999994 0 0 0 1 1 0 -0 -0 1 0 2.2000000000000002
1 0 34.199999999997829 0 0 0 1 
1 0 34.199999999997829 16.399110814157837 1 -0 -0 
1 5.8499999999999517 34.199999999997829 0 0 0 1 
1 0 50.299999999999997 0 0 0 1 
1 0 34.199999999997829 0 0 1 0 
1 -38.29999999999783 18 0 0 -1 0 
1 -38.29999999999783 13.4 0 1 0 0 
1 -36.29999999999783 13.4 0 0.57357643635112388 0.81915204428893729 0 
1 55 50.299999999999997 0 0 0 1 
1 0 50.299999999999997 0 1 0 0 
1 55 34.199999999996116 0 0 0 1 
1 -36.29999999999783 13.4 0 0.57357643635112388 0.81915204428893729 0 
1 -38.29999999999783 13.4 0 1 0 0 
1 -38.29999999999783 18 0 0 -1 0 
1 55 50.299999999999997 0 0 -1 0 
1 49.150000000000084 34.199999999996116 0 0 0 1 
1 0 34.199999999997829 16.399110814157837 1 -0 -0 
1 46.952273902416316 36.299999999999997 0 0 0 1 
3 46.952273902416316 34.099999999999994 16.541925614828923 -0 -0.81915204428893729 -0.57357643635112388 0 0.57357643635112388 -0.81915204428893729 1 -0 0 3.8355829503658958 2.2000000000000002
1 0 36.29999999999783 13.4 1 -0 -0 
1 8.0477260975836415 36.299999999999997 0 0 0 1 
3 8.0477260975836415 34.099999999999994 16.541925614828923 -0 -0.81915204428893729 -0.57357643635112388 0 0.57357643635112388 -0.81915204428893729 1 -0 0 3.8355829503658958 2.2000000000000002
1 -34.199999999997829 16.399110814157837 0 0 1 0 
1 0 34.199999999997829 18 1 -0 -0 
1 5.8499999999999517 34.199999999997829 0 0 0 1 
1 0 38.29999999999783 18 1 -0 -0 
1 -34.199999999997829 18 0 -1 0 0 
1 -34.199999999997829 16.399110814157837 0 0 1 0 
1 -34.199999999997829 18 0 -1 0 0 
1 49.150000000000084 34.199999999996116 0 0 0 1 
1 0 34.199999999997829 18 1 -0 -0 
1 0 34.199999999997829 16.399110814157837 1 -0 -0 
2 46.952273902416316 34.099999999999994 0 0 0 1 1 0 -0 -0 1 0 2.2000000000000002
1 8.0477260975836415 36.299999999999997 0 1 0 0 
2 8.0477260975836415 34.099999999999994 0 0 0 1 1 0 -0 -0 1 0 2.2000000000000002
1 0 34.199999999997829 18 1 -0 -0 
Polygon3D 0
PolygonOnTriangulations 0
Surfaces 18
1 5.8499999999999517 34.199999999997829 0 0 0 1 1 0 -0 -0 1 0 
1 5.8499999999999517 34.199999999997829 0 0 -1 0 -1 0 0 -0 -0 -1 
1 0 34.199999999997829 0 -1 0 0 0 1 0 0 0 -1 
1 0 50.299999999999997 0 0 1 0 1 0 0 0 0 -1 
1 55 50.299999999999997 0 1 0 -0 0 -1 0 0 -0 -1 
1 55 34.199999999996116 0 0 -1 0 -1 0 0 -0 -0 -1 
2 46.952273902416316 34.099999999999994 0 -0 -0 -1 1 0 0 -0 1 -0 2.2000000000000002
1 8.0477260975836415 36.299999999999997 0 0 1 0 1 0 0 0 0 -1 
2 8.0477260975836415 34.099999999999994 0 -0 -0 -1 1 0 0 -0 1 -0 2.2000000000000002
1 0 34.199999999997829 16.399110814157837 0 -1 0 0 0 1 -1 0 0 
1 5.8499999999999517 34.199999999997829 0 0 0 1 1 0 -0 -0 1 0 
1 0 34.199999999997829 0 -1 0 0 0 1 0 0 0 -1 
1 0 36.29999999999783 13.4 1 0 0 -0 0 1 0 -1 0 
1 55 34.199999999996116 0 0 -1 0 -1 0 0 -0 -0 -1 
1 0 36.29999999999783 13.4 -0 -0.81915204428893729 -0.57357643635112388 0 -0.57357643635112388 0.81915204428893729 -1 0 0 
1 5.8499999999999517 34.199999999997829 0 0 0 1 1 0 -0 -0 1 0 
1 0 34.199999999997829 16.399110814157837 0 -1 0 0 0 1 -1 0 0 
1 0 34.199999999997829 18 0 -0 1 0 1 0 -1 0 0 
Triangulations 0

TShapes 110
Ve
1.00001000304068e-07
5.84999999999995 34.1999999999978 0
0 0

0101101
*
Ve
1e-07
0 34.1999999999978 0
0 0

0101101
*
Ed
 1e-07 1 1 0
1  1 0 0 5.84999999999995
2  1 1 7 0 5.84999999999995
2  2 2 8 0 5.84999999999995
0

0101000
+110 9 -109 9 *
Ve
1e-07
0 50.3 0
0 0

0101101
*
Ed
 1e-07 1 1 0
1  2 0 0 16.1000000000022
2  3 1 7 0 16.1000000000022
2  4 3 8 0 16.1000000000022
0

0101000
+109 9 -107 9 *
Ve
1e-07
55 50.3 0
0 0

0101101
*
Ed
 1e-07 1 1 0
1  3 0 0 55
2  5 1 7 0 55
2  6 4 8 0 55
0

0101000
+107 9 -105 9 *
Ve
1e-07
55 34.1999999999961 0
0 0

0101101
*
Ed
 1e-07 1 1 0
1  4 0 0 16.1000000000039
2  7 1 7 0 16.1000000000039
2  8 5 8 0 16.1000000000039
0

0101000
+105 9 -103 9 *
Ve
1e-07
49.1500000000001 34.1999999999961 0
0 0

0101101
*
Ed
 1e-07 1 1 0
1  5 0 0 5.84999999999992
2  9 1 7 0 5.84999999999992
2  10 6 8 0 5.84999999999992
0

0101000
+103 9 -101 9 *
Ve
1e-07
46.9522739024163 36.3 0
0 0

0101101
*
Ed
 1e-07 1 1 0
1  6 0 0.0454702124152333 1.5707963267949
2  11 1 7 0.0454702124152333 1.5707963267949
2  12 7 8 0.0454702124152333 1.5707963267949
0

0101000
+101 9 -99 9 *
Ve
1e-07
8.04772609758364 36.3 0
0 0

0101101
*
Ed
 1e-07 1 1 0
1  7 0 0 38.9045478048327
2  13 1 7 0 38.9045478048327
2  14 8 8 0 38.9045478048327
0

0101000
+97 9 -99 9 *
Ed
 1e-07 1 1 0
1  8 0 1.5707963267949 3.09612244117378
2  15 1 7 1.5707963267949 3.09612244117378
2  16 9 8 1.5707963267949 3.09612244117378
0

0101000
+97 9 -110 9 *
Wi

0101100
+108 0 +106 0 +104 0 +102 0 +100 0 +98 0 -96 0 +95 0 *
Fa
0  1e-07 1 0

0101000
-94 6 *
Ve
1e-07
0 34.1999999999978 16.3991108141578
0 0

0101101
*
Ed
 1e-07 1 1 0
1  9 0 0 16.3991108141578
2  17 2 0 0 16.3991108141578
2  18 3 0 0 16.3991108141578
0

0101000
+109 12 -92 12 *
Ve
1.00001000280431e-07
5.84999999999995 34.1999999999978 16.3991108141578
0 0

0101101
*
Ed
 1e-07 1 1 0
1  10 0 0 5.84999999999995
2  19 2 10 0 5.84999999999995
2  20 10 0 0 5.84999999999995
0

0101000
+92 13 -90 13 *
Ed
 1e-07 1 1 0
1  11 0 0 16.3991108141578
2  21 2 0 0 16.3991108141578
2  22 9 0 0 16.3991108141578
0

0101000
+110 12 -90 12 *
Wi

0101000
-108 11 -91 10 -89 0 +88 10 *
Fa
0  1e-07 2 10

0101000
+87 0 *
Ve
1e-07
0 50.3 18
0 0

0101101
*
Ed
 1e-07 1 1 0
1  12 0 0 18
2  23 3 0 0 18
2  24 4 0 0 18
0

0101000
+107 12 -85 12 *
Ve
1e-07
0 38.2999999999978 18
0 0

0101101
*
Ed
 1e-07 1 1 0
1  13 0 4.1 16.1000000000022
2  25 3 16 4.1 16.1000000000022
2  26 11 7 4.1 16.1000000000022
0

0101000
+83 17 -85 17 *
Ve
1e-07
0 38.2999999999978 13.4
0 0

0101101
*
Ed
 1e-07 1 1 0
1  14 0 0 4.6
2  27 3 20 0 4.6
2  28 12 20 0 4.6
0

0101000
+83 21 -81 21 *
Ve
1e-07
0 36.2999999999978 13.4
0 0

0101101
*
Ed
 1e-07 1 1 0
1  15 0 0 2
2  29 3 20 0 2
2  30 12 20 0 2
0

0101000
+81 21 -79 21 *
Ed
 1e-07 1 1 0
1  16 0 0 3.66123827080381
2  31 3 20 0 3.66123827080381
2  32 12 20 0 3.66123827080381
0

0101000
+79 21 -92 21 *
Wi

0101000
-106 11 -84 10 +82 15 -80 19 -78 19 -77 19 +91 10 *
Fa
0  1e-07 3 10

0101000
+76 0 *
Ve
1e-07
55 50.3 18
0 0

0101101
*
Ed
 1e-07 1 1 0
1  17 0 0 18
2  33 4 0 0 18
2  34 5 0 0 18
0

0101000
+105 12 -74 12 *
Ed
 1e-07 1 1 0
1  18 0 0 55
2  35 4 16 0 55
2  36 11 7 0 55
0

0101000
+85 17 -74 17 *
Wi

0101000
+84 0 -73 0 -104 22 +72 23 *
Fa
0  1e-07 4 0

0101000
+71 0 *
Ve
1e-07
55 34.1999999999978 16.3991108141578
0 0

0101101
*
Ed
 1e-07 1 1 0
1  19 0 0 16.3991108141578
2  37 5 0 0 16.3991108141578
2  38 6 0 0 16.3991108141578
0

0101000
+103 12 -69 12 *
Ve
1e-07
55 36.2999999999978 13.4
0 0

0101101
*
Ed
 1e-07 1 1 0
1  20 0 0 3.66123827080381
2  39 5 26 0 3.66123827080381
2  40 13 27 0 3.66123827080381
0

0101000
+67 28 -69 28 *
Ve
1e-07
55 38.2999999999978 13.4
0 0

0101101
*
Ed
 1e-07 1 1 0
1  21 0 0 2
2  41 5 26 0 2
2  42 13 27 0 2
0

0101000
+65 28 -67 28 *
Ve
1e-07
55 38.2999999999978 18
0 0

0101101
*
Ed
 1e-07 1 1 0
1  22 0 0 4.6
2  43 5 26 0 4.6
2  44 13 27 0 4.6
0

0101000
+63 28 -65 28 *
Ed
 1e-07 1 1 0
1  23 0 0 12.0000000000022
2  45 5 16 0 12.0000000000022
2  46 11 7 0 12.0000000000022
0

0101000
+74 17 -63 17 *
Wi

0101000
-102 11 -68 10 +66 25 +64 25 +62 25 +61 15 +73 10 *
Fa
0  1e-07 5 10

0101000
+60 0 *
Ve
1.00000856203997e-07
49.1500000000001 34.199999999997 16.3991108141578
0 0

0101101
*
Ed
 1e-07 1 1 0
1  24 0 0 16.3991108141578
2  47 6 0 0 16.3991108141578
2  48 7 0 0 16.3991108141578
0

0101000
+101 12 -58 12 *
Ed
 1e-07 1 1 0
1  25 0 49.1500000000001 55
2  49 6 10 49.1500000000001 55
2  50 14 10 49.1500000000001 55
0

0101000
+58 13 -69 13 *
Wi

0101000
-100 11 -57 10 -56 0 +68 10 *
Fa
0  1e-07 6 10

0101000
+55 0 *
Ve
3.09025897662363e-06
46.9522739024163 36.2999999999989 13.4
0 0

0101101
*
Ed
 1e-07 1 1 0
1  26 0 0 13.4
2  51 7 0 0 13.4
2  52 8 0 0 13.4
4 G1 7 0 8 0
0

0101000
+99 12 -53 12 *
Ed
 1e-07 1 1 0
1  27 0 0 1.52532611437966
2  53 7 10 0 1.52532611437966
2  54 15 0 0 1.52532611437966
0

0101000
+53 13 -58 13 *
Wi

0101000
-98 11 -52 10 -51 0 +57 10 *
Fa
0  1e-07 7 10

0101000
+50 0 *
Ve
3.06254309903064e-06
8.04772609758364 36.2999999999989 13.4
0 0

0101101
*
Ed
 1e-07 1 1 0
1  28 0 8.04772609758364 46.9522739024163
2  55 8 10 8.04772609758364 46.9522739024163
2  56 15 0 8.04772609758364 46.9522739024163
0

0101000
+48 13 -53 13 *
Ed
 1e-07 1 1 0
1  29 0 0 13.4
2  57 8 0 0 13.4
2  58 9 0 0 13.4
4 G1 8 0 9 0
0

0101000
+97 12 -48 12 *
Wi

0101000
-96 11 -52 10 +47 0 +46 10 *
Fa
0  1e-07 8 10

0101000
+45 0 *
Ed
 1e-07 1 1 0
1  30 0 4.7578591928007 6.28318530717959
2  59 9 10 4.7578591928007 6.28318530717959
2  60 15 0 4.7578591928007 6.28318530717959
0

0101000
+90 13 -48 13 *
Wi

0101000
-95 11 -88 10 -43 0 +46 10 *
Fa
0  1e-07 9 10

0101000
+42 0 *
Ve
1.00000014210855e-07
0 34.1999999999978 18
0 0

0101101
*
Ed
 1e-07 1 1 0
1  31 0 0 1.60088918584216
2  61 10 29 0 1.60088918584216
2  62 12 20 0 1.60088918584216
0

0101000
+92 21 -40 21 *
Ve
1.00001000304068e-07
5.84999999999995 34.1999999999978 18
0 0

0101101
*
Ed
 1e-07 1 1 0
1  32 0 0 5.84999999999995
2  63 10 0 0 5.84999999999995
2  64 16 30 0 5.84999999999995
0

0101000
+40 13 -38 13 *
Ed
 1e-07 1 1 0
1  33 0 16.3991108141578 18
2  65 10 31 16.3991108141578 18
2  66 17 31 16.3991108141578 18
0

0101000
+90 12 -38 12 *
Wi

0101000
-39 19 -37 0 +36 10 +89 0 *
Fa
0  1e-07 10 0

0101000
+35 0 *
Ed
 1e-07 1 1 0
1  34 0 0 55
2  67 11 30 0 55
2  68 16 30 0 55
0

0101000
+83 13 -63 13 *
Wi

0101000
-82 15 -72 15 -61 15 +33 0 *
Fa
0  1e-07 11 30

0101000
+32 0 *
Ed
 1e-07 1 1 0
1  35 0 0 4.1
2  69 12 20 0 4.1
2  70 16 32 0 4.1
0

0101000
+40 21 -83 21 *
Wi

0101000
+77 19 +78 19 +80 19 +30 19 +39 19 *
Fa
0  1e-07 12 10

0101000
+29 0 *
Ve
1.00000866862138e-07
55 34.199999999997 18
0 0

0101101
*
Ed
 1e-07 1 1 0
1  36 0 0 1.60088918584216
2  71 13 27 0 1.60088918584216
2  72 14 26 0 1.60088918584216
0

0101000
+69 28 -27 28 *
Ed
 1e-07 1 1 0
1  37 0 0 4.1
2  73 13 27 0 4.1
2  74 16 34 0 4.1
0

0101000
+27 28 -63 28 *
Wi

0101000
-66 25 -64 25 -26 25 -62 25 -25 25 *
Fa
0  1e-07 13 33

0101000
+24 0 *
Ve
1e-07
49.1500000000001 34.1999999999961 18
0 0

0101101
*
Ed
 1e-07 1 1 0
1  38 0 16.3991108141578 18
2  75 14 0 16.3991108141578 18
2  76 17 31 16.3991108141578 18
0

0101000
+58 12 -22 12 *
Ed
 1e-07 1 1 0
1  39 0 49.1500000000001 55
2  77 14 10 49.1500000000001 55
2  78 16 30 49.1500000000001 55
0

0101000
+22 13 -27 13 *
Wi

0101000
+56 0 -21 10 -20 0 +26 25 *
Fa
0  1e-07 14 10

0101000
+19 0 *
Ed
 1e-07 1 1 0
1  40 0 5.84999999999995 49.1500000000001
2  79 15 0 5.84999999999995 49.1500000000001
2  80 17 0 5.84999999999995 49.1500000000001
0

0101000
+90 13 -58 13 *
Wi

0101000
+43 0 -17 0 +51 0 +47 0 *
Fa
0  1e-07 15 0

0101000
+16 0 *
Ve
1e-07
46.9522739024163 36.3 18
0 0

0101101
*
Ed
 1e-07 1 1 0
1  41 0 0.0454702124152333 1.5707963267949
2  81 16 7 0.0454702124152333 1.5707963267949
2  82 18 35 0.0454702124152333 1.5707963267949
0

0101000
+22 17 -14 17 *
Ve
1e-07
8.04772609758364 36.3 18
0 0

0101101
*
Ed
 1e-07 1 1 0
1  42 0 0 38.9045478048327
2  83 16 7 0 38.9045478048327
2  84 18 35 0 38.9045478048327
0

0101000
+12 17 -14 17 *
Ed
 1e-07 1 1 0
1  43 0 1.5707963267949 3.09612244117378
2  85 16 7 1.5707963267949 3.09612244117378
2  86 18 35 1.5707963267949 3.09612244117378
0

0101000
+12 17 -38 17 *
Wi

0101000
-30 19 -33 0 +25 25 +20 0 -13 15 +11 15 -10 15 +37 0 *
Fa
0  1e-07 16 30

0101000
+9 0 *
Ed
 1e-07 1 1 0
1  44 0 5.84999999999995 49.1500000000001
2  87 17 0 5.84999999999995 49.1500000000001
2  88 18 0 5.84999999999995 49.1500000000001
0

0101000
+38 13 -22 13 *
Wi

0101000
-36 10 -7 0 +21 10 +17 0 *
Fa
0  1e-07 17 0

0101000
+6 0 *
Wi

0101000
+10 15 -11 15 +13 15 +7 0 *
Fa
0  1e-07 18 0

0101000
+4 0 *
Sh

0101100
-93 5 +86 0 +75 0 +70 10 +59 0 +54 0 +49 0 -44 0 +41 0 +34 0 
+31 0 +28 0 +23 0 +18 0 +15 0 +8 0 +5 0 +3 0 *
So

0100000
+2 0 *

+1 1 