DBRep_DrawableShape

CASCADE Topology V1, (c) Matra-Datavision
Locations 10
1
             -1               0               0              -0 
              0 2.22044604925031e-16               1            50.3 
              0               1 -2.22044604925031e-16               0 
1
              1               0               0               0 
              0               1               0               0 
              0               0               1               0 
2  1 1 2 -1 0
2  2 1 1 -1 0
2  1 -1 0
1
              1               0               0              -0 
              0               1               0             -18 
              0               0               1 3.99680288865056e-15 
2  1 1 2 -1 6 1 0
2  6 -1 2 1 1 -1 0
2  2 -1 0
2  2 -1 6 1 0
Curve2ds 72
1 0 0 0 -1 
1 1.2999999999999972 2.8865798640254007e-16 0 -1 
1 4 0 0 -1 
1 -0 0 0 -1 
1 0 0 1 0 
1 0.17106672651324573 4.0077438278031892 0 -1 
1 0 -18 1 0 
1 0.17106672651324573 4.0077438278031892 0 -1 
1 3 -6.6343996199957062e-15 0 -1 
1 0 0 0 -1 
1 -0 0 1 0 
1 0.17106672651324573 0.0077438278031891628 0.70710678118679193 -0.70710678118630321 
1 3.1401849173686365e-16 -18 1 0 
1 0.17106672651324573 0.0077438278031891628 0.70710678118679193 -0.70710678118630321 
1 1 0 0 -1 
1 0 0 0 -1 
1 0 0 1 0 
1 2.2923870700736213 -2.11357651575572 0 -1 
1 0 -18 1 0 
1 2.2923870700736213 -2.11357651575572 0 -1 
1 3.4213203435603727 6.3457416335931661e-15 0 -1 
1 0 0 0 -1 
1 0 0 1 0 
1 2.2923870700736213 -3.11357651575572 -1 -2.9013245172957412e-31 
1 -4.4408920985006262e-16 -18 1 0 
1 2.2923870700736213 -3.11357651575572 -1 -2.9013245172957412e-31 
1 7.1213203435589092 0 0 -1 
1 0 0 0 -1 
1 0 0 1 0 
1 -1.1289332734867514 -3.11357651575572 0 1 
1 0 -18 1 0 
1 -1.1289332734867514 -3.11357651575572 0 1 
1 0 0 1 0 
1 -1.1289332734867514 4.0077438278031892 1 2.9013245172957412e-31 
1 4.4408920985006262e-16 -18 1 0 
1 -1.1289332734867514 4.0077438278031892 1 2.9013245172957412e-31 
1 0 0 0 -1 
1 3.4213203435603727 6.3457416335931661e-15 0 -1 
1 7.1213203435589065 0 0 -1 
1 0 0 0 -1 
1 0 0 1 0 
1 -1.1289332734867514 3.1135765157557316 0 -1 
1 0 -18 1 0 
1 -1.1289332734867514 3.1135765157557316 0 -1 
1 1.2999999999999972 2.8865798640254007e-16 0 -1 
1 0 0 0 -1 
1 0 0 1 0 
1 -1.1289332734867514 -4.007743827803175 1 -2.9013245172958572e-31 
1 4.4408920985006262e-16 -18 1 0 
1 -1.1289332734867514 -4.007743827803175 1 -2.9013245172958572e-31 
1 4 0 0 -1 
1 0 0 0 -1 
1 0 0 1 0 
1 0.17106672651324573 -4.007743827803175 0 1 
1 0 -18 1 0 
1 0.17106672651324573 -4.007743827803175 0 1 
1 2.9999999999999978 -6.6343996199957062e-15 0 -1 
1 0 0 0 -1 
1 0 0 1 0 
1 0.17106672651324573 -0.0077438278031749519 0.70710678118679238 0.70710678118630266 
1 3.1401849173686365e-16 -18 1 0 
1 0.17106672651324573 -0.0077438278031749519 0.70710678118679238 0.70710678118630266 
1 1 0 0 -1 
1 0 0 0 -1 
1 0 0 1 0 
1 2.2923870700736213 2.1135765157557316 0 1 
1 0 -18 1 0 
1 2.2923870700736213 2.1135765157557316 0 1 
1 0 0 1 0 
1 2.2923870700736213 3.1135765157557316 -1 2.9013245172958572e-31 
1 -4.4408920985006262e-16 -18 1 0 
1 2.2923870700736213 3.1135765157557316 -1 2.9013245172958572e-31 
Curves 36
1 12.800000000000001 50.300000000000004 16.699999999999999 -0 -1 2.2204460492503131e-16 
1 8.8000000000000007 50.300000000000004 16.699999999999999 -0 -1 2.2204460492503131e-16 
1 -12.800000000000001 16.699999999999999 0 1 0 0 
1 -12.800000000000001 16.699999999999999 0 1 0 0 
1 6.6786796564410915 50.299999999999997 14.578679656439624 -0 -1 2.2204460492503131e-16 
1 -8.8000000000000007 16.699999999999999 0 0.70710678118630321 -0.70710678118679193 0 
1 -8.8000000000000007 16.699999999999999 0 0.70710678118630321 -0.70710678118679193 0 
1 5.6786796564410915 50.299999999999997 14.578679656439624 -0 -1 2.2204460492503131e-16 
1 -6.6786796564410915 14.578679656439624 0 1 0 0 
1 -6.6786796564410915 14.578679656439624 0 1 0 0 
1 5.6786796564410915 50.300000000000004 17.999999999999996 -0 -1 2.2204460492503131e-16 
1 -5.6786796564410915 14.578679656439624 0 0 1 0 
1 -5.6786796564410915 14.578679656439624 0 0 1 0 
1 12.800000000000001 50.300000000000004 17.999999999999996 -0 -1 2.2204460492503131e-16 
1 -5.6786796564410915 17.999999999999996 0 -1 0 0 
1 -5.6786796564410915 17.999999999999996 0 -1 0 0 
1 -12.800000000000001 17.999999999999996 0 0 -1 0 
1 -12.800000000000001 17.999999999999996 0 0 -1 0 
1 49.321320343558909 50.300000000000004 17.999999999999996 -0 -1 2.2204460492503131e-16 
1 42.200000000000003 50.300000000000004 17.999999999999996 -0 -1 2.2204460492503131e-16 
1 -49.321320343558909 17.999999999999996 0 1 0 0 
1 -49.321320343558909 17.999999999999996 0 1 0 0 
1 42.200000000000003 50.300000000000004 16.699999999999999 -0 -1 2.2204460492503131e-16 
1 -42.200000000000003 17.999999999999996 0 0 -1 0 
1 -42.200000000000003 17.999999999999996 0 0 -1 0 
1 46.200000000000003 50.300000000000004 16.699999999999999 -0 -1 2.2204460492503131e-16 
1 -42.200000000000003 16.699999999999999 0 -1 0 0 
1 -42.200000000000003 16.699999999999999 0 -1 0 0 
1 48.321320343558909 50.299999999999997 14.578679656439624 -0 -1 2.2204460492503131e-16 
1 -46.200000000000003 16.699999999999999 0 -0.70710678118630266 -0.70710678118679238 0 
1 -46.200000000000003 16.699999999999999 0 -0.70710678118630266 -0.70710678118679238 0 
1 49.321320343558909 50.299999999999997 14.578679656439624 -0 -1 2.2204460492503131e-16 
1 -48.321320343558909 14.578679656439624 0 -1 0 0 
1 -48.321320343558909 14.578679656439624 0 -1 0 0 
1 -49.321320343558909 14.578679656439624 0 0 1 0 
1 -49.321320343558909 14.578679656439624 0 0 1 0 
Polygon3D 0
PolygonOnTriangulations 0
Surfaces 16
1 12.800000000000001 50.300000000000004 16.699999999999999 -0 -2.2204460492503131e-16 -1 -1 0 0 0 1 -2.2204460492503131e-16 
1 12.800000000000001 50.300000000000004 17.999999999999996 1 0 0 0 -2.2204460492503131e-16 -1 0 1 -2.2204460492503131e-16 
1 8.8000000000000007 50.300000000000004 16.699999999999999 0.70710678118679193 -1.5700924586832326e-16 -0.70710678118630321 -0.70710678118630321 -1.5700924586843178e-16 -0.70710678118679193 0 1 -2.2204460492503131e-16 
1 8.7922561721968115 50.29999999999999 16.871066726513245 1.7599925975292998e-16 -1 1.8705313777493362e-15 0 -1.8705313777493362e-15 -1 1 1.7599925975292998e-16 -3.2921213782851142e-31 
1 8.7922561721968115 50.29999999999999 16.871066726513245 1.7599925975292998e-16 -1 1.8705313777493362e-15 0 -1.8705313777493362e-15 -1 1 1.7599925975292998e-16 -3.2921213782851142e-31 
1 6.6786796564410915 50.299999999999997 14.578679656439624 -0 -2.2204460492503131e-16 -1 -1 0 0 0 1 -2.2204460492503131e-16 
1 5.6786796564410915 50.299999999999997 14.578679656439624 -1 0 0 0 2.2204460492503131e-16 1 0 1 -2.2204460492503131e-16 
1 5.6786796564410915 50.300000000000004 17.999999999999996 -0 2.2204460492503131e-16 1 1 0 0 0 1 -2.2204460492503131e-16 
1 49.321320343558909 50.300000000000004 17.999999999999996 -0 -2.2204460492503131e-16 -1 -1 0 0 0 1 -2.2204460492503131e-16 
1 49.321320343558909 50.299999999999997 14.578679656439624 -1 0 0 0 2.2204460492503131e-16 1 0 1 -2.2204460492503131e-16 
1 42.200000000000003 50.300000000000004 17.999999999999996 1 0 0 0 -2.2204460492503131e-16 -1 0 1 -2.2204460492503131e-16 
1 46.207743827803178 50.299999999999997 16.871066726513245 -1.759992597529376e-16 -1 1.8705313777493307e-15 0 -1.8705313777493307e-15 -1 1 -1.759992597529376e-16 3.2921213782852469e-31 
1 46.207743827803178 50.299999999999997 16.871066726513245 -1.759992597529376e-16 -1 1.8705313777493307e-15 0 -1.8705313777493307e-15 -1 1 -1.759992597529376e-16 3.2921213782852469e-31 
1 42.200000000000003 50.300000000000004 16.699999999999999 -0 2.2204460492503131e-16 1 1 0 0 0 1 -2.2204460492503131e-16 
1 46.200000000000003 50.300000000000004 16.699999999999999 0.70710678118679238 1.5700924586832313e-16 0.70710678118630266 0.70710678118630266 -1.5700924586843187e-16 -0.70710678118679238 0 1 -2.2204460492503131e-16 
1 48.321320343558909 50.299999999999997 14.578679656439624 -0 2.2204460492503131e-16 1 1 0 0 0 1 -2.2204460492503131e-16 
Triangulations 0

TShapes 97
Ve
1e-07
12.8 50.3 16.7
0 0

0101101
*
Ve
1e-07
12.8 32.3 16.7
0 0

0101101
*
Ed
 1e-07 1 1 0
1  1 0 0 18
2  1 1 0 0 18
2  2 2 0 0 18
0

0101000
+97 0 -96 0 *
Ve
1e-07
8.8 50.3 16.7
0 0

0101101
*
Ve
1e-07
8.8 32.3 16.7
0 0

0101101
*
Ed
 1e-07 1 1 0
1  2 0 0 18
2  3 1 0 0 18
2  4 3 0 0 18
0

0101000
+94 0 -93 0 *
Ed
 1e-07 1 1 0
1  3 0 0 4
2  5 1 4 0 4
2  6 4 5 0 4
0

0101000
+97 4 -94 4 *
Ed
 1e-07 1 1 0
1  4 0 0 4
2  7 1 8 0 4
2  8 5 5 0 4
0

0101000
+96 8 -93 8 *
Wi

0101000
+95 0 -92 0 -91 3 +90 7 *
Fa
0  1e-07 1 0

0101000
+89 0 *
Ve
1e-07
6.67867965644109 50.3 14.5786796564396
0 0

0101101
*
Ve
1e-07
6.67867965644109 32.3 14.5786796564396
0 0

0101101
*
Ed
 1e-07 1 1 0
1  5 0 0 18
2  9 3 0 0 18
2  10 6 0 0 18
0

0101000
+87 0 -86 0 *
Ed
 1e-07 1 1 0
1  6 0 0 3
2  11 3 4 0 3
2  12 4 5 0 3
0

0101000
+94 4 -87 4 *
Ed
 1e-07 1 1 0
1  7 0 0 3
2  13 3 8 0 3
2  14 5 5 0 3
0

0101000
+93 8 -86 8 *
Wi

0101000
+92 0 -85 0 -84 3 +83 7 *
Fa
0  1e-07 3 0

0101000
+82 0 *
Ve
1e-07
5.67867965644109 50.3 14.5786796564396
0 0

0101101
*
Ve
1e-07
5.67867965644109 32.3 14.5786796564396
0 0

0101101
*
Ed
 1e-07 1 1 0
1  8 0 0 18
2  15 6 0 0 18
2  16 7 0 0 18
0

0101000
+80 0 -79 0 *
Ed
 1e-07 1 1 0
1  9 0 0 1
2  17 6 4 0 1
2  18 4 5 0 1
0

0101000
+87 4 -80 4 *
Ed
 1e-07 1 1 0
1  10 0 0 1
2  19 6 8 0 1
2  20 5 5 0 1
0

0101000
+86 8 -79 8 *
Wi

0101000
+85 0 -78 0 -77 3 +76 7 *
Fa
0  1e-07 6 0

0101000
+75 0 *
Ve
1e-07
5.67867965644109 50.3 18
0 0

0101101
*
Ve
1e-07
5.67867965644109 32.3 18
0 0

0101101
*
Ed
 1e-07 1 1 0
1  11 0 0 18
2  21 7 0 0 18
2  22 8 0 0 18
0

0101000
+73 0 -72 0 *
Ed
 1e-07 1 1 0
1  12 0 0 3.42132034356037
2  23 7 4 0 3.42132034356037
2  24 4 5 0 3.42132034356037
0

0101000
+80 4 -73 4 *
Ed
 1e-07 1 1 0
1  13 0 0 3.42132034356037
2  25 7 8 0 3.42132034356037
2  26 5 5 0 3.42132034356037
0

0101000
+79 8 -72 8 *
Wi

0101000
+78 0 -71 0 -70 3 +69 7 *
Fa
0  1e-07 7 0

0101000
+68 0 *
Ve
1e-07
12.8 50.3 18
0 0

0101101
*
Ve
1e-07
12.8 32.3 18
0 0

0101101
*
Ed
 1e-07 1 1 0
1  14 0 0 18
2  27 8 0 0 18
2  28 2 0 0 18
0

0101000
+66 0 -65 0 *
Ed
 1e-07 1 1 0
1  15 0 0 7.12132034355891
2  29 8 4 0 7.12132034355891
2  30 4 5 0 7.12132034355891
0

0101000
+73 4 -66 4 *
Ed
 1e-07 1 1 0
1  16 0 0 7.12132034355891
2  31 8 8 0 7.12132034355891
2  32 5 5 0 7.12132034355891
0

0101000
+72 8 -65 8 *
Wi

0101000
+71 0 -64 0 -63 3 +62 7 *
Fa
0  1e-07 8 0

0101000
+61 0 *
Ed
 1e-07 1 1 0
1  17 0 0 1.3
2  33 2 4 0 1.3
2  34 4 5 0 1.3
0

0101000
+66 4 -97 4 *
Ed
 1e-07 1 1 0
1  18 0 0 1.3
2  35 2 8 0 1.3
2  36 5 5 0 1.3
0

0101000
+65 8 -96 8 *
Wi

0101000
+64 0 -95 0 -59 3 +58 7 *
Fa
0  1e-07 2 0

0101000
+57 0 *
Wi

0101100
+91 0 +84 0 +77 0 +70 0 +63 0 +59 0 *
Fa
0  1e-07 4 0

0101000
-55 1 *
Wi

0101100
+90 0 +83 0 +76 0 +69 0 +62 0 +58 0 *
Fa
0  1e-07 5 0

0101000
-53 1 *
Sh

0101100
-88 0 -81 0 -74 0 -67 0 -60 0 -56 0 +54 9 -52 10 *
So

0100100
-51 0 *
Ve
1e-07
49.3213203435589 50.3 18
0 0

0101101
*
Ve
1e-07
49.3213203435589 32.3 18
0 0

0101101
*
Ed
 1e-07 1 1 0
1  19 0 0 18
2  37 9 0 0 18
2  38 10 0 0 18
0

0101000
+49 0 -48 0 *
Ve
1e-07
42.2 50.3 18
0 0

0101101
*
Ve
1e-07
42.2 32.3 18
0 0

0101101
*
Ed
 1e-07 1 1 0
1  20 0 0 18
2  39 9 0 0 18
2  40 11 0 0 18
0

0101000
+46 0 -45 0 *
Ed
 1e-07 1 1 0
1  21 0 0 7.12132034355891
2  41 9 4 0 7.12132034355891
2  42 12 5 0 7.12132034355891
0

0101000
+49 4 -46 4 *
Ed
 1e-07 1 1 0
1  22 0 0 7.12132034355891
2  43 9 8 0 7.12132034355891
2  44 13 5 0 7.12132034355891
0

0101000
+48 8 -45 8 *
Wi

0101000
+47 0 -44 0 -43 3 +42 7 *
Fa
0  1e-07 9 0

0101000
+41 0 *
Ve
1e-07
42.2 50.3 16.7
0 0

0101101
*
Ve
1e-07
42.2 32.3 16.7
0 0

0101101
*
Ed
 1e-07 1 1 0
1  23 0 0 18
2  45 11 0 0 18
2  46 14 0 0 18
0

0101000
+39 0 -38 0 *
Ed
 1e-07 1 1 0
1  24 0 0 1.3
2  47 11 4 0 1.3
2  48 12 5 0 1.3
0

0101000
+46 4 -39 4 *
Ed
 1e-07 1 1 0
1  25 0 0 1.3
2  49 11 8 0 1.3
2  50 13 5 0 1.3
0

0101000
+45 8 -38 8 *
Wi

0101000
+44 0 -37 0 -36 3 +35 7 *
Fa
0  1e-07 11 0

0101000
+34 0 *
Ve
1e-07
46.2 50.3 16.7
0 0

0101101
*
Ve
1e-07
46.2 32.3 16.7
0 0

0101101
*
Ed
 1e-07 1 1 0
1  26 0 0 18
2  51 14 0 0 18
2  52 15 0 0 18
0

0101000
+32 0 -31 0 *
Ed
 1e-07 1 1 0
1  27 0 0 4
2  53 14 4 0 4
2  54 12 5 0 4
0

0101000
+39 4 -32 4 *
Ed
 1e-07 1 1 0
1  28 0 0 4
2  55 14 8 0 4
2  56 13 5 0 4
0

0101000
+38 8 -31 8 *
Wi

0101000
+37 0 -30 0 -29 3 +28 7 *
Fa
0  1e-07 14 0

0101000
+27 0 *
Ve
1e-07
48.3213203435589 50.3 14.5786796564396
0 0

0101101
*
Ve
1e-07
48.3213203435589 32.3 14.5786796564396
0 0

0101101
*
Ed
 1e-07 1 1 0
1  29 0 0 18
2  57 15 0 0 18
2  58 16 0 0 18
0

0101000
+25 0 -24 0 *
Ed
 1e-07 1 1 0
1  30 0 0 3
2  59 15 4 0 3
2  60 12 5 0 3
0

0101000
+32 4 -25 4 *
Ed
 1e-07 1 1 0
1  31 0 0 3
2  61 15 8 0 3
2  62 13 5 0 3
0

0101000
+31 8 -24 8 *
Wi

0101000
+30 0 -23 0 -22 3 +21 7 *
Fa
0  1e-07 15 0

0101000
+20 0 *
Ve
1e-07
49.3213203435589 50.3 14.5786796564396
0 0

0101101
*
Ve
1e-07
49.3213203435589 32.3 14.5786796564396
0 0

0101101
*
Ed
 1e-07 1 1 0
1  32 0 0 18
2  63 16 0 0 18
2  64 10 0 0 18
0

0101000
+18 0 -17 0 *
Ed
 1e-07 1 1 0
1  33 0 0 1
2  65 16 4 0 1
2  66 12 5 0 1
0

0101000
+25 4 -18 4 *
Ed
 1e-07 1 1 0
1  34 0 0 1
2  67 16 8 0 1
2  68 13 5 0 1
0

0101000
+24 8 -17 8 *
Wi

0101000
+23 0 -16 0 -15 3 +14 7 *
Fa
0  1e-07 16 0

0101000
+13 0 *
Ed
 1e-07 1 1 0
1  35 0 0 3.42132034356037
2  69 10 4 0 3.42132034356037
2  70 12 5 0 3.42132034356037
0

0101000
+18 4 -49 4 *
Ed
 1e-07 1 1 0
1  36 0 0 3.42132034356037
2  71 10 8 0 3.42132034356037
2  72 13 5 0 3.42132034356037
0

0101000
+17 8 -48 8 *
Wi

0101000
+16 0 -47 0 -11 3 +10 7 *
Fa
0  1e-07 10 0

0101000
+9 0 *
Wi

0101100
+43 0 +36 0 +29 0 +22 0 +15 0 +11 0 *
Fa
0  1e-07 12 0

0101000
+7 1 *
Wi

0101100
+42 0 +35 0 +28 0 +21 0 +14 0 +10 0 *
Fa
0  1e-07 13 0

0101000
+5 1 *
Sh

0101100
+40 0 +33 0 +26 0 +19 0 +12 0 +8 0 +6 9 -4 10 *
So

0100100
-3 0 *
Co

1100000
+50 0 +2 0 *

+1 0 