DBRep_DrawableShape

CASCADE Topology V1, (c) Matra-Datavision
Locations 14
1
              1               0               0               0 
              0               1               0               0 
              0               0               1               0 
2  1 -1 0
1
              1               0               0               0 
              0               1               0               0 
              0               0               1               0 
1
              1               0               0               0 
              0               1               0               0 
              0               0               1               0 
2  3 1 4 -1 0
2  4 1 3 -1 0
2  3 -1 0
2  1 -1 4 1 3 -1 0
1
              1               0               0              -0 
              0               1               0              -0 
              0               0               1              -4 
2  3 1 4 -1 9 1 0
2  9 -1 4 1 3 -1 0
2  1 -1 9 -1 4 1 3 -1 0
2  4 -1 0
2  4 -1 9 1 0
Curve2ds 72
1 0 0 0 -1 
1 0 0 0 -1 
1 4.4000000000000004 0 0 -1 
1 0 0 0 -1 
1 0 0 1 0 
1 0 0 0 1 
1 0 -4 1 0 
1 0 0 0 1 
1 47 0 0 -1 
1 0 0 0 -1 
1 0 0 1 0 
1 0 0 1 0 
1 0 -4 1 0 
1 0 0 1 0 
1 4.4000000000000004 0 0 -1 
1 0 0 0 -1 
1 0 0 1 0 
1 47 0 0 1 
1 0 -4 1 0 
1 47 0 0 1 
1 2 0 0 -1 
1 0 0 0 -1 
1 0 0 1 0 
1 47 4.4000000000000004 -1 0 
1 0 -4 1 0 
1 47 4.4000000000000004 -1 0 
1 29.800000000000004 0 0 -1 
1 0 0 0 -1 
1 0 0 1 0 
1 45 4.4000000000000004 0 1 
1 0 -4 1 0 
1 45 4.4000000000000004 0 1 
1 6 0 0 -1 
1 0 0 0 -1 
1 0 0 1 0 
1 45 34.200000000000003 1 0 
1 0 -4 1 0 
1 45 34.200000000000003 1 0 
1 16.099999999999994 0 0 -1 
1 0 0 0 -1 
1 0 0 1 0 
1 51 34.200000000000003 0 1 
1 0 -4 1 0 
1 51 34.200000000000003 0 1 
1 55 0 0 -1 
1 16.099999999999994 0 0 -1 
1 0 0 1 0 
1 51 50.299999999999997 -1 0 
1 0 -4 1 0 
1 51 50.299999999999997 -1 0 
1 0 0 0 -1 
1 6 0 0 -1 
1 0 0 1 0 
1 -4 34.200000000000003 0 1 
1 0 -4 1 0 
1 -4 34.200000000000003 0 1 
1 0 0 0 -1 
1 29.800000000000004 0 0 -1 
1 0 0 1 0 
1 2 34.200000000000003 -1 0 
1 0 -4 1 0 
1 2 34.200000000000003 -1 0 
1 0 0 0 -1 
1 2 0 0 -1 
1 0 0 1 0 
1 2 4.4000000000000004 0 1 
1 0 -4 1 0 
1 2 4.4000000000000004 0 1 
1 0 0 1 0 
1 0 4.4000000000000004 1 0 
1 0 -4 1 0 
1 0 4.4000000000000004 1 0 
Curves 36
1 4 0 0 -0 -0 -1 
1 4 4.4000000000000004 0 -0 -0 -1 
1 4 0 0 0 1 0 
1 4 0 0 0 1 0 
1 51 0 0 -0 -0 -1 
1 4 0 0 1 0 0 
1 4 0 0 1 0 0 
1 51 4.4000000000000004 0 -0 -0 -1 
1 51 0 0 0 1 0 
1 51 0 0 0 1 0 
1 49 4.4000000000000004 0 -0 -0 -1 
1 51 4.4000000000000004 0 -1 0 0 
1 51 4.4000000000000004 0 -1 0 0 
1 49 34.200000000000003 0 -0 -0 -1 
1 49 4.4000000000000004 0 0 1 0 
1 49 4.4000000000000004 0 0 1 0 
1 55 34.200000000000003 0 -0 -0 -1 
1 49 34.200000000000003 0 1 0 0 
1 49 34.200000000000003 0 1 0 0 
1 55 50.299999999999997 0 -0 -0 -1 
1 55 34.200000000000003 0 0 1 0 
1 55 34.200000000000003 0 0 1 0 
1 0 50.299999999999997 0 -0 -0 -1 
1 55 50.299999999999997 0 -1 0 0 
1 55 50.299999999999997 0 -1 0 0 
1 0 34.200000000000003 0 -0 -0 -1 
1 0 34.200000000000003 0 0 1 0 
1 0 34.200000000000003 0 0 1 0 
1 6 34.200000000000003 0 -0 -0 -1 
1 6 34.200000000000003 0 -1 0 0 
1 6 34.200000000000003 0 -1 0 0 
1 6 4.4000000000000004 0 -0 -0 -1 
1 6 4.4000000000000004 0 0 1 0 
1 6 4.4000000000000004 0 0 1 0 
1 4 4.4000000000000004 0 1 0 0 
1 4 4.4000000000000004 0 1 0 0 
Polygon3D 0
PolygonOnTriangulations 0
Surfaces 14
1 4 0 0 1 0 0 -0 1 0 0 -0 1 
1 4 0 0 0 -1 0 1 0 0 -0 0 1 
1 4 4.4000000000000004 0 0 -1 0 1 0 0 -0 0 1 
1 4 0 0 0 0 1 1 0 -0 -0 1 0 
1 4 0 0 0 0 1 1 0 -0 -0 1 0 
1 51 0 0 1 0 0 -0 1 0 0 -0 1 
1 51 4.4000000000000004 0 0 1 -0 -1 0 0 0 0 1 
1 49 4.4000000000000004 0 1 0 0 -0 1 0 0 -0 1 
1 49 34.200000000000003 0 0 -1 0 1 0 0 -0 0 1 
1 55 34.200000000000003 0 1 0 0 -0 1 0 0 -0 1 
1 55 50.299999999999997 0 0 1 -0 -1 0 0 0 0 1 
1 0 34.200000000000003 0 1 0 0 -0 1 0 0 -0 1 
1 6 34.200000000000003 0 0 1 -0 -1 0 0 0 0 1 
1 6 4.4000000000000004 0 1 0 0 -0 1 0 0 -0 1 
Triangulations 0

TShapes 90
Ve
1e-07
4 0 0
0 0

0101101
*
Ve
1e-07
4 0 -4
0 0

0101101
*
Ed
 1e-07 1 1 0
1  1 0 0 4
2  1 1 0 0 4
2  2 2 0 0 4
0

0101000
+90 2 -89 2 *
Ve
1e-07
4 4.4 0
0 0

0101101
*
Ve
1e-07
4 4.4 -4
0 0

0101101
*
Ed
 1e-07 1 1 0
1  2 0 0 4
2  3 1 0 0 4
2  4 3 0 0 4
0

0101000
+87 2 -86 2 *
Ed
 1e-07 1 1 0
1  3 0 0 4.4
2  5 1 6 0 4.4
2  6 4 7 0 4.4
0

0101000
+90 8 -87 8 *
Ed
 1e-07 1 1 0
1  4 0 0 4.4
2  7 1 11 0 4.4
2  8 5 7 0 4.4
0

0101000
+89 12 -86 12 *
Wi

0101000
+88 0 -85 0 -84 5 +83 10 *
Fa
0  1e-07 1 0

0101000
+82 0 *
Ve
1e-07
51 0 0
0 0

0101101
*
Ve
1e-07
51 0 -4
0 0

0101101
*
Ed
 1e-07 1 1 0
1  5 0 0 4
2  9 2 0 0 4
2  10 6 0 0 4
0

0101000
+80 2 -79 2 *
Ed
 1e-07 1 1 0
1  6 0 0 47
2  11 2 6 0 47
2  12 4 7 0 47
0

0101000
+90 8 -80 8 *
Ed
 1e-07 1 1 0
1  7 0 0 47
2  13 2 11 0 47
2  14 5 7 0 47
0

0101000
+89 12 -79 12 *
Wi

0101000
+88 0 -78 0 -77 5 +76 10 *
Fa
0  1e-07 2 0

0101000
+75 0 *
Ve
1e-07
51 4.4 0
0 0

0101101
*
Ve
1e-07
51 4.4 -4
0 0

0101101
*
Ed
 1e-07 1 1 0
1  8 0 0 4
2  15 6 0 0 4
2  16 7 0 0 4
0

0101000
+73 2 -72 2 *
Ed
 1e-07 1 1 0
1  9 0 0 4.4
2  17 6 6 0 4.4
2  18 4 7 0 4.4
0

0101000
+80 8 -73 8 *
Ed
 1e-07 1 1 0
1  10 0 0 4.4
2  19 6 11 0 4.4
2  20 5 7 0 4.4
0

0101000
+79 12 -72 12 *
Wi

0101000
+78 0 -71 0 -70 5 +69 10 *
Fa
0  1e-07 6 0

0101000
+68 0 *
Ve
1e-07
49 4.4 0
0 0

0101101
*
Ve
1e-07
49 4.4 -4
0 0

0101101
*
Ed
 1e-07 1 1 0
1  11 0 0 4
2  21 7 0 0 4
2  22 8 0 0 4
0

0101000
+66 2 -65 2 *
Ed
 1e-07 1 1 0
1  12 0 0 2
2  23 7 6 0 2
2  24 4 7 0 2
0

0101000
+73 8 -66 8 *
Ed
 1e-07 1 1 0
1  13 0 0 2
2  25 7 11 0 2
2  26 5 7 0 2
0

0101000
+72 12 -65 12 *
Wi

0101000
+71 0 -64 0 -63 5 +62 10 *
Fa
0  1e-07 7 0

0101000
+61 0 *
Ve
1e-07
49 34.2 0
0 0

0101101
*
Ve
1e-07
49 34.2 -4
0 0

0101101
*
Ed
 1e-07 1 1 0
1  14 0 0 4
2  27 8 0 0 4
2  28 9 0 0 4
0

0101000
+59 2 -58 2 *
Ed
 1e-07 1 1 0
1  15 0 0 29.8
2  29 8 6 0 29.8
2  30 4 7 0 29.8
0

0101000
+66 8 -59 8 *
Ed
 1e-07 1 1 0
1  16 0 0 29.8
2  31 8 11 0 29.8
2  32 5 7 0 29.8
0

0101000
+65 12 -58 12 *
Wi

0101000
+64 0 -57 0 -56 5 +55 10 *
Fa
0  1e-07 8 0

0101000
+54 0 *
Ve
1e-07
55 34.2 0
0 0

0101101
*
Ve
1e-07
55 34.2 -4
0 0

0101101
*
Ed
 1e-07 1 1 0
1  17 0 0 4
2  33 9 0 0 4
2  34 10 0 0 4
0

0101000
+52 2 -51 2 *
Ed
 1e-07 1 1 0
1  18 0 0 6
2  35 9 6 0 6
2  36 4 7 0 6
0

0101000
+59 8 -52 8 *
Ed
 1e-07 1 1 0
1  19 0 0 6
2  37 9 11 0 6
2  38 5 7 0 6
0

0101000
+58 12 -51 12 *
Wi

0101000
+57 0 -50 0 -49 5 +48 10 *
Fa
0  1e-07 9 0

0101000
+47 0 *
Ve
1e-07
55 50.3 0
0 0

0101101
*
Ve
1e-07
55 50.3 -4
0 0

0101101
*
Ed
 1e-07 1 1 0
1  20 0 0 4
2  39 10 0 0 4
2  40 11 0 0 4
0

0101000
+45 2 -44 2 *
Ed
 1e-07 1 1 0
1  21 0 0 16.1
2  41 10 6 0 16.1
2  42 4 7 0 16.1
0

0101000
+52 8 -45 8 *
Ed
 1e-07 1 1 0
1  22 0 0 16.1
2  43 10 11 0 16.1
2  44 5 7 0 16.1
0

0101000
+51 12 -44 12 *
Wi

0101000
+50 0 -43 0 -42 5 +41 10 *
Fa
0  1e-07 10 0

0101000
+40 0 *
Ve
1e-07
0 50.3 0
0 0

0101101
*
Ve
1e-07
0 50.3 -4
0 0

0101101
*
Ed
 1e-07 1 1 0
1  23 0 0 4
2  45 11 0 0 4
2  46 12 0 0 4
0

0101000
+38 2 -37 2 *
Ed
 1e-07 1 1 0
1  24 0 0 55
2  47 11 6 0 55
2  48 4 7 0 55
0

0101000
+45 8 -38 8 *
Ed
 1e-07 1 1 0
1  25 0 0 55
2  49 11 11 0 55
2  50 5 7 0 55
0

0101000
+44 12 -37 12 *
Wi

0101000
+43 0 -36 0 -35 5 +34 10 *
Fa
0  1e-07 11 0

0101000
+33 0 *
Ve
1e-07
0 34.2 0
0 0

0101101
*
Ve
1e-07
0 34.2 -4
0 0

0101101
*
Ed
 1e-07 1 1 0
1  26 0 0 4
2  51 12 0 0 4
2  52 13 0 0 4
0

0101000
+31 2 -30 2 *
Ed
 1e-07 1 1 0
1  27 0 0 16.1
2  53 12 6 0 16.1
2  54 4 7 0 16.1
0

0101000
+31 8 -38 8 *
Ed
 1e-07 1 1 0
1  28 0 0 16.1
2  55 12 11 0 16.1
2  56 5 7 0 16.1
0

0101000
+30 12 -37 12 *
Wi

0101000
+29 0 -36 0 -28 5 +27 10 *
Fa
0  1e-07 12 0

0101000
+26 0 *
Ve
1e-07
6 34.2 0
0 0

0101101
*
Ve
1e-07
6 34.2 -4
0 0

0101101
*
Ed
 1e-07 1 1 0
1  29 0 0 4
2  57 13 0 0 4
2  58 14 0 0 4
0

0101000
+24 2 -23 2 *
Ed
 1e-07 1 1 0
1  30 0 0 6
2  59 13 6 0 6
2  60 4 7 0 6
0

0101000
+24 8 -31 8 *
Ed
 1e-07 1 1 0
1  31 0 0 6
2  61 13 11 0 6
2  62 5 7 0 6
0

0101000
+23 12 -30 12 *
Wi

0101000
+22 0 -29 0 -21 5 +20 10 *
Fa
0  1e-07 13 0

0101000
+19 0 *
Ve
1e-07
6 4.4 0
0 0

0101101
*
Ve
1e-07
6 4.4 -4
0 0

0101101
*
Ed
 1e-07 1 1 0
1  32 0 0 4
2  63 14 0 0 4
2  64 3 0 0 4
0

0101000
+17 2 -16 2 *
Ed
 1e-07 1 1 0
1  33 0 0 29.8
2  65 14 6 0 29.8
2  66 4 7 0 29.8
0

0101000
+17 8 -24 8 *
Ed
 1e-07 1 1 0
1  34 0 0 29.8
2  67 14 11 0 29.8
2  68 5 7 0 29.8
0

0101000
+16 12 -23 12 *
Wi

0101000
+15 0 -22 0 -14 5 +13 10 *
Fa
0  1e-07 14 0

0101000
+12 0 *
Ed
 1e-07 1 1 0
1  35 0 0 2
2  69 3 6 0 2
2  70 4 7 0 2
0

0101000
+87 8 -17 8 *
Ed
 1e-07 1 1 0
1  36 0 0 2
2  71 3 11 0 2
2  72 5 7 0 2
0

0101000
+86 12 -16 12 *
Wi

0101000
+85 0 -15 0 -10 5 +9 10 *
Fa
0  1e-07 3 0

0101000
+8 0 *
Wi

0101100
-84 0 +77 0 +70 0 +63 0 +56 0 +49 0 +42 0 +35 0 -28 0 -21 0 
-14 0 -10 0 *
Fa
0  1e-07 4 0

0101000
+6 3 *
Wi

0101100
-83 0 +76 0 +69 0 +62 0 +55 0 +48 0 +41 0 +34 0 -27 0 -20 0 
-13 0 -9 0 *
Fa
0  1e-07 5 0

0101000
+4 3 *
Sh

0101100
-81 0 +74 0 +67 0 +60 0 +53 0 +46 0 +39 0 +32 0 -25 0 -18 0 
-11 0 -7 0 +5 13 -3 14 *
So

1100100
+2 0 *

+1 1 