DBRep_DrawableShape

CASCADE Topology V1, (c) Matra-Datavision
Locations 53
1
              1               0               0               0 
              0               1               0               0 
              0               0               1               0 
1
              1               0               0               0 
              0               1               0               0 
              0               0               1               0 
1
              1               0               0               0 
              0               1               0               0 
              0               0               1               0 
1
              1               0               0              -0 
              0               1               0              -0 
              0               0               1              -4 
1
              1               0               0               0 
              0               1               0               0 
              0               0               1               0 
1
              1               0               0               0 
              0               1               0               0 
              0               0               1               0 
1
              1               0               0               0 
              0               1               0               0 
              0               0               1               0 
1
              1               0               0               0 
              0               1               0               0 
              0               0               1               0 
1
              1               0               0               0 
              0               1               0               0 
              0               0               1               0 
1
              1               0               0               0 
              0               1               0               0 
              0               0               1               0 
2  3 -1 4 1 5 1 6 -1 7 1 8 -1 9 1 10 -1 0
2  2 -1 0
2  3 -1 4 1 5 1 6 -1 7 1 8 -1 9 1 10 -1 2 1 0
2  1 -1 0
1
              1               0               0               0 
              0               1               0               0 
              0               0               1               0 
2  15 1 3 -1 4 1 5 1 6 -1 7 1 8 -1 9 1 10 -1 0
2  15 -1 0
2  4 -1 3 1 15 -1 0
2  1 -1 2 -1 10 1 9 -1 8 1 7 -1 6 1 5 -1 4 -1 3 1 15 -1 0
2  1 -1 2 -1 0
2  7 1 8 -1 9 1 10 -1 2 1 0
2  5 1 6 -1 7 1 8 -1 9 1 10 -1 2 1 0
2  1 -1 2 -1 10 1 9 -1 8 1 7 -1 6 1 5 -1 0
2  15 1 3 -1 0
2  3 1 15 -1 0
2  1 -1 2 -1 10 1 9 -1 8 1 7 -1 6 1 5 -1 3 1 15 -1 0
2  15 1 3 -1 4 1 0
2  5 1 6 -1 7 1 8 -1 9 1 10 -1 0
2  15 1 3 -1 5 1 6 -1 7 1 8 -1 9 1 10 -1 0
1
              1               0               0              -0 
              0               1               0               0 
              0               0               1              -0 
2  30 1 10 -1 0
2  10 1 30 -1 0
2  3 -1 5 1 6 -1 7 1 8 -1 9 1 30 -1 0
2  1 -1 2 -1 10 1 30 -1 0
2  2 -1 10 1 9 -1 8 1 7 -1 0
2  1 -1 2 -1 10 1 9 -1 8 1 7 -1 0
2  3 -1 5 1 6 -1 0
2  3 -1 5 1 6 -1 7 1 8 -1 9 1 10 -1 0
2  7 1 8 -1 9 1 10 -1 0
1
              1               0               0              -0 
              0               1               0               0 
              0               0               1              -0 
2  40 1 8 -1 9 1 10 -1 0
2  3 -1 5 1 6 -1 7 1 40 -1 0
2  8 1 40 -1 0
2  1 -1 2 -1 10 1 9 -1 8 1 40 -1 0
2  9 1 10 -1 2 1 0
2  1 -1 2 -1 10 1 9 -1 0
2  40 1 8 -1 0
1
              1               0               0              -0 
              0               1               0              -0 
              0               0               1              -3 
2  40 1 8 -1 48 1 0
2  48 -1 8 1 40 -1 0
2  40 -1 0
2  1 -1 2 -1 10 1 9 -1 48 -1 8 1 40 -1 0
2  8 -1 48 1 9 1 10 -1 2 1 0
Curve2ds 152
2 46 45.299999999999997 1 0 0 -1 3.4000000000000004
1 0 -2.545584412271571 1 0 
1 0 0 0 1 
1 0 -4 1 0 
1 0 4.4000000000000004 1 0 
1 0 -4 1 0 
1 2 4.4000000000000004 0 1 
1 0 -4 1 0 
1 2 34.200000000000003 -1 0 
1 0 -4 1 0 
1 -4 34.200000000000003 0 1 
1 0 -4 1 0 
1 51 50.299999999999997 -1 0 
1 0 -4 1 0 
1 51 34.200000000000003 0 1 
1 0 -4 1 0 
1 45 34.200000000000003 1 0 
1 0 -4 1 0 
1 45 4.4000000000000004 0 1 
1 0 -4 1 0 
1 47 4.4000000000000004 -1 0 
1 0 -4 1 0 
1 47 0 0 1 
1 0 -4 1 0 
1 0 0 1 0 
1 0 -4 1 0 
2 23.5 -2 1 0 -0 1 11.672617529928752
1 0 -4 1 0 
1 0 0 1 0 
1 0 -4 1 0 
2 1 45.299999999999997 1 0 0 -1 3.4000000000000004
1 0 -2.545584412271571 1 0 
8 -2.545584412271571 0
1 6.2831853071795862 0 0 1 
8 -2.545584412271571 0
1 0 0 0 1 
1 0 0 1 0 
1 0 -1.7999999999999998 1 0 
1 0 0 0 -1 
1 0 0 0 -1 
1 4.4000000000000004 0 0 -1 
1 0 0 0 -1 
1 0 0 1 0 
1 0 0 0 1 
1 2 0 0 -1 
1 0 0 0 -1 
1 0 0 1 0 
1 0 4.4000000000000004 1 0 
1 29.800000000000004 0 0 -1 
1 0 0 0 -1 
1 0 0 1 0 
1 2 4.4000000000000004 0 1 
1 6 0 0 -1 
1 0 0 0 -1 
1 0 0 1 0 
1 2 34.200000000000003 -1 0 
1 16.099999999999994 0 0 -1 
1 55 0 0 -1 
1 0 0 1 0 
1 -4 34.200000000000003 0 1 
1 0 0 0 -1 
1 16.099999999999994 0 0 -1 
1 0 0 1 0 
1 51 50.299999999999997 -1 0 
1 0 0 0 -1 
1 6 0 0 -1 
1 0 0 1 0 
1 51 34.200000000000003 0 1 
1 0 0 0 -1 
1 29.800000000000004 0 0 -1 
1 0 0 1 0 
1 45 34.200000000000003 1 0 
1 0 0 0 -1 
1 2 0 0 -1 
1 0 0 1 0 
1 45 4.4000000000000004 0 1 
1 0 0 0 -1 
1 4.4000000000000004 0 0 -1 
1 0 0 1 0 
1 47 4.4000000000000004 -1 0 
1 0 0 0 -1 
1 47 0 0 -1 
1 0 0 1 0 
1 47 0 0 1 
1 0 0 1 0 
1 0 0 1 0 
1 35 0 0 -1 
1 0.17219081452293902 0 0 -1 
1 0 0 1 0 
2 23.5 -2 1 0 -0 1 11.67261752992875
1 2.9694018390668542 0 0 -1 
1 12 0 0 -1 
1 0 0 1 0 
1 0 0 1 0 
8 -2.545584412271571 0
1 6.2831853071795862 0 0 1 
8 -2.545584412271571 0
1 0 0 0 1 
1 0 0 1 0 
1 0 -1.7999999999999998 1 0 
1 0 0 0 -1 
1 6.2831853071795862 0 0 -1 
1 0 -4 1 0 
2 46 45.299999999999997 1 0 0 -1 1.6000000000000001
2 1 45.299999999999997 1 0 0 -1 1.6000000000000001
1 0 -4 1 0 
1 21.800000000000001 34.299999999999997 1 0 
1 0 0 1 0 
1 21.800000000000001 30.300000000000001 0 1 
1 0 0 1 0 
1 33.299999999999997 41.100000000000001 0 -1 
1 0 0 1 0 
1 9.8000000000000007 30.300000000000001 1 0 
1 0 0 1 0 
1 4.8000000000000007 41.100000000000001 1 0 
1 0 0 1 0 
1 9.8000000000000007 34.299999999999997 0 -1 
1 0 0 1 0 
1 4.8000000000000007 34.299999999999997 0 1 
1 0 0 1 0 
1 4.8000000000000007 34.299999999999997 1 0 
1 0 0 1 0 
1 0 0 0 -1 
1 6.2831853071795862 0 0 -1 
1 0 0 0 -1 
1 3.9999999999999964 0 0 -1 
1 0 -3 1 0 
1 17 -6.8000000000000043 1 0 
1 11.499999999999996 0 0 -1 
1 6.8000000000000043 0 0 -1 
1 0 0 0 -1 
1 12 0 0 -1 
1 0 -3 1 0 
1 17 -10.800000000000001 0 1 
1 0 0 0 -1 
1 28.499999999999996 0 0 -1 
1 0 -3 1 0 
1 28.499999999999996 0 0 -1 
1 0 0 0 -1 
1 3.9999999999999964 0 0 -1 
1 0 -3 1 0 
1 5 -10.800000000000001 1 0 
1 0 0 0 -1 
1 6.8000000000000043 0 0 -1 
1 0 -3 1 0 
1 0 0 1 0 
1 0 0 0 -1 
1 5 0 0 -1 
1 0 -3 1 0 
1 5 -6.8000000000000043 0 -1 
1 0 0 0 -1 
1 0 0 0 -1 
1 0 -3 1 0 
1 0 -6.8000000000000043 0 1 
1 0 -3 1 0 
1 0 -6.8000000000000043 1 0 
Curves 76
2 50 45.299999999999997 -4 -0 -0 -1 1 0 0 0 -1 0 3.4000000000000004
1 4 0 0 0 1 0 
1 4 4.4000000000000004 0 1 0 0 
1 6 4.4000000000000004 0 0 1 0 
1 6 34.200000000000003 0 -1 0 0 
1 0 34.200000000000003 0 0 1 0 
1 55 50.299999999999997 0 -1 0 0 
1 55 34.200000000000003 0 0 1 0 
1 49 34.200000000000003 0 1 0 0 
1 49 4.4000000000000004 0 0 1 0 
1 51 4.4000000000000004 0 -1 0 0 
1 51 0 0 0 1 0 
1 4 0 0 1 0 0 
2 27.5 -2 -4 0 0 1 1 0 -0 -0 1 0 11.672617529928752
1 4 0 0 1 0 0 
2 5 45.299999999999997 -4 -0 -0 -1 1 0 0 0 -1 0 3.4000000000000004
1 51.600000000000001 45.299999999999997 -2.2000000000000002 -0.70710678118654691 0 0.70710678118654813 
2 50 45.299999999999997 -2.2000000000000002 -0 -0 -1 1 0 0 0 -1 0 1.6000000000000001
1 4 0 0 -0 -0 -1 
1 4 4.4000000000000004 0 -0 -0 -1 
1 4 0 0 0 1 0 
1 6 4.4000000000000004 0 -0 -0 -1 
1 4 4.4000000000000004 0 1 0 0 
1 6 34.200000000000003 0 -0 -0 -1 
1 6 4.4000000000000004 0 0 1 0 
1 0 34.200000000000003 0 -0 -0 -1 
1 6 34.200000000000003 0 -1 0 0 
1 0 50.299999999999997 0 -0 -0 -1 
1 0 34.200000000000003 0 0 1 0 
1 55 50.299999999999997 0 -0 -0 -1 
1 55 50.299999999999997 0 -1 0 0 
1 55 34.200000000000003 0 -0 -0 -1 
1 55 34.200000000000003 0 0 1 0 
1 49 34.200000000000003 0 -0 -0 -1 
1 49 34.200000000000003 0 1 0 0 
1 49 4.4000000000000004 0 -0 -0 -1 
1 49 4.4000000000000004 0 0 1 0 
1 51 4.4000000000000004 0 -0 -0 -1 
1 51 4.4000000000000004 0 -1 0 0 
1 51 0 0 -0 -0 -1 
1 51 0 0 0 1 0 
1 4 0 0 1 0 0 
1 39 0 0 -0 -0 -1 
2 27.5 -2 0 0 0 1 1 0 -0 -0 1 0 11.672617529928752
1 16 4.4408920985006262e-16 0 -0 -0 -1 
1 4 0 0 1 0 0 
1 6.5999999999999996 45.299999999999997 -2.2000000000000002 -0.70710678118654757 0 0.70710678118654746 
2 5 45.299999999999997 -2.2000000000000002 -0 -0 -1 1 0 0 0 -1 0 1.6000000000000001
1 51.600000000000001 45.299999999999997 -4 0 0 1 
2 50 45.299999999999997 0 0 0 -1 1 0 0 0 -1 0 1.6000000000000001
2 5 45.299999999999997 0 0 0 -1 1 0 0 0 -1 0 1.6000000000000001
1 25.800000000000001 34.299999999999997 0 1 0 0 
1 25.800000000000001 30.300000000000001 0 0 1 0 
1 37.299999999999997 41.100000000000001 0 0 -1 0 
1 13.800000000000001 30.300000000000001 0 1 0 0 
1 8.8000000000000007 41.100000000000001 0 1 0 0 
1 13.800000000000001 34.299999999999997 0 0 -1 0 
1 8.8000000000000007 34.299999999999997 0 0 1 0 
1 8.8000000000000007 34.299999999999997 0 1 0 0 
1 6.5999999999999996 45.299999999999997 -4 0 0 1 
1 25.800000000000001 34.299999999999997 0 -0 -0 -1 
1 25.800000000000001 34.299999999999997 0 1 0 0 
1 37.299999999999997 34.299999999999997 0 -0 -0 -1 
1 25.800000000000001 30.300000000000001 0 -0 -0 -1 
1 25.800000000000001 30.300000000000001 0 0 1 0 
1 37.299999999999997 41.100000000000001 0 -0 -0 -1 
1 37.299999999999997 41.100000000000001 0 0 -1 0 
1 13.800000000000001 30.300000000000001 0 -0 -0 -1 
1 13.800000000000001 30.300000000000001 0 1 0 0 
1 8.8000000000000007 41.100000000000001 0 -0 -0 -1 
1 8.8000000000000007 41.100000000000001 0 1 0 0 
1 13.800000000000001 34.299999999999997 0 -0 -0 -1 
1 13.800000000000001 34.299999999999997 0 0 -1 0 
1 8.8000000000000007 34.299999999999997 0 -0 -0 -1 
1 8.8000000000000007 34.299999999999997 0 0 1 0 
1 8.8000000000000007 34.299999999999997 0 1 0 0 
Polygon3D 0
PolygonOnTriangulations 0
Surfaces 29
1 4 0 0 0 0 1 1 0 -0 -0 1 0 
3 50 45.299999999999997 -2.2000000000000002 0 0 1 1 0 0 0 -1 0 1.6000000000000001
-0.7853981633974475
1 4 0 0 1 0 0 -0 1 0 0 -0 1 
1 4 4.4000000000000004 0 0 -1 0 1 0 0 -0 0 1 
1 6 4.4000000000000004 0 1 0 0 -0 1 0 0 -0 1 
1 6 34.200000000000003 0 0 1 -0 -1 0 0 0 0 1 
1 0 34.200000000000003 0 1 0 0 -0 1 0 0 -0 1 
1 55 50.299999999999997 0 0 1 -0 -1 0 0 0 0 1 
1 55 34.200000000000003 0 1 0 0 -0 1 0 0 -0 1 
1 49 34.200000000000003 0 0 -1 0 1 0 0 -0 0 1 
1 49 4.4000000000000004 0 1 0 0 -0 1 0 0 -0 1 
1 51 4.4000000000000004 0 0 1 -0 -1 0 0 0 0 1 
1 51 0 0 1 0 0 -0 1 0 0 -0 1 
1 4 0 0 0 -1 0 1 0 0 -0 0 1 
2 27.5 -2 0 0 0 1 1 0 0 0 1 0 11.672617529928752
1 4 0 0 0 -1 0 1 0 0 -0 0 1 
3 5 45.299999999999997 -2.2000000000000002 0 0 1 1 0 0 0 -1 0 1.6000000000000001
-0.78539816339744839
2 50 45.299999999999997 -4 0 0 -1 1 0 0 0 -1 0 1.6000000000000001
1 4 0 0 0 0 1 1 0 -0 -0 1 0 
2 5 45.299999999999997 -4 0 0 -1 1 0 0 0 -1 0 1.6000000000000001
1 25.800000000000001 34.299999999999997 0 0 -1 0 1 0 0 -0 0 1 
1 25.800000000000001 30.300000000000001 0 1 0 0 -0 1 0 0 -0 1 
1 37.299999999999997 41.100000000000001 0 -1 0 0 0 -1 0 0 0 1 
1 13.800000000000001 30.300000000000001 0 0 -1 0 1 0 0 -0 0 1 
1 8.8000000000000007 41.100000000000001 0 0 -1 0 1 0 0 -0 0 1 
1 13.800000000000001 34.299999999999997 0 -1 0 0 0 -1 0 0 0 1 
1 8.8000000000000007 34.299999999999997 0 1 0 0 -0 1 0 0 -0 1 
1 8.8000000000000007 34.299999999999997 0 0 -1 0 1 0 0 -0 0 1 
1 8.8000000000000007 41.100000000000001 0 -0 0 1 1 0 0 0 1 -0 
Triangulations 0

TShapes 192
Ve
1e-07
53.4 45.3 -4
0 0

0101101
*
Ed
 1e-07 1 1 0
1  1 0 0 6.28318530717959
2  1 1 13 0 6.28318530717959
2  2 2 0 0 6.28318530717959
0

0101100
+192 14 -192 14 *
Wi

0101100
+191 0 *
Ve
1e-07
4 0 -4
0 0

0101101
*
Ve
1e-07
4 4.4 -4
0 0

0101101
*
Ed
 1e-07 1 1 0
1  2 0 0 4.4
2  3 1 17 0 4.4
2  4 3 18 0 4.4
0

0101000
+189 19 -188 19 *
Ve
1e-07
6 4.4 -4
0 0

0101101
*
Ed
 1e-07 1 1 0
1  3 0 0 2
2  5 1 17 0 2
2  6 4 18 0 2
0

0101000
+188 19 -186 19 *
Ve
1e-07
6 34.2 -4
0 0

0101101
*
Ed
 1e-07 1 1 0
1  4 0 0 29.8
2  7 1 17 0 29.8
2  8 5 18 0 29.8
0

0101000
+186 19 -184 19 *
Ve
1e-07
0 34.2 -4
0 0

0101101
*
Ed
 1e-07 1 1 0
1  5 0 0 6
2  9 1 17 0 6
2  10 6 18 0 6
0

0101000
+184 19 -182 19 *
Ve
1e-07
0 50.3 -4
0 0

0101101
*
Ed
 1e-07 1 1 0
1  6 0 0 16.1
2  11 1 17 0 16.1
2  12 7 18 0 16.1
0

0101000
+182 19 -180 19 *
Ve
1e-07
55 50.3 -4
0 0

0101101
*
Ed
 1e-07 1 1 0
1  7 0 0 55
2  13 1 17 0 55
2  14 8 18 0 55
0

0101000
+178 19 -180 19 *
Ve
1e-07
55 34.2 -4
0 0

0101101
*
Ed
 1e-07 1 1 0
1  8 0 0 16.1
2  15 1 17 0 16.1
2  16 9 18 0 16.1
0

0101000
+176 19 -178 19 *
Ve
1e-07
49 34.2 -4
0 0

0101101
*
Ed
 1e-07 1 1 0
1  9 0 0 6
2  17 1 17 0 6
2  18 10 18 0 6
0

0101000
+174 19 -176 19 *
Ve
1e-07
49 4.4 -4
0 0

0101101
*
Ed
 1e-07 1 1 0
1  10 0 0 29.8
2  19 1 17 0 29.8
2  20 11 18 0 29.8
0

0101000
+172 19 -174 19 *
Ve
1e-07
51 4.4 -4
0 0

0101101
*
Ed
 1e-07 1 1 0
1  11 0 0 2
2  21 1 17 0 2
2  22 12 18 0 2
0

0101000
+170 19 -172 19 *
Ve
1e-07
51 0 -4
0 0

0101101
*
Ed
 1e-07 1 1 0
1  12 0 0 4.4
2  23 1 17 0 4.4
2  24 13 18 0 4.4
0

0101000
+168 19 -170 19 *
Ve
1.0000100116861e-07
39 0 -4
0 0

0101101
*
Ed
 1e-07 1 1 0
1  13 0 35 47
2  25 1 17 35 47
2  26 14 18 35 47
0

0101000
+166 19 -168 19 *
Ve
1.0000100116861e-07
16 2.22044604925031e-16 -4
0 0

0101101
*
Ed
 1e-07 1 1 0
1  14 0 0.172190814522939 2.96940183906685
2  27 1 11 0.172190814522939 2.96940183906685
2  28 15 0 0.172190814522939 2.96940183906685
0

0101000
+166 20 -164 20 *
Ed
 1e-07 1 1 0
1  15 0 0 12
2  29 1 17 0 12
2  30 16 18 0 12
0

0101000
+189 19 -164 19 *
Wi

0101100
-187 16 -185 16 -183 16 -181 16 -179 16 +177 16 +175 16 +173 16 +171 16 +169 16 
+167 16 +165 16 -163 0 +162 16 *
Ve
1e-07
8.4 45.3 -4
0 0

0101101
*
Ed
 1e-07 1 1 0
1  16 0 0 6.28318530717959
2  31 1 13 0 6.28318530717959
2  32 17 0 0 6.28318530717959
0

0101100
+160 14 -160 14 *
Wi

0101100
+159 0 *
Fa
0  1e-07 1 11

0101000
+190 12 +161 0 +158 12 *
Ve
1e-07
51.6 45.3 -2.2
0 0

0101101
*
Ed
 1e-07 1 1 0
1  17 0 -2.54558441227157 0
3  33 34CN 2 0 -2.54558441227157 0
0

0101000
+192 14 -156 14 *
Ed
 1e-07 1 1 0
1  18 0 0 6.28318530717959
2  35 2 0 0 6.28318530717959
2  36 18 21 0 6.28318530717959
0

0101100
+156 14 -156 14 *
Wi

0101100
-155 0 +191 0 -154 0 +155 0 *
Fa
0  1e-07 2 0

0101000
+153 0 *
Ve
1e-07
4 0 0
0 0

0101101
*
Ed
 1e-07 1 1 0
1  19 0 0 4
2  37 3 0 0 4
2  38 16 0 0 4
0

0101000
+151 23 -189 23 *
Ve
1e-07
4 4.4 0
0 0

0101101
*
Ed
 1e-07 1 1 0
1  20 0 0 4
2  39 3 0 0 4
2  40 4 0 0 4
0

0101000
+149 23 -188 23 *
Ed
 1e-07 1 1 0
1  21 0 0 4.4
2  41 3 25 0 4.4
2  42 19 17 0 4.4
0

0101000
+151 26 -149 26 *
Wi

0101000
+150 0 -148 0 -147 24 +187 27 *
Fa
0  1e-07 3 0

0101000
+146 0 *
Ve
1e-07
6 4.4 0
0 0

0101101
*
Ed
 1e-07 1 1 0
1  22 0 0 4
2  43 4 0 0 4
2  44 5 0 0 4
0

0101000
+144 23 -186 23 *
Ed
 1e-07 1 1 0
1  23 0 0 2
2  45 4 25 0 2
2  46 19 17 0 2
0

0101000
+149 26 -144 26 *
Wi

0101000
+148 0 -143 0 -142 24 +185 27 *
Fa
0  1e-07 4 0

0101000
+141 0 *
Ve
1e-07
6 34.2 0
0 0

0101101
*
Ed
 1e-07 1 1 0
1  24 0 0 4
2  47 5 0 0 4
2  48 6 0 0 4
0

0101000
+139 23 -184 23 *
Ed
 1e-07 1 1 0
1  25 0 0 29.8
2  49 5 25 0 29.8
2  50 19 17 0 29.8
0

0101000
+144 26 -139 26 *
Wi

0101000
+143 0 -138 0 -137 24 +183 27 *
Fa
0  1e-07 5 0

0101000
+136 0 *
Ve
1e-07
0 34.2 0
0 0

0101101
*
Ed
 1e-07 1 1 0
1  26 0 0 4
2  51 6 0 0 4
2  52 7 0 0 4
0

0101000
+134 23 -182 23 *
Ed
 1e-07 1 1 0
1  27 0 0 6
2  53 6 25 0 6
2  54 19 17 0 6
0

0101000
+139 26 -134 26 *
Wi

0101000
+138 0 -133 0 -132 24 +181 27 *
Fa
0  1e-07 6 0

0101000
+131 0 *
Ve
1e-07
0 50.3 0
0 0

0101101
*
Ed
 1e-07 1 1 0
1  28 0 0 4
2  55 7 0 0 4
2  56 8 0 0 4
0

0101000
+129 23 -180 23 *
Ed
 1e-07 1 1 0
1  29 0 0 16.1
2  57 7 25 0 16.1
2  58 19 17 0 16.1
0

0101000
+134 26 -129 26 *
Wi

0101000
+133 0 -128 0 -127 24 +179 27 *
Fa
0  1e-07 7 0

0101000
+126 0 *
Ve
1e-07
55 50.3 0
0 0

0101101
*
Ed
 1e-07 1 1 0
1  30 0 0 4
2  59 8 0 0 4
2  60 9 0 0 4
0

0101000
+124 23 -178 23 *
Ed
 1e-07 1 1 0
1  31 0 0 55
2  61 8 25 0 55
2  62 19 17 0 55
0

0101000
+124 26 -129 26 *
Wi

0101000
+123 0 -128 0 -122 24 +177 27 *
Fa
0  1e-07 8 0

0101000
+121 0 *
Ve
1e-07
55 34.2 0
0 0

0101101
*
Ed
 1e-07 1 1 0
1  32 0 0 4
2  63 9 0 0 4
2  64 10 0 0 4
0

0101000
+119 23 -176 23 *
Ed
 1e-07 1 1 0
1  33 0 0 16.1
2  65 9 25 0 16.1
2  66 19 17 0 16.1
0

0101000
+119 26 -124 26 *
Wi

0101000
+118 0 -123 0 -117 24 +175 27 *
Fa
0  1e-07 9 0

0101000
+116 0 *
Ve
1e-07
49 34.2 0
0 0

0101101
*
Ed
 1e-07 1 1 0
1  34 0 0 4
2  67 10 0 0 4
2  68 11 0 0 4
0

0101000
+114 23 -174 23 *
Ed
 1e-07 1 1 0
1  35 0 0 6
2  69 10 25 0 6
2  70 19 17 0 6
0

0101000
+114 26 -119 26 *
Wi

0101000
+113 0 -118 0 -112 24 +173 27 *
Fa
0  1e-07 10 0

0101000
+111 0 *
Ve
1e-07
49 4.4 0
0 0

0101101
*
Ed
 1e-07 1 1 0
1  36 0 0 4
2  71 11 0 0 4
2  72 12 0 0 4
0

0101000
+109 23 -172 23 *
Ed
 1e-07 1 1 0
1  37 0 0 29.8
2  73 11 25 0 29.8
2  74 19 17 0 29.8
0

0101000
+109 26 -114 26 *
Wi

0101000
+108 0 -113 0 -107 24 +171 27 *
Fa
0  1e-07 11 0

0101000
+106 0 *
Ve
1e-07
51 4.4 0
0 0

0101101
*
Ed
 1e-07 1 1 0
1  38 0 0 4
2  75 12 0 0 4
2  76 13 0 0 4
0

0101000
+104 23 -170 23 *
Ed
 1e-07 1 1 0
1  39 0 0 2
2  77 12 25 0 2
2  78 19 17 0 2
0

0101000
+104 26 -109 26 *
Wi

0101000
+103 0 -108 0 -102 24 +169 27 *
Fa
0  1e-07 12 0

0101000
+101 0 *
Ve
1e-07
51 0 0
0 0

0101101
*
Ed
 1e-07 1 1 0
1  40 0 0 4
2  79 13 0 0 4
2  80 14 0 0 4
0

0101000
+99 23 -168 23 *
Ed
 1e-07 1 1 0
1  41 0 0 4.4
2  81 13 25 0 4.4
2  82 19 17 0 4.4
0

0101000
+99 26 -104 26 *
Wi

0101000
+98 0 -103 0 -97 24 +167 27 *
Fa
0  1e-07 13 0

0101000
+96 0 *
Ve
1.00001000593079e-07
39 0 0
0 0

0101101
*
Ed
 1e-07 1 1 0
1  42 0 35 47
2  83 14 25 35 47
2  84 19 17 35 47
0

0101000
+94 26 -99 26 *
Ed
 1e-07 1 1 0
1  43 0 0 4
2  85 14 28 0 4
2  86 15 0 0 4
0

0101000
+94 20 -166 20 *
Wi

0101000
-93 29 -98 28 +165 16 +92 0 *
Fa
0  1e-07 14 28

0101000
+91 0 *
Ve
1.0000100116861e-07
16 4.44089209850063e-16 0
0 0

0101101
*
Ed
 1e-07 1 1 0
1  44 0 0.172190814522939 2.96940183906685
2  87 15 32 0.172190814522939 2.96940183906685
2  88 19 33 0.172190814522939 2.96940183906685
0

0101000
+94 34 -89 34 *
Ed
 1e-07 1 1 0
1  45 0 0 4
2  89 15 0 0 4
2  90 16 28 0 4
0

0101000
+89 20 -164 20 *
Wi

0101000
-88 31 -87 0 +163 0 +92 0 *
Fa
0  1e-07 15 0

0101000
+86 0 *
Ed
 1e-07 1 1 0
1  46 0 0 12
2  91 16 25 0 12
2  92 19 17 0 12
0

0101000
+151 26 -89 26 *
Wi

0101000
-84 29 -87 0 +162 16 +150 28 *
Fa
0  1e-07 16 28

0101000
+83 0 *
Ve
1e-07
6.6 45.3 -2.2
0 0

0101101
*
Ed
 1e-07 1 1 0
1  47 0 -2.54558441227157 0
3  93 94CN 17 0 -2.54558441227157 0
0

0101000
+160 14 -81 14 *
Ed
 1e-07 1 1 0
1  48 0 0 6.28318530717959
2  95 17 0 0 6.28318530717959
2  96 20 21 0 6.28318530717959
0

0101100
+81 14 -81 14 *
Wi

0101100
-80 0 +159 0 -79 0 +80 0 *
Fa
0  1e-07 17 0

0101000
+78 0 *
Ve
2.00001e-07
51.6 45.3 0
0 0

0101101
*
Ed
 1e-07 1 1 0
1  49 0 1.8 4
3  97 98CN 18 0 1.8 4
0

0101000
+156 36 -76 36 *
Ed
 1e-07 1 1 0
1  50 0 0 6.28318530717959
2  99 18 0 0 6.28318530717959
2  100 19 37 0 6.28318530717959
0

0101100
+76 36 -76 36 *
Wi

0101100
-75 21 -154 0 +74 21 +75 21 *
Fa
0  1e-07 18 0

0101000
+73 35 *
Wi

0101000
-147 29 -142 29 -137 29 -132 29 -127 29 +122 29 +117 29 +112 29 +107 29 +102 29 
+97 29 +93 29 -88 31 +84 29 *
Wi

0101100
+74 39 *
Ve
2.00001e-07
6.6 45.3 0
0 0

0101101
*
Ed
 1e-07 1 1 0
1  51 0 0 6.28318530717959
2  101 19 37 0 6.28318530717959
2  102 20 0 0 6.28318530717959
0

0101100
+69 36 -69 36 *
Wi

0101100
+68 39 *
Ve
1e-07
25.8 34.3 0
0 0

0101101
*
Ve
1e-07
37.3 34.3 0
0 0

0101101
*
Ed
 1e-07 1 1 0
1  52 0 0 11.5
2  103 19 42 0 11.5
2  104 21 43 0 11.5
0

0101000
+66 44 -65 44 *
Ve
1e-07
25.8 30.3 0
0 0

0101101
*
Ed
 1e-07 1 1 0
1  53 0 0 4
2  105 19 42 0 4
2  106 22 43 0 4
0

0101000
+63 44 -66 44 *
Ve
1e-07
37.3 41.1 0
0 0

0101101
*
Ed
 1e-07 1 1 0
1  54 0 0 6.8
2  107 19 42 0 6.8
2  108 23 43 0 6.8
0

0101000
+61 44 -65 44 *
Ve
1e-07
13.8 30.3 0
0 0

0101101
*
Ed
 1e-07 1 1 0
1  55 0 0 12
2  109 19 42 0 12
2  110 24 43 0 12
0

0101000
+59 44 -63 44 *
Ve
1e-07
8.8 41.1 0
0 0

0101101
*
Ed
 1e-07 1 1 0
1  56 0 0 28.5
2  111 19 42 0 28.5
2  112 25 43 0 28.5
0

0101000
+57 44 -61 44 *
Ve
1e-07
13.8 34.3 0
0 0

0101101
*
Ed
 1e-07 1 1 0
1  57 0 0 4
2  113 19 42 0 4
2  114 26 43 0 4
0

0101000
+55 44 -59 44 *
Ve
1e-07
8.8 34.3 0
0 0

0101101
*
Ed
 1e-07 1 1 0
1  58 0 0 6.8
2  115 19 42 0 6.8
2  116 27 43 0 6.8
0

0101000
+53 44 -57 44 *
Ed
 1e-07 1 1 0
1  59 0 0 5
2  117 19 42 0 5
2  118 28 43 0 5
0

0101000
+53 44 -55 44 *
Wi

0101100
-64 41 -62 41 +60 41 -58 41 +56 41 -54 41 +52 41 -51 41 *
Fa
0  1e-07 19 38

0101000
+71 0 +70 0 +67 0 +50 0 *
Ed
 1e-07 1 1 0
1  60 0 1.8 4
3  119 120CN 20 0 1.8 4
0

0101000
+81 36 -69 36 *
Wi

0101100
-48 21 -79 0 +68 21 +48 21 *
Fa
0  1e-07 20 0

0101000
+47 35 *
Ve
1e-07
25.8 34.3 -3
0 0

0101101
*
Ed
 1e-07 1 1 0
1  61 0 0 3
2  121 21 0 0 3
2  122 22 0 0 3
0

0101000
+66 46 -45 46 *
Ve
1e-07
37.3 34.3 -3
0 0

0101101
*
Ed
 1e-07 1 1 0
1  62 0 0 11.5
2  123 21 50 0 11.5
2  124 29 51 0 11.5
0

0101000
+45 52 -43 52 *
Ed
 1e-07 1 1 0
1  63 0 0 3
2  125 21 0 0 3
2  126 23 0 0 3
0

0101000
+65 46 -43 46 *
Wi

0101000
+44 0 -64 47 +42 49 -41 0 *
Fa
0  1e-07 21 0

0101000
+40 0 *
Ve
1e-07
25.8 30.3 -3
0 0

0101101
*
Ed
 1e-07 1 1 0
1  64 0 0 3
2  127 22 0 0 3
2  128 24 0 0 3
0

0101000
+63 46 -38 46 *
Ed
 1e-07 1 1 0
1  65 0 0 4
2  129 22 50 0 4
2  130 29 51 0 4
0

0101000
+38 52 -45 52 *
Wi

0101000
+37 0 -62 47 +36 49 -44 0 *
Fa
0  1e-07 22 0

0101000
+35 0 *
Ve
1e-07
37.3 41.1 -3
0 0

0101101
*
Ed
 1e-07 1 1 0
1  66 0 0 3
2  131 23 0 0 3
2  132 25 0 0 3
0

0101000
+61 46 -33 46 *
Ed
 1e-07 1 1 0
1  67 0 0 6.8
2  133 23 50 0 6.8
2  134 29 51 0 6.8
0

0101000
+33 52 -43 52 *
Wi

0101000
+32 0 -60 47 +31 49 -41 0 *
Fa
0  1e-07 23 0

0101000
+30 0 *
Ve
1e-07
13.8 30.3 -3
0 0

0101101
*
Ed
 1e-07 1 1 0
1  68 0 0 3
2  135 24 0 0 3
2  136 26 0 0 3
0

0101000
+59 46 -28 46 *
Ed
 1e-07 1 1 0
1  69 0 0 12
2  137 24 50 0 12
2  138 29 51 0 12
0

0101000
+28 52 -38 52 *
Wi

0101000
+27 0 -58 47 +26 49 -37 0 *
Fa
0  1e-07 24 0

0101000
+25 0 *
Ve
1e-07
8.8 41.1 -3
0 0

0101101
*
Ed
 1e-07 1 1 0
1  70 0 0 3
2  139 25 0 0 3
2  140 27 0 0 3
0

0101000
+57 46 -23 46 *
Ed
 1e-07 1 1 0
1  71 0 0 28.5
2  141 25 50 0 28.5
2  142 29 51 0 28.5
0

0101000
+23 52 -33 52 *
Wi

0101000
+22 0 -56 47 +21 49 -32 0 *
Fa
0  1e-07 25 0

0101000
+20 0 *
Ve
1e-07
13.8 34.3 -3
0 0

0101101
*
Ed
 1e-07 1 1 0
1  72 0 0 3
2  143 26 0 0 3
2  144 28 0 0 3
0

0101000
+55 46 -18 46 *
Ed
 1e-07 1 1 0
1  73 0 0 4
2  145 26 50 0 4
2  146 29 51 0 4
0

0101000
+18 52 -28 52 *
Wi

0101000
+17 0 -54 47 +16 49 -27 0 *
Fa
0  1e-07 26 0

0101000
+15 0 *
Ve
1e-07
8.8 34.3 -3
0 0

0101101
*
Ed
 1e-07 1 1 0
1  74 0 0 3
2  147 27 0 0 3
2  148 28 0 0 3
0

0101000
+53 46 -13 46 *
Ed
 1e-07 1 1 0
1  75 0 0 6.8
2  149 27 50 0 6.8
2  150 29 51 0 6.8
0

0101000
+13 52 -23 52 *
Wi

0101000
+12 0 -52 47 +11 49 -22 0 *
Fa
0  1e-07 27 0

0101000
+10 0 *
Ed
 1e-07 1 1 0
1  76 0 0 5
2  151 28 50 0 5
2  152 29 51 0 5
0

0101000
+13 52 -18 52 *
Wi

0101000
+12 0 -51 47 +8 49 -17 0 *
Fa
0  1e-07 28 0

0101000
+7 0 *
Wi

0101100
+21 0 +31 0 -42 0 -36 0 -26 0 -16 0 -8 0 +11 0 *
Fa
0  1e-07 29 0

0101000
-5 40 *
Sh

0101100
-157 2 +152 0 -145 22 -140 22 -135 22 -130 22 -125 22 +120 22 +115 22 +110 22 
+105 22 +100 22 +95 22 +90 2 -85 2 +82 2 +77 0 -72 21 +49 2 -46 21 
-39 45 -34 45 +29 45 -24 45 +19 45 -14 45 +9 45 -6 45 +4 53 *
So

0100000
+3 0 *
Co

1100000
+2 0 *

+1 1 