DBRep_DrawableShape

CASCADE Topology V1, (c) Matra-Datavision
Locations 52
1
              1               0               0               0 
              0               1               0               0 
              0               0               1               0 
1
              1               0               0               0 
              0               1               0               0 
              0               0               1               0 
1
              1               0               0               0 
              0               1               0               0 
              0               0               1               0 
1
              1               0               0               0 
              0               1               0               0 
              0               0               1               0 
1
              1               0               0               0 
              0               1               0               0 
              0               0               1               0 
1
              1               0               0               0 
              0               1               0               0 
              0               0               1               0 
1
              1               0               0               0 
              0               1               0               0 
              0               0               1               0 
2  2 1 3 -1 4 1 5 -1 6 1 7 -1 0
2  1 -1 7 1 6 -1 5 1 4 -1 3 1 2 -1 0
1
              1               0               0               0 
              0               1               0               0 
              0               0               1               0 
1
              1               0               0               0 
              0               1               0               0 
              0               0               1               0 
2  10 1 11 -1 0
2  11 1 10 -1 0
2  10 -1 0
2  1 -1 7 1 6 -1 5 1 4 -1 3 1 2 -1 11 1 10 -1 0
1
              1               0               0              -0 
              0               1               0              -0 
              0               0               1              -4 
2  10 1 11 -1 16 1 0
2  16 -1 11 1 10 -1 0
2  1 -1 7 1 6 -1 5 1 4 -1 3 1 2 -1 16 -1 11 1 10 -1 0
2  10 1 11 -1 2 1 3 -1 4 1 5 -1 6 1 7 -1 0
2  1 -1 0
2  10 1 11 -1 16 1 2 1 3 -1 4 1 5 -1 6 1 7 -1 0
2  11 -1 2 1 3 -1 4 1 5 -1 6 1 7 -1 0
1
              1               0               0              -0 
              0               1               0               0 
              0               0               1              -0 
2  24 1 7 -1 0
2  11 -1 2 1 3 -1 4 1 5 -1 6 1 24 -1 0
2  7 1 24 -1 0
2  1 -1 7 1 24 -1 0
2  4 1 5 -1 6 1 7 -1 0
2  11 -1 2 1 3 -1 0
2  1 -1 7 1 6 -1 5 1 4 -1 0
1
              1               0               0              -0 
              0               1               0               0 
              0               0               1              -0 
2  32 1 5 -1 6 1 7 -1 0
2  11 -1 2 1 3 -1 4 1 32 -1 0
2  5 1 32 -1 0
2  1 -1 7 1 6 -1 5 1 32 -1 0
2  11 -1 16 1 2 1 3 -1 4 1 5 -1 6 1 7 -1 0
1
              1               0               0              -0 
              0              -1               0              -0 
              0               0              -1              -4 
2  38 1 3 -1 4 1 5 -1 6 1 7 -1 0
2  11 -1 16 1 2 1 38 -1 0
2  3 1 38 -1 0
2  1 -1 7 1 6 -1 5 1 4 -1 3 1 38 -1 0
2  38 1 3 -1 0
2  6 1 7 -1 0
2  1 -1 7 1 6 -1 0
2  32 1 5 -1 0
1
              1               0               0              -0 
              0               1               0              -0 
              0               0               1              -3 
2  32 1 5 -1 47 1 0
2  47 -1 5 1 32 -1 0
2  32 -1 0
2  1 -1 7 1 6 -1 47 -1 5 1 32 -1 0
2  5 -1 47 1 6 1 7 -1 0
Curve2ds 144
1 0 0 0 -1 
1 0 0 0 -1 
1 4.4000000000000004 0 0 -1 
1 0 0 0 -1 
1 0 0 1 0 
1 0 0 0 1 
1 0 -4 1 0 
1 0 0 0 1 
1 0 0 1 0 
1 0 0 1 0 
1 12 0 0 -1 
1 2.9694018390668542 0 0 -1 
1 0 -4 1 0 
1 0 0 1 0 
1 2 0 0 -1 
1 0 0 0 -1 
1 0 0 1 0 
1 0 4.4000000000000004 1 0 
1 0 -4 1 0 
1 0 4.4000000000000004 1 0 
1 2 4.4000000000000004 0 1 
1 0 0 1 0 
1 2 34.200000000000003 -1 0 
1 0 0 1 0 
1 -4 34.200000000000003 0 1 
1 0 0 1 0 
1 51 50.299999999999997 -1 0 
1 0 0 1 0 
1 51 34.200000000000003 0 1 
1 0 0 1 0 
1 45 34.200000000000003 1 0 
1 0 0 1 0 
1 45 4.4000000000000004 0 1 
1 0 0 1 0 
1 47 4.4000000000000004 -1 0 
1 0 0 1 0 
1 47 0 0 1 
1 0 0 1 0 
1 0 0 1 0 
1 0 0 1 0 
2 23.5 -2 1 0 -0 1 11.67261752992875
1 0 0 1 0 
2 46 45.299999999999997 1 0 0 -1 1.6000000000000001
1 0 -4 1 0 
2 1 45.299999999999997 1 0 0 -1 1.6000000000000001
1 0 -4 1 0 
1 21.800000000000001 34.299999999999997 1 0 
1 0 0 1 0 
1 21.800000000000001 30.300000000000001 0 1 
1 0 0 1 0 
1 33.299999999999997 41.100000000000001 0 -1 
1 0 0 1 0 
1 9.8000000000000007 30.300000000000001 1 0 
1 0 0 1 0 
1 4.8000000000000007 41.100000000000001 1 0 
1 0 0 1 0 
1 9.8000000000000007 34.299999999999997 0 -1 
1 0 0 1 0 
1 4.8000000000000007 34.299999999999997 0 1 
1 0 0 1 0 
1 4.8000000000000007 34.299999999999997 1 0 
1 0 0 1 0 
1 2 4.4000000000000004 0 1 
1 0 -4 1 0 
1 2 34.200000000000003 -1 0 
1 0 -4 1 0 
1 -4 34.200000000000003 0 1 
1 0 -4 1 0 
1 51 50.299999999999997 -1 0 
1 0 -4 1 0 
1 51 34.200000000000003 0 1 
1 0 -4 1 0 
1 45 34.200000000000003 1 0 
1 0 -4 1 0 
1 45 4.4000000000000004 0 1 
1 0 -4 1 0 
1 47 4.4000000000000004 -1 0 
1 0 -4 1 0 
1 47 0 0 1 
1 0 -4 1 0 
1 0 0 1 0 
1 0 -4 1 0 
2 23.5 -2 1 0 -0 1 11.672617529928752
1 0 -4 1 0 
2 1 45.299999999999997 1 0 0 -1 1.5999999999999996
1 0 0 1 0 
2 46 45.299999999999997 1 0 0 -1 1.6000000000000014
1 0 0 1 0 
1 0.17219081452293902 0 0 -1 
1 35 0 0 -1 
1 29.800000000000004 0 0 -1 
1 0 0 0 -1 
1 6 0 0 -1 
1 0 0 0 -1 
1 16.099999999999994 0 0 -1 
1 55 0 0 -1 
1 0 0 0 -1 
1 16.099999999999994 0 0 -1 
1 0 0 0 -1 
1 6 0 0 -1 
1 0 0 0 -1 
1 29.800000000000004 0 0 -1 
1 0 0 0 -1 
1 2 0 0 -1 
1 0 0 0 -1 
1 4.4000000000000004 0 0 -1 
1 0 0 0 -1 
1 47 0 0 -1 
1 0 0 0 -1 
1 6.2831853071795862 0 0 -1 
1 0 0 0 -1 
1 6.2831853071795862 0 0 -1 
1 0 0 0 -1 
1 3.9999999999999964 0 0 -1 
1 0 -3 1 0 
1 17 -6.8000000000000043 1 0 
1 11.499999999999996 0 0 -1 
1 6.8000000000000043 0 0 -1 
1 0 0 0 -1 
1 12 0 0 -1 
1 0 -3 1 0 
1 17 -10.800000000000001 0 1 
1 0 0 0 -1 
1 28.499999999999996 0 0 -1 
1 0 -3 1 0 
1 28.499999999999996 0 0 -1 
1 0 0 0 -1 
1 3.9999999999999964 0 0 -1 
1 0 -3 1 0 
1 5 -10.800000000000001 1 0 
1 0 0 0 -1 
1 6.8000000000000043 0 0 -1 
1 0 -3 1 0 
1 0 0 1 0 
1 0 0 0 -1 
1 5 0 0 -1 
1 0 -3 1 0 
1 5 -6.8000000000000043 0 -1 
1 0 0 0 -1 
1 0 0 0 -1 
1 0 -3 1 0 
1 0 -6.8000000000000043 0 1 
1 0 -3 1 0 
1 0 -6.8000000000000043 1 0 
Curves 72
1 4 0 0 -0 -0 -1 
1 4 4.4000000000000004 0 -0 -0 -1 
1 4 0 0 0 1 0 
1 4 0 0 0 1 0 
1 4 0 0 1 0 0 
1 16 4.4408920985006262e-16 0 -0 -0 -1 
1 4 0 0 1 0 0 
1 6 4.4000000000000004 0 -0 -0 -1 
1 4 4.4000000000000004 0 1 0 0 
1 4 4.4000000000000004 0 1 0 0 
1 6 4.4000000000000004 0 0 1 0 
1 6 34.200000000000003 0 -1 0 0 
1 0 34.200000000000003 0 0 1 0 
1 55 50.299999999999997 0 -1 0 0 
1 55 34.200000000000003 0 0 1 0 
1 49 34.200000000000003 0 1 0 0 
1 49 4.4000000000000004 0 0 1 0 
1 51 4.4000000000000004 0 -1 0 0 
1 51 0 0 0 1 0 
1 4 0 0 1 0 0 
2 27.5 -2 0 0 0 1 1 0 -0 -0 1 0 11.672617529928752
2 50 45.299999999999997 0 0 0 -1 1 0 0 0 -1 0 1.6000000000000001
2 5 45.299999999999997 0 0 0 -1 1 0 0 0 -1 0 1.6000000000000001
1 25.800000000000001 34.299999999999997 0 1 0 0 
1 25.800000000000001 30.300000000000001 0 0 1 0 
1 37.299999999999997 41.100000000000001 0 0 -1 0 
1 13.800000000000001 30.300000000000001 0 1 0 0 
1 8.8000000000000007 41.100000000000001 0 1 0 0 
1 13.800000000000001 34.299999999999997 0 0 -1 0 
1 8.8000000000000007 34.299999999999997 0 0 1 0 
1 8.8000000000000007 34.299999999999997 0 1 0 0 
1 6 4.4000000000000004 0 0 1 0 
1 6 34.200000000000003 0 -1 0 0 
1 0 34.200000000000003 0 0 1 0 
1 55 50.299999999999997 0 -1 0 0 
1 55 34.200000000000003 0 0 1 0 
1 49 34.200000000000003 0 1 0 0 
1 49 4.4000000000000004 0 0 1 0 
1 51 4.4000000000000004 0 -1 0 0 
1 51 0 0 0 1 0 
1 4 0 0 1 0 0 
2 27.5 -2 -4 0 0 1 1 0 -0 -0 1 0 11.672617529928752
2 5 -45.299999999999997 0 0 0 1 1 0 -0 -0 1 0 1.6000000000000001
2 50 -45.299999999999997 0 0 0 1 1 0 -0 -0 1 0 1.6000000000000001
1 39 0 0 -0 -0 -1 
1 6 34.200000000000003 0 -0 -0 -1 
1 0 34.200000000000003 0 -0 -0 -1 
1 0 50.299999999999997 0 -0 -0 -1 
1 55 50.299999999999997 0 -0 -0 -1 
1 55 34.200000000000003 0 -0 -0 -1 
1 49 34.200000000000003 0 -0 -0 -1 
1 49 4.4000000000000004 0 -0 -0 -1 
1 51 4.4000000000000004 0 -0 -0 -1 
1 51 0 0 -0 -0 -1 
1 51.600000000000001 45.299999999999997 -4 0 0 1 
1 6.5999999999999996 45.299999999999997 -4 0 0 1 
1 25.800000000000001 34.299999999999997 0 -0 -0 -1 
1 25.800000000000001 34.299999999999997 0 1 0 0 
1 37.299999999999997 34.299999999999997 0 -0 -0 -1 
1 25.800000000000001 30.300000000000001 0 -0 -0 -1 
1 25.800000000000001 30.300000000000001 0 0 1 0 
1 37.299999999999997 41.100000000000001 0 -0 -0 -1 
1 37.299999999999997 41.100000000000001 0 0 -1 0 
1 13.800000000000001 30.300000000000001 0 -0 -0 -1 
1 13.800000000000001 30.300000000000001 0 1 0 0 
1 8.8000000000000007 41.100000000000001 0 -0 -0 -1 
1 8.8000000000000007 41.100000000000001 0 1 0 0 
1 13.800000000000001 34.299999999999997 0 -0 -0 -1 
1 13.800000000000001 34.299999999999997 0 0 -1 0 
1 8.8000000000000007 34.299999999999997 0 -0 -0 -1 
1 8.8000000000000007 34.299999999999997 0 0 1 0 
1 8.8000000000000007 34.299999999999997 0 1 0 0 
Polygon3D 0
PolygonOnTriangulations 0
Surfaces 27
1 4 0 0 1 0 0 -0 1 0 0 -0 1 
1 4 0 0 0 -1 0 1 0 0 -0 0 1 
1 4 4.4000000000000004 0 0 -1 0 1 0 0 -0 0 1 
1 4 0 0 0 0 1 1 0 -0 -0 1 0 
1 4 0 0 0 0 1 1 0 -0 -0 1 0 
2 27.5 -2 0 0 0 1 1 0 0 0 1 0 11.672617529928752
1 6 4.4000000000000004 0 1 0 0 -0 1 0 0 -0 1 
1 6 34.200000000000003 0 0 1 -0 -1 0 0 0 0 1 
1 0 34.200000000000003 0 1 0 0 -0 1 0 0 -0 1 
1 55 50.299999999999997 0 0 1 -0 -1 0 0 0 0 1 
1 55 34.200000000000003 0 1 0 0 -0 1 0 0 -0 1 
1 49 34.200000000000003 0 0 -1 0 1 0 0 -0 0 1 
1 49 4.4000000000000004 0 1 0 0 -0 1 0 0 -0 1 
1 51 4.4000000000000004 0 0 1 -0 -1 0 0 0 0 1 
1 51 0 0 1 0 0 -0 1 0 0 -0 1 
1 4 0 0 0 -1 0 1 0 0 -0 0 1 
2 50 45.299999999999997 -4 0 0 -1 1 0 0 0 -1 0 1.6000000000000001
2 5 45.299999999999997 -4 0 0 -1 1 0 0 0 -1 0 1.6000000000000001
1 25.800000000000001 34.299999999999997 0 0 -1 0 1 0 0 -0 0 1 
1 25.800000000000001 30.300000000000001 0 1 0 0 -0 1 0 0 -0 1 
1 37.299999999999997 41.100000000000001 0 -1 0 0 0 -1 0 0 0 1 
1 13.800000000000001 30.300000000000001 0 0 -1 0 1 0 0 -0 0 1 
1 8.8000000000000007 41.100000000000001 0 0 -1 0 1 0 0 -0 0 1 
1 13.800000000000001 34.299999999999997 0 -1 0 0 0 -1 0 0 0 1 
1 8.8000000000000007 34.299999999999997 0 1 0 0 -0 1 0 0 -0 1 
1 8.8000000000000007 34.299999999999997 0 0 -1 0 1 0 0 -0 0 1 
1 8.8000000000000007 41.100000000000001 0 -0 0 1 1 0 0 0 1 -0 
Triangulations 0

TShapes 181
Ve
1e-07
4 0 0
0 0

0101101
*
Ve
1e-07
4 0 -4
0 0

0101101
*
Ed
 1e-07 1 1 0
1  1 0 0 4
2  1 1 0 0 4
2  2 2 0 0 4
0

0101000
+181 9 -180 9 *
Ve
1e-07
4 4.4 0
0 0

0101101
*
Ve
1e-07
4 4.4 -4
0 0

0101101
*
Ed
 1e-07 1 1 0
1  2 0 0 4
2  3 1 0 0 4
2  4 3 0 0 4
0

0101000
+178 9 -177 9 *
Ed
 1e-07 1 1 0
1  3 0 0 4.4
2  5 1 13 0 4.4
2  6 4 14 0 4.4
0

0101000
+181 15 -178 15 *
Ed
 1e-07 1 1 0
1  4 0 0 4.4
2  7 1 18 0 4.4
2  8 5 14 0 4.4
0

0101000
+180 19 -177 19 *
Wi

0101000
+179 0 -176 0 -175 12 +174 17 *
Fa
0  1e-07 1 0

0101000
+173 0 *
Ve
1.0000100116861e-07
16 4.44089209850063e-16 0
0 0

0101101
*
Ed
 1e-07 1 1 0
1  5 0 0 12
2  9 2 13 0 12
2  10 4 14 0 12
0

0101000
+181 15 -171 15 *
Ve
1.0000100116861e-07
16 2.22044604925031e-16 -4
0 0

0101101
*
Ed
 1e-07 1 1 0
1  6 0 0 4
2  11 2 8 0 4
2  12 6 0 0 4
0

0101000
+171 21 -169 21 *
Ed
 1e-07 1 1 0
1  7 0 0 12
2  13 2 18 0 12
2  14 5 14 0 12
0

0101000
+180 19 -169 19 *
Wi

0101000
-170 20 -168 0 +167 22 +179 8 *
Fa
0  1e-07 2 8

0101000
+166 0 *
Ve
1e-07
6 4.4 0
0 0

0101101
*
Ve
1e-07
6 4.4 -4
0 0

0101101
*
Ed
 1e-07 1 1 0
1  8 0 0 4
2  15 3 0 0 4
2  16 7 0 0 4
0

0101000
+164 9 -163 9 *
Ed
 1e-07 1 1 0
1  9 0 0 2
2  17 3 13 0 2
2  18 4 14 0 2
0

0101000
+178 15 -164 15 *
Ed
 1e-07 1 1 0
1  10 0 0 2
2  19 3 18 0 2
2  20 5 14 0 2
0

0101000
+177 19 -163 19 *
Wi

0101000
+176 0 -162 0 -161 12 +160 17 *
Fa
0  1e-07 3 0

0101000
+159 0 *
Ve
1e-07
6 34.2 0
0 0

0101101
*
Ed
 1e-07 1 1 0
1  11 0 0 29.8
2  21 4 14 0 29.8
2  22 7 13 0 29.8
0

0101000
+164 15 -157 15 *
Ve
1e-07
0 34.2 0
0 0

0101101
*
Ed
 1e-07 1 1 0
1  12 0 0 6
2  23 4 14 0 6
2  24 8 13 0 6
0

0101000
+157 15 -155 15 *
Ve
1e-07
0 50.3 0
0 0

0101101
*
Ed
 1e-07 1 1 0
1  13 0 0 16.1
2  25 4 14 0 16.1
2  26 9 13 0 16.1
0

0101000
+155 15 -153 15 *
Ve
1e-07
55 50.3 0
0 0

0101101
*
Ed
 1e-07 1 1 0
1  14 0 0 55
2  27 4 14 0 55
2  28 10 13 0 55
0

0101000
+151 15 -153 15 *
Ve
1e-07
55 34.2 0
0 0

0101101
*
Ed
 1e-07 1 1 0
1  15 0 0 16.1
2  29 4 14 0 16.1
2  30 11 13 0 16.1
0

0101000
+149 15 -151 15 *
Ve
1e-07
49 34.2 0
0 0

0101101
*
Ed
 1e-07 1 1 0
1  16 0 0 6
2  31 4 14 0 6
2  32 12 13 0 6
0

0101000
+147 15 -149 15 *
Ve
1e-07
49 4.4 0
0 0

0101101
*
Ed
 1e-07 1 1 0
1  17 0 0 29.8
2  33 4 14 0 29.8
2  34 13 13 0 29.8
0

0101000
+145 15 -147 15 *
Ve
1e-07
51 4.4 0
0 0

0101101
*
Ed
 1e-07 1 1 0
1  18 0 0 2
2  35 4 14 0 2
2  36 14 13 0 2
0

0101000
+143 15 -145 15 *
Ve
1e-07
51 0 0
0 0

0101101
*
Ed
 1e-07 1 1 0
1  19 0 0 4.4
2  37 4 14 0 4.4
2  38 15 13 0 4.4
0

0101000
+141 15 -143 15 *
Ve
1.00001000593079e-07
39 0 0
0 0

0101101
*
Ed
 1e-07 1 1 0
1  20 0 35 47
2  39 4 14 35 47
2  40 16 13 35 47
0

0101000
+139 15 -141 15 *
Ed
 1e-07 1 1 0
1  21 0 0.172190814522939 2.96940183906685
2  41 4 26 0.172190814522939 2.96940183906685
2  42 6 27 0.172190814522939 2.96940183906685
0

0101000
+139 28 -171 28 *
Wi

0101000
-175 20 -161 20 -156 20 -154 20 -152 20 +150 20 +148 20 +146 20 +144 20 +142 20 
+140 20 +138 20 -137 25 +170 20 *
Ve
2.00001e-07
51.6 45.3 0
0 0

0101101
*
Ed
 1e-07 1 1 0
1  22 0 0 6.28318530717959
2  43 4 30 0 6.28318530717959
2  44 17 0 0 6.28318530717959
0

0101100
+135 31 -135 31 *
Wi

0101100
+134 29 *
Ve
2.00001e-07
6.6 45.3 0
0 0

0101101
*
Ed
 1e-07 1 1 0
1  23 0 0 6.28318530717959
2  45 4 30 0 6.28318530717959
2  46 18 0 0 6.28318530717959
0

0101100
+132 31 -132 31 *
Wi

0101100
+131 29 *
Ve
1e-07
25.8 34.3 0
0 0

0101101
*
Ve
1e-07
37.3 34.3 0
0 0

0101101
*
Ed
 1e-07 1 1 0
1  24 0 0 11.5
2  47 4 34 0 11.5
2  48 19 35 0 11.5
0

0101000
+129 36 -128 36 *
Ve
1e-07
25.8 30.3 0
0 0

0101101
*
Ed
 1e-07 1 1 0
1  25 0 0 4
2  49 4 34 0 4
2  50 20 35 0 4
0

0101000
+126 36 -129 36 *
Ve
1e-07
37.3 41.1 0
0 0

0101101
*
Ed
 1e-07 1 1 0
1  26 0 0 6.8
2  51 4 34 0 6.8
2  52 21 35 0 6.8
0

0101000
+124 36 -128 36 *
Ve
1e-07
13.8 30.3 0
0 0

0101101
*
Ed
 1e-07 1 1 0
1  27 0 0 12
2  53 4 34 0 12
2  54 22 35 0 12
0

0101000
+122 36 -126 36 *
Ve
1e-07
8.8 41.1 0
0 0

0101101
*
Ed
 1e-07 1 1 0
1  28 0 0 28.5
2  55 4 34 0 28.5
2  56 23 35 0 28.5
0

0101000
+120 36 -124 36 *
Ve
1e-07
13.8 34.3 0
0 0

0101101
*
Ed
 1e-07 1 1 0
1  29 0 0 4
2  57 4 34 0 4
2  58 24 35 0 4
0

0101000
+118 36 -122 36 *
Ve
1e-07
8.8 34.3 0
0 0

0101101
*
Ed
 1e-07 1 1 0
1  30 0 0 6.8
2  59 4 34 0 6.8
2  60 25 35 0 6.8
0

0101000
+116 36 -120 36 *
Ed
 1e-07 1 1 0
1  31 0 0 5
2  61 4 34 0 5
2  62 26 35 0 5
0

0101000
+116 36 -118 36 *
Wi

0101100
-127 33 -125 33 +123 33 -121 33 +119 33 -117 33 +115 33 -114 33 *
Fa
0  1e-07 4 23

0101000
+136 0 +133 0 +130 0 +113 0 *
Ve
1e-07
6 34.2 -4
0 0

0101101
*
Ed
 1e-07 1 1 0
1  32 0 0 29.8
2  63 5 14 0 29.8
2  64 7 18 0 29.8
0

0101000
+163 19 -111 19 *
Ve
1e-07
0 34.2 -4
0 0

0101101
*
Ed
 1e-07 1 1 0
1  33 0 0 6
2  65 5 14 0 6
2  66 8 18 0 6
0

0101000
+111 19 -109 19 *
Ve
1e-07
0 50.3 -4
0 0

0101101
*
Ed
 1e-07 1 1 0
1  34 0 0 16.1
2  67 5 14 0 16.1
2  68 9 18 0 16.1
0

0101000
+109 19 -107 19 *
Ve
1e-07
55 50.3 -4
0 0

0101101
*
Ed
 1e-07 1 1 0
1  35 0 0 55
2  69 5 14 0 55
2  70 10 18 0 55
0

0101000
+105 19 -107 19 *
Ve
1e-07
55 34.2 -4
0 0

0101101
*
Ed
 1e-07 1 1 0
1  36 0 0 16.1
2  71 5 14 0 16.1
2  72 11 18 0 16.1
0

0101000
+103 19 -105 19 *
Ve
1e-07
49 34.2 -4
0 0

0101101
*
Ed
 1e-07 1 1 0
1  37 0 0 6
2  73 5 14 0 6
2  74 12 18 0 6
0

0101000
+101 19 -103 19 *
Ve
1e-07
49 4.4 -4
0 0

0101101
*
Ed
 1e-07 1 1 0
1  38 0 0 29.8
2  75 5 14 0 29.8
2  76 13 18 0 29.8
0

0101000
+99 19 -101 19 *
Ve
1e-07
51 4.4 -4
0 0

0101101
*
Ed
 1e-07 1 1 0
1  39 0 0 2
2  77 5 14 0 2
2  78 14 18 0 2
0

0101000
+97 19 -99 19 *
Ve
1e-07
51 0 -4
0 0

0101101
*
Ed
 1e-07 1 1 0
1  40 0 0 4.4
2  79 5 14 0 4.4
2  80 15 18 0 4.4
0

0101000
+95 19 -97 19 *
Ve
1.0000100116861e-07
39 0 -4
0 0

0101101
*
Ed
 1e-07 1 1 0
1  41 0 35 47
2  81 5 14 35 47
2  82 16 18 35 47
0

0101000
+93 19 -95 19 *
Ed
 1e-07 1 1 0
1  42 0 0.172190814522939 2.96940183906685
2  83 5 37 0.172190814522939 2.96940183906685
2  84 6 0 0.172190814522939 2.96940183906685
0

0101000
+93 21 -169 21 *
Wi

0101100
-174 22 -160 22 -110 22 -108 22 -106 22 +104 22 +102 22 +100 22 +98 22 +96 22 
+94 22 +92 22 -91 0 +167 22 *
Ve
1e-07
6.6 45.3 -4
0 0

0101101
*
Ed
 1e-07 1 1 0
1  43 0 0 6.28318530717959
2  85 5 40 0 6.28318530717959
2  86 18 41 0 6.28318530717959
0

0101100
+89 42 -89 42 *
Wi

0101000
+88 39 *
Ve
1e-07
51.6 45.3 -4
0 0

0101101
*
Ed
 1e-07 1 1 0
1  44 0 0 6.28318530717959
2  87 5 40 0 6.28318530717959
2  88 17 41 0 6.28318530717959
0

0101100
+86 42 -86 42 *
Wi

0101000
+85 39 *
Fa
0  1e-07 5 37

0101000
+90 0 +87 0 +84 0 *
Ed
 1e-07 1 1 0
1  45 0 0 4
2  89 6 0 0 4
2  90 16 8 0 4
0

0101000
+139 21 -93 21 *
Wi

0101000
-137 25 -168 0 +91 0 +82 0 *
Fa
0  1e-07 6 0

0101000
+81 0 *
Ed
 1e-07 1 1 0
1  46 0 0 4
2  91 7 0 0 4
2  92 8 0 0 4
0

0101000
+157 9 -111 9 *
Wi

0101000
+162 0 -79 0 -156 12 +110 17 *
Fa
0  1e-07 7 0

0101000
+78 0 *
Ed
 1e-07 1 1 0
1  47 0 0 4
2  93 8 0 0 4
2  94 9 0 0 4
0

0101000
+155 9 -109 9 *
Wi

0101000
+79 0 -76 0 -154 12 +108 17 *
Fa
0  1e-07 8 0

0101000
+75 0 *
Ed
 1e-07 1 1 0
1  48 0 0 4
2  95 9 0 0 4
2  96 10 0 0 4
0

0101000
+153 9 -107 9 *
Wi

0101000
+76 0 -73 0 -152 12 +106 17 *
Fa
0  1e-07 9 0

0101000
+72 0 *
Ed
 1e-07 1 1 0
1  49 0 0 4
2  97 10 0 0 4
2  98 11 0 0 4
0

0101000
+151 9 -105 9 *
Wi

0101000
+70 0 -73 0 -150 12 +104 17 *
Fa
0  1e-07 10 0

0101000
+69 0 *
Ed
 1e-07 1 1 0
1  50 0 0 4
2  99 11 0 0 4
2  100 12 0 0 4
0

0101000
+149 9 -103 9 *
Wi

0101000
+67 0 -70 0 -148 12 +102 17 *
Fa
0  1e-07 11 0

0101000
+66 0 *
Ed
 1e-07 1 1 0
1  51 0 0 4
2  101 12 0 0 4
2  102 13 0 0 4
0

0101000
+147 9 -101 9 *
Wi

0101000
+64 0 -67 0 -146 12 +100 17 *
Fa
0  1e-07 12 0

0101000
+63 0 *
Ed
 1e-07 1 1 0
1  52 0 0 4
2  103 13 0 0 4
2  104 14 0 0 4
0

0101000
+145 9 -99 9 *
Wi

0101000
+61 0 -64 0 -144 12 +98 17 *
Fa
0  1e-07 13 0

0101000
+60 0 *
Ed
 1e-07 1 1 0
1  53 0 0 4
2  105 14 0 0 4
2  106 15 0 0 4
0

0101000
+143 9 -97 9 *
Wi

0101000
+58 0 -61 0 -142 12 +96 17 *
Fa
0  1e-07 14 0

0101000
+57 0 *
Ed
 1e-07 1 1 0
1  54 0 0 4
2  107 15 0 0 4
2  108 16 0 0 4
0

0101000
+141 9 -95 9 *
Wi

0101000
+55 0 -58 0 -140 12 +94 17 *
Fa
0  1e-07 15 0

0101000
+54 0 *
Wi

0101000
-138 20 -55 8 +92 22 +82 0 *
Fa
0  1e-07 16 8

0101000
+52 0 *
Ed
 1e-07 1 1 0
1  55 0 0 4
3  109 110CN 17 0 0 4
0

0101000
+86 31 -135 31 *
Wi

0101000
-85 43 -50 0 +134 0 +50 0 *
Fa
0  1e-07 17 0

0101000
+49 0 *
Ed
 1e-07 1 1 0
1  56 0 0 4
3  111 112CN 18 0 0 4
0

0101000
+89 31 -132 31 *
Wi

0101000
-88 43 -47 0 +131 0 +47 0 *
Fa
0  1e-07 18 0

0101000
+46 0 *
Ve
1e-07
25.8 34.3 -3
0 0

0101101
*
Ed
 1e-07 1 1 0
1  57 0 0 3
2  113 19 0 0 3
2  114 20 0 0 3
0

0101000
+129 45 -44 45 *
Ve
1e-07
37.3 34.3 -3
0 0

0101101
*
Ed
 1e-07 1 1 0
1  58 0 0 11.5
2  115 19 49 0 11.5
2  116 27 50 0 11.5
0

0101000
+44 51 -42 51 *
Ed
 1e-07 1 1 0
1  59 0 0 3
2  117 19 0 0 3
2  118 21 0 0 3
0

0101000
+128 45 -42 45 *
Wi

0101000
+43 0 -127 46 +41 48 -40 0 *
Fa
0  1e-07 19 0

0101000
+39 0 *
Ve
1e-07
25.8 30.3 -3
0 0

0101101
*
Ed
 1e-07 1 1 0
1  60 0 0 3
2  119 20 0 0 3
2  120 22 0 0 3
0

0101000
+126 45 -37 45 *
Ed
 1e-07 1 1 0
1  61 0 0 4
2  121 20 49 0 4
2  122 27 50 0 4
0

0101000
+37 51 -44 51 *
Wi

0101000
+36 0 -125 46 +35 48 -43 0 *
Fa
0  1e-07 20 0

0101000
+34 0 *
Ve
1e-07
37.3 41.1 -3
0 0

0101101
*
Ed
 1e-07 1 1 0
1  62 0 0 3
2  123 21 0 0 3
2  124 23 0 0 3
0

0101000
+124 45 -32 45 *
Ed
 1e-07 1 1 0
1  63 0 0 6.8
2  125 21 49 0 6.8
2  126 27 50 0 6.8
0

0101000
+32 51 -42 51 *
Wi

0101000
+31 0 -123 46 +30 48 -40 0 *
Fa
0  1e-07 21 0

0101000
+29 0 *
Ve
1e-07
13.8 30.3 -3
0 0

0101101
*
Ed
 1e-07 1 1 0
1  64 0 0 3
2  127 22 0 0 3
2  128 24 0 0 3
0

0101000
+122 45 -27 45 *
Ed
 1e-07 1 1 0
1  65 0 0 12
2  129 22 49 0 12
2  130 27 50 0 12
0

0101000
+27 51 -37 51 *
Wi

0101000
+26 0 -121 46 +25 48 -36 0 *
Fa
0  1e-07 22 0

0101000
+24 0 *
Ve
1e-07
8.8 41.1 -3
0 0

0101101
*
Ed
 1e-07 1 1 0
1  66 0 0 3
2  131 23 0 0 3
2  132 25 0 0 3
0

0101000
+120 45 -22 45 *
Ed
 1e-07 1 1 0
1  67 0 0 28.5
2  133 23 49 0 28.5
2  134 27 50 0 28.5
0

0101000
+22 51 -32 51 *
Wi

0101000
+21 0 -119 46 +20 48 -31 0 *
Fa
0  1e-07 23 0

0101000
+19 0 *
Ve
1e-07
13.8 34.3 -3
0 0

0101101
*
Ed
 1e-07 1 1 0
1  68 0 0 3
2  135 24 0 0 3
2  136 26 0 0 3
0

0101000
+118 45 -17 45 *
Ed
 1e-07 1 1 0
1  69 0 0 4
2  137 24 49 0 4
2  138 27 50 0 4
0

0101000
+17 51 -27 51 *
Wi

0101000
+16 0 -117 46 +15 48 -26 0 *
Fa
0  1e-07 24 0

0101000
+14 0 *
Ve
1e-07
8.8 34.3 -3
0 0

0101101
*
Ed
 1e-07 1 1 0
1  70 0 0 3
2  139 25 0 0 3
2  140 26 0 0 3
0

0101000
+116 45 -12 45 *
Ed
 1e-07 1 1 0
1  71 0 0 6.8
2  141 25 49 0 6.8
2  142 27 50 0 6.8
0

0101000
+12 51 -22 51 *
Wi

0101000
+11 0 -115 46 +10 48 -21 0 *
Fa
0  1e-07 25 0

0101000
+9 0 *
Ed
 1e-07 1 1 0
1  72 0 0 5
2  143 26 49 0 5
2  144 27 50 0 5
0

0101000
+12 51 -17 51 *
Wi

0101000
+11 0 -114 46 +7 48 -16 0 *
Fa
0  1e-07 26 0

0101000
+6 0 *
Wi

0101100
+20 0 +30 0 -41 0 -35 0 -25 0 -15 0 -7 0 +10 0 *
Fa
0  1e-07 27 0

0101000
-4 32 *
Sh

0101100
-172 8 +165 0 -158 8 +112 0 -83 0 -80 0 -77 8 -74 8 -71 8 +68 8 
+65 8 +62 8 +59 8 +56 8 +53 8 +51 0 -48 29 -45 29 -38 44 -33 44 
+28 44 -23 44 +18 44 -13 44 +8 44 -5 44 +3 52 *
So

0100000
+2 0 *

+1 1 