DBRep_DrawableShape

CASCADE Topology V1, (c) Matra-Datavision
Locations 15
1
              1               0               0               0 
              0               1               0               0 
              0               0               1               0 
1
              1               0               0               0 
              0               1               0               0 
              0               0               1               0 
2  2 -1 0
2  1 -1 2 -1 0
2  1 -1 0
1
              1               0               0               0 
              0               1               0               0 
              0               0               1               0 
1
              1               0               0               0 
              0               1               0               0 
              0               0               1               0 
2  6 1 7 -1 2 1 0
2  7 1 6 -1 0
2  6 -1 0
2  1 -1 2 -1 7 1 6 -1 0
1
              1               0               0               0 
              0               1               0               0 
              0               0               1               3 
2  7 -1 12 1 2 1 0
2  7 -1 2 1 0
2  2 -1 12 -1 7 1 0
Curve2ds 120
1 0 0 0 -1 
1 0 0 0 -1 
1 0 -2 1 0 
1 0 0 0 1 
1 0 0 1 0 
1 0 0 -1 0 
1 6 0 0 -1 
1 0 0 0 -1 
1 0 -2 1 0 
1 0 0 0 1 
1 0 0 1 0 
1 0 0 0 1 
1 4.4000000000000004 0 0 -1 
1 0 0 0 -1 
7 0 0  8 9 2  1.2732399292213558e-18 -4.9999972798855597e-19  0.19634954159936213 1.9634958089127953e-10  0.39269908219841909 0.044060776266945822  0.58904862279860026 0.1321819538991349  0.78539816339343815 0.26074124950855548  0.98174770399918998 0.42248673862513897  1.1780972445958469 0.6073008712259309  1.3744467851955346 0.80365045840063787  1.5707963267948968 1 
 3.1415926535897931 9 4.7123889803846897 9
7 0 0  8 9 2  1.2732399292213558e-18 -2.2254460465301837e-16  0.19634954159936213 1.963493588466746e-10  0.39269908219705485 0.044060776267087931  0.58904862280041925 0.13218195389981702  0.78539816339161916 0.26074124950741862  0.98174770399737099 0.42248673862627584  1.1780972445944826 0.60730087122621512  1.3744467851955344 0.80365045840063776  1.5707963267948966 0.99999999999999978 
 3.1415926535897931 9 4.7123889803846897 9
1 1.5707963267948966 0 0 1 
1 0 0.99999999999999967 -1 0 
7 0 0  8 9 2  4.4536244975343458e-16 6.0000000000000071  0.19634954159936258 5.9999999998036504  0.39269908219694116 5.9559392237270004  0.589048622800874 5.8678180461029115  0.78539816339116442 5.7392587504691619  0.98174770399782574 5.5775132613707683  1.1780972445943689 5.3926991287689816  1.3744467851955346 5.1963495415993624  1.5707963267948968 4.9999999999999964 
 0 9 1.5707963267948966 9
7 0 0  8 9 2  4.4536244975343458e-16 -2.2254460477548681e-16  0.19634954159936258 1.9634938289255822e-10  0.3926990821975096 0.044060776266746871  0.58904862280132875 0.13218195390038545  0.78539816339343815 0.26074124950901023  0.98174770399918998 0.42248673862638952  1.1780972445953921 0.60730087122584564  1.3744467851955344 0.80365045840063787  1.5707963267948966 1 
 0 9 1.5707963267948966 9
1 -6 0 0 1 
1 0 0 1 0 
1 -4.0408902300206666 2.4000000000000004 -1 0 
1 0 0 1 0 
2 -4.0408902300206666 4.6000000000000005 -1 0 0 1 2.2000000000000011
1 0 0 1 0 
1 0 4.4000000000000004 -1 0 
1 0 0 1 0 
1 0 -2 1 0 
1 0 0 0 1 
1 2.4000000000000004 0 0 -1 
1 1.9591097699793334 0 0 -1 
1 1.5707963267948966 0 0 1 
1 -1 0 0 1 
7 0 0  8 9 2  -6.6100297432205664e-17 4.4000000000000004  0.19634954159936213 4.3999999998036508  0.3926990821992149 4.3559392237370957  0.58904862279405279 4.2678180460716248  0.78539816340162361 4.1392587505215488  0.98174770399327826 3.9775132613449387  1.1780972445961879 3.7926991287768033  1.3744467851955344 3.5963495415993627  1.5707963267948966 3.4000000000000039 
 3.1415926535897931 9 4.7123889803846897 9
7 0 0  8 9 2  -6.6100297432205664e-17 -4.999994830626483e-19  0.19634954159936213 1.9634953279951226e-10  0.39269908219932859 0.044060776266633184  0.58904862279359804 0.13218195390072651  0.7853981634025331 0.26074124950537225  0.98174770399327826 0.42248673862627584  1.1780972445963016 0.60730087122573195  1.3744467851955344 0.80365045840063787  1.5707963267948966 1 
 3.1415926535897931 9 4.7123889803846897 9
1 0 -2 1 0 
1 0 0 0 1 
1 1.8500000000000014 0 0 -1 
1 3.2326274316272086 0 0 -1 
1 -5 0 0 1 
1 1.5707963267948966 0 0 1 
1 0 3.4000000000000004 -1 0 
1 1.5707963267948966 0 0 1 
1 -4.0408902300206666 1.4000000000000006 -1 0 
1 1.5707963267948966 0 0 1 
2 -4.0408902300206666 4.6000000000000005 0.99585919546393842 -0.090909090909090939 -0.090909090909090939 -0.99585919546393842 3.2000000000000002
1 0 4.7123889803846897 1 0 
7 0 0  8 9 2  4.4536244975343458e-16 2.4000000000000004  0.19634954159936258 2.3999999998036508  0.3926990821975096 2.355939223734822  0.58904862280132875 2.2678180460843578  0.78539816339343815 2.1392587505015399  0.98174770399918998 1.9775132613649475  1.1780972445953921 1.7926991287756664  1.3744467851955344 1.5963495415993625  1.5707963267948966 1.4000000000000004 
 0 9 1.5707963267948966 9
7 0 0  8 9 2  4.4536244996022973e-16 1.9591097699793334  0.19634954159936258 1.9591097697829838  0.39269908219785066 1.9150489937119346  0.58904862279723602 1.8269278160742033  0.7853981633948024 1.6983685204668291  0.98174770399600675 1.5366230313493361  1.1780972445952784 1.3518088987543706  1.3744467851955346 1.1554593115786955  1.5707963267948968 0.95910976997933339 
 0 9 1.5707963267948966 9
1 0 0 0 -1 
1 4.7123889803846897 0 0 -1 
1 0 -2 1 0 
1 0 0 0 1 
1 3.2326274316272086 -2 1 0 
1 0 3.1415926535897931 1 0 
7 0 0  4 101 34  8.8817841970012523e-16 1.8500000000000012  0.011677019803720157 1.8499999989340401  0.023354574351055923 1.8498339887588919  0.034988822003456654 1.8495022204253975  0.058474512611705443 1.8485050539490095  0.070321461130641083 1.847829286479884  0.082058124330568916 1.8469914601225219  0.10566004051953914 1.8449798675947542  0.11751685434390335 1.8437960659846131  0.12922924558907223 1.8424610013546334  0.15281447913458646 1.8394520253813262  0.16467529954177262 1.8377668606262374  0.17637540248093231 1.8359418650436776  0.19995113943077758 1.8319504952291283  0.21181294780548665 1.8297729153161382  0.22350739230609662 1.8274669115303523  0.247077112680814 1.8225126159328497  0.25893795075171511 1.8198537974526903  0.27063066443133543 1.8170776029943441  0.29419611008075996 1.8111841870208205  0.30605461147312774 1.8080574165930454  0.31774813964462023 1.8048237370727729  0.34131033976944458 1.7980190133634291  0.35316553934363615 1.7944395110760527  0.36486161747945278 1.7907628456298004  0.38842128933706999 1.7830782593807299  0.40027251572635336 1.7790629764001631  0.41197234115790859 1.7749594840539304  0.43553004148616914 1.7664297203356965  0.44737684526784882 1.7619971261611784  0.45908122863239242 1.7574844671077088  0.48263741289023088 1.7481470475739205  0.4944795141126983 1.7433169148776368  0.50618897792437512 1.7384140743023206  0.52974402582995506 1.7283089496359449  0.54158127392721056 1.7231021416930448  0.55329612379223114 1.7178292429186086  0.5768503526023121 1.7069983880797892  0.58868269513336724 1.7014366525180677  0.60040307397567449 1.6958147658768743  0.62395674728945494 1.6843017852850861  0.63578420536236813 1.6784075571497326  0.64751013552529813 1.6724585103060405  0.67106347034839953 1.6603082594565999  0.6828861192676845 1.6541044759939805  0.69461753529945547 1.6478506704786446  0.71817070826339524 1.6351088994215446  0.72998866231748849 1.6286188284180569  0.74172543639532496 1.6220830660768448  0.76527858938718474 1.6087960889126485  0.77709198993567252 1.602043171864084  0.78883395144404389 1.5952484938874063  0.81238719670124127 1.581462887130098  0.82419620289615825 1.5744705979805893  0.8359431533807502 1.5674401382506984  0.8594965780602779 1.5532024696801483  0.87130135966896738 1.5459941893806157  0.88305308415631334 1.5387510430752069  0.90660675438912364 1.524107631617329  0.9184074862918612 1.5167065383284795  0.93016376177039906 1.5092736460664258  0.95371772622330209 1.4942703523290708  0.96551458424339121 1.4866993267443318  0.97727518593928053 1.4790993740446408  1.0008294789167396 1.4637814204120709  1.0126226367089455 1.4560629654038335  1.024387342656162 1.4483182968410744  1.0479419867804243 1.4327301154840215  1.0597316135585775 1.4248862890799194  1.0715002078541112 1.4170188362425515  1.0950552163647655 1.4012039430193253  1.106841475293562 1.3932563035869805  1.1186137503421874 1.3852875257626125  1.1421691290563221 1.3692884177488136  1.1539521761679934 1.3612579801988436  1.165727934152633 1.3532088166055067  1.1892836831253177 1.3370668908724768  1.201063666650402 1.3289740926698554  1.2128427204107162 1.3208649250098616  1.236398835333155 1.3046204162515773  1.2481758953576696 1.2964850920451048  1.2599580688178236 1.2883357161629161  1.2835145421876764 1.2720276508255663  1.2952888105674614 1.2638690145539626  1.3070739388216399 1.2556986200203359  1.3306307609169234 1.2393647846983233  1.3424023613949947 1.2312014181012585  1.3541902905338841 1.2230285746113914  1.3777474502189353 1.2067054966207507  1.3895164987037454 1.1985553431663423  1.4013070854457244 1.1903979927215609  1.4248645708345897 1.1741209309326563  1.4366311758070758 1.1660012942636093  1.4484242869822772 1.1578767481973571  1.4719820859823001 1.1416796923914136  1.483746349007685 1.1336072384854015  1.4955418609311986 1.1255321784891592  1.523131251930339 1.1066954872257295  1.5389513580663907 1.0959327599588247  1.5548375983813392 1.085170168832831  1.5707963508262495 1.0744108449035616 
 0 5 0.018952202238525655 3 0.038504286194645264 3 0.058685723951020258 3 0.079657713810297459 3 0.1015200989110536 3 0.12433529759958657 3 0.14813949904344162 3 0.1729483000144513 3 0.19876014358072081 3 0.22555887912008146 3 0.25331594011731334 3 0.28199231699965971 3 0.31154037988920408 3 0.34190556148661 3 0.37302789655865654 3 0.40484341279905528 3 0.43728537040949511 3 0.47028535141793809 3 0.50377420324398059 3 0.53768284388038368 3 0.57194293817425179 3 0.60648745609451404 3 0.64125112465315603 3 0.67617078541402187 3 0.7111856693818267 3 0.74623760061517097 3 0.7812711392389593 3 0.81623367371846978 3 0.85107547136168082 3 0.88574969508809309 3 0.92021239357891749 3 0.9544224710341852 3 1 5
7 0 0  4 101 34  0 3.1415926535897927  4.8452797329900932e-10 3.1532696733935119  7.5459983039039003e-05 3.164947227940849  0.00022626265427394543 3.176581475593248  0.00067929708668756916 3.2000671662014972  0.00098623640026218595 3.2119141147204333  0.0013666050452529888 3.2236507779203611  0.0022791468258107628 3.2472526941093314  0.0028158547191861061 3.2591095079336965  0.0034206396028801933 3.2708218991788636  0.0047822316991412706 3.2944071327243774  0.0055440802708162096 3.3062679531315644  0.0063681813341265325 3.317968056070725  0.0081680376177999392 3.3415437930205698  0.0091487477107516924 3.353405601395278  0.010185743087595789 3.3651000458958893  0.012409898553209509 3.3886697662706062  0.013601629046031682 3.4005306043415078  0.014843715720719963 3.4122233180211272  0.017475239893396832 3.4357887636705522  0.018868723172295709 3.4476472650629204  0.020306800995186336 3.459340793234412  0.023326122030994156 3.4829029933592364  0.024910836715703155 3.4947581929334288  0.026534642533123431 3.5064542710692441  0.029919909359008123 3.5300139429268618  0.031684271967736599 3.5418651693161447  0.033482538370519954 3.5535649947477013  0.037210001593356523 3.5771226950759623  0.039141566440613396 3.5889694988576402  0.041102195318271306 3.6006738822221838  0.04514659641448926 3.6242300664800227  0.047232256639015091 3.6360721677024896  0.049342500658788424 3.6477816315141678  0.053677459843231468 3.6713366794197473  0.05590364410657056 3.6831739275170032  0.058150289864963511 3.6948887773820234  0.062748683421618878 3.7184430061921039  0.06510154381518074 3.7302753487231612  0.067471090965916858 3.7419957275654658  0.07230540972327848 3.7655494008792467  0.074770997253728488 3.7773768589521608  0.07724982872852415 3.7891027891150904  0.082292510717991263 3.8126561239381918  0.084856935552108936 3.8244787728574754  0.087431474983484136 3.8362101888892477  0.092655206927375389 3.8597633618531875  0.095304781386588822 3.8715813159072816  0.097961634891092331 3.8833180899851172  0.10333961884604648 3.9068712429769765  0.10606098192314484 3.9186846435254665  0.10878706241323943 3.9304266050338352  0.11429324550901843 3.9539798502910326  0.11707346840228894 3.9657888564859536  0.11985610150523307 3.9775358069705407  0.12546536817613685 4.0010892316500684  0.12829204097154179 4.0128940132587596  0.13111905241166166 4.0246457377461065  0.13680737976225288 4.0481994079789168  0.13966867992453569 4.0600001398816534  0.14252846485790016 4.0717564153601904  0.14827304281035936 4.0953103798130934  0.15115778656136225 4.1071072378331825  0.15403936183958145 4.1188678395290728  0.15981868047288028 4.1424221325065318  0.16271635844066967 4.1542152902987413  0.16560939913226846 4.1659799962459534  0.17140330615586308 4.1895346403702174  0.17430410487920245 4.2013242671483688  0.17719896660698087 4.2130928614439043  0.18298869823705743 4.2366478699545587  0.18588350921821561 4.2484341288833578  0.18877123799676987 4.2602064039319796  0.19453942665083623 4.2837617826461152  0.19741984468017293 4.2955448297577838  0.20029217597752691 4.3073205877424261  0.2060228382052971 4.3308763367151109  0.20888115064869428 4.3426563202401942  0.21173049936813904 4.3544353740005075  0.21740900732539625 4.3779914889229463  0.22023817598550188 4.3897685489474645  0.22305761898494225 4.4015507224076149  0.22867065856213831 4.4251071957774668  0.23146429561013715 4.4368814641572527  0.23424754826177097 4.4486665924114321  0.23978306672724248 4.4722234145067166  0.24253540606558133 4.483995014984786  0.24527679422130078 4.4957829441236763  0.25072393995282294 4.5193401038087275  0.25342980522103709 4.5311091522935367  0.25612423379934501 4.5428997390355175  0.26147329037576306 4.5664572244243828  0.26412806065943162 4.5782238293968689  0.26677097991614218 4.5900169405720685  0.27201329653771111 4.6135747395720914  0.27461287069079621 4.6253390025974781  0.27720024108496766 4.6371345145209943  0.28320565675689569 4.6647239055201348  0.28661404699203796 4.6805439909562336  0.28999968765058881 4.6964302888123779  0.29336200455919137 4.7123889803846888 
 0 5 0.018952202238525655 3 0.038504286194645264 3 0.058685723951020258 3 0.079657713810297459 3 0.1015200989110536 3 0.12433529759958657 3 0.14813949904344162 3 0.1729483000144513 3 0.19876014358072081 3 0.22555887912008146 3 0.25331594011731334 3 0.28199231699965971 3 0.31154037988920408 3 0.34190556148661 3 0.37302789655865654 3 0.40484341279905528 3 0.43728537040949511 3 0.47028535141793809 3 0.50377420324398059 3 0.53768284388038368 3 0.57194293817425179 3 0.60648745609451404 3 0.64125112465315603 3 0.67617078541402187 3 0.7111856693818267 3 0.74623760061517097 3 0.7812711392389593 3 0.81623367371846978 3 0.85107547136168082 3 0.88574969508809309 3 0.92021239357891749 3 0.9544224710341852 3 1 5
8 3.1415926535897931 4.7123889803846897
1 -3.1415926535897931 0 1 0 
8 3.1415926535897931 4.7123889803846897
1 1.4797615487574811 0 0 1 
1 0 0 0 -1 
1 0 0 0 -1 
1 0 -2 1 0 
1 0 0 0 1 
1 0 0 1 0 
1 0 0 -1 0 
1 6 0 0 -1 
1 0 0 0 -1 
1 0 -2 1 0 
1 0 0 0 1 
1 0 0 1 0 
1 0 0 0 1 
1 2.4000000000000004 0 0 -1 
1 0 0 0 -1 
7 0 0  8 9 2  1.2732399292213558e-18 -4.9999972799436159e-19  0.19634954159936213 1.9634958089127953e-10  0.39269908219841909 0.044060776266434232  0.58904862279860026 0.1321819539008402  0.78539816339343815 0.26074124950628175  0.98174770399918998 0.42248673862718533  1.1780972445958469 0.60730087122564669  1.3744467851955346 0.80365045840064142  1.5707963267948968 1.0000000000000036 
 3.1415926535897931 9 4.7123889803846897 9
7 0 0  8 9 2  1.2732399292213558e-18 -2.2254460465301837e-16  0.19634954159936213 1.963493588466746e-10  0.39269908219841909 0.044060776267087931  0.58904862279496228 0.13218195389981702  0.78539816340025936 0.26074124950741862  0.98174770399145928 0.42248673862627584  1.1780972445964153 0.60730087122621512  1.374446785195538 0.80365045840063776  1.5707963267949001 0.99999999999999978 
 3.1415926535897931 9 4.7123889803846897 9
1 1.5707963267948966 0 0 1 
1 0 0.99999999999999967 -1 0 
7 0 0  8 9 2  4.4536244975343458e-16 6.0000000000000071  0.19634954159936258 5.9999999998036504  0.39269908219694116 5.9559392237306383  0.589048622800874 5.8678180460992735  0.78539816339116442 5.7392587504618859  0.98174770399782574 5.5775132613671303  1.1780972445943689 5.3926991287698911  1.3744467851955346 5.1963495415993588  1.5707963267948968 4.9999999999999929 
 0 9 1.5707963267948966 9
7 0 0  8 9 2  4.4536244975343458e-16 -2.2254460477548681e-16  0.19634954159936258 1.9634938289255822e-10  0.39269908219955596 0.044060776266746871  0.58904862279405279 0.13218195390038545  0.78539816340116886 0.26074124950901023  0.98174770399236877 0.42248673862638952  1.1780972445966427 0.60730087122584564  1.374446785195538 0.80365045840063787  1.5707963267949001 1 
 0 9 1.5707963267948966 9
1 -6 0 0 1 
1 0 0 1 0 
1 -6 4.4000000000000004 1 0 
1 0 -0 1 0 
2 -1.9591097699793352 4.6000000000000005 -1 0 0 1 2.2000000000000028
1 0 0 1 0 
1 0 2.4000000000000004 -1 0 
1 0 0 1 0 
1 0 -2 1 0 
1 0 0 0 1 
1 4.4000000000000004 0 0 -1 
1 0 -0 0 -1 
1 1.5707963267948966 0 0 1 
1 -1 0 0 1 
7 0 0  8 9 2  -6.6100297432205664e-17 2.4000000000000004  0.19634954159936213 2.3999999998036508  0.39269908219876015 2.3559392237332304  0.58904862279541703 2.2678180460879958  0.78539816339889512 2.1392587505015399  0.98174770399464251 1.977513261365857  1.1780972445963016 1.7926991287752116  1.3744467851955309 1.5963495415993629  1.570796326794893 1.4000000000000008 
 3.1415926535897931 9 4.7123889803846897 9
7 0 0  8 9 2  -6.610029722541051e-17 -4.999994830626483e-19  0.19634954159936213 1.9634953279951226e-10  0.39269908219944227 0.044060776266633184  0.58904862279359804 0.13218195390163601  0.7853981634025331 0.26074124950559963  0.98174770399282352 0.42248673862695796  1.1780972445964153 0.60730087122595933  1.3744467851955342 0.80365045840063432  1.5707963267948963 0.99999999999999645 
 3.1415926535897931 9 4.7123889803846897 9
1 0 -2 1 0 
1 0 0 0 1 
1 1.9591097699793352 0 0 -1 
1 4.7123889803846897 0 0 -1 
1 -5 0 0 1 
1 1.5707963267948966 0 0 1 
1 0 1.4000000000000006 -1 0 
1 1.5707963267948966 0 0 1 
1 -6 3.4000000000000004 1 0 
1 1.5707963267948966 0 0 1 
2 -1.9591097699793352 4.6000000000000005 0 -1 -1 -0 3.2000000000000002
1 0 4.7123889803846897 1 0 
7 0 0  8 9 2  4.4536244975343458e-16 4.4000000000000004  0.19634954159936258 4.3999999998036508  0.39269908219955596 4.355939223729365  0.58904862279405279 4.2678180460989097  0.78539816340116886 4.1392587504669791  0.98174770399236877 3.9775132613758615  1.1780972445966427 3.7926991287672536  1.374446785195538 3.5963495415993627  1.5707963267949001 3.4000000000000004 
 0 9 1.5707963267948966 9
7 0 0  8 9 2  4.4536244975343458e-16 -4.9999985045711696e-19  0.19634954159936258 1.9634960493716314e-10  0.39269908219705485 0.044060776266604762  0.58904862280041925 0.13218195390197707  0.78539816339343815 0.26074124950423538  0.98174770399737099 0.42248673862786745  1.1780972445944826 0.60730087122547616  1.3744467851955344 0.80365045840064142  1.5707963267948966 1.0000000000000036 
 0 9 1.5707963267948966 9
1 0 -2 1 0 
1 0 0 0 1 
1 1.8500000000000014 0 0 -1 
1 6.1921505291421717 0 0 -1 
1 4.7123889803846897 -2 1 0 
1 0 3.1415926535897931 1 0 
8 0 1.5707963267948966
1 0 1.9591097699793352 1 0 
8 0 1.5707963267948966
1 0 3.1415926535897931 0 1 
7 0 0  4 101 34  0 1.8500000000000016  0.01167701980371838 1.8499999989340403  0.023354574351056812 1.8498339887588902  0.034988822003456654 1.8495022204253937  0.058474512611707219 1.848505053949006  0.070321461130636642 1.8478292864798853  0.082058124330568916 1.8469914601225201  0.10566004051953737 1.8449798675947524  0.11751685434390335 1.8437960659846127  0.12922924558907312 1.8424610013546325  0.15281447913458823 1.8394520253813251  0.16467529954177085 1.8377668606262358  0.17637540248093586 1.8359418650436765  0.19995113943078024 1.8319504952291272  0.21181294780548665 1.8297729153161368  0.22350739230609662 1.8274669115303497  0.24707711268081578 1.8225126159328466  0.25893795075171155 1.8198537974526883  0.2706306644313381 1.8170776029943414  0.29419611008076263 1.8111841870208181  0.30605461147312685 1.8080574165930465  0.31774813964462023 1.8048237370727678  0.34131033976944281 1.7980190133634246  0.35316553934364237 1.7944395110760518  0.36486161747945101 1.7907628456298006  0.3884212893370691 1.7830782593807299  0.4002725157263507 1.7790629764001582  0.41197234115790948 1.7749594840539293  0.43553004148616914 1.766429720335696  0.44737684526784793 1.7619971261611775  0.45908122863238887 1.7574844671077079  0.48263741289022732 1.7481470475739194  0.49447951411270541 1.7433169148776386  0.50618897792437068 1.7384140743023169  0.52974402582995239 1.7283089496359403  0.54158127392721767 1.7231021416930448  0.55329612379223025 1.7178292429186084  0.5768503526023121 1.7069983880797885  0.58868269513336635 1.7014366525180673  0.60040307397567272 1.6958147658768694  0.62395674728945405 1.6843017852850815  0.63578420536236457 1.678407557149733  0.64751013552529813 1.6724585103060403  0.67106347034839864 1.6603082594565999  0.68288611926767917 1.6541044759939743  0.69461753529945636 1.6478506704786438  0.71817070826340057 1.6351088994215413  0.72998866231748583 1.6286188284180554  0.74172543639533028 1.6220830660768402  0.76527858938718651 1.6087960889126451  0.77709198993567963 1.6020431718640786  0.78883395144404744 1.5952484938874021  0.81238719670124482 1.5814628871300931  0.82419620289616535 1.5744705979805851  0.83594315338075376 1.5674401382506915  0.85949657806028235 1.5532024696801416  0.87130135966896827 1.5459941893806144  0.88305308415631867 1.5387510430752041  0.90660675438912719 1.5241076316173272  0.9184074862918612 1.5167065383284755  0.93016376177040172 1.5092736460664233  0.95371772622330653 1.4942703523290684  0.96551458424339209 1.4866993267443296  0.97727518593928409 1.4790993740446354  1.000829478916744 1.4637814204120652  1.012622636708949 1.4560629654038326  1.0243873426561656 1.4483182968410688  1.0479419867804278 1.432730115484016  1.0597316135585819 1.4248862890799141  1.0715002078541147 1.4170188362425487  1.0950552163647682 1.4012039430193228  1.1068414752935585 1.3932563035869714  1.1186137503421945 1.3852875257626103  1.1421691290563292 1.3692884177488116  1.1539521761679952 1.3612579801988378  1.1657279341526356 1.3532088166055003  1.1892836831253195 1.3370668908724705  1.2010636666504118 1.328974092669855  1.2128427204107197 1.3208649250098536  1.2363988353331603 1.3046204162515682  1.2481758953576767 1.2964850920451045  1.2599580688178325 1.2883357161629092  1.2835145421876826 1.2720276508255612  1.2952888105674685 1.2638690145539553  1.3070739388216417 1.2556986200203277  1.330630760916927 1.2393647846983147  1.3424023613949974 1.2312014181012574  1.3541902905338929 1.2230285746113865  1.3777474502189451 1.2067054966207451  1.3895164987037427 1.1985553431663394  1.4013070854457297 1.1903979927215518  1.4248645708345942 1.1741209309326481  1.436631175807082 1.1660012942636109  1.4484242869822825 1.1578767481973493  1.4719820859823036 1.1416796923914068  1.4837463490076965 1.1336072384853972  1.4955418609312048 1.1255321784891539  1.5231312519303026 1.1066954872257517  1.5389513580662673 1.0959327599587061  1.5548375983814262 1.0851701688331379  1.5707963508260256 1.0744108449034684 
 0 5 0.01895220223852748 3 0.038504286194650919 3 0.058685723951027162 3 0.079657713810314737 3 0.10152009891108826 3 0.12433529759964093 3 0.14813949904352378 3 0.17294830001455541 3 0.19876014358084751 3 0.22555887912022959 3 0.25331594011747388 3 0.28199231699981819 3 0.31154037988935968 3 0.34190556148676865 3 0.37302789655882634 3 0.40484341279923386 3 0.43728537040968374 3 0.47028535141812494 3 0.50377420324416122 3 0.53768284388056253 3 0.57194293817443276 3 0.60648745609468979 3 0.6412511246533189 3 0.67617078541418718 3 0.71118566938199157 3 0.74623760061533173 3 0.78127113923912261 3 0.81623367371862499 3 0.85107547136181494 3 0.88574969508822798 3 0.92021239357904683 3 0.95442247103431643 3 1 5
7 0 0  4 101 34  1.4797615487574829 3.1415926535897927  1.4797615482729549 3.1532696733935111  1.4796860887744439 3.1649472279408517  1.4795352861032081 3.1765814755932484  1.4790822516707944 3.2000671662014986  1.4787753123572198 3.211914114720432  1.4783949437122308 3.2236507779203611  1.477482401931673 3.2472526941093292  1.4769456940382968 3.2591095079336974  1.4763409091546018 3.2708218991788653  1.4749793170583407 3.2944071327243813  1.4742174684866685 3.3062679531315644  1.4733933674233546 3.3179680560707281  1.4715935111396821 3.3415437930205725  1.4706128010467321 3.3534056013952798  1.4695758056698871 3.3651000458958897  1.4673516502042734 3.3886697662706085  1.4661599197114512 3.4005306043415047  1.464917833036762 3.4122233180211299  1.4622863088640843 3.4357887636705553  1.4608928255851872 3.4476472650629195  1.4594547477622966 3.4593407932344129  1.4564354267264896 3.4829029933592359  1.4548507120417797 3.4947581929334355  1.4532269062243586 3.5064542710692437  1.4498416393984739 3.5300139429268618  1.4480772767897463 3.5418651693161434  1.446279010386962 3.5535649947477026  1.4425515471641255 3.5771226950759623  1.4406199823168686 3.5889694988576393  1.4386593534392125 3.600673882222182  1.4346149523429945 3.6242300664800209  1.4325292921184651 3.6360721677024959  1.4304190480986954 3.6477816315141638  1.4260840889142514 3.6713366794197455  1.4238579046509114 3.683173927517009  1.4216112588925185 3.6948887773820234  1.4170128653358622 3.7184430061921052  1.4146600049423022 3.7302753487231577  1.412290457791566 3.7419957275654663  1.4074561390342044 3.7655494008792472  1.4049905515037535 3.7773768589521559  1.4025117200289579 3.7891027891150908  1.3974690380394907 3.8126561239381918  1.394904613205374 3.8244787728574723  1.3923300737739979 3.8362101888892495  1.3871063418301066 3.8597633618531928  1.3844567673708941 3.8715813159072772  1.3817999138663888 3.8833180899851238  1.3764219299114355 3.9068712429769805  1.3737005668343363 3.9186846435254719  1.3709744863442417 3.9304266050338392  1.3654683032484636 3.953979850291037  1.3626880803551931 3.9657888564859611  1.3599054472522472 3.9775358069705455  1.3542961805813443 4.0010892316500737  1.3514695077859429 4.0128940132587605  1.3486424963458186 4.0246457377461127  1.3429541689952273 4.0481994079789212  1.3400928688329472 4.0600001398816508  1.3372330838995818 4.0717564153601957  1.3314885059471226 4.0953103798130996  1.3286037621961189 4.1071072378331834  1.3257221869179006 4.1188678395290763  1.3199428682846008 4.1424221325065362  1.3170451903168114 4.1542152902987466  1.3141521496252127 4.1659799962459587  1.3083582426016189 4.1895346403702209  1.3054574438782813 4.2013242671483741  1.3025625821505002 4.2130928614439078  1.2967728505204237 4.2366478699545613  1.2938780395392682 4.2484341288833578  1.2909903107607112 4.2602064039319858  1.2852221221066449 4.2837617826461205  1.28234170407731 4.2955448297577856  1.2794693727799542 4.3073205877424305  1.273738710552184 4.3308763367151144  1.2708803981087868 4.3426563202402013  1.2680310493893421 4.3544353740005128  1.2623525414320849 4.3779914889229534  1.2595233727719783 4.3897685489474698  1.256703929772538 4.4015507224076238  1.2510908901953428 4.4251071957774739  1.2482972531473422 4.4368814641572616  1.2455140004957119 4.4486665924114366  1.2399784820302395 4.4722234145067219  1.2372261426918989 4.4839950149847851  1.2344847545361795 4.495782944123687  1.2290376088046582 4.5193401038087391  1.226331743536444 4.5311091522935341  1.223637314958137 4.5428997390355228  1.2182882583817189 4.5664572244243882  1.2156334880980486 4.5782238293968742  1.2129905688413389 4.5900169405720757  1.20774825221977 4.6135747395720967  1.2051486780666831 4.6253390025974896  1.2025613076725135 4.6371345145209988  1.1965558920005952 4.6647239055200984  1.1931475017654938 4.6805439909563002  1.189761861106831 4.6964302888121221  1.186399544198367 4.7123889803846888 
 0 5 0.01895220223852748 3 0.038504286194650919 3 0.058685723951027162 3 0.079657713810314737 3 0.10152009891108826 3 0.12433529759964093 3 0.14813949904352378 3 0.17294830001455541 3 0.19876014358084751 3 0.22555887912022959 3 0.25331594011747388 3 0.28199231699981819 3 0.31154037988935968 3 0.34190556148676865 3 0.37302789655882634 3 0.40484341279923386 3 0.43728537040968374 3 0.47028535141812494 3 0.50377420324416122 3 0.53768284388056253 3 0.57194293817443276 3 0.60648745609468979 3 0.6412511246533189 3 0.67617078541418718 3 0.71118566938199157 3 0.74623760061533173 3 0.78127113923912261 3 0.81623367371862499 3 0.85107547136181494 3 0.88574969508822798 3 0.92021239357904683 3 0.95442247103431643 3 1 5
Curves 60
1 4 0 0 0 0 1 
1 4 -2.2204460492503131e-16 2 1 0 0 
1 4 0 0 1 0 0 
1 10 0 0 0 0 1 
1 4 0 2 0 1 0 
1 4 0 0 0 1 0 
1 4 4.4000000000000004 0 0 0 1 
8 3.1415926535897931 4.7123889803846897
3 5 0.99999999999999978 2 -0.70710678118654746 0.70710678118654746 -0 0.70710678118654746 0.70710678118654746 0 0 0 -1 1.4142135623730951 1
1 4 0.99999999999999967 3 1 0 0 
8 0 1.5707963267948966
3 9 0.99999999999999978 2 -0.70710678118654746 -0.70710678118654746 -0 0.70710678118654746 -0.70710678118654746 0 -0 0 1 1.4142135623730951 1
1 10 0 0 0 1 0 
1 8.0408902300206666 2.4000000000000004 0 1 0 0 
2 8.0408902300206666 4.6000000000000005 0 0 0 1 1 0 -0 -0 1 0 2.2000000000000002
1 4 4.4000000000000004 0 1 0 0 
1 10 0 2 0 1 0 
1 10 2.4000000000000004 0 0 0 1 
1 5 0 3 0 1 0 
8 3.1415926535897931 4.7123889803846897
3 5 3.4000000000000004 2 0.70710678118654746 0.70710678118654746 0 0.70710678118654746 -0.70710678118654746 0 0 0 -1 1.4142135623730951 1
1 4 4.4000000000000004 2 1 0 0 
1 5.8500000000000014 4.4000000000000004 0 0 0 1 
1 9 0 3 0 1 0 
1 4 3.4000000000000004 3 1 0 0 
1 8.0408902300206666 1.4000000000000006 3 1 0 0 
2 8.0408902300206666 4.6000000000000005 3 -0 -0 1 -0.99585919546393842 -0.090909090909090967 -0 0.090909090909090967 -0.99585919546393842 0 3.2000000000000002
8 0 1.5707963267948966
3 9 1.4000000000000006 2 0.70710678118654746 -0.70710678118654746 -0 0.70710678118654746 0.70710678118654746 0 0 -0 1 1.4142135623730951 1
1 8.0408902300206666 2.4000000000000004 0 0 0 1 
1 8.0408902300206666 2.4000000000000004 2 1 0 0 
2 8.0408902300206666 4.6000000000000005 2 -0 -0 1 -0.99585919546393842 -0.090909090909090967 -0 0.090909090909090967 -0.99585919546393842 0 2.2000000000000002
8 0 1
7 0 0  4 101 34  5.8500000000000014 4.4000000000000004 2  5.8499999989340399 4.399999998832298 2.0116770198037193  5.849833988758891 4.3998181445125528 2.0233545872637926  5.8495022204253972 4.3994547080754893 2.0349845352945093  5.8485050539490091 4.3983618740331414 2.0584447862970516  5.8478292864798851 4.3976211045922815 2.0702700810003773  5.8469914601225215 4.3967022918180758 2.0819721133831806  5.8449798675947537 4.3944946810293644 2.1054705580635575  5.8437960659846135 4.3931948303547257 2.1172574651700469  5.842461001354633 4.3917277759759399 2.1288789843733689  5.839452025381326 4.3884180456090434 2.1522308349701609  5.8377668606262372 4.3865628782910395 2.16394725393614  5.8359418650436776 4.3845516316714592 2.1754745611464297  5.8319504952291279 4.3801473495292313 2.1986352535268385  5.8297729153161377 4.3777417302440371 2.2102521669139108  5.8274669115303519 4.3751907726215675 2.2216663694251606  5.8225126159328493 4.3697017905238233 2.2445880359019466  5.8198537974526907 4.3667517553410606 2.2560777692020357  5.8170776029943436 4.3636664296152539 2.2673574703870387  5.8111841870208201 4.3571050043047048 2.2899910279189446  5.8080574165930461 4.3536177824366167 2.3013268332733321  5.8048237370727724 4.3500044354202574 2.3124494996574536  5.7980190133634295 4.3423851912361764 2.3347457861820216  5.7944395110760523 4.3383691851719952 2.3459017035571881  5.7907628456298008 4.3342352344910466 2.3568442887935874  5.7830782593807299 4.325575114827755 2.3787545709792663  5.7790629764001622 4.3210398680699882 2.3897053703384468  5.7749594840539302 4.3163938419244792 2.4004446422107439  5.7664297203356965 4.3067120669759138 2.4219208727599231  5.7619971261611775 4.3016682303496792 2.4326420301103973  5.7574844671077079 4.2965197899267116 2.4431547798512336  5.7481470475739203 4.2858378171715481 2.4641497619861914  5.7433169148776368 4.2802971166582662 2.4746174536272529  5.7384140743023204 4.2746570639451473 2.484880653483386  5.7283089496359452 4.2629985471258482 2.5053481708562453  5.7231021416930448 4.2569737533592082 2.5155392792355418  5.7178292429186079 4.2508540263797689 2.5255302125461832  5.7069983880797883 4.2382447704154425 2.5454251455408867  5.7014366525180682 4.2317496691419754 2.555317273311839  5.6958147658768743 4.2251633267352595 2.5650136465387199  5.6843017852850863 4.2116312373392191 2.5842920822415949  5.6784075571497326 4.2046806000248909 2.5938635723854992  5.6724585103060399 4.1976417982125476 2.6032436133370789  5.660308259456599 4.1832168257788167 2.6218629514449505  5.6541044759939805 4.1758263796553239 2.6310929119098261  5.6478506704786451 4.1683503413793419 2.6401354565773882  5.635108899421545 4.1530644191255019 2.6580545117287855  5.6286188284180554 4.1452508161350954 2.6669228433655263  5.6220830660768453 4.1373537958083215 2.6756074130948915  5.6087960889126487 4.1212407723698501 2.6927865135232958  5.6020431718640831 4.113021556623238 2.7012739403187758  5.5952484938874063 4.1047208006069713 2.7095808107023465  5.5814628871300975 4.0878163673708148 2.7259818929565758  5.5744705979805893 4.0792099408614364 2.7340699937290189  5.5674401382506984 4.0705236447073956 2.7419802563684263  5.5532024696801479 4.0528652582070404 2.7575669558374694  5.5459941893806155 4.0438908446262793 2.765238196692362  5.5387510430752069 4.0348381077034272 2.7727338147834257  5.5241076316173281 4.0164649074053251 2.7874715517956608  5.5167065383284797 4.0071425139803649 2.7947093187509648  5.5092736460664256 3.9977432919462097 2.8017731772656869  5.494270352329071 3.9786960137530452 2.8156292385704313  5.4866993267443318 3.9690463910876512 2.8224178698519196  5.4790993740446403 3.9593214465476452 2.829033820938021  5.4637814204120705 3.9396423323353331 2.8419774364100121  5.4560629654038326 3.9296869322779333 2.8483022539949032  5.4483182968410748 3.9196577838950346 2.8544551580826378  5.4327301154840217 3.8993904873908063 2.866457572516008  5.424886289079919 3.8891514189873226 2.8723049125679441  5.4170188362425513 3.8788402892476763 2.8779806755662265  5.4012039430193255 3.8580297785474507 2.8890152154448439  5.3932563035869796 3.8475297621613569 2.894372457337786  5.385287525762612 3.8369595239635732 2.8995580642149257  5.3692884177488134 3.8156519809786706 2.9096001993620364  5.3612579801988431 3.8049143006793149 2.9144557930364998  5.3532088166055063 3.7941084228893804 2.9191393380121649  5.3370668908724763 3.7723511400055769 2.9281667380353307  5.3289740926698554 3.7613995943400624 2.932510229469242  5.3208649250098619 3.750382086436828 2.9366809429904972  5.3046204162515771 3.7282233606627786 2.9446735284488845  5.2964850920451045 3.7170822119370328 2.9484955830581425  5.2883357161629156 3.7058775678625242 2.9521438556910518  5.2720276508255663 3.6833665927396568 2.9590838439217477  5.2638690145539622 3.6720605149422378 2.9623762677337018  5.2556986200203353 3.6606936562643075 2.9654936710701554  5.2393647846983233 3.6378804118063077 2.9713656166189821  5.2312014181012589 3.6264344373140744 2.9741213750860802  5.2230285746113907 3.614930655805213 2.9767006797416107  5.2067054966207502 3.5918657967319469 2.9814915093521663  5.1985553431663423 3.580305261940973 2.9837047436937678  5.1903979927215609 3.5686901616750983 2.9857399344543474  5.1741209309326566 3.5454249042034576 2.9894389765769618  5.1660012942636095 3.5337753942312795 2.9911050175553791  5.1578767481973564 3.5220748332999556 2.9925913057181921  5.1416796923914134 3.4986608407520432 2.9951903145084362  5.1336072384854017 3.486948133359379 2.996305693560986  5.1255321784891592 3.4751881653089032 2.9972395265052003  5.1066954872257293 3.4476542482633437 2.998988213964894  5.0959327599588242 3.4318449635697048 2.9996604263885676  5.085170168832831 3.4159587299546206 3.00000000008469  5.0744108449035616 3.3999999759686483 3 
 0 5 0.018952202238525655 3 0.038504286194645264 3 0.058685723951020258 3 0.079657713810297459 3 0.1015200989110536 3 0.12433529759958657 3 0.14813949904344162 3 0.1729483000144513 3 0.19876014358072081 3 0.22555887912008146 3 0.25331594011731334 3 0.28199231699965971 3 0.31154037988920408 3 0.34190556148661 3 0.37302789655865654 3 0.40484341279905528 3 0.43728537040949511 3 0.47028535141793809 3 0.50377420324398059 3 0.53768284388038368 3 0.57194293817425179 3 0.60648745609451404 3 0.64125112465315603 3 0.67617078541402187 3 0.7111856693818267 3 0.74623760061517097 3 0.7812711392389593 3 0.81623367371846978 3 0.85107547136168082 3 0.88574969508809309 3 0.92021239357891749 3 0.9544224710341852 3 1 5
2 8.0408902300206648 1.4000000000000004 2 1 -3.7470027081099033e-16 0 -3.7470027081099033e-16 -1 0 0 -0 -1 1
1 45 0 0 0 0 1 
1 45 -2.2204460492503131e-16 2 1 0 0 
1 45 0 0 1 0 0 
1 51 0 0 0 0 1 
1 45 0 2 0 1 0 
1 45 0 0 0 1 0 
1 45 2.4000000000000004 0 0 0 1 
8 3.1415926535897931 4.7123889803846897
3 46 0.99999999999999978 2 -0.70710678118654746 0.70710678118654746 -0 0.70710678118654746 0.70710678118654746 0 0 0 -1 1.4142135623730951 1
1 45 0.99999999999999967 3 1 0 0 
8 0 1.5707963267948966
3 50 0.99999999999999978 2 -0.70710678118654746 -0.70710678118654746 -0 0.70710678118654746 -0.70710678118654746 0 -0 0 1 1.4142135623730951 1
1 51 0 0 0 1 0 
1 51 4.4000000000000004 0 -1 0 0 
2 46.959109769979335 4.6000000000000005 0 0 0 1 1 0 -0 -0 1 0 2.2000000000000002
1 45 2.4000000000000004 0 1 0 0 
1 51 0 2 0 1 0 
1 51 4.4000000000000004 0 0 0 1 
1 46 0 3 0 1 0 
8 3.1415926535897931 4.7123889803846897
3 46 1.4000000000000006 2 0.70710678118654746 0.70710678118654746 0 0.70710678118654746 -0.70710678118654746 0 0 0 -1 1.4142135623730951 1
1 45 2.4000000000000004 2 1 0 0 
1 46.959109769979335 2.4000000000000004 0 0 0 1 
1 50 0 3 0 1 0 
1 45 1.4000000000000006 3 1 0 0 
1 51 3.4000000000000004 3 -1 0 0 
2 46.959109769979335 4.6000000000000005 3 -0 -0 1 0 -1 0 1 0 0 3.2000000000000002
8 0 1.5707963267948966
3 50 3.4000000000000004 2 0.70710678118654746 -0.70710678118654746 -0 0.70710678118654746 0.70710678118654746 0 0 -0 1 1.4142135623730951 1
1 51 4.4000000000000004 2 -1 0 0 
1 49.149999999999999 4.4000000000000004 0 0 0 1 
2 46.959109769979335 4.6000000000000005 2 -0 -0 1 0 -1 0 1 0 0 2.2000000000000002
2 46.959109769979335 1.4000000000000006 2 1 0 0 -0 1 0 0 -0 1 1
8 0 1
7 0 0  4 101 34  49.149999999999999 4.4000000000000004 2  49.150000001065962 4.3999999988322989 2.0116770198037184  49.150166011241112 4.3998181445125528 2.0233545872637952  49.150497779574607 4.3994547080754884 2.0349845352945093  49.151494946050988 4.3983618740331405 2.058444786297053  49.152170713520114 4.3976211045922815 2.070270081000376  49.153008539877483 4.3967022918180749 2.0819721133831806  49.155020132405248 4.3944946810293644 2.1054705580635558  49.156203934015387 4.3931948303547266 2.1172574651700486  49.157538998645364 4.3917277759759399 2.1288789843733706  49.160547974618673 4.3884180456090425 2.152230834970164  49.162233139373768 4.3865628782910395 2.16394725393614  49.164058134956321 4.3845516316714592 2.1754745611464332  49.16804950477087 4.3801473495292305 2.1986352535268412  49.170227084683859 4.3777417302440362 2.2102521669139121  49.172533088469649 4.3751907726215675 2.221666369425161  49.177487384067149 4.3697017905238233 2.2445880359019483  49.180146202547313 4.3667517553410597 2.2560777692020326  49.182922397005655 4.3636664296152539 2.2673574703870418  49.188815812979179 4.3571050043047039 2.2899910279189477  49.191942583406956 4.3536177824366149 2.3013268332733317  49.195176262927234 4.3500044354202583 2.3124494996574541  49.20198098663657 4.3423851912361782 2.3347457861820207  49.205560488923943 4.3383691851719961 2.3459017035571939  49.2092371543702 4.3342352344910449 2.3568442887935874  49.21692174061927 4.3255751148277533 2.3787545709792668  49.220937023599845 4.3210398680699909 2.3897053703384445  49.22504051594607 4.3163938419244783 2.4004446422107453  49.233570279664299 4.3067120669759138 2.4219208727599226  49.238002873838816 4.3016682303496774 2.4326420301103968  49.242515532892291 4.2965197899267142 2.4431547798512314  49.251852952426084 4.2858378171715508 2.4641497619861892  49.256683085122361 4.28029711665826 2.4746174536272592  49.26158592569768 4.2746570639451491 2.4848806534833829  49.271691050364062 4.26299854712585 2.5053481708562435  49.276897858306953 4.2569737533592047 2.5155392792355462  49.282170757081389 4.2508540263797681 2.5255302125461832  49.293001611920211 4.2382447704154416 2.5454251455408876  49.298563347481938 4.2317496691419754 2.5553172733118359  49.304185234123125 4.2251633267352622 2.5650136465387203  49.315698214714914 4.2116312373392217 2.5842920822415953  49.321592442850267 4.20468060002489 2.5938635723854944  49.327541489693964 4.1976417982125476 2.6032436133370802  49.339691740543401 4.1832168257788167 2.6218629514449514  49.345895524006025 4.1758263796553274 2.6310929119098239  49.352149329521353 4.1683503413793392 2.6401354565773891  49.364891100578454 4.1530644191254975 2.6580545117287895  49.371381171581945 4.1452508161350989 2.6669228433655237  49.37791693392316 4.137353795808318 2.6756074130948964  49.391203911087352 4.1212407723698483 2.6927865135232985  49.397956828135918 4.11302155662323 2.7012739403187807  49.404751506112596 4.1047208006069704 2.7095808107023496  49.418537112869906 4.087816367370813 2.7259818929565789  49.425529402019414 4.0792099408614284 2.7340699937290234  49.432559861749304 4.070523644707392 2.7419802563684295  49.446797530319856 4.0528652582070368 2.757566955837472  49.454005810619392 4.0438908446262785 2.7652381966923616  49.461248956924791 4.0348381077034228 2.7727338147834306  49.475892368382674 4.0164649074053225 2.7874715517956643  49.483293461671522 4.007142513980364 2.7947093187509622  49.490726353933574 3.9977432919462061 2.80177317726569  49.505729647670933 3.9786960137530412 2.8156292385704349  49.513300673255671 3.9690463910876495 2.82241786985192  49.520900625955363 3.9593214465476421 2.8290338209380232  49.536218579587931 3.9396423323353296 2.8419774364100148  49.543937034596169 3.9296869322779271 2.8483022539949063  49.551681703158927 3.9196577838950311 2.8544551580826401  49.56726988451598 3.8993904873908027 2.8664575725160097  49.575113710920078 3.8891514189873195 2.8723049125679472  49.582981163757452 3.8788402892476723 2.8779806755662283  49.598796056980682 3.8580297785474471 2.8890152154448456  49.606743696413027 3.8475297621613596 2.8943724573377865  49.614712474237386 3.8369595239635665 2.8995580642149283  49.630711582251188 3.8156519809786635 2.9096001993620391  49.638742019801164 3.8049143006793131 2.9144557930365007  49.646791183394498 3.7941084228893773 2.9191393380121666  49.662933109127529 3.7723511400055738 2.9281667380353325  49.671025907330154 3.7613995943400509 2.9325102294692433  49.679135074990143 3.7503820864368245 2.9366809429904994  49.695379583748426 3.7282233606627728 2.9446735284488872  49.703514907954897 3.717082211937023 2.9484955830581434  49.711664283837088 3.7058775678625162 2.9521438556910544  49.727972349174436 3.6833665927396515 2.9590838439217499  49.736130985446046 3.6720605149422267 2.9623762677337035  49.744301379979674 3.6606936562643053 2.9654936710701567  49.760635215301683 3.6378804118063042 2.9713656166189835  49.768798581898743 3.62643443731407 2.9741213750860793  49.776971425388609 3.6149306558052028 2.9767006797416129  49.793294503379251 3.5918657967319358 2.9814915093521686  49.801444656833667 3.5803052619409739 2.9837047436937669  49.80960200727845 3.5686901616750935 2.9857399344543487  49.825879069067348 3.545424904203454 2.9894389765769631  49.833998705736398 3.5337753942312702 2.9911050175553795  49.842123251802647 3.5220748332999499 2.992591305718193  49.858320307608587 3.4986608407520388 2.9951903145084362  49.866392761514604 3.4869481333593679 2.9963056935609877  49.874467821510848 3.475188165308897 2.9972395265052008  49.89330451277425 3.4476542482633796 2.9989882139648913  49.904067240041286 3.4318449635698287 2.9996604263885711  49.91482983116687 3.4159587299545304 3.0000000000846843  49.925589155096525 3.3999999759688722 3 
 0 5 0.01895220223852748 3 0.038504286194650919 3 0.058685723951027162 3 0.079657713810314737 3 0.10152009891108826 3 0.12433529759964093 3 0.14813949904352378 3 0.17294830001455541 3 0.19876014358084751 3 0.22555887912022959 3 0.25331594011747388 3 0.28199231699981819 3 0.31154037988935968 3 0.34190556148676865 3 0.37302789655882634 3 0.40484341279923386 3 0.43728537040968374 3 0.47028535141812494 3 0.50377420324416122 3 0.53768284388056253 3 0.57194293817443276 3 0.60648745609468979 3 0.6412511246533189 3 0.67617078541418718 3 0.71118566938199157 3 0.74623760061533173 3 0.78127113923912261 3 0.81623367371862499 3 0.85107547136181494 3 0.88574969508822798 3 0.92021239357904683 3 0.95442247103431643 3 1 5
Polygon3D 0
PolygonOnTriangulations 0
Surfaces 28
1 4 0 0 0 1 0 1 0 0 0 0 -1 
1 4 0 0 -1 0 0 0 1 0 0 0 -1 
2 4 0.99999999999999978 2 1 0 0 0 -1 -0 -0 -0 1 1
1 4 0 0 0 0 -1 -1 0 -0 0 1 0 
1 10 0 0 -1 0 0 0 1 0 0 0 -1 
2 5 0 2 0 1 0 -1 0 0 0 -0 1 1
1 4 4.4000000000000004 0 0 1 0 1 0 0 0 0 -1 
1 4 0 0 0 0 -1 -1 0 -0 0 1 0 
2 9 0 2 0 1 0 1 0 -0 0 -0 1 1
1 8.0408902300206666 2.4000000000000004 0 0 1 0 1 0 0 0 0 -1 
2 8.0408902300206666 4.6000000000000005 0 -0 -0 -1 1 0 0 0 1 0 2.2000000000000002
2 4 3.4000000000000004 2 1 0 0 -0 1 0 0 -0 1 1
2 8.0408902300206666 1.4000000000000006 2 1 0 0 -0 1 0 0 -0 1 1
5 8.0408902300206666 4.6000000000000005 2 0 0 -1 -0.99585919546393842 -0.090909090909090967 -0 0.090909090909090967 -0.99585919546393842 -0 3.2000000000000002 1
1 45 0 0 0 1 0 1 0 0 0 0 -1 
1 45 0 0 -1 0 0 0 1 0 0 0 -1 
2 45 0.99999999999999978 2 1 0 0 0 -1 -0 -0 -0 1 1
1 45 0 0 0 0 -1 -1 0 -0 0 1 0 
1 51 0 0 -1 0 0 0 1 0 0 0 -1 
2 46 0 2 0 1 0 -1 0 0 0 -0 1 1
1 45 2.4000000000000004 0 0 1 0 1 0 0 0 0 -1 
1 45 0 0 0 0 -1 -1 0 -0 0 1 0 
2 50 0 2 0 1 0 1 0 -0 0 -0 1 1
1 51 4.4000000000000004 0 0 -1 0 -1 0 0 -0 -0 -1 
2 46.959109769979335 4.6000000000000005 0 -0 -0 -1 1 0 0 0 1 0 2.2000000000000002
2 45 1.4000000000000006 2 1 0 0 -0 1 0 0 -0 1 1
2 51 3.4000000000000004 2 -1 0 0 0 1 -0 0 -0 1 1
5 46.959109769979335 4.6000000000000005 2 0 0 -1 0 -1 0 1 0 0 3.2000000000000002 1
Triangulations 0

TShapes 157
Ve
1e-07
4 -2.22044604925031e-16 2
0 0

0101101
*
Ve
1e-07
4 0 0
0 0

0101101
*
Ed
 1e-07 1 1 0
1  1 0 0 2
2  1 1 0 0 2
2  2 2 0 0 2
0

0101000
-157 4 +156 4 *
Ve
1e-07
10 -2.22044604925031e-16 2
0 0

0101101
*
Ed
 1e-07 1 1 0
1  2 0 0 6
2  3 1 2 0 6
2  4 3 0 0 6
4 G1 1 2 3 0
0

0101000
+157 5 -154 5 *
Ve
1e-07
10 0 0
0 0

0101101
*
Ed
 1e-07 1 1 0
1  3 0 0 6
2  5 1 9 0 6
2  6 4 10 0 6
0

0101000
+156 11 -152 11 *
Ed
 1e-07 1 1 0
1  4 0 0 2
2  7 1 0 0 2
2  8 5 0 0 2
0

0101000
-154 4 +152 4 *
Wi

0101100
+155 2 +153 0 -151 8 -150 2 *
Fa
0  1e-07 1 0

0101000
+149 3 *
Ve
1e-07
4 4.4 2
0 0

0101101
*
Ed
 1e-07 1 1 0
1  5 0 0 4.4
2  9 2 2 0 4.4
2  10 6 0 0 4.4
4 G1 2 2 6 0
0

0101000
+157 5 -147 5 *
Ve
1e-07
4 4.4 0
0 0

0101101
*
Ed
 1e-07 1 1 0
1  6 0 0 4.4
2  11 2 9 0 4.4
2  12 4 10 0 4.4
0

0101000
+156 11 -145 11 *
Ed
 1e-07 1 1 0
1  7 0 0 2
2  13 2 0 0 2
2  14 7 0 0 2
0

0101000
-147 4 +145 4 *
Wi

0101100
+155 2 +146 0 -144 8 -143 2 *
Fa
0  1e-07 2 0

0101000
+142 3 *
Ve
0.0373124106090903
5 1 3
0 0

0101101
*
Ed
 1e-07 1 1 0
1  8 0 3.14159265358979 4.71238898038469
2  15 3 0 3.14159265358979 4.71238898038469
2  16 6 0 3.14159265358979 4.71238898038469
0

0101000
+157 5 -140 5 *
Ve
1e-07
9 1 3
0 0

0101101
*
Ed
 1e-07 1 1 0
1  9 0 1 5
2  17 3 0 1 5
2  18 8 13 1 5
4 G1 3 0 8 13
0

0101000
+140 5 -138 5 *
Ed
 1e-07 1 1 0
1  10 0 0 1.5707963267949
2  19 3 0 0 1.5707963267949
2  20 9 0 0 1.5707963267949
0

0101000
+154 5 -138 5 *
Wi

0101100
+139 0 -153 0 +137 0 -136 0 *
Fa
0  1e-07 3 0

0101000
+135 0 *
Ve
1e-07
10 2.4 0
0 0

0101101
*
Ed
 1e-07 1 1 0
1  11 0 0 2.4
2  21 4 10 0 2.4
2  22 5 9 0 2.4
0

0101000
+152 11 -133 11 *
Ve
1e-07
8.04089023002067 2.4 0
0 0

0101101
*
Ed
 1e-07 1 1 0
1  12 0 0 1.95910976997933
2  23 4 10 0 1.95910976997933
2  24 10 9 0 1.95910976997933
0

0101000
+131 11 -133 11 *
Ve
1e-07
5.85 4.4 0
0 0

0101101
*
Ed
 1e-07 1 1 0
1  13 0 3.23262743162721 4.71238898038469
2  25 4 10 3.23262743162721 4.71238898038469
2  26 11 9 3.23262743162721 4.71238898038469
0

0101000
+129 11 -131 11 *
Ed
 1e-07 1 1 0
1  14 0 0 1.85
2  27 4 10 0 1.85
2  28 7 9 0 1.85
0

0101000
+145 11 -129 11 *
Wi

0101100
+151 0 +132 0 -130 0 -128 0 -127 0 -144 0 *
Fa
0  1e-07 4 0

0101000
-126 6 *
Ve
1e-07
10 2.4 2
0 0

0101101
*
Ed
 1e-07 1 1 0
1  15 0 0 2.4
2  29 5 2 0 2.4
2  30 9 0 0 2.4
4 G1 5 2 9 0
0

0101000
+154 5 -124 5 *
Ed
 1e-07 1 1 0
1  16 0 0 2
2  31 5 0 0 2
2  32 10 0 0 2
0

0101000
-124 4 +133 4 *
Wi

0101100
+150 2 +123 0 -132 8 -122 2 *
Fa
0  1e-07 5 0

0101000
+121 3 *
Ve
0.0373124106090901
5 3.4 3
0 0

0101101
*
Ed
 1e-07 1 1 0
1  17 0 1 3.4
2  33 6 0 1 3.4
2  34 8 13 1 3.4
4 G1 6 0 8 13
0

0101000
+140 5 -119 5 *
Ed
 1e-07 1 1 0
1  18 0 3.14159265358979 4.71238898038469
2  35 6 0 3.14159265358979 4.71238898038469
2  36 12 0 3.14159265358979 4.71238898038469
0

0101000
+147 5 -119 5 *
Wi

0101100
+139 0 -146 0 +118 0 -117 0 *
Fa
0  1e-07 6 0

0101000
+116 0 *
Ve
1e-07
5.85 4.4 2
0 0

0101101
*
Ed
 1e-07 1 1 0
1  19 0 0 1.85
2  37 7 2 0 1.85
2  38 12 0 0 1.85
4 G1 7 2 12 0
0

0101000
+147 5 -114 5 *
Ed
 1e-07 1 1 0
1  20 0 0 2
2  39 7 0 0 2
2  40 11 0 0 2
0

0101000
-114 4 +129 4 *
Wi

0101100
+143 2 +113 0 -127 8 -112 2 *
Fa
0  1e-07 7 0

0101000
+111 3 *
Ve
1e-07
9 1.4 3
0 0

0101101
*
Ed
 1e-07 1 1 0
1  21 0 1 1.4
2  41 8 13 1 1.4
2  42 9 0 1 1.4
4 G1 8 13 9 0
0

0101000
+138 5 -109 5 *
Ve
1e-07
5.0744108351824 3.4 3
0 0

0101101
*
Ed
 1e-07 1 1 0
1  22 0 1 1.0744108351824
2  43 8 13 1 1.0744108351824
2  44 12 0 1 1.0744108351824
4 G1 8 13 12 0
0

0101000
+119 5 -107 5 *
Ve
1e-07
8.04089023002066 1.4 3
0 0

0101101
*
Ed
 1e-07 1 1 0
1  23 0 0 0.959109769979333
2  45 8 13 0 0.959109769979333
2  46 13 0 0 0.959109769979333
4 G1 8 13 13 0
0

0101000
+105 5 -109 5 *
Ed
 1e-07 1 1 0
1  24 0 0.293361996458224 1.47976154875748
2  47 8 13 0.293361996458224 1.47976154875748
2  48 14 0 0.293361996458224 1.47976154875748
4 G1 8 13 14 0
0

0101000
+107 5 -105 5 *
Wi

0101100
-137 0 +118 0 -108 0 +106 0 +104 0 +103 0 *
Fa
0  1e-07 8 0

0101000
+102 15 *
Ed
 1e-07 1 1 0
1  25 0 0 1.5707963267949
2  49 9 0 0 1.5707963267949
2  50 13 0 0 1.5707963267949
0

0101000
+124 5 -109 5 *
Wi

0101100
+136 0 -123 0 +108 0 -100 0 *
Fa
0  1e-07 9 0

0101000
+99 0 *
Ve
1e-07
8.04089023002067 2.4 2
0 0

0101101
*
Ed
 1e-07 1 1 0
1  26 0 0 2
2  51 10 0 0 2
2  52 11 0 0 2
4 G1 10 0 11 0
0

0101000
-97 4 +131 4 *
Ed
 1e-07 1 1 0
1  27 0 0 1.95910976997933
2  53 10 2 0 1.95910976997933
2  54 13 0 0 1.95910976997933
4 G1 10 2 13 0
0

0101000
+97 5 -124 5 *
Wi

0101100
+96 2 +95 0 -130 8 -122 2 *
Fa
0  1e-07 10 0

0101000
+94 3 *
Ed
 1e-07 1 1 0
1  28 0 0 1.47976154875748
2  55 11 2 0 1.47976154875748
2  56 14 0 0 1.47976154875748
4 G1 11 2 14 0
0

0101000
+114 5 -97 5 *
Wi

0101100
+112 2 +92 0 -128 8 -96 2 *
Fa
0  1e-07 11 0

0101000
+91 3 *
Ed
 1e-07 1 1 0
1  29 0 0 1
2  57 12 0 0 1
2  58 14 0 0 1
0

0101000
+114 5 -107 5 *
Wi

0101100
+117 0 -113 0 +106 0 -89 0 *
Fa
0  1e-07 12 0

0101000
+88 0 *
Ed
 1e-07 1 1 0
1  30 0 3.14159265358979 4.71238898038469
2  59 13 0 3.14159265358979 4.71238898038469
2  60 14 0 3.14159265358979 4.71238898038469
4 G1 13 0 14 0
0

0101000
+97 5 -105 5 *
Wi

0101100
+86 0 -95 0 +104 0 -100 0 *
Fa
0  1e-07 13 0

0101000
+85 0 *
Wi

0101100
-89 0 +92 0 -103 0 +86 0 *
Fa
0  1e-07 14 0

0101000
+83 0 *
Sh

0101100
-148 2 +141 2 -134 0 +125 14 -120 2 +115 0 +110 2 -101 13 -98 0 +93 2 
+90 2 +87 0 +84 0 -82 0 *
So

0100000
+81 0 *
Ve
1e-07
45 -2.22044604925031e-16 2
0 0

0101101
*
Ve
1e-07
45 0 0
0 0

0101101
*
Ed
 1e-07 1 1 0
1  31 0 0 2
2  61 15 0 0 2
2  62 16 0 0 2
0

0101000
-79 4 +78 4 *
Ve
1e-07
51 -2.22044604925031e-16 2
0 0

0101101
*
Ed
 1e-07 1 1 0
1  32 0 0 6
2  63 15 2 0 6
2  64 17 0 0 6
4 G1 15 2 17 0
0

0101000
+79 5 -76 5 *
Ve
1e-07
51 0 0
0 0

0101101
*
Ed
 1e-07 1 1 0
1  33 0 0 6
2  65 15 9 0 6
2  66 18 10 0 6
0

0101000
+78 11 -74 11 *
Ed
 1e-07 1 1 0
1  34 0 0 2
2  67 15 0 0 2
2  68 19 0 0 2
0

0101000
-76 4 +74 4 *
Wi

0101100
+77 2 +75 0 -73 8 -72 2 *
Fa
0  1e-07 15 0

0101000
+71 3 *
Ve
1e-07
45 2.4 2
0 0

0101101
*
Ed
 1e-07 1 1 0
1  35 0 0 2.4
2  69 16 2 0 2.4
2  70 20 0 0 2.4
4 G1 16 2 20 0
0

0101000
+79 5 -69 5 *
Ve
1e-07
45 2.4 0
0 0

0101101
*
Ed
 1e-07 1 1 0
1  36 0 0 2.4
2  71 16 9 0 2.4
2  72 18 10 0 2.4
0

0101000
+78 11 -67 11 *
Ed
 1e-07 1 1 0
1  37 0 0 2
2  73 16 0 0 2
2  74 21 0 0 2
0

0101000
-69 4 +67 4 *
Wi

0101100
+77 2 +68 0 -66 8 -65 2 *
Fa
0  1e-07 16 0

0101000
+64 3 *
Ve
1e-07
46 1 3
0 0

0101101
*
Ed
 1e-07 1 1 0
1  38 0 3.14159265358979 4.71238898038469
2  75 17 0 3.14159265358979 4.71238898038469
2  76 20 0 3.14159265358979 4.71238898038469
0

0101000
+79 5 -62 5 *
Ve
0.00259241060924438
50 1 3
0 0

0101101
*
Ed
 1e-07 1 1 0
1  39 0 1 5
2  77 17 0 1 5
2  78 22 13 1 5
4 G1 17 0 22 13
0

0101000
+62 5 -60 5 *
Ed
 1e-07 1 1 0
1  40 0 0 1.5707963267949
2  79 17 0 0 1.5707963267949
2  80 23 0 0 1.5707963267949
0

0101000
+76 5 -60 5 *
Wi

0101100
+61 0 -75 0 +59 0 -58 0 *
Fa
0  1e-07 17 0

0101000
+57 0 *
Ve
1e-07
51 4.4 0
0 0

0101101
*
Ed
 1e-07 1 1 0
1  41 0 0 4.4
2  81 18 10 0 4.4
2  82 19 9 0 4.4
0

0101000
+74 11 -55 11 *
Ve
1.00000000444089e-07
49.15 4.4 0
0 0

0101101
*
Ed
 1e-07 1 1 0
1  42 0 0 1.85
2  83 18 10 0 1.85
2  84 24 9 0 1.85
0

0101000
+55 11 -53 11 *
Ve
1e-07
46.9591097699793 2.4 0
0 0

0101101
*
Ed
 1e-07 1 1 0
1  43 0 4.71238898038469 6.19215052914217
2  85 18 10 4.71238898038469 6.19215052914217
2  86 25 9 4.71238898038469 6.19215052914217
0

0101000
+51 11 -53 11 *
Ed
 1e-07 1 1 0
1  44 0 0 1.95910976997934
2  87 18 10 0 1.95910976997934
2  88 21 9 0 1.95910976997934
0

0101000
+67 11 -51 11 *
Wi

0101100
+73 0 +54 0 +52 0 -50 0 -49 0 -66 0 *
Fa
0  1e-07 18 0

0101000
-48 6 *
Ve
1e-07
51 4.4 2
0 0

0101101
*
Ed
 1e-07 1 1 0
1  45 0 0 4.4
2  89 19 2 0 4.4
2  90 23 0 0 4.4
4 G1 19 2 23 0
0

0101000
+76 5 -46 5 *
Ed
 1e-07 1 1 0
1  46 0 0 2
2  91 19 0 0 2
2  92 24 0 0 2
0

0101000
-46 4 +55 4 *
Wi

0101100
+72 2 +45 0 -54 8 -44 2 *
Fa
0  1e-07 19 0

0101000
+43 3 *
Ve
1e-07
46 1.4 3
0 0

0101101
*
Ed
 1e-07 1 1 0
1  47 0 1 1.4
2  93 20 0 1 1.4
2  94 22 13 1 1.4
4 G1 20 0 22 13
0

0101000
+62 5 -41 5 *
Ed
 1e-07 1 1 0
1  48 0 3.14159265358979 4.71238898038469
2  95 20 0 3.14159265358979 4.71238898038469
2  96 26 0 3.14159265358979 4.71238898038469
0

0101000
+69 5 -41 5 *
Wi

0101100
+61 0 -68 0 +40 0 -39 0 *
Fa
0  1e-07 20 0

0101000
+38 0 *
Ve
1e-07
46.9591097699793 2.4 2
0 0

0101101
*
Ed
 1e-07 1 1 0
1  49 0 0 1.95910976997934
2  97 21 2 0 1.95910976997934
2  98 26 0 0 1.95910976997934
4 G1 21 2 26 0
0

0101000
+69 5 -36 5 *
Ed
 1e-07 1 1 0
1  50 0 0 2
2  99 21 0 0 2
2  100 25 0 0 2
4 G1 21 0 25 0
0

0101000
-36 4 +51 4 *
Wi

0101100
+65 2 +35 0 -49 8 -34 2 *
Fa
0  1e-07 21 0

0101000
+33 3 *
Ve
0.00259241060895129
50 3.4 3
0 0

0101101
*
Ed
 1e-07 1 1 0
1  51 0 1 3.4
2  101 22 13 1 3.4
2  102 23 0 1 3.4
4 G1 22 13 23 0
0

0101000
+60 5 -31 5 *
Ve
1e-07
46.9591097699793 1.4 3
0 0

0101101
*
Ed
 1e-07 1 1 0
1  52 0 1 1.95910976997934
2  103 22 13 1 1.95910976997934
2  104 26 0 1 1.95910976997934
4 G1 22 13 26 0
0

0101000
+41 5 -29 5 *
Ve
1e-07
49.9255891648176 3.4 3
0 0

0101101
*
Ed
 1e-07 1 1 0
1  53 0 1 1.0744108351824
2  105 22 13 1 1.0744108351824
2  106 27 0 1 1.0744108351824
4 G1 22 13 27 0
0

0101000
+31 5 -27 5 *
Ed
 1e-07 1 1 0
1  54 0 0 1.18639955229926
2  107 22 13 0 1.18639955229926
2  108 28 0 0 1.18639955229926
4 G1 22 13 28 0
0

0101000
+29 5 -27 5 *
Wi

0101100
-59 0 +40 0 -30 0 +28 0 -26 0 +25 0 *
Fa
0  1e-07 22 0

0101000
+24 15 *
Ed
 1e-07 1 1 0
1  55 0 0 1.5707963267949
2  109 23 0 0 1.5707963267949
2  110 27 0 0 1.5707963267949
0

0101000
+46 5 -31 5 *
Wi

0101100
+58 0 -45 0 +30 0 -22 0 *
Fa
0  1e-07 23 0

0101000
+21 0 *
Ve
1.00000000444089e-07
49.15 4.4 2
0 0

0101101
*
Ed
 1e-07 1 1 0
1  56 0 0 1.85
2  111 24 2 0 1.85
2  112 27 0 0 1.85
4 G1 24 2 27 0
0

0101000
+46 5 -19 5 *
Ed
 1.00000000444089e-07 1 1 0
1  57 0 0 2
2  113 24 0 0 2
2  114 25 0 0 2
0

0101000
-19 4 +53 4 *
Wi

0101100
+44 2 +18 0 -52 8 -17 2 *
Fa
0  1e-07 24 0

0101000
+16 3 *
Ed
 1e-07 1 1 0
1  58 0 0 1.47976154875748
2  115 25 2 0 1.47976154875748
2  116 28 0 0 1.47976154875748
4 G1 25 2 28 0
0

0101000
+36 5 -19 5 *
Wi

0101100
+34 2 +14 0 -50 8 -17 2 *
Fa
0  1e-07 25 0

0101000
+13 3 *
Ed
 1e-07 1 1 0
1  59 0 0 1.5707963267949
2  117 26 0 0 1.5707963267949
2  118 28 0 0 1.5707963267949
4 G1 26 0 28 0
0

0101000
+36 5 -29 5 *
Wi

0101100
+39 0 -35 0 +28 0 -11 0 *
Fa
0  1e-07 26 0

0101000
+10 0 *
Ed
 1e-07 1 1 0
1  60 0 0 1
2  119 27 0 0 1
2  120 28 0 0 1
0

0101000
+19 5 -27 5 *
Wi

0101100
+22 0 -18 0 +26 0 -8 0 *
Fa
0  1e-07 27 0

0101000
+7 0 *
Wi

0101100
-11 0 +14 0 -25 0 +8 0 *
Fa
0  1e-07 28 0

0101000
+5 0 *
Sh

0101100
-70 2 +63 2 -56 0 +47 14 -42 2 +37 0 +32 2 -23 13 -20 0 -15 2 
+12 2 +9 0 -6 0 -4 0 *
So

0100000
+3 0 *
Co

1100000
+80 0 +2 0 *

+1 1 