DBRep_DrawableShape

CASCADE Topology V1, (c) Matra-Datavision
Locations 41
1
              1               0               0               0 
              0               1               0               0 
              0               0               1               0 
1
              1               0               0               0 
              0               1               0               0 
              0               0               1               0 
1
              1               0               0               0 
              0               1               0               0 
              0               0               1               0 
1
              1               0               0               0 
              0               1               0               0 
              0               0               1               0 
1
              1               0               0               0 
              0               1               0               0 
              0               0               1               0 
2  2 1 3 -1 4 1 5 -1 0
2  1 -1 5 1 4 -1 3 1 2 -1 0
1
              1               0               0               0 
              0               1               0               0 
              0               0               1               0 
1
              1               0               0               0 
              0               1               0               0 
              0               0               1               0 
2  8 1 9 -1 0
2  9 1 8 -1 0
2  8 -1 0
2  1 -1 5 1 4 -1 3 1 2 -1 9 1 8 -1 0
1
              1               0               0              -0 
              0               1               0              -0 
              0               0               1              -4 
2  8 1 9 -1 14 1 0
2  14 -1 9 1 8 -1 0
2  1 -1 5 1 4 -1 3 1 2 -1 14 -1 9 1 8 -1 0
2  9 -1 2 1 3 -1 4 1 5 -1 0
2  8 1 9 -1 2 1 3 -1 4 1 5 -1 0
2  4 1 5 -1 0
2  9 -1 2 1 3 -1 0
2  1 -1 5 1 4 -1 0
1
              1               0               0              -0 
              0               1               0               0 
              0               0               1              -0 
2  23 1 5 -1 0
2  9 -1 2 1 3 -1 4 1 23 -1 0
2  5 1 23 -1 0
2  1 -1 5 1 23 -1 0
2  9 -1 14 1 2 1 3 -1 0
2  8 1 9 -1 14 1 2 1 3 -1 0
1
              1               0               0              -0 
              0              -1               0              -0 
              0               0              -1              -4 
2  30 1 3 -1 0
2  9 -1 14 1 2 1 30 -1 0
2  3 1 30 -1 0
2  1 -1 5 1 4 -1 3 1 30 -1 0
2  1 -1 0
1
              1               0               0              -0 
              0               1               0              -0 
              0               0               1              -3 
2  23 1 5 -1 36 1 0
2  36 -1 5 1 23 -1 0
2  23 -1 0
2  1 -1 36 -1 5 1 23 -1 0
2  5 -1 36 1 0
Curve2ds 132
1 0 0 0 -1 
1 0 0 0 -1 
1 4.4000000000000004 0 0 -1 
1 0 0 0 -1 
1 0 0 1 0 
1 0 0 0 1 
1 0 -4 1 0 
1 0 0 0 1 
1 47 0 0 -1 
1 0 0 0 -1 
1 0 0 1 0 
1 0 0 1 0 
1 0 -4 1 0 
1 0 0 1 0 
1 2 0 0 -1 
1 0 0 0 -1 
1 0 0 1 0 
1 0 4.4000000000000004 1 0 
1 0 -4 1 0 
1 0 4.4000000000000004 1 0 
1 47 0 0 1 
1 0 0 1 0 
1 2 4.4000000000000004 0 1 
1 0 0 1 0 
1 47 4.4000000000000004 -1 0 
1 0 0 1 0 
1 2 34.200000000000003 -1 0 
1 0 0 1 0 
1 45 4.4000000000000004 0 1 
1 0 0 1 0 
1 -4 34.200000000000003 0 1 
1 0 0 1 0 
1 45 34.200000000000003 1 0 
1 0 0 1 0 
1 51 50.299999999999997 -1 0 
1 0 0 1 0 
1 51 34.200000000000003 0 1 
1 0 0 1 0 
2 1 45.299999999999997 1 0 0 -1 1.6000000000000001
1 0 -4 1 0 
2 46 45.299999999999997 1 0 0 -1 1.6000000000000001
1 0 -4 1 0 
1 21.800000000000001 34.299999999999997 1 0 
1 0 0 1 0 
1 33.299999999999997 41.100000000000001 0 -1 
1 0 0 1 0 
1 4.8000000000000007 41.100000000000001 1 0 
1 0 0 1 0 
1 4.8000000000000007 34.299999999999997 0 1 
1 0 0 1 0 
1 4.8000000000000007 34.299999999999997 1 0 
1 0 0 1 0 
1 9.8000000000000007 34.299999999999997 0 -1 
1 0 0 1 0 
1 9.8000000000000007 30.300000000000001 1 0 
1 0 0 1 0 
1 21.800000000000001 30.300000000000001 0 1 
1 0 0 1 0 
1 47 0 0 1 
1 0 -4 1 0 
1 2 4.4000000000000004 0 1 
1 0 -4 1 0 
1 47 4.4000000000000004 -1 0 
1 0 -4 1 0 
1 2 34.200000000000003 -1 0 
1 0 -4 1 0 
1 45 4.4000000000000004 0 1 
1 0 -4 1 0 
1 -4 34.200000000000003 0 1 
1 0 -4 1 0 
1 45 34.200000000000003 1 0 
1 0 -4 1 0 
1 51 50.299999999999997 -1 0 
1 0 -4 1 0 
1 51 34.200000000000003 0 1 
1 0 -4 1 0 
2 46 45.299999999999997 1 0 0 -1 1.6000000000000014
1 0 0 1 0 
2 1 45.299999999999997 1 0 0 -1 1.5999999999999996
1 0 0 1 0 
1 4.4000000000000004 0 0 -1 
1 0 0 0 -1 
1 29.800000000000004 0 0 -1 
1 0 0 0 -1 
1 2 0 0 -1 
1 0 0 0 -1 
1 6 0 0 -1 
1 0 0 0 -1 
1 29.800000000000004 0 0 -1 
1 0 0 0 -1 
1 16.099999999999994 0 0 -1 
1 55 0 0 -1 
1 6 0 0 -1 
1 0 0 0 -1 
1 0 0 0 -1 
1 16.099999999999994 0 0 -1 
1 0 0 0 -1 
1 6.2831853071795862 0 0 -1 
1 0 0 0 -1 
1 6.2831853071795862 0 0 -1 
1 0 0 0 -1 
1 3.9999999999999964 0 0 -1 
1 0 -3 1 0 
1 17 -6.8000000000000043 1 0 
1 11.499999999999996 0 0 -1 
1 6.8000000000000043 0 0 -1 
1 0 0 0 -1 
1 28.499999999999996 0 0 -1 
1 0 -3 1 0 
1 28.499999999999996 0 0 -1 
1 0 0 0 -1 
1 6.8000000000000043 0 0 -1 
1 0 -3 1 0 
1 0 0 1 0 
1 0 0 0 -1 
1 0 0 0 -1 
1 0 -3 1 0 
1 0 -6.8000000000000043 0 1 
1 0 -3 1 0 
1 0 -6.8000000000000043 1 0 
1 5 0 0 -1 
1 0 0 0 -1 
1 0 -3 1 0 
1 5 -6.8000000000000043 0 -1 
1 3.9999999999999964 0 0 -1 
1 0 0 0 -1 
1 0 -3 1 0 
1 5 -10.800000000000001 1 0 
1 12 0 0 -1 
1 0 0 0 -1 
1 0 -3 1 0 
1 17 -10.800000000000001 0 1 
Curves 66
1 4 0 0 -0 -0 -1 
1 4 4.4000000000000004 0 -0 -0 -1 
1 4 0 0 0 1 0 
1 4 0 0 0 1 0 
1 51 0 0 -0 -0 -1 
1 4 0 0 1 0 0 
1 4 0 0 1 0 0 
1 6 4.4000000000000004 0 -0 -0 -1 
1 4 4.4000000000000004 0 1 0 0 
1 4 4.4000000000000004 0 1 0 0 
1 51 0 0 0 1 0 
1 6 4.4000000000000004 0 0 1 0 
1 51 4.4000000000000004 0 -1 0 0 
1 6 34.200000000000003 0 -1 0 0 
1 49 4.4000000000000004 0 0 1 0 
1 0 34.200000000000003 0 0 1 0 
1 49 34.200000000000003 0 1 0 0 
1 55 50.299999999999997 0 -1 0 0 
1 55 34.200000000000003 0 0 1 0 
2 5 45.299999999999997 0 0 0 -1 1 0 0 0 -1 0 1.6000000000000001
2 50 45.299999999999997 0 0 0 -1 1 0 0 0 -1 0 1.6000000000000001
1 25.800000000000001 34.299999999999997 0 1 0 0 
1 37.299999999999997 41.100000000000001 0 0 -1 0 
1 8.8000000000000007 41.100000000000001 0 1 0 0 
1 8.8000000000000007 34.299999999999997 0 0 1 0 
1 8.8000000000000007 34.299999999999997 0 1 0 0 
1 13.800000000000001 34.299999999999997 0 0 -1 0 
1 13.800000000000001 30.300000000000001 0 1 0 0 
1 25.800000000000001 30.300000000000001 0 0 1 0 
1 51 0 0 0 1 0 
1 6 4.4000000000000004 0 0 1 0 
1 51 4.4000000000000004 0 -1 0 0 
1 6 34.200000000000003 0 -1 0 0 
1 49 4.4000000000000004 0 0 1 0 
1 0 34.200000000000003 0 0 1 0 
1 49 34.200000000000003 0 1 0 0 
1 55 50.299999999999997 0 -1 0 0 
1 55 34.200000000000003 0 0 1 0 
2 50 -45.299999999999997 0 0 0 1 1 0 -0 -0 1 0 1.6000000000000001
2 5 -45.299999999999997 0 0 0 1 1 0 -0 -0 1 0 1.6000000000000001
1 51 4.4000000000000004 0 -0 -0 -1 
1 6 34.200000000000003 0 -0 -0 -1 
1 49 4.4000000000000004 0 -0 -0 -1 
1 0 34.200000000000003 0 -0 -0 -1 
1 49 34.200000000000003 0 -0 -0 -1 
1 0 50.299999999999997 0 -0 -0 -1 
1 55 34.200000000000003 0 -0 -0 -1 
1 55 50.299999999999997 0 -0 -0 -1 
1 6.5999999999999996 45.299999999999997 -4 0 0 1 
1 51.600000000000001 45.299999999999997 -4 0 0 1 
1 25.800000000000001 34.299999999999997 0 -0 -0 -1 
1 25.800000000000001 34.299999999999997 0 1 0 0 
1 37.299999999999997 34.299999999999997 0 -0 -0 -1 
1 37.299999999999997 41.100000000000001 0 -0 -0 -1 
1 37.299999999999997 41.100000000000001 0 0 -1 0 
1 8.8000000000000007 41.100000000000001 0 -0 -0 -1 
1 8.8000000000000007 41.100000000000001 0 1 0 0 
1 8.8000000000000007 34.299999999999997 0 -0 -0 -1 
1 8.8000000000000007 34.299999999999997 0 0 1 0 
1 8.8000000000000007 34.299999999999997 0 1 0 0 
1 13.800000000000001 34.299999999999997 0 -0 -0 -1 
1 13.800000000000001 34.299999999999997 0 0 -1 0 
1 13.800000000000001 30.300000000000001 0 -0 -0 -1 
1 13.800000000000001 30.300000000000001 0 1 0 0 
1 25.800000000000001 30.300000000000001 0 -0 -0 -1 
1 25.800000000000001 30.300000000000001 0 0 1 0 
Polygon3D 0
PolygonOnTriangulations 0
Surfaces 25
1 4 0 0 1 0 0 -0 1 0 0 -0 1 
1 4 0 0 0 -1 0 1 0 0 -0 0 1 
1 4 4.4000000000000004 0 0 -1 0 1 0 0 -0 0 1 
1 4 0 0 0 0 1 1 0 -0 -0 1 0 
1 4 0 0 0 0 1 1 0 -0 -0 1 0 
1 51 0 0 1 0 0 -0 1 0 0 -0 1 
1 6 4.4000000000000004 0 1 0 0 -0 1 0 0 -0 1 
1 51 4.4000000000000004 0 0 1 -0 -1 0 0 0 0 1 
1 6 34.200000000000003 0 0 1 -0 -1 0 0 0 0 1 
1 49 4.4000000000000004 0 1 0 0 -0 1 0 0 -0 1 
1 0 34.200000000000003 0 1 0 0 -0 1 0 0 -0 1 
1 49 34.200000000000003 0 0 -1 0 1 0 0 -0 0 1 
1 55 50.299999999999997 0 0 1 -0 -1 0 0 0 0 1 
1 55 34.200000000000003 0 1 0 0 -0 1 0 0 -0 1 
2 5 45.299999999999997 -4 0 0 -1 1 0 0 0 -1 0 1.6000000000000001
2 50 45.299999999999997 -4 0 0 -1 1 0 0 0 -1 0 1.6000000000000001
1 25.800000000000001 34.299999999999997 0 0 -1 0 1 0 0 -0 0 1 
1 37.299999999999997 41.100000000000001 0 -1 0 0 0 -1 0 0 0 1 
1 8.8000000000000007 41.100000000000001 0 0 -1 0 1 0 0 -0 0 1 
1 8.8000000000000007 34.299999999999997 0 1 0 0 -0 1 0 0 -0 1 
1 8.8000000000000007 34.299999999999997 0 0 -1 0 1 0 0 -0 0 1 
1 13.800000000000001 34.299999999999997 0 -1 0 0 0 -1 0 0 0 1 
1 13.800000000000001 30.300000000000001 0 0 -1 0 1 0 0 -0 0 1 
1 25.800000000000001 30.300000000000001 0 1 0 0 -0 1 0 0 -0 1 
1 8.8000000000000007 41.100000000000001 0 -0 0 1 1 0 0 0 1 -0 
Triangulations 0

TShapes 167
Ve
1e-07
4 0 0
0 0

0101101
*
Ve
1e-07
4 0 -4
0 0

0101101
*
Ed
 1e-07 1 1 0
1  1 0 0 4
2  1 1 0 0 4
2  2 2 0 0 4
0

0101000
+167 7 -166 7 *
Ve
1e-07
4 4.4 0
0 0

0101101
*
Ve
1e-07
4 4.4 -4
0 0

0101101
*
Ed
 1e-07 1 1 0
1  2 0 0 4
2  3 1 0 0 4
2  4 3 0 0 4
0

0101000
+164 7 -163 7 *
Ed
 1e-07 1 1 0
1  3 0 0 4.4
2  5 1 11 0 4.4
2  6 4 12 0 4.4
0

0101000
+167 13 -164 13 *
Ed
 1e-07 1 1 0
1  4 0 0 4.4
2  7 1 16 0 4.4
2  8 5 12 0 4.4
0

0101000
+166 17 -163 17 *
Wi

0101000
+165 0 -162 0 -161 10 +160 15 *
Fa
0  1e-07 1 0

0101000
+159 0 *
Ve
1e-07
51 0 0
0 0

0101101
*
Ve
1e-07
51 0 -4
0 0

0101101
*
Ed
 1e-07 1 1 0
1  5 0 0 4
2  9 2 0 0 4
2  10 6 0 0 4
0

0101000
+157 7 -156 7 *
Ed
 1e-07 1 1 0
1  6 0 0 47
2  11 2 11 0 47
2  12 4 12 0 47
0

0101000
+167 13 -157 13 *
Ed
 1e-07 1 1 0
1  7 0 0 47
2  13 2 16 0 47
2  14 5 12 0 47
0

0101000
+166 17 -156 17 *
Wi

0101000
+165 0 -155 0 -154 10 +153 15 *
Fa
0  1e-07 2 0

0101000
+152 0 *
Ve
1e-07
6 4.4 0
0 0

0101101
*
Ve
1e-07
6 4.4 -4
0 0

0101101
*
Ed
 1e-07 1 1 0
1  8 0 0 4
2  15 3 0 0 4
2  16 7 0 0 4
0

0101000
+150 7 -149 7 *
Ed
 1e-07 1 1 0
1  9 0 0 2
2  17 3 11 0 2
2  18 4 12 0 2
0

0101000
+164 13 -150 13 *
Ed
 1e-07 1 1 0
1  10 0 0 2
2  19 3 16 0 2
2  20 5 12 0 2
0

0101000
+163 17 -149 17 *
Wi

0101000
+162 0 -148 0 -147 10 +146 15 *
Fa
0  1e-07 3 0

0101000
+145 0 *
Ve
1e-07
51 4.4 0
0 0

0101101
*
Ed
 1e-07 1 1 0
1  11 0 0 4.4
2  21 4 12 0 4.4
2  22 6 11 0 4.4
0

0101000
+157 13 -143 13 *
Ve
1e-07
6 34.2 0
0 0

0101101
*
Ed
 1e-07 1 1 0
1  12 0 0 29.8
2  23 4 12 0 29.8
2  24 7 11 0 29.8
0

0101000
+150 13 -141 13 *
Ve
1e-07
49 4.4 0
0 0

0101101
*
Ed
 1e-07 1 1 0
1  13 0 0 2
2  25 4 12 0 2
2  26 8 11 0 2
0

0101000
+143 13 -139 13 *
Ve
1e-07
0 34.2 0
0 0

0101101
*
Ed
 1e-07 1 1 0
1  14 0 0 6
2  27 4 12 0 6
2  28 9 11 0 6
0

0101000
+141 13 -137 13 *
Ve
1e-07
49 34.2 0
0 0

0101101
*
Ed
 1e-07 1 1 0
1  15 0 0 29.8
2  29 4 12 0 29.8
2  30 10 11 0 29.8
0

0101000
+139 13 -135 13 *
Ve
1e-07
0 50.3 0
0 0

0101101
*
Ed
 1e-07 1 1 0
1  16 0 0 16.1
2  31 4 12 0 16.1
2  32 11 11 0 16.1
0

0101000
+137 13 -133 13 *
Ve
1e-07
55 34.2 0
0 0

0101101
*
Ed
 1e-07 1 1 0
1  17 0 0 6
2  33 4 12 0 6
2  34 12 11 0 6
0

0101000
+135 13 -131 13 *
Ve
1e-07
55 50.3 0
0 0

0101101
*
Ed
 1e-07 1 1 0
1  18 0 0 55
2  35 4 12 0 55
2  36 13 11 0 55
0

0101000
+129 13 -133 13 *
Ed
 1e-07 1 1 0
1  19 0 0 16.1
2  37 4 12 0 16.1
2  38 14 11 0 16.1
0

0101000
+131 13 -129 13 *
Wi

0101000
-161 19 +154 19 -147 19 +142 19 -140 19 +138 19 -136 19 +134 19 -132 19 +130 19 
+128 19 +127 19 *
Ve
2.00001e-07
6.6 45.3 0
0 0

0101101
*
Ed
 1e-07 1 1 0
1  20 0 0 6.28318530717959
2  39 4 21 0 6.28318530717959
2  40 15 0 0 6.28318530717959
0

0101100
+125 22 -125 22 *
Wi

0101000
+124 20 *
Ve
2.00001e-07
51.6 45.3 0
0 0

0101101
*
Ed
 1e-07 1 1 0
1  21 0 0 6.28318530717959
2  41 4 21 0 6.28318530717959
2  42 16 0 0 6.28318530717959
0

0101100
+122 22 -122 22 *
Wi

0101000
+121 20 *
Ve
1e-07
25.8 34.3 0
0 0

0101101
*
Ve
1e-07
37.3 34.3 0
0 0

0101101
*
Ed
 1e-07 1 1 0
1  22 0 0 11.5
2  43 4 25 0 11.5
2  44 17 26 0 11.5
0

0101000
+119 27 -118 27 *
Ve
1e-07
37.3 41.1 0
0 0

0101101
*
Ed
 1e-07 1 1 0
1  23 0 0 6.8
2  45 4 25 0 6.8
2  46 18 26 0 6.8
0

0101000
+116 27 -118 27 *
Ve
1e-07
8.8 41.1 0
0 0

0101101
*
Ed
 1e-07 1 1 0
1  24 0 0 28.5
2  47 4 25 0 28.5
2  48 19 26 0 28.5
0

0101000
+114 27 -116 27 *
Ve
1e-07
8.8 34.3 0
0 0

0101101
*
Ed
 1e-07 1 1 0
1  25 0 0 6.8
2  49 4 25 0 6.8
2  50 20 26 0 6.8
0

0101000
+112 27 -114 27 *
Ve
1e-07
13.8 34.3 0
0 0

0101101
*
Ed
 1e-07 1 1 0
1  26 0 0 5
2  51 4 25 0 5
2  52 21 26 0 5
0

0101000
+112 27 -110 27 *
Ve
1e-07
13.8 30.3 0
0 0

0101101
*
Ed
 1e-07 1 1 0
1  27 0 0 4
2  53 4 25 0 4
2  54 22 26 0 4
0

0101000
+110 27 -108 27 *
Ve
1e-07
25.8 30.3 0
0 0

0101101
*
Ed
 1e-07 1 1 0
1  28 0 0 12
2  55 4 25 0 12
2  56 23 26 0 12
0

0101000
+108 27 -106 27 *
Ed
 1e-07 1 1 0
1  29 0 0 4
2  57 4 25 0 4
2  58 24 26 0 4
0

0101000
+106 27 -119 27 *
Wi

0101000
-117 24 +115 24 +113 24 +111 24 -109 24 -107 24 -105 24 -104 24 *
Fa
0  1e-07 4 18

0101000
+126 0 +123 0 +120 0 +103 0 *
Ve
1e-07
51 4.4 -4
0 0

0101101
*
Ed
 1e-07 1 1 0
1  30 0 0 4.4
2  59 5 12 0 4.4
2  60 6 16 0 4.4
0

0101000
+156 17 -101 17 *
Ve
1e-07
6 34.2 -4
0 0

0101101
*
Ed
 1e-07 1 1 0
1  31 0 0 29.8
2  61 5 12 0 29.8
2  62 7 16 0 29.8
0

0101000
+149 17 -99 17 *
Ve
1e-07
49 4.4 -4
0 0

0101101
*
Ed
 1e-07 1 1 0
1  32 0 0 2
2  63 5 12 0 2
2  64 8 16 0 2
0

0101000
+101 17 -97 17 *
Ve
1e-07
0 34.2 -4
0 0

0101101
*
Ed
 1e-07 1 1 0
1  33 0 0 6
2  65 5 12 0 6
2  66 9 16 0 6
0

0101000
+99 17 -95 17 *
Ve
1e-07
49 34.2 -4
0 0

0101101
*
Ed
 1e-07 1 1 0
1  34 0 0 29.8
2  67 5 12 0 29.8
2  68 10 16 0 29.8
0

0101000
+97 17 -93 17 *
Ve
1e-07
0 50.3 -4
0 0

0101101
*
Ed
 1e-07 1 1 0
1  35 0 0 16.1
2  69 5 12 0 16.1
2  70 11 16 0 16.1
0

0101000
+95 17 -91 17 *
Ve
1e-07
55 34.2 -4
0 0

0101101
*
Ed
 1e-07 1 1 0
1  36 0 0 6
2  71 5 12 0 6
2  72 12 16 0 6
0

0101000
+93 17 -89 17 *
Ve
1e-07
55 50.3 -4
0 0

0101101
*
Ed
 1e-07 1 1 0
1  37 0 0 55
2  73 5 12 0 55
2  74 13 16 0 55
0

0101000
+87 17 -91 17 *
Ed
 1e-07 1 1 0
1  38 0 0 16.1
2  75 5 12 0 16.1
2  76 14 16 0 16.1
0

0101000
+89 17 -87 17 *
Wi

0101000
-160 29 +153 29 -146 29 +100 29 -98 29 +96 29 -94 29 +92 29 -90 29 +88 29 
+86 29 +85 29 *
Ve
1e-07
51.6 45.3 -4
0 0

0101101
*
Ed
 1e-07 1 1 0
1  39 0 0 6.28318530717959
2  77 5 32 0 6.28318530717959
2  78 16 33 0 6.28318530717959
0

0101100
+83 34 -83 34 *
Wi

0101000
+82 31 *
Ve
1e-07
6.6 45.3 -4
0 0

0101101
*
Ed
 1e-07 1 1 0
1  40 0 0 6.28318530717959
2  79 5 32 0 6.28318530717959
2  80 15 33 0 6.28318530717959
0

0101100
+80 34 -80 34 *
Wi

0101000
+79 31 *
Fa
0  1e-07 5 28

0101000
+84 0 +81 0 +78 0 *
Ed
 1e-07 1 1 0
1  41 0 0 4
2  81 6 0 0 4
2  82 8 0 0 4
0

0101000
+143 7 -101 7 *
Wi

0101000
+155 0 -76 0 -142 10 +100 15 *
Fa
0  1e-07 6 0

0101000
+75 0 *
Ed
 1e-07 1 1 0
1  42 0 0 4
2  83 7 0 0 4
2  84 9 0 0 4
0

0101000
+141 7 -99 7 *
Wi

0101000
+148 0 -73 0 -140 10 +98 15 *
Fa
0  1e-07 7 0

0101000
+72 0 *
Ed
 1e-07 1 1 0
1  43 0 0 4
2  85 8 0 0 4
2  86 10 0 0 4
0

0101000
+139 7 -97 7 *
Wi

0101000
+76 0 -70 0 -138 10 +96 15 *
Fa
0  1e-07 8 0

0101000
+69 0 *
Ed
 1e-07 1 1 0
1  44 0 0 4
2  87 9 0 0 4
2  88 11 0 0 4
0

0101000
+137 7 -95 7 *
Wi

0101000
+73 0 -67 0 -136 10 +94 15 *
Fa
0  1e-07 9 0

0101000
+66 0 *
Ed
 1e-07 1 1 0
1  45 0 0 4
2  89 10 0 0 4
2  90 12 0 0 4
0

0101000
+135 7 -93 7 *
Wi

0101000
+70 0 -64 0 -134 10 +92 15 *
Fa
0  1e-07 10 0

0101000
+63 0 *
Ed
 1e-07 1 1 0
1  46 0 0 4
2  91 11 0 0 4
2  92 13 0 0 4
0

0101000
+133 7 -91 7 *
Wi

0101000
+67 0 -61 0 -132 10 +90 15 *
Fa
0  1e-07 11 0

0101000
+60 0 *
Ed
 1e-07 1 1 0
1  47 0 0 4
2  93 12 0 0 4
2  94 14 0 0 4
0

0101000
+131 7 -89 7 *
Wi

0101000
+64 0 -58 0 -130 10 +88 15 *
Fa
0  1e-07 12 0

0101000
+57 0 *
Ed
 1e-07 1 1 0
1  48 0 0 4
2  95 13 0 0 4
2  96 14 0 0 4
0

0101000
+129 7 -87 7 *
Wi

0101000
+55 0 -61 0 -128 10 +86 15 *
Fa
0  1e-07 13 0

0101000
+54 0 *
Wi

0101000
+58 0 -55 0 -127 10 +85 15 *
Fa
0  1e-07 14 0

0101000
+52 0 *
Ed
 1e-07 1 1 0
1  49 0 0 4
3  97 98CN 15 0 0 4
0

0101000
+80 22 -125 22 *
Wi

0101000
-79 31 -50 0 +124 0 +50 0 *
Fa
0  1e-07 15 0

0101000
+49 0 *
Ed
 1e-07 1 1 0
1  50 0 0 4
3  99 100CN 16 0 0 4
0

0101000
+83 22 -122 22 *
Wi

0101000
-82 31 -47 0 +121 0 +47 0 *
Fa
0  1e-07 16 0

0101000
+46 0 *
Ve
1e-07
25.8 34.3 -3
0 0

0101101
*
Ed
 1e-07 1 1 0
1  51 0 0 3
2  101 17 0 0 3
2  102 24 0 0 3
0

0101000
+119 35 -44 35 *
Ve
1e-07
37.3 34.3 -3
0 0

0101101
*
Ed
 1e-07 1 1 0
1  52 0 0 11.5
2  103 17 38 0 11.5
2  104 25 39 0 11.5
0

0101000
+44 40 -42 40 *
Ed
 1e-07 1 1 0
1  53 0 0 3
2  105 17 0 0 3
2  106 18 0 0 3
0

0101000
+118 35 -42 35 *
Wi

0101000
+43 0 -117 24 +41 37 -40 0 *
Fa
0  1e-07 17 0

0101000
+39 0 *
Ve
1e-07
37.3 41.1 -3
0 0

0101101
*
Ed
 1e-07 1 1 0
1  54 0 0 3
2  107 18 0 0 3
2  108 19 0 0 3
0

0101000
+116 35 -37 35 *
Ed
 1e-07 1 1 0
1  55 0 0 6.8
2  109 18 38 0 6.8
2  110 25 39 0 6.8
0

0101000
+37 40 -42 40 *
Wi

0101000
+36 0 -115 24 +35 37 -40 0 *
Fa
0  1e-07 18 0

0101000
+34 0 *
Ve
1e-07
8.8 41.1 -3
0 0

0101101
*
Ed
 1e-07 1 1 0
1  56 0 0 3
2  111 19 0 0 3
2  112 20 0 0 3
0

0101000
+114 35 -32 35 *
Ed
 1e-07 1 1 0
1  57 0 0 28.5
2  113 19 38 0 28.5
2  114 25 39 0 28.5
0

0101000
+32 40 -37 40 *
Wi

0101000
+31 0 -113 24 +30 37 -36 0 *
Fa
0  1e-07 19 0

0101000
+29 0 *
Ve
1e-07
8.8 34.3 -3
0 0

0101101
*
Ed
 1e-07 1 1 0
1  58 0 0 3
2  115 20 0 0 3
2  116 21 0 0 3
0

0101000
+112 35 -27 35 *
Ed
 1e-07 1 1 0
1  59 0 0 6.8
2  117 20 38 0 6.8
2  118 25 39 0 6.8
0

0101000
+27 40 -32 40 *
Wi

0101000
+26 0 -111 24 +25 37 -31 0 *
Fa
0  1e-07 20 0

0101000
+24 0 *
Ve
1e-07
13.8 34.3 -3
0 0

0101101
*
Ed
 1e-07 1 1 0
1  60 0 0 5
2  119 21 38 0 5
2  120 25 39 0 5
0

0101000
+27 40 -22 40 *
Ed
 1e-07 1 1 0
1  61 0 0 3
2  121 21 0 0 3
2  122 22 0 0 3
0

0101000
+110 35 -22 35 *
Wi

0101000
+26 0 -109 24 +21 37 -20 0 *
Fa
0  1e-07 21 0

0101000
+19 0 *
Ve
1e-07
13.8 30.3 -3
0 0

0101101
*
Ed
 1e-07 1 1 0
1  62 0 0 4
2  123 22 38 0 4
2  124 25 39 0 4
0

0101000
+22 40 -17 40 *
Ed
 1e-07 1 1 0
1  63 0 0 3
2  125 22 0 0 3
2  126 23 0 0 3
0

0101000
+108 35 -17 35 *
Wi

0101000
+20 0 -107 24 +16 37 -15 0 *
Fa
0  1e-07 22 0

0101000
+14 0 *
Ve
1e-07
25.8 30.3 -3
0 0

0101101
*
Ed
 1e-07 1 1 0
1  64 0 0 12
2  127 23 38 0 12
2  128 25 39 0 12
0

0101000
+17 40 -12 40 *
Ed
 1e-07 1 1 0
1  65 0 0 3
2  129 23 0 0 3
2  130 24 0 0 3
0

0101000
+106 35 -12 35 *
Wi

0101000
+15 0 -105 24 +11 37 -10 0 *
Fa
0  1e-07 23 0

0101000
+9 0 *
Ed
 1e-07 1 1 0
1  66 0 0 4
2  131 24 38 0 4
2  132 25 39 0 4
0

0101000
+12 40 -44 40 *
Wi

0101000
+10 0 -104 24 +7 37 -43 0 *
Fa
0  1e-07 24 0

0101000
+6 0 *
Wi

0101100
+30 0 +35 0 -41 0 -7 0 -11 0 -16 0 -21 0 +25 0 *
Fa
0  1e-07 25 0

0101000
-4 23 *
Sh

0101100
-158 6 +151 6 -144 6 +102 0 -77 20 +74 6 -71 6 +68 6 -65 6 +62 6 
-59 6 +56 6 +53 6 +51 6 -48 20 -45 20 -38 0 +33 0 +28 0 +23 0 
-18 0 -13 0 -8 0 -5 0 +3 41 *
So

0100000
+2 0 *

+1 1 