DBRep_DrawableShape

CASCADE Topology V1, (c) Matra-Datavision
Locations 14
1
              1               0               0               0 
              0               1               0               0 
              0               0               1               0 
2  1 -1 0
1
              1               0               0               0 
              0               1               0               0 
              0               0               1               0 
1
              1               0               0               0 
              0               1               0               0 
              0               0               1               0 
2  3 1 4 -1 0
2  4 1 3 -1 0
2  3 -1 0
2  1 -1 4 1 3 -1 0
1
              1               0               0               0 
              0               1               0               0 
              0               0               1               3 
2  3 1 4 -1 9 1 0
2  9 -1 4 1 3 -1 0
2  1 -1 9 -1 4 1 3 -1 0
2  4 -1 0
2  4 -1 9 1 0
Curve2ds 72
1 0 0 0 -1 
1 0 0 0 -1 
1 6 0 0 -1 
1 0 0 0 -1 
1 0 0 1 0 
1 0 0 -1 0 
1 0 -3 1 0 
1 0 0 -1 0 
1 4.4000000000000004 0 0 -1 
1 0 -0 0 -1 
1 0 0 1 0 
1 -6 0 0 1 
1 0 -3 1 0 
1 -6 0 0 1 
1 1.8500000000000014 0 0 -1 
1 6.1921505291421717 0 0 -1 
1 0 -0 1 0 
1 -6 4.4000000000000004 1 0 
1 0 -3 1 0 
1 -6 4.4000000000000004 1 0 
1 4.7123889803846897 0 0 -1 
1 1.9591097699793352 0 0 -1 
1 0 0 1 0 
2 -1.9591097699793352 4.6000000000000005 -1 0 0 1 2.2000000000000028
1 0 -3 1 0 
2 -1.9591097699793352 4.6000000000000005 -1 0 0 1 2.2000000000000028
1 0 0 0 -1 
1 2.4000000000000004 0 0 -1 
1 0 0 1 0 
1 0 2.4000000000000004 -1 0 
1 0 -3 1 0 
1 0 2.4000000000000004 -1 0 
1 0 0 1 0 
1 0 0 0 1 
1 0 -3 1 0 
1 0 0 0 1 
1 0 0 0 -1 
1 0 0 0 -1 
1 6 0 0 -1 
1 0 0 0 -1 
1 0 0 1 0 
1 0 0 -1 0 
1 0 -3 1 0 
1 0 0 -1 0 
1 2.4000000000000004 0 0 -1 
1 1.9591097699793334 0 0 -1 
1 0 0 1 0 
1 -6 0 0 1 
1 0 -3 1 0 
1 -6 0 0 1 
1 0 0 0 -1 
1 4.7123889803846897 0 0 -1 
1 0 0 1 0 
1 -4.0408902300206666 2.4000000000000004 -1 0 
1 0 -3 1 0 
1 -4.0408902300206666 2.4000000000000004 -1 0 
1 3.2326274316272086 0 0 -1 
1 1.8500000000000014 0 0 -1 
1 0 0 1 0 
2 -4.0408902300206666 4.6000000000000005 -1 0 0 1 2.2000000000000011
1 0 -3 1 0 
2 -4.0408902300206666 4.6000000000000005 -1 0 0 1 2.2000000000000011
1 0 0 0 -1 
1 4.4000000000000004 0 0 -1 
1 0 0 1 0 
1 0 4.4000000000000004 -1 0 
1 0 -3 1 0 
1 0 4.4000000000000004 -1 0 
1 0 0 1 0 
1 0 0 0 1 
1 0 -3 1 0 
1 0 0 0 1 
Curves 36
1 45 0 0 0 0 1 
1 51 0 0 0 0 1 
1 45 0 0 1 0 0 
1 45 0 0 1 0 0 
1 51 4.4000000000000004 0 0 0 1 
1 51 0 0 0 1 0 
1 51 0 0 0 1 0 
1 49.149999999999999 4.4000000000000004 0 0 0 1 
1 51 4.4000000000000004 0 -1 0 0 
1 51 4.4000000000000004 0 -1 0 0 
1 46.959109769979335 2.4000000000000004 0 0 0 1 
2 46.959109769979335 4.6000000000000005 0 0 0 1 1 0 -0 -0 1 0 2.2000000000000002
2 46.959109769979335 4.6000000000000005 0 0 0 1 1 0 -0 -0 1 0 2.2000000000000002
1 45 2.4000000000000004 0 0 0 1 
1 45 2.4000000000000004 0 1 0 0 
1 45 2.4000000000000004 0 1 0 0 
1 45 0 0 0 1 0 
1 45 0 0 0 1 0 
1 4 0 0 0 0 1 
1 10 0 0 0 0 1 
1 4 0 0 1 0 0 
1 4 0 0 1 0 0 
1 10 2.4000000000000004 0 0 0 1 
1 10 0 0 0 1 0 
1 10 0 0 0 1 0 
1 8.0408902300206666 2.4000000000000004 0 0 0 1 
1 8.0408902300206666 2.4000000000000004 0 1 0 0 
1 8.0408902300206666 2.4000000000000004 0 1 0 0 
1 5.8500000000000014 4.4000000000000004 0 0 0 1 
2 8.0408902300206666 4.6000000000000005 0 0 0 1 1 0 -0 -0 1 0 2.2000000000000002
2 8.0408902300206666 4.6000000000000005 0 0 0 1 1 0 -0 -0 1 0 2.2000000000000002
1 4 4.4000000000000004 0 0 0 1 
1 4 4.4000000000000004 0 1 0 0 
1 4 4.4000000000000004 0 1 0 0 
1 4 0 0 0 1 0 
1 4 0 0 0 1 0 
Polygon3D 0
PolygonOnTriangulations 0
Surfaces 16
1 45 0 0 0 1 0 1 0 0 0 0 -1 
1 45 0 0 -1 0 0 0 1 0 0 0 -1 
1 51 0 0 -1 0 0 0 1 0 0 0 -1 
1 45 0 0 0 0 -1 -1 0 -0 0 1 0 
1 45 0 0 0 0 -1 -1 0 -0 0 1 0 
1 51 4.4000000000000004 0 0 -1 0 -1 0 0 -0 -0 -1 
2 46.959109769979335 4.6000000000000005 0 -0 -0 -1 1 0 0 0 1 0 2.2000000000000002
1 45 2.4000000000000004 0 0 1 0 1 0 0 0 0 -1 
1 4 0 0 0 1 0 1 0 0 0 0 -1 
1 4 0 0 -1 0 0 0 1 0 0 0 -1 
1 10 0 0 -1 0 0 0 1 0 0 0 -1 
1 4 0 0 0 0 -1 -1 0 -0 0 1 0 
1 4 0 0 0 0 -1 -1 0 -0 0 1 0 
1 8.0408902300206666 2.4000000000000004 0 0 1 0 1 0 0 0 0 -1 
2 8.0408902300206666 4.6000000000000005 0 -0 -0 -1 1 0 0 0 1 0 2.2000000000000002
1 4 4.4000000000000004 0 0 1 0 1 0 0 0 0 -1 
Triangulations 0

TShapes 97
Ve
1e-07
45 0 0
0 0

0101101
*
Ve
1e-07
45 0 3
0 0

0101101
*
Ed
 1e-07 1 1 0
1  1 0 0 3
2  1 1 0 0 3
2  2 2 0 0 3
0

0101000
+97 2 -96 2 *
Ve
1e-07
51 0 0
0 0

0101101
*
Ve
1e-07
51 0 3
0 0

0101101
*
Ed
 1e-07 1 1 0
1  2 0 0 3
2  3 1 0 0 3
2  4 3 0 0 3
0

0101000
+94 2 -93 2 *
Ed
 1e-07 1 1 0
1  3 0 0 6
2  5 1 6 0 6
2  6 4 7 0 6
0

0101000
+97 8 -94 8 *
Ed
 1e-07 1 1 0
1  4 0 0 6
2  7 1 11 0 6
2  8 5 7 0 6
0

0101000
+96 12 -93 12 *
Wi

0101000
+95 0 -92 0 -91 5 +90 10 *
Fa
0  1e-07 1 0

0101000
+89 0 *
Ve
1e-07
51 4.4 0
0 0

0101101
*
Ve
1e-07
51 4.4 3
0 0

0101101
*
Ed
 1e-07 1 1 0
1  5 0 0 3
2  9 3 0 0 3
2  10 6 0 0 3
0

0101000
+87 2 -86 2 *
Ed
 1e-07 1 1 0
1  6 0 0 4.4
2  11 3 6 0 4.4
2  12 4 7 0 4.4
0

0101000
+94 8 -87 8 *
Ed
 1e-07 1 1 0
1  7 0 0 4.4
2  13 3 11 0 4.4
2  14 5 7 0 4.4
0

0101000
+93 12 -86 12 *
Wi

0101000
+92 0 -85 0 -84 5 +83 10 *
Fa
0  1e-07 3 0

0101000
+82 0 *
Ve
1.00000000444089e-07
49.15 4.4 0
0 0

0101101
*
Ve
1.00000000444089e-07
49.15 4.4 3
0 0

0101101
*
Ed
 1.00000000444089e-07 1 1 0
1  8 0 0 3
2  15 6 0 0 3
2  16 7 0 0 3
0

0101000
+80 2 -79 2 *
Ed
 1e-07 1 1 0
1  9 0 0 1.85
2  17 6 6 0 1.85
2  18 4 7 0 1.85
0

0101000
+87 8 -80 8 *
Ed
 1e-07 1 1 0
1  10 0 0 1.85
2  19 6 11 0 1.85
2  20 5 7 0 1.85
0

0101000
+86 12 -79 12 *
Wi

0101000
+85 0 -78 0 -77 5 +76 10 *
Fa
0  1e-07 6 0

0101000
+75 0 *
Ve
1e-07
46.9591097699793 2.4 0
0 0

0101101
*
Ve
1e-07
46.9591097699793 2.4 3
0 0

0101101
*
Ed
 1e-07 1 1 0
1  11 0 0 3
2  21 7 0 0 3
2  22 8 0 0 3
4 G1 7 0 8 0
0

0101000
+73 2 -72 2 *
Ed
 1e-07 1 1 0
1  12 0 4.71238898038469 6.19215052914217
2  23 7 6 4.71238898038469 6.19215052914217
2  24 4 7 4.71238898038469 6.19215052914217
0

0101000
+73 8 -80 8 *
Ed
 1e-07 1 1 0
1  13 0 4.71238898038469 6.19215052914217
2  25 7 11 4.71238898038469 6.19215052914217
2  26 5 7 4.71238898038469 6.19215052914217
0

0101000
+72 12 -79 12 *
Wi

0101000
+71 0 -78 0 -70 5 +69 10 *
Fa
0  1e-07 7 0

0101000
+68 0 *
Ve
1e-07
45 2.4 0
0 0

0101101
*
Ve
1e-07
45 2.4 3
0 0

0101101
*
Ed
 1e-07 1 1 0
1  14 0 0 3
2  27 8 0 0 3
2  28 2 0 0 3
0

0101000
+66 2 -65 2 *
Ed
 1e-07 1 1 0
1  15 0 0 1.95910976997934
2  29 8 6 0 1.95910976997934
2  30 4 7 0 1.95910976997934
0

0101000
+66 8 -73 8 *
Ed
 1e-07 1 1 0
1  16 0 0 1.95910976997934
2  31 8 11 0 1.95910976997934
2  32 5 7 0 1.95910976997934
0

0101000
+65 12 -72 12 *
Wi

0101000
+64 0 -71 0 -63 5 +62 10 *
Fa
0  1e-07 8 0

0101000
+61 0 *
Ed
 1e-07 1 1 0
1  17 0 0 2.4
2  33 2 6 0 2.4
2  34 4 7 0 2.4
0

0101000
+97 8 -66 8 *
Ed
 1e-07 1 1 0
1  18 0 0 2.4
2  35 2 11 0 2.4
2  36 5 7 0 2.4
0

0101000
+96 12 -65 12 *
Wi

0101000
+95 0 -64 0 -59 5 +58 10 *
Fa
0  1e-07 2 0

0101000
+57 0 *
Wi

0101100
+91 0 +84 0 +77 0 -70 0 -63 0 -59 0 *
Fa
0  1e-07 4 0

0101000
-55 3 *
Wi

0101100
+90 0 +83 0 +76 0 -69 0 -62 0 -58 0 *
Fa
0  1e-07 5 0

0101000
-53 3 *
Sh

0101100
-88 0 -81 0 -74 0 +67 0 +60 0 +56 0 +54 13 -52 14 *
So

0100100
+51 0 *
Ve
1e-07
4 0 0
0 0

0101101
*
Ve
1e-07
4 0 3
0 0

0101101
*
Ed
 1e-07 1 1 0
1  19 0 0 3
2  37 9 0 0 3
2  38 10 0 0 3
0

0101000
+49 2 -48 2 *
Ve
1e-07
10 0 0
0 0

0101101
*
Ve
1e-07
10 0 3
0 0

0101101
*
Ed
 1e-07 1 1 0
1  20 0 0 3
2  39 9 0 0 3
2  40 11 0 0 3
0

0101000
+46 2 -45 2 *
Ed
 1e-07 1 1 0
1  21 0 0 6
2  41 9 6 0 6
2  42 12 7 0 6
0

0101000
+49 8 -46 8 *
Ed
 1e-07 1 1 0
1  22 0 0 6
2  43 9 11 0 6
2  44 13 7 0 6
0

0101000
+48 12 -45 12 *
Wi

0101000
+47 0 -44 0 -43 5 +42 10 *
Fa
0  1e-07 9 0

0101000
+41 0 *
Ve
1e-07
10 2.4 0
0 0

0101101
*
Ve
1e-07
10 2.4 3
0 0

0101101
*
Ed
 1e-07 1 1 0
1  23 0 0 3
2  45 11 0 0 3
2  46 14 0 0 3
0

0101000
+39 2 -38 2 *
Ed
 1e-07 1 1 0
1  24 0 0 2.4
2  47 11 6 0 2.4
2  48 12 7 0 2.4
0

0101000
+46 8 -39 8 *
Ed
 1e-07 1 1 0
1  25 0 0 2.4
2  49 11 11 0 2.4
2  50 13 7 0 2.4
0

0101000
+45 12 -38 12 *
Wi

0101000
+44 0 -37 0 -36 5 +35 10 *
Fa
0  1e-07 11 0

0101000
+34 0 *
Ve
1e-07
8.04089023002067 2.4 0
0 0

0101101
*
Ve
1e-07
8.04089023002067 2.4 3
0 0

0101101
*
Ed
 1e-07 1 1 0
1  26 0 0 3
2  51 14 0 0 3
2  52 15 0 0 3
4 G1 14 0 15 0
0

0101000
+32 2 -31 2 *
Ed
 1e-07 1 1 0
1  27 0 0 1.95910976997933
2  53 14 6 0 1.95910976997933
2  54 12 7 0 1.95910976997933
0

0101000
+32 8 -39 8 *
Ed
 1e-07 1 1 0
1  28 0 0 1.95910976997933
2  55 14 11 0 1.95910976997933
2  56 13 7 0 1.95910976997933
0

0101000
+31 12 -38 12 *
Wi

0101000
+30 0 -37 0 -29 5 +28 10 *
Fa
0  1e-07 14 0

0101000
+27 0 *
Ve
1e-07
5.85 4.4 0
0 0

0101101
*
Ve
1e-07
5.85 4.4 3
0 0

0101101
*
Ed
 1e-07 1 1 0
1  29 0 0 3
2  57 15 0 0 3
2  58 16 0 0 3
0

0101000
+25 2 -24 2 *
Ed
 1e-07 1 1 0
1  30 0 3.23262743162721 4.71238898038469
2  59 15 6 3.23262743162721 4.71238898038469
2  60 12 7 3.23262743162721 4.71238898038469
0

0101000
+25 8 -32 8 *
Ed
 1e-07 1 1 0
1  31 0 3.23262743162721 4.71238898038469
2  61 15 11 3.23262743162721 4.71238898038469
2  62 13 7 3.23262743162721 4.71238898038469
0

0101000
+24 12 -31 12 *
Wi

0101000
+23 0 -30 0 -22 5 +21 10 *
Fa
0  1e-07 15 0

0101000
+20 0 *
Ve
1e-07
4 4.4 0
0 0

0101101
*
Ve
1e-07
4 4.4 3
0 0

0101101
*
Ed
 1e-07 1 1 0
1  32 0 0 3
2  63 16 0 0 3
2  64 10 0 0 3
0

0101000
+18 2 -17 2 *
Ed
 1e-07 1 1 0
1  33 0 0 1.85
2  65 16 6 0 1.85
2  66 12 7 0 1.85
0

0101000
+18 8 -25 8 *
Ed
 1e-07 1 1 0
1  34 0 0 1.85
2  67 16 11 0 1.85
2  68 13 7 0 1.85
0

0101000
+17 12 -24 12 *
Wi

0101000
+16 0 -23 0 -15 5 +14 10 *
Fa
0  1e-07 16 0

0101000
+13 0 *
Ed
 1e-07 1 1 0
1  35 0 0 4.4
2  69 10 6 0 4.4
2  70 12 7 0 4.4
0

0101000
+49 8 -18 8 *
Ed
 1e-07 1 1 0
1  36 0 0 4.4
2  71 10 11 0 4.4
2  72 13 7 0 4.4
0

0101000
+48 12 -17 12 *
Wi

0101000
+47 0 -16 0 -11 5 +10 10 *
Fa
0  1e-07 10 0

0101000
+9 0 *
Wi

0101100
+43 0 +36 0 -29 0 -22 0 -15 0 -11 0 *
Fa
0  1e-07 12 0

0101000
-7 3 *
Wi

0101100
+42 0 +35 0 -28 0 -21 0 -14 0 -10 0 *
Fa
0  1e-07 13 0

0101000
-5 3 *
Sh

0101100
-40 0 -33 0 +26 0 +19 0 +12 0 +8 0 +6 13 -4 14 *
So

0100100
+3 0 *
Co

1100000
+50 0 +2 0 *

+1 1 