DBRep_DrawableShape

CASCADE Topology V1, (c) Matra-Datavision
Locations 10
1
              1               0               0              -0 
              0               1               0               0 
              0               0               1              -0 
1
              1               0               0               0 
              0               1               0               0 
              0               0               1               0 
2  1 1 2 -1 0
2  2 1 1 -1 0
2  1 -1 0
1
              1               0               0              -0 
              0               1               0              -0 
              0               0               1              -3 
2  1 1 2 -1 6 1 0
2  6 -1 2 1 1 -1 0
2  2 -1 0
2  2 -1 6 1 0
Curve2ds 48
1 0 0 0 -1 
1 6.8000000000000043 0 0 -1 
1 28.499999999999996 0 0 -1 
1 0 0 0 -1 
1 0 0 1 0 
1 0 0 1 0 
1 0 -3 1 0 
1 0 0 1 0 
1 6.8000000000000043 0 0 -1 
1 11.499999999999996 0 0 -1 
1 0 0 1 0 
1 28.499999999999996 0 0 -1 
1 0 -3 1 0 
1 28.499999999999996 0 0 -1 
1 0 0 0 -1 
1 3.9999999999999964 0 0 -1 
1 0 0 1 0 
1 17 -6.8000000000000043 1 0 
1 0 -3 1 0 
1 17 -6.8000000000000043 1 0 
1 0 0 0 -1 
1 12 0 0 -1 
1 0 0 1 0 
1 17 -10.800000000000001 0 1 
1 0 -3 1 0 
1 17 -10.800000000000001 0 1 
1 0 0 0 -1 
1 3.9999999999999964 0 0 -1 
1 0 0 1 0 
1 5 -10.800000000000001 1 0 
1 0 -3 1 0 
1 5 -10.800000000000001 1 0 
1 0 0 0 -1 
1 5 0 0 -1 
1 0 0 1 0 
1 5 -6.8000000000000043 0 -1 
1 0 -3 1 0 
1 5 -6.8000000000000043 0 -1 
1 0 0 0 -1 
1 0 0 0 -1 
1 0 0 1 0 
1 0 -6.8000000000000043 1 0 
1 0 -3 1 0 
1 0 -6.8000000000000043 1 0 
1 0 0 1 0 
1 0 -6.8000000000000043 0 1 
1 0 -3 1 0 
1 0 -6.8000000000000043 0 1 
Curves 24
1 8.8000000000000007 41.100000000000001 0 -0 -0 -1 
1 37.299999999999997 41.100000000000001 0 -0 -0 -1 
1 8.8000000000000007 41.100000000000001 0 1 0 0 
1 8.8000000000000007 41.100000000000001 0 1 0 0 
1 37.299999999999997 34.299999999999997 0 -0 -0 -1 
1 37.299999999999997 41.100000000000001 0 0 -1 0 
1 37.299999999999997 41.100000000000001 0 0 -1 0 
1 25.800000000000001 34.299999999999997 0 -0 -0 -1 
1 25.800000000000001 34.299999999999997 0 1 0 0 
1 25.800000000000001 34.299999999999997 0 1 0 0 
1 25.800000000000001 30.300000000000001 0 -0 -0 -1 
1 25.800000000000001 30.300000000000001 0 0 1 0 
1 25.800000000000001 30.300000000000001 0 0 1 0 
1 13.800000000000001 30.300000000000001 0 -0 -0 -1 
1 13.800000000000001 30.300000000000001 0 1 0 0 
1 13.800000000000001 30.300000000000001 0 1 0 0 
1 13.800000000000001 34.299999999999997 0 -0 -0 -1 
1 13.800000000000001 34.299999999999997 0 0 -1 0 
1 13.800000000000001 34.299999999999997 0 0 -1 0 
1 8.8000000000000007 34.299999999999997 0 -0 -0 -1 
1 8.8000000000000007 34.299999999999997 0 1 0 0 
1 8.8000000000000007 34.299999999999997 0 1 0 0 
1 8.8000000000000007 34.299999999999997 0 0 1 0 
1 8.8000000000000007 34.299999999999997 0 0 1 0 
Polygon3D 0
PolygonOnTriangulations 0
Surfaces 10
1 8.8000000000000007 41.100000000000001 0 0 -1 0 1 0 0 -0 0 1 
1 8.8000000000000007 34.299999999999997 0 1 0 0 -0 1 0 0 -0 1 
1 37.299999999999997 41.100000000000001 0 -1 0 0 0 -1 0 0 0 1 
1 8.8000000000000007 41.100000000000001 0 -0 0 1 1 0 0 0 1 -0 
1 8.8000000000000007 41.100000000000001 0 -0 0 1 1 0 0 0 1 -0 
1 25.800000000000001 34.299999999999997 0 0 -1 0 1 0 0 -0 0 1 
1 25.800000000000001 30.300000000000001 0 1 0 0 -0 1 0 0 -0 1 
1 13.800000000000001 30.300000000000001 0 0 -1 0 1 0 0 -0 0 1 
1 13.800000000000001 34.299999999999997 0 -1 0 0 0 -1 0 0 0 1 
1 8.8000000000000007 34.299999999999997 0 0 -1 0 1 0 0 -0 0 1 
Triangulations 0

TShapes 62
Ve
1e-07
8.8 41.1 0
0 0

0101101
*
Ve
1e-07
8.8 41.1 -3
0 0

0101101
*
Ed
 1e-07 1 1 0
1  1 0 0 3
2  1 1 0 0 3
2  2 2 0 0 3
0

0101000
+62 0 -61 0 *
Ve
1e-07
37.3 41.1 0
0 0

0101101
*
Ve
1e-07
37.3 41.1 -3
0 0

0101101
*
Ed
 1e-07 1 1 0
1  2 0 0 3
2  3 1 0 0 3
2  4 3 0 0 3
0

0101000
+59 0 -58 0 *
Ed
 1e-07 1 1 0
1  3 0 0 28.5
2  5 1 4 0 28.5
2  6 4 5 0 28.5
0

0101000
+62 4 -59 4 *
Ed
 1e-07 1 1 0
1  4 0 0 28.5
2  7 1 8 0 28.5
2  8 5 5 0 28.5
0

0101000
+61 8 -58 8 *
Wi

0101000
+60 0 -57 0 -56 3 +55 7 *
Fa
0  1e-07 1 0

0101000
+54 0 *
Ve
1e-07
37.3 34.3 0
0 0

0101101
*
Ve
1e-07
37.3 34.3 -3
0 0

0101101
*
Ed
 1e-07 1 1 0
1  5 0 0 3
2  9 3 0 0 3
2  10 6 0 0 3
0

0101000
+52 0 -51 0 *
Ed
 1e-07 1 1 0
1  6 0 0 6.8
2  11 3 4 0 6.8
2  12 4 5 0 6.8
0

0101000
+59 4 -52 4 *
Ed
 1e-07 1 1 0
1  7 0 0 6.8
2  13 3 8 0 6.8
2  14 5 5 0 6.8
0

0101000
+58 8 -51 8 *
Wi

0101000
+57 0 -50 0 -49 3 +48 7 *
Fa
0  1e-07 3 0

0101000
+47 0 *
Ve
1e-07
25.8 34.3 0
0 0

0101101
*
Ve
1e-07
25.8 34.3 -3
0 0

0101101
*
Ed
 1e-07 1 1 0
1  8 0 0 3
2  15 6 0 0 3
2  16 7 0 0 3
0

0101000
+45 0 -44 0 *
Ed
 1e-07 1 1 0
1  9 0 0 11.5
2  17 6 4 0 11.5
2  18 4 5 0 11.5
0

0101000
+45 4 -52 4 *
Ed
 1e-07 1 1 0
1  10 0 0 11.5
2  19 6 8 0 11.5
2  20 5 5 0 11.5
0

0101000
+44 8 -51 8 *
Wi

0101000
+43 0 -50 0 -42 3 +41 7 *
Fa
0  1e-07 6 0

0101000
+40 0 *
Ve
1e-07
25.8 30.3 0
0 0

0101101
*
Ve
1e-07
25.8 30.3 -3
0 0

0101101
*
Ed
 1e-07 1 1 0
1  11 0 0 3
2  21 7 0 0 3
2  22 8 0 0 3
0

0101000
+38 0 -37 0 *
Ed
 1e-07 1 1 0
1  12 0 0 4
2  23 7 4 0 4
2  24 4 5 0 4
0

0101000
+38 4 -45 4 *
Ed
 1e-07 1 1 0
1  13 0 0 4
2  25 7 8 0 4
2  26 5 5 0 4
0

0101000
+37 8 -44 8 *
Wi

0101000
+36 0 -43 0 -35 3 +34 7 *
Fa
0  1e-07 7 0

0101000
+33 0 *
Ve
1e-07
13.8 30.3 0
0 0

0101101
*
Ve
1e-07
13.8 30.3 -3
0 0

0101101
*
Ed
 1e-07 1 1 0
1  14 0 0 3
2  27 8 0 0 3
2  28 9 0 0 3
0

0101000
+31 0 -30 0 *
Ed
 1e-07 1 1 0
1  15 0 0 12
2  29 8 4 0 12
2  30 4 5 0 12
0

0101000
+31 4 -38 4 *
Ed
 1e-07 1 1 0
1  16 0 0 12
2  31 8 8 0 12
2  32 5 5 0 12
0

0101000
+30 8 -37 8 *
Wi

0101000
+29 0 -36 0 -28 3 +27 7 *
Fa
0  1e-07 8 0

0101000
+26 0 *
Ve
1e-07
13.8 34.3 0
0 0

0101101
*
Ve
1e-07
13.8 34.3 -3
0 0

0101101
*
Ed
 1e-07 1 1 0
1  17 0 0 3
2  33 9 0 0 3
2  34 10 0 0 3
0

0101000
+24 0 -23 0 *
Ed
 1e-07 1 1 0
1  18 0 0 4
2  35 9 4 0 4
2  36 4 5 0 4
0

0101000
+24 4 -31 4 *
Ed
 1e-07 1 1 0
1  19 0 0 4
2  37 9 8 0 4
2  38 5 5 0 4
0

0101000
+23 8 -30 8 *
Wi

0101000
+22 0 -29 0 -21 3 +20 7 *
Fa
0  1e-07 9 0

0101000
+19 0 *
Ve
1e-07
8.8 34.3 0
0 0

0101101
*
Ve
1e-07
8.8 34.3 -3
0 0

0101101
*
Ed
 1e-07 1 1 0
1  20 0 0 3
2  39 10 0 0 3
2  40 2 0 0 3
0

0101000
+17 0 -16 0 *
Ed
 1e-07 1 1 0
1  21 0 0 5
2  41 10 4 0 5
2  42 4 5 0 5
0

0101000
+17 4 -24 4 *
Ed
 1e-07 1 1 0
1  22 0 0 5
2  43 10 8 0 5
2  44 5 5 0 5
0

0101000
+16 8 -23 8 *
Wi

0101000
+15 0 -22 0 -14 3 +13 7 *
Fa
0  1e-07 10 0

0101000
+12 0 *
Ed
 1e-07 1 1 0
1  23 0 0 6.8
2  45 2 4 0 6.8
2  46 4 5 0 6.8
0

0101000
+17 4 -62 4 *
Ed
 1e-07 1 1 0
1  24 0 0 6.8
2  47 2 8 0 6.8
2  48 5 5 0 6.8
0

0101000
+16 8 -61 8 *
Wi

0101000
+15 0 -60 0 -10 3 +9 7 *
Fa
0  1e-07 2 0

0101000
+8 0 *
Wi

0101100
+56 0 +49 0 -42 0 -35 0 -28 0 -21 0 -14 0 +10 0 *
Fa
0  1e-07 4 0

0101000
-6 1 *
Wi

0101100
+55 0 +48 0 -41 0 -34 0 -27 0 -20 0 -13 0 +9 0 *
Fa
0  1e-07 5 0

0101000
-4 1 *
Sh

0101100
-53 0 -46 0 +39 0 +32 0 +25 0 +18 0 +11 0 -7 0 +5 9 -3 10 
*
So

1100100
+2 0 *

+1 0 