DBRep_DrawableShape

CASCADE Topology V1, (c) Matra-Datavision
Locations 10
1
              1               0               0              -0 
              0 2.22044604925031e-16              -1            41.1 
              0               1 2.22044604925031e-16              -0 
1
              1               0               0               0 
              0               1               0               0 
              0               0               1               0 
2  1 1 2 -1 0
2  2 1 1 -1 0
2  1 -1 0
1
              1               0               0               0 
              0               1               0               5 
              0               0               1 -1.11022302462516e-15 
2  1 1 2 -1 6 1 0
2  6 -1 2 1 1 -1 0
2  2 -1 0
2  2 -1 6 1 0
Curve2ds 48
1 0 0 0 -1 
1 2.75 -6.106226635438361e-16 0 -1 
1 4.5 0 0 -1 
1 0 0 0 -1 
1 0 0 1 0 
1 0 0 0 1 
1 0 -5 1 0 
1 0 0 0 1 
1 2.75 6.106226635438361e-16 0 -1 
1 0 0 0 -1 
1 0 0 1 0 
1 0 4.5 1 0 
1 -6.6613381477509392e-16 -5 1 0 
1 0 4.5 1 0 
1 4.5 0 0 -1 
1 0 0 0 -1 
1 0 0 1 0 
1 2.75 4.5 0 -1 
1 0 -5 1 0 
1 2.75 4.5 0 -1 
1 0 0 1 0 
1 2.75 0 -1 0 
1 6.6613381477509392e-16 -5 1 0 
1 2.75 0 -1 0 
1 0 0 0 -1 
1 0.75 1.6653345369377348e-16 0 -1 
1 4.5 0 0 -1 
1 0 0 0 -1 
1 0 0 1 0 
1 0 0 0 1 
1 0 -5 1 0 
1 0 0 0 1 
1 0.75 -1.6653345369377348e-16 0 -1 
1 0 0 0 -1 
1 0 0 1 0 
1 0 4.5 1 0 
1 0 -5 1 0 
1 0 4.5 1 0 
1 4.5 0 0 -1 
1 0 0 0 -1 
1 0 0 1 0 
1 0.75 4.5 0 -1 
1 0 -5 1 0 
1 0.75 4.5 0 -1 
1 0 0 1 0 
1 0.75 0 -1 0 
1 0 -5 1 0 
1 0.75 0 -1 0 
Curves 24
1 25.300000000000001 41.099999999999994 8.75 0 1 -2.2204460492503131e-16 
1 29.800000000000001 41.099999999999994 8.75 0 1 -2.2204460492503131e-16 
1 25.300000000000001 8.75 0 1 0 0 
1 25.300000000000001 8.75 0 1 0 0 
1 29.800000000000001 41.099999999999994 11.5 0 1 -2.2204460492503131e-16 
1 29.800000000000001 8.75 0 0 1 0 
1 29.800000000000001 8.75 0 0 1 0 
1 25.300000000000001 41.099999999999994 11.5 0 1 -2.2204460492503131e-16 
1 29.800000000000001 11.5 0 -1 0 0 
1 29.800000000000001 11.5 0 -1 0 0 
1 25.300000000000001 11.5 0 0 -1 0 
1 25.300000000000001 11.5 0 0 -1 0 
1 25.300000000000001 41.099999999999994 0.75 0 1 -2.2204460492503131e-16 
1 29.800000000000001 41.099999999999994 0.75 0 1 -2.2204460492503131e-16 
1 25.300000000000001 0.75 0 1 0 0 
1 25.300000000000001 0.75 0 1 0 0 
1 29.800000000000001 41.099999999999994 0 0 1 -2.2204460492503131e-16 
1 29.800000000000001 0.75 0 0 -1 0 
1 29.800000000000001 0.75 0 0 -1 0 
1 25.300000000000001 41.099999999999994 0 0 1 -2.2204460492503131e-16 
1 29.800000000000001 0 0 -1 0 0 
1 29.800000000000001 0 0 -1 0 0 
1 25.300000000000001 0 0 0 1 0 
1 25.300000000000001 0 0 0 1 0 
Polygon3D 0
PolygonOnTriangulations 0
Surfaces 12
1 25.300000000000001 41.099999999999994 8.75 0 -2.2204460492503131e-16 -1 1 0 0 0 -1 2.2204460492503131e-16 
1 25.300000000000001 41.099999999999994 11.5 -1 0 -0 0 -2.2204460492503131e-16 -1 -0 -1 2.2204460492503131e-16 
1 29.800000000000001 41.099999999999994 8.75 1 -0 0 0 2.2204460492503131e-16 1 -0 -1 2.2204460492503131e-16 
1 25.300000000000001 41.099999999999994 8.75 0 1 0 0 -0 1 1 0 -0 
1 25.300000000000001 41.099999999999994 8.75 0 1 0 0 -0 1 1 0 -0 
1 29.800000000000001 41.099999999999994 11.5 0 2.2204460492503131e-16 1 -1 0 0 0 -1 2.2204460492503131e-16 
1 25.300000000000001 41.099999999999994 0.75 0 -2.2204460492503131e-16 -1 1 0 0 0 -1 2.2204460492503131e-16 
1 25.300000000000001 41.099999999999994 0 1 -0 0 0 2.2204460492503131e-16 1 -0 -1 2.2204460492503131e-16 
1 29.800000000000001 41.099999999999994 0.75 -1 0 -0 0 -2.2204460492503131e-16 -1 -0 -1 2.2204460492503131e-16 
1 25.300000000000001 41.099999999999994 0.75 0 -1 0 0 -0 -1 1 0 0 
1 25.300000000000001 41.099999999999994 0.75 0 -1 0 0 -0 -1 1 0 0 
1 29.800000000000001 41.099999999999994 0 0 2.2204460492503131e-16 1 -1 0 0 0 -1 2.2204460492503131e-16 
Triangulations 0

TShapes 69
Ve
1e-07
25.3 41.1 8.75
0 0

0101101
*
Ve
1e-07
25.3 46.1 8.75
0 0

0101101
*
Ed
 1e-07 1 1 0
1  1 0 0 5
2  1 1 0 0 5
2  2 2 0 0 5
0

0101000
+69 0 -68 0 *
Ve
1e-07
29.8 41.1 8.75
0 0

0101101
*
Ve
1e-07
29.8 46.1 8.75
0 0

0101101
*
Ed
 1e-07 1 1 0
1  2 0 0 5
2  3 1 0 0 5
2  4 3 0 0 5
0

0101000
+66 0 -65 0 *
Ed
 1e-07 1 1 0
1  3 0 0 4.5
2  5 1 4 0 4.5
2  6 4 5 0 4.5
0

0101000
+69 4 -66 4 *
Ed
 1e-07 1 1 0
1  4 0 0 4.5
2  7 1 8 0 4.5
2  8 5 5 0 4.5
0

0101000
+68 8 -65 8 *
Wi

0101000
+67 0 -64 0 -63 3 +62 7 *
Fa
0  1e-07 1 0

0101000
+61 0 *
Ve
1e-07
29.8 41.1 11.5
0 0

0101101
*
Ve
1e-07
29.8 46.1 11.5
0 0

0101101
*
Ed
 1e-07 1 1 0
1  5 0 0 5
2  9 3 0 0 5
2  10 6 0 0 5
0

0101000
+59 0 -58 0 *
Ed
 1e-07 1 1 0
1  6 0 0 2.75
2  11 3 4 0 2.75
2  12 4 5 0 2.75
0

0101000
+66 4 -59 4 *
Ed
 1e-07 1 1 0
1  7 0 0 2.75
2  13 3 8 0 2.75
2  14 5 5 0 2.75
0

0101000
+65 8 -58 8 *
Wi

0101000
+64 0 -57 0 -56 3 +55 7 *
Fa
0  1e-07 3 0

0101000
+54 0 *
Ve
1e-07
25.3 41.1 11.5
0 0

0101101
*
Ve
1e-07
25.3 46.1 11.5
0 0

0101101
*
Ed
 1e-07 1 1 0
1  8 0 0 5
2  15 6 0 0 5
2  16 2 0 0 5
0

0101000
+52 0 -51 0 *
Ed
 1e-07 1 1 0
1  9 0 0 4.5
2  17 6 4 0 4.5
2  18 4 5 0 4.5
0

0101000
+59 4 -52 4 *
Ed
 1e-07 1 1 0
1  10 0 0 4.5
2  19 6 8 0 4.5
2  20 5 5 0 4.5
0

0101000
+58 8 -51 8 *
Wi

0101000
+57 0 -50 0 -49 3 +48 7 *
Fa
0  1e-07 6 0

0101000
+47 0 *
Ed
 1e-07 1 1 0
1  11 0 0 2.75
2  21 2 4 0 2.75
2  22 4 5 0 2.75
0

0101000
+52 4 -69 4 *
Ed
 1e-07 1 1 0
1  12 0 0 2.75
2  23 2 8 0 2.75
2  24 5 5 0 2.75
0

0101000
+51 8 -68 8 *
Wi

0101000
+50 0 -67 0 -45 3 +44 7 *
Fa
0  1e-07 2 0

0101000
+43 0 *
Wi

0101100
+63 0 +56 0 +49 0 +45 0 *
Fa
0  1e-07 4 0

0101000
-41 1 *
Wi

0101100
+62 0 +55 0 +48 0 +44 0 *
Fa
0  1e-07 5 0

0101000
-39 1 *
Sh

0101100
-60 0 -53 0 -46 0 -42 0 +40 9 -38 10 *
So

0100100
-37 0 *
Ve
1e-07
25.3 41.1 0.75
0 0

0101101
*
Ve
1e-07
25.3 46.1 0.749999999999999
0 0

0101101
*
Ed
 1e-07 1 1 0
1  13 0 0 5
2  25 7 0 0 5
2  26 8 0 0 5
0

0101000
+35 0 -34 0 *
Ve
1e-07
29.8 41.1 0.75
0 0

0101101
*
Ve
1e-07
29.8 46.1 0.749999999999999
0 0

0101101
*
Ed
 1e-07 1 1 0
1  14 0 0 5
2  27 7 0 0 5
2  28 9 0 0 5
0

0101000
+32 0 -31 0 *
Ed
 1e-07 1 1 0
1  15 0 0 4.5
2  29 7 4 0 4.5
2  30 10 5 0 4.5
0

0101000
+35 4 -32 4 *
Ed
 1e-07 1 1 0
1  16 0 0 4.5
2  31 7 8 0 4.5
2  32 11 5 0 4.5
0

0101000
+34 8 -31 8 *
Wi

0101000
+33 0 -30 0 -29 3 +28 7 *
Fa
0  1e-07 7 0

0101000
+27 0 *
Ve
1e-07
29.8 41.1 0
0 0

0101101
*
Ve
1e-07
29.8 46.1 -1.11022302462516e-15
0 0

0101101
*
Ed
 1e-07 1 1 0
1  17 0 0 5
2  33 9 0 0 5
2  34 12 0 0 5
0

0101000
+25 0 -24 0 *
Ed
 1e-07 1 1 0
1  18 0 0 0.75
2  35 9 4 0 0.75
2  36 10 5 0 0.75
0

0101000
+32 4 -25 4 *
Ed
 1e-07 1 1 0
1  19 0 0 0.75
2  37 9 8 0 0.75
2  38 11 5 0 0.75
0

0101000
+31 8 -24 8 *
Wi

0101000
+30 0 -23 0 -22 3 +21 7 *
Fa
0  1e-07 9 0

0101000
+20 0 *
Ve
1e-07
25.3 41.1 0
0 0

0101101
*
Ve
1e-07
25.3 46.1 -1.11022302462516e-15
0 0

0101101
*
Ed
 1e-07 1 1 0
1  20 0 0 5
2  39 12 0 0 5
2  40 8 0 0 5
0

0101000
+18 0 -17 0 *
Ed
 1e-07 1 1 0
1  21 0 0 4.5
2  41 12 4 0 4.5
2  42 10 5 0 4.5
0

0101000
+25 4 -18 4 *
Ed
 1e-07 1 1 0
1  22 0 0 4.5
2  43 12 8 0 4.5
2  44 11 5 0 4.5
0

0101000
+24 8 -17 8 *
Wi

0101000
+23 0 -16 0 -15 3 +14 7 *
Fa
0  1e-07 12 0

0101000
+13 0 *
Ed
 1e-07 1 1 0
1  23 0 0 0.75
2  45 8 4 0 0.75
2  46 10 5 0 0.75
0

0101000
+18 4 -35 4 *
Ed
 1e-07 1 1 0
1  24 0 0 0.75
2  47 8 8 0 0.75
2  48 11 5 0 0.75
0

0101000
+17 8 -34 8 *
Wi

0101000
+16 0 -33 0 -11 3 +10 7 *
Fa
0  1e-07 8 0

0101000
+9 0 *
Wi

0101100
+29 0 +22 0 +15 0 +11 0 *
Fa
0  1e-07 10 0

0101000
-7 1 *
Wi

0101100
+28 0 +21 0 +14 0 +10 0 *
Fa
0  1e-07 11 0

0101000
-5 1 *
Sh

0101100
-26 0 -19 0 -12 0 -8 0 +6 9 -4 10 *
So

0100100
+3 0 *
Co

1100000
+36 0 +2 0 *

+1 0 