DBRep_DrawableShape

CASCADE Topology V1, (c) Matra-Datavision
Locations 25
1
              1               0               0               0 
              0               1               0               0 
              0               0               1               0 
1
              1               0               0               0 
              0               1               0               0 
              0               0               1               0 
1
              1               0               0               0 
              0               1               0               0 
              0               0               1               0 
2  2 1 3 -1 0
2  1 -1 3 1 2 -1 0
1
              1               0               0               0 
              0               1               0               0 
              0               0               1               0 
1
              1               0               0               0 
              0               1               0               0 
              0               0               1               0 
2  6 1 7 -1 0
2  7 1 6 -1 0
2  6 -1 0
2  1 -1 3 1 2 -1 7 1 6 -1 0
1
              1               0               0              -0 
              0               1               0              -0 
              0               0               1              -4 
2  6 1 7 -1 12 1 0
2  12 -1 7 1 6 -1 0
2  1 -1 3 1 2 -1 12 -1 7 1 6 -1 0
2  7 -1 2 1 3 -1 0
2  6 1 7 -1 2 1 3 -1 0
2  1 -1 0
2  7 -1 12 1 2 1 3 -1 0
2  6 1 7 -1 12 1 2 1 3 -1 0
1
              1               0               0              -0 
              0              -1               0              -0 
              0               0              -1              -4 
2  21 1 3 -1 0
2  7 -1 12 1 2 1 21 -1 0
2  3 1 21 -1 0
2  1 -1 3 1 21 -1 0
Curve2ds 84
1 0 0 0 -1 
1 0 0 0 -1 
1 4.4000000000000004 0 0 -1 
1 0 0 0 -1 
1 0 0 1 0 
1 0 0 0 1 
1 0 -4 1 0 
1 0 0 0 1 
1 47 0 0 -1 
1 0 0 0 -1 
1 0 0 1 0 
1 0 0 1 0 
1 0 -4 1 0 
1 0 0 1 0 
1 2 0 0 -1 
1 0 0 0 -1 
1 0 0 1 0 
1 0 4.4000000000000004 1 0 
1 0 -4 1 0 
1 0 4.4000000000000004 1 0 
1 47 0 0 1 
1 0 0 1 0 
1 2 4.4000000000000004 0 1 
1 0 0 1 0 
1 47 4.4000000000000004 -1 0 
1 0 0 1 0 
1 2 34.200000000000003 -1 0 
1 0 0 1 0 
1 45 4.4000000000000004 0 1 
1 0 0 1 0 
1 -4 34.200000000000003 0 1 
1 0 0 1 0 
1 45 34.200000000000003 1 0 
1 0 0 1 0 
1 51 50.299999999999997 -1 0 
1 0 0 1 0 
1 51 34.200000000000003 0 1 
1 0 0 1 0 
2 46 45.299999999999997 1 0 0 -1 1.6000000000000001
1 0 -4 1 0 
2 1 45.299999999999997 1 0 0 -1 1.6000000000000001
1 0 -4 1 0 
1 47 0 0 1 
1 0 -4 1 0 
1 2 4.4000000000000004 0 1 
1 0 -4 1 0 
1 47 4.4000000000000004 -1 0 
1 0 -4 1 0 
1 2 34.200000000000003 -1 0 
1 0 -4 1 0 
1 45 4.4000000000000004 0 1 
1 0 -4 1 0 
1 -4 34.200000000000003 0 1 
1 0 -4 1 0 
1 45 34.200000000000003 1 0 
1 0 -4 1 0 
1 51 50.299999999999997 -1 0 
1 0 -4 1 0 
1 51 34.200000000000003 0 1 
1 0 -4 1 0 
2 46 45.299999999999997 1 0 0 -1 1.6000000000000014
1 0 0 1 0 
2 1 45.299999999999997 1 0 0 -1 1.5999999999999996
1 0 0 1 0 
1 4.4000000000000004 0 0 -1 
1 0 0 0 -1 
1 29.800000000000004 0 0 -1 
1 0 0 0 -1 
1 2 0 0 -1 
1 0 0 0 -1 
1 6 0 0 -1 
1 0 0 0 -1 
1 29.800000000000004 0 0 -1 
1 0 0 0 -1 
1 16.099999999999994 0 0 -1 
1 55 0 0 -1 
1 6 0 0 -1 
1 0 0 0 -1 
1 0 0 0 -1 
1 16.099999999999994 0 0 -1 
1 0 0 0 -1 
1 6.2831853071795862 0 0 -1 
1 0 0 0 -1 
1 6.2831853071795862 0 0 -1 
Curves 42
1 4 0 0 -0 -0 -1 
1 4 4.4000000000000004 0 -0 -0 -1 
1 4 0 0 0 1 0 
1 4 0 0 0 1 0 
1 51 0 0 -0 -0 -1 
1 4 0 0 1 0 0 
1 4 0 0 1 0 0 
1 6 4.4000000000000004 0 -0 -0 -1 
1 4 4.4000000000000004 0 1 0 0 
1 4 4.4000000000000004 0 1 0 0 
1 51 0 0 0 1 0 
1 6 4.4000000000000004 0 0 1 0 
1 51 4.4000000000000004 0 -1 0 0 
1 6 34.200000000000003 0 -1 0 0 
1 49 4.4000000000000004 0 0 1 0 
1 0 34.200000000000003 0 0 1 0 
1 49 34.200000000000003 0 1 0 0 
1 55 50.299999999999997 0 -1 0 0 
1 55 34.200000000000003 0 0 1 0 
2 50 45.299999999999997 0 0 0 -1 1 0 0 0 -1 0 1.6000000000000001
2 5 45.299999999999997 0 0 0 -1 1 0 0 0 -1 0 1.6000000000000001
1 51 0 0 0 1 0 
1 6 4.4000000000000004 0 0 1 0 
1 51 4.4000000000000004 0 -1 0 0 
1 6 34.200000000000003 0 -1 0 0 
1 49 4.4000000000000004 0 0 1 0 
1 0 34.200000000000003 0 0 1 0 
1 49 34.200000000000003 0 1 0 0 
1 55 50.299999999999997 0 -1 0 0 
1 55 34.200000000000003 0 0 1 0 
2 50 -45.299999999999997 0 0 0 1 1 0 -0 -0 1 0 1.6000000000000001
2 5 -45.299999999999997 0 0 0 1 1 0 -0 -0 1 0 1.6000000000000001
1 51 4.4000000000000004 0 -0 -0 -1 
1 6 34.200000000000003 0 -0 -0 -1 
1 49 4.4000000000000004 0 -0 -0 -1 
1 0 34.200000000000003 0 -0 -0 -1 
1 49 34.200000000000003 0 -0 -0 -1 
1 0 50.299999999999997 0 -0 -0 -1 
1 55 34.200000000000003 0 -0 -0 -1 
1 55 50.299999999999997 0 -0 -0 -1 
1 51.600000000000001 45.299999999999997 -4 0 0 1 
1 6.5999999999999996 45.299999999999997 -4 0 0 1 
Polygon3D 0
PolygonOnTriangulations 0
Surfaces 16
1 4 0 0 1 0 0 -0 1 0 0 -0 1 
1 4 0 0 0 -1 0 1 0 0 -0 0 1 
1 4 4.4000000000000004 0 0 -1 0 1 0 0 -0 0 1 
1 4 0 0 0 0 1 1 0 -0 -0 1 0 
1 4 0 0 0 0 1 1 0 -0 -0 1 0 
1 51 0 0 1 0 0 -0 1 0 0 -0 1 
1 6 4.4000000000000004 0 1 0 0 -0 1 0 0 -0 1 
1 51 4.4000000000000004 0 0 1 -0 -1 0 0 0 0 1 
1 6 34.200000000000003 0 0 1 -0 -1 0 0 0 0 1 
1 49 4.4000000000000004 0 1 0 0 -0 1 0 0 -0 1 
1 0 34.200000000000003 0 1 0 0 -0 1 0 0 -0 1 
1 49 34.200000000000003 0 0 -1 0 1 0 0 -0 0 1 
1 55 50.299999999999997 0 0 1 -0 -1 0 0 0 0 1 
1 55 34.200000000000003 0 1 0 0 -0 1 0 0 -0 1 
2 50 45.299999999999997 -4 0 0 -1 1 0 0 0 -1 0 1.6000000000000001
2 5 45.299999999999997 -4 0 0 -1 1 0 0 0 -1 0 1.6000000000000001
Triangulations 0

TShapes 108
Ve
1e-07
4 0 0
0 0

0101101
*
Ve
1e-07
4 0 -4
0 0

0101101
*
Ed
 1e-07 1 1 0
1  1 0 0 4
2  1 1 0 0 4
2  2 2 0 0 4
0

0101000
+108 5 -107 5 *
Ve
1e-07
4 4.4 0
0 0

0101101
*
Ve
1e-07
4 4.4 -4
0 0

0101101
*
Ed
 1e-07 1 1 0
1  2 0 0 4
2  3 1 0 0 4
2  4 3 0 0 4
0

0101000
+105 5 -104 5 *
Ed
 1e-07 1 1 0
1  3 0 0 4.4
2  5 1 9 0 4.4
2  6 4 10 0 4.4
0

0101000
+108 11 -105 11 *
Ed
 1e-07 1 1 0
1  4 0 0 4.4
2  7 1 14 0 4.4
2  8 5 10 0 4.4
0

0101000
+107 15 -104 15 *
Wi

0101000
+106 0 -103 0 -102 8 +101 13 *
Fa
0  1e-07 1 0

0101000
+100 0 *
Ve
1e-07
51 0 0
0 0

0101101
*
Ve
1e-07
51 0 -4
0 0

0101101
*
Ed
 1e-07 1 1 0
1  5 0 0 4
2  9 2 0 0 4
2  10 6 0 0 4
0

0101000
+98 5 -97 5 *
Ed
 1e-07 1 1 0
1  6 0 0 47
2  11 2 9 0 47
2  12 4 10 0 47
0

0101000
+108 11 -98 11 *
Ed
 1e-07 1 1 0
1  7 0 0 47
2  13 2 14 0 47
2  14 5 10 0 47
0

0101000
+107 15 -97 15 *
Wi

0101000
+106 0 -96 0 -95 8 +94 13 *
Fa
0  1e-07 2 0

0101000
+93 0 *
Ve
1e-07
6 4.4 0
0 0

0101101
*
Ve
1e-07
6 4.4 -4
0 0

0101101
*
Ed
 1e-07 1 1 0
1  8 0 0 4
2  15 3 0 0 4
2  16 7 0 0 4
0

0101000
+91 5 -90 5 *
Ed
 1e-07 1 1 0
1  9 0 0 2
2  17 3 9 0 2
2  18 4 10 0 2
0

0101000
+105 11 -91 11 *
Ed
 1e-07 1 1 0
1  10 0 0 2
2  19 3 14 0 2
2  20 5 10 0 2
0

0101000
+104 15 -90 15 *
Wi

0101000
+103 0 -89 0 -88 8 +87 13 *
Fa
0  1e-07 3 0

0101000
+86 0 *
Ve
1e-07
51 4.4 0
0 0

0101101
*
Ed
 1e-07 1 1 0
1  11 0 0 4.4
2  21 4 10 0 4.4
2  22 6 9 0 4.4
0

0101000
+98 11 -84 11 *
Ve
1e-07
6 34.2 0
0 0

0101101
*
Ed
 1e-07 1 1 0
1  12 0 0 29.8
2  23 4 10 0 29.8
2  24 7 9 0 29.8
0

0101000
+91 11 -82 11 *
Ve
1e-07
49 4.4 0
0 0

0101101
*
Ed
 1e-07 1 1 0
1  13 0 0 2
2  25 4 10 0 2
2  26 8 9 0 2
0

0101000
+84 11 -80 11 *
Ve
1e-07
0 34.2 0
0 0

0101101
*
Ed
 1e-07 1 1 0
1  14 0 0 6
2  27 4 10 0 6
2  28 9 9 0 6
0

0101000
+82 11 -78 11 *
Ve
1e-07
49 34.2 0
0 0

0101101
*
Ed
 1e-07 1 1 0
1  15 0 0 29.8
2  29 4 10 0 29.8
2  30 10 9 0 29.8
0

0101000
+80 11 -76 11 *
Ve
1e-07
0 50.3 0
0 0

0101101
*
Ed
 1e-07 1 1 0
1  16 0 0 16.1
2  31 4 10 0 16.1
2  32 11 9 0 16.1
0

0101000
+78 11 -74 11 *
Ve
1e-07
55 34.2 0
0 0

0101101
*
Ed
 1e-07 1 1 0
1  17 0 0 6
2  33 4 10 0 6
2  34 12 9 0 6
0

0101000
+76 11 -72 11 *
Ve
1e-07
55 50.3 0
0 0

0101101
*
Ed
 1e-07 1 1 0
1  18 0 0 55
2  35 4 10 0 55
2  36 13 9 0 55
0

0101000
+70 11 -74 11 *
Ed
 1e-07 1 1 0
1  19 0 0 16.1
2  37 4 10 0 16.1
2  38 14 9 0 16.1
0

0101000
+72 11 -70 11 *
Wi

0101000
-102 17 +95 17 -88 17 +83 17 -81 17 +79 17 -77 17 +75 17 -73 17 +71 17 
+69 17 +68 17 *
Ve
2.00001e-07
51.6 45.3 0
0 0

0101101
*
Ed
 1e-07 1 1 0
1  20 0 0 6.28318530717959
2  39 4 16 0 6.28318530717959
2  40 15 0 0 6.28318530717959
0

0101100
+66 18 -66 18 *
Wi

0101000
+65 0 *
Ve
2.00001e-07
6.6 45.3 0
0 0

0101101
*
Ed
 1e-07 1 1 0
1  21 0 0 6.28318530717959
2  41 4 16 0 6.28318530717959
2  42 16 0 0 6.28318530717959
0

0101100
+63 18 -63 18 *
Wi

0101000
+62 0 *
Fa
0  1e-07 4 16

0101000
+67 0 +64 0 +61 0 *
Ve
1e-07
51 4.4 -4
0 0

0101101
*
Ed
 1e-07 1 1 0
1  22 0 0 4.4
2  43 5 10 0 4.4
2  44 6 14 0 4.4
0

0101000
+97 15 -59 15 *
Ve
1e-07
6 34.2 -4
0 0

0101101
*
Ed
 1e-07 1 1 0
1  23 0 0 29.8
2  45 5 10 0 29.8
2  46 7 14 0 29.8
0

0101000
+90 15 -57 15 *
Ve
1e-07
49 4.4 -4
0 0

0101101
*
Ed
 1e-07 1 1 0
1  24 0 0 2
2  47 5 10 0 2
2  48 8 14 0 2
0

0101000
+59 15 -55 15 *
Ve
1e-07
0 34.2 -4
0 0

0101101
*
Ed
 1e-07 1 1 0
1  25 0 0 6
2  49 5 10 0 6
2  50 9 14 0 6
0

0101000
+57 15 -53 15 *
Ve
1e-07
49 34.2 -4
0 0

0101101
*
Ed
 1e-07 1 1 0
1  26 0 0 29.8
2  51 5 10 0 29.8
2  52 10 14 0 29.8
0

0101000
+55 15 -51 15 *
Ve
1e-07
0 50.3 -4
0 0

0101101
*
Ed
 1e-07 1 1 0
1  27 0 0 16.1
2  53 5 10 0 16.1
2  54 11 14 0 16.1
0

0101000
+53 15 -49 15 *
Ve
1e-07
55 34.2 -4
0 0

0101101
*
Ed
 1e-07 1 1 0
1  28 0 0 6
2  55 5 10 0 6
2  56 12 14 0 6
0

0101000
+51 15 -47 15 *
Ve
1e-07
55 50.3 -4
0 0

0101101
*
Ed
 1e-07 1 1 0
1  29 0 0 55
2  57 5 10 0 55
2  58 13 14 0 55
0

0101000
+45 15 -49 15 *
Ed
 1e-07 1 1 0
1  30 0 0 16.1
2  59 5 10 0 16.1
2  60 14 14 0 16.1
0

0101000
+47 15 -45 15 *
Wi

0101000
-101 20 +94 20 -87 20 +58 20 -56 20 +54 20 -52 20 +50 20 -48 20 +46 20 
+44 20 +43 20 *
Ve
1e-07
51.6 45.3 -4
0 0

0101101
*
Ed
 1e-07 1 1 0
1  31 0 0 6.28318530717959
2  61 5 23 0 6.28318530717959
2  62 15 24 0 6.28318530717959
0

0101100
+41 25 -41 25 *
Wi

0101000
+40 22 *
Ve
1e-07
6.6 45.3 -4
0 0

0101101
*
Ed
 1e-07 1 1 0
1  32 0 0 6.28318530717959
2  63 5 23 0 6.28318530717959
2  64 16 24 0 6.28318530717959
0

0101100
+38 25 -38 25 *
Wi

0101000
+37 22 *
Fa
0  1e-07 5 19

0101000
+42 0 +39 0 +36 0 *
Ed
 1e-07 1 1 0
1  33 0 0 4
2  65 6 0 0 4
2  66 8 0 0 4
0

0101000
+84 5 -59 5 *
Wi

0101000
+96 0 -34 0 -83 8 +58 13 *
Fa
0  1e-07 6 0

0101000
+33 0 *
Ed
 1e-07 1 1 0
1  34 0 0 4
2  67 7 0 0 4
2  68 9 0 0 4
0

0101000
+82 5 -57 5 *
Wi

0101000
+89 0 -31 0 -81 8 +56 13 *
Fa
0  1e-07 7 0

0101000
+30 0 *
Ed
 1e-07 1 1 0
1  35 0 0 4
2  69 8 0 0 4
2  70 10 0 0 4
0

0101000
+80 5 -55 5 *
Wi

0101000
+34 0 -28 0 -79 8 +54 13 *
Fa
0  1e-07 8 0

0101000
+27 0 *
Ed
 1e-07 1 1 0
1  36 0 0 4
2  71 9 0 0 4
2  72 11 0 0 4
0

0101000
+78 5 -53 5 *
Wi

0101000
+31 0 -25 0 -77 8 +52 13 *
Fa
0  1e-07 9 0

0101000
+24 0 *
Ed
 1e-07 1 1 0
1  37 0 0 4
2  73 10 0 0 4
2  74 12 0 0 4
0

0101000
+76 5 -51 5 *
Wi

0101000
+28 0 -22 0 -75 8 +50 13 *
Fa
0  1e-07 10 0

0101000
+21 0 *
Ed
 1e-07 1 1 0
1  38 0 0 4
2  75 11 0 0 4
2  76 13 0 0 4
0

0101000
+74 5 -49 5 *
Wi

0101000
+25 0 -19 0 -73 8 +48 13 *
Fa
0  1e-07 11 0

0101000
+18 0 *
Ed
 1e-07 1 1 0
1  39 0 0 4
2  77 12 0 0 4
2  78 14 0 0 4
0

0101000
+72 5 -47 5 *
Wi

0101000
+22 0 -16 0 -71 8 +46 13 *
Fa
0  1e-07 12 0

0101000
+15 0 *
Ed
 1e-07 1 1 0
1  40 0 0 4
2  79 13 0 0 4
2  80 14 0 0 4
0

0101000
+70 5 -45 5 *
Wi

0101000
+13 0 -19 0 -69 8 +44 13 *
Fa
0  1e-07 13 0

0101000
+12 0 *
Wi

0101000
+16 0 -13 0 -68 8 +43 13 *
Fa
0  1e-07 14 0

0101000
+10 0 *
Ed
 1e-07 1 1 0
1  41 0 0 4
3  81 82CN 15 0 0 4
0

0101000
+41 18 -66 18 *
Wi

0101000
-40 22 -8 0 +65 0 +8 0 *
Fa
0  1e-07 15 0

0101000
+7 0 *
Ed
 1e-07 1 1 0
1  42 0 0 4
3  83 84CN 16 0 0 4
0

0101000
+38 18 -63 18 *
Wi

0101000
-37 22 -5 0 +62 0 +5 0 *
Fa
0  1e-07 16 0

0101000
+4 0 *
Sh

0101100
-99 4 +92 4 -85 4 +60 0 -35 0 +32 4 -29 4 +26 4 -23 4 +20 4 
-17 4 +14 4 +11 4 +9 4 -6 0 -3 0 *
So

0100000
+2 0 *

+1 1 