DBRep_DrawableShape

CASCADE Topology V1, (c) Matra-Datavision
Locations 14
1
              1               0               0               0 
              0               1               0               0 
              0               0               1               0 
2  1 -1 0
1
              1               0               0               0 
              0               1               0               0 
              0               0               1               0 
1
              1               0               0               0 
              0               1               0               0 
              0               0               1               0 
2  3 1 4 -1 0
2  4 1 3 -1 0
2  3 -1 0
2  1 -1 4 1 3 -1 0
1
              1               0               0               0 
              0               1               0               0 
              0               0               1              18 
2  3 1 4 -1 9 1 0
2  9 -1 4 1 3 -1 0
2  1 -1 9 -1 4 1 3 -1 0
2  4 -1 0
2  4 -1 9 1 0
Curve2ds 48
1 0 -0 0 -1 
1 3.0961224411737809 0 0 -1 
1 5.8499999999999517 0 0 -1 
1 0 0 0 -1 
1 0 -0 1 0 
1 0 0 -1 0 
1 0 -18 1 0 
1 0 0 -1 0 
1 16.100000000002169 0 0 -1 
1 0 0 0 -1 
1 0 0 1 0 
1 -5.8499999999999517 0 0 1 
1 0 -18 1 0 
1 -5.8499999999999517 0 0 1 
1 55 0 0 -1 
1 0 0 0 -1 
1 0 0 1 0 
1 -5.8499999999999517 16.100000000002169 1 0 
1 0 -18 1 0 
1 -5.8499999999999517 16.100000000002169 1 0 
1 16.100000000003881 0 0 -1 
1 0 -0 0 -1 
1 0 0 1 0 
1 49.150000000000048 16.100000000002169 0 -1 
1 0 -18 1 0 
1 49.150000000000048 16.100000000002169 0 -1 
1 5.8499999999999162 0 0 -1 
1 0.045470212415233323 0 0 -1 
1 0 -0 1 0 
1 49.150000000000048 -1.7124079931818414e-12 -1 0 
1 0 -18 1 0 
1 49.150000000000048 -1.7124079931818414e-12 -1 0 
1 1.5707963267948966 0 0 -1 
1 38.904547804832674 0 0 -1 
1 0 0 1 0 
2 41.102273902416364 -0.099999999997834266 1 0 -0 1 2.2000000000000028
1 0 -18 1 0 
2 41.102273902416364 -0.099999999997834266 1 0 -0 1 2.2000000000000028
1 0 0 0 -1 
1 1.5707963267948966 0 0 -1 
1 0 0 1 0 
1 2.1977260975836899 2.1000000000021686 1 0 
1 0 -18 1 0 
1 2.1977260975836899 2.1000000000021686 1 0 
1 0 0 1 0 
2 2.1977260975836899 -0.099999999997834266 1 0 -0 1 2.1999999999999993
1 0 -18 1 0 
2 2.1977260975836899 -0.099999999997834266 1 0 -0 1 2.1999999999999993
Curves 24
1 5.8499999999999517 34.199999999997829 0 0 0 1 
1 0 34.199999999997829 0 0 0 1 
1 5.8499999999999517 34.199999999997829 0 -1 0 0 
1 5.8499999999999517 34.199999999997829 0 -1 0 0 
1 0 50.299999999999997 0 0 0 1 
1 0 34.199999999997829 0 0 1 0 
1 0 34.199999999997829 0 0 1 0 
1 55 50.299999999999997 0 0 0 1 
1 0 50.299999999999997 0 1 0 0 
1 0 50.299999999999997 0 1 0 0 
1 55 34.199999999996116 0 0 0 1 
1 55 50.299999999999997 0 0 -1 0 
1 55 50.299999999999997 0 0 -1 0 
1 49.150000000000084 34.199999999996116 0 0 0 1 
1 55 34.199999999996116 0 -1 0 0 
1 55 34.199999999996116 0 -1 0 0 
1 46.952273902416316 36.299999999999997 0 0 0 1 
2 46.952273902416316 34.099999999999994 0 0 0 1 1 0 -0 -0 1 0 2.2000000000000002
2 46.952273902416316 34.099999999999994 0 0 0 1 1 0 -0 -0 1 0 2.2000000000000002
1 8.0477260975836415 36.299999999999997 0 0 0 1 
1 8.0477260975836415 36.299999999999997 0 1 0 0 
1 8.0477260975836415 36.299999999999997 0 1 0 0 
2 8.0477260975836415 34.099999999999994 0 0 0 1 1 0 -0 -0 1 0 2.2000000000000002
2 8.0477260975836415 34.099999999999994 0 0 0 1 1 0 -0 -0 1 0 2.2000000000000002
Polygon3D 0
PolygonOnTriangulations 0
Surfaces 10
1 5.8499999999999517 34.199999999997829 0 0 -1 0 -1 0 0 -0 -0 -1 
2 8.0477260975836415 34.099999999999994 0 -0 -0 -1 1 0 0 -0 1 -0 2.2000000000000002
1 0 34.199999999997829 0 -1 0 0 0 1 0 0 0 -1 
1 5.8499999999999517 34.199999999997829 0 0 0 1 1 0 -0 -0 1 0 
1 5.8499999999999517 34.199999999997829 0 0 0 1 1 0 -0 -0 1 0 
1 0 50.299999999999997 0 0 1 0 1 0 0 0 0 -1 
1 55 50.299999999999997 0 1 0 -0 0 -1 0 0 -0 -1 
1 55 34.199999999996116 0 0 -1 0 -1 0 0 -0 -0 -1 
2 46.952273902416316 34.099999999999994 0 -0 -0 -1 1 0 0 -0 1 -0 2.2000000000000002
1 8.0477260975836415 36.299999999999997 0 0 1 0 1 0 0 0 0 -1 
Triangulations 0

TShapes 62
Ve
1.00001000304068e-07
5.84999999999995 34.1999999999978 0
0 0

0101101
*
Ve
1.00001000304068e-07
5.84999999999995 34.1999999999978 18
0 0

0101101
*
Ed
 1e-07 1 1 0
1  1 0 0 18
2  1 1 0 0 18
2  2 2 0 0 18
0

0101000
+62 2 -61 2 *
Ve
1e-07
0 34.1999999999978 0
0 0

0101101
*
Ve
1e-07
0 34.1999999999978 18
0 0

0101101
*
Ed
 1e-07 1 1 0
1  2 0 0 18
2  3 1 0 0 18
2  4 3 0 0 18
0

0101000
+59 2 -58 2 *
Ed
 1e-07 1 1 0
1  3 0 0 5.84999999999995
2  5 1 6 0 5.84999999999995
2  6 4 7 0 5.84999999999995
0

0101000
+62 8 -59 8 *
Ed
 1e-07 1 1 0
1  4 0 0 5.84999999999995
2  7 1 11 0 5.84999999999995
2  8 5 7 0 5.84999999999995
0

0101000
+61 12 -58 12 *
Wi

0101000
+60 0 -57 0 -56 5 +55 10 *
Fa
0  1e-07 1 0

0101000
+54 0 *
Ve
1e-07
0 50.3 0
0 0

0101101
*
Ve
1e-07
0 50.3 18
0 0

0101101
*
Ed
 1e-07 1 1 0
1  5 0 0 18
2  9 3 0 0 18
2  10 6 0 0 18
0

0101000
+52 2 -51 2 *
Ed
 1e-07 1 1 0
1  6 0 0 16.1000000000022
2  11 3 6 0 16.1000000000022
2  12 4 7 0 16.1000000000022
0

0101000
+59 8 -52 8 *
Ed
 1e-07 1 1 0
1  7 0 0 16.1000000000022
2  13 3 11 0 16.1000000000022
2  14 5 7 0 16.1000000000022
0

0101000
+58 12 -51 12 *
Wi

0101000
+57 0 -50 0 -49 5 +48 10 *
Fa
0  1e-07 3 0

0101000
+47 0 *
Ve
1e-07
55 50.3 0
0 0

0101101
*
Ve
1e-07
55 50.3 18
0 0

0101101
*
Ed
 1e-07 1 1 0
1  8 0 0 18
2  15 6 0 0 18
2  16 7 0 0 18
0

0101000
+45 2 -44 2 *
Ed
 1e-07 1 1 0
1  9 0 0 55
2  17 6 6 0 55
2  18 4 7 0 55
0

0101000
+52 8 -45 8 *
Ed
 1e-07 1 1 0
1  10 0 0 55
2  19 6 11 0 55
2  20 5 7 0 55
0

0101000
+51 12 -44 12 *
Wi

0101000
+50 0 -43 0 -42 5 +41 10 *
Fa
0  1e-07 6 0

0101000
+40 0 *
Ve
1e-07
55 34.1999999999961 0
0 0

0101101
*
Ve
1e-07
55 34.1999999999961 18
0 0

0101101
*
Ed
 1e-07 1 1 0
1  11 0 0 18
2  21 7 0 0 18
2  22 8 0 0 18
0

0101000
+38 2 -37 2 *
Ed
 1e-07 1 1 0
1  12 0 0 16.1000000000039
2  23 7 6 0 16.1000000000039
2  24 4 7 0 16.1000000000039
0

0101000
+45 8 -38 8 *
Ed
 1e-07 1 1 0
1  13 0 0 16.1000000000039
2  25 7 11 0 16.1000000000039
2  26 5 7 0 16.1000000000039
0

0101000
+44 12 -37 12 *
Wi

0101000
+43 0 -36 0 -35 5 +34 10 *
Fa
0  1e-07 7 0

0101000
+33 0 *
Ve
1e-07
49.1500000000001 34.1999999999961 0
0 0

0101101
*
Ve
1e-07
49.1500000000001 34.1999999999961 18
0 0

0101101
*
Ed
 1e-07 1 1 0
1  14 0 0 18
2  27 8 0 0 18
2  28 9 0 0 18
0

0101000
+31 2 -30 2 *
Ed
 1e-07 1 1 0
1  15 0 0 5.84999999999992
2  29 8 6 0 5.84999999999992
2  30 4 7 0 5.84999999999992
0

0101000
+38 8 -31 8 *
Ed
 1e-07 1 1 0
1  16 0 0 5.84999999999992
2  31 8 11 0 5.84999999999992
2  32 5 7 0 5.84999999999992
0

0101000
+37 12 -30 12 *
Wi

0101000
+36 0 -29 0 -28 5 +27 10 *
Fa
0  1e-07 8 0

0101000
+26 0 *
Ve
1e-07
46.9522739024163 36.3 0
0 0

0101101
*
Ve
1e-07
46.9522739024163 36.3 18
0 0

0101101
*
Ed
 1e-07 1 1 0
1  17 0 0 18
2  33 9 0 0 18
2  34 10 0 0 18
4 G1 9 0 10 0
0

0101000
+24 2 -23 2 *
Ed
 1e-07 1 1 0
1  18 0 0.0454702124152333 1.5707963267949
2  35 9 6 0.0454702124152333 1.5707963267949
2  36 4 7 0.0454702124152333 1.5707963267949
0

0101000
+31 8 -24 8 *
Ed
 1e-07 1 1 0
1  19 0 0.0454702124152333 1.5707963267949
2  37 9 11 0.0454702124152333 1.5707963267949
2  38 5 7 0.0454702124152333 1.5707963267949
0

0101000
+30 12 -23 12 *
Wi

0101000
+29 0 -22 0 -21 5 +20 10 *
Fa
0  1e-07 9 0

0101000
+19 0 *
Ve
1e-07
8.04772609758364 36.3 0
0 0

0101101
*
Ve
1e-07
8.04772609758364 36.3 18
0 0

0101101
*
Ed
 1e-07 1 1 0
1  20 0 0 18
2  39 10 0 0 18
2  40 2 0 0 18
4 G1 10 0 2 0
0

0101000
+17 2 -16 2 *
Ed
 1e-07 1 1 0
1  21 0 0 38.9045478048327
2  41 10 6 0 38.9045478048327
2  42 4 7 0 38.9045478048327
0

0101000
+17 8 -24 8 *
Ed
 1e-07 1 1 0
1  22 0 0 38.9045478048327
2  43 10 11 0 38.9045478048327
2  44 5 7 0 38.9045478048327
0

0101000
+16 12 -23 12 *
Wi

0101000
+15 0 -22 0 -14 5 +13 10 *
Fa
0  1e-07 10 0

0101000
+12 0 *
Ed
 1e-07 1 1 0
1  23 0 1.5707963267949 3.09612244117378
2  45 2 6 1.5707963267949 3.09612244117378
2  46 4 7 1.5707963267949 3.09612244117378
0

0101000
+17 8 -62 8 *
Ed
 1e-07 1 1 0
1  24 0 1.5707963267949 3.09612244117378
2  47 2 11 1.5707963267949 3.09612244117378
2  48 5 7 1.5707963267949 3.09612244117378
0

0101000
+16 12 -61 12 *
Wi

0101000
+15 0 -60 0 -10 5 +9 10 *
Fa
0  1e-07 2 0

0101000
+8 0 *
Wi

0101100
+56 0 +49 0 +42 0 +35 0 +28 0 +21 0 -14 0 +10 0 *
Fa
0  1e-07 4 0

0101000
-6 3 *
Wi

0101100
+55 0 +48 0 +41 0 +34 0 +27 0 +20 0 -13 0 +9 0 *
Fa
0  1e-07 5 0

0101000
-4 3 *
Sh

0101100
-53 0 -46 0 -39 0 -32 0 -25 0 -18 0 +11 0 -7 0 +5 13 -3 14 
*
So

1100100
-2 0 *

+1 1 