DBRep_DrawableShape

CASCADE Topology V1, (c) Matra-Datavision
Locations 10
1
              1              -0               0              -0 
              0 2.22044604925031e-16              -1            36.3 
              0               1 2.22044604925031e-16               0 
1
              1               0               0               0 
              0               1               0               0 
              0               0               1               0 
2  1 1 2 -1 0
2  2 1 1 -1 0
2  1 -1 0
1
              1               0               0               0 
              0               1               0             4.8 
              0               0               1 -1.06581410364015e-15 
2  1 1 2 -1 6 1 0
2  6 -1 2 1 1 -1 0
2  2 -1 0
2  2 -1 6 1 0
Curve2ds 24
1 0 0 0 -1 
1 11.5 2.55351295663786e-15 0 -1 
1 28.499999999999996 0 0 -1 
1 0 0 0 -1 
1 0 0 1 0 
1 0 0 0 1 
1 0 -4.7999999999999972 1 0 
1 0 0 0 1 
1 11.5 -2.55351295663786e-15 0 -1 
1 0 0 0 -1 
1 0 0 1 0 
1 0 28.499999999999996 1 0 
1 7.1054273576010082e-16 -4.7999999999999972 1 0 
1 0 28.499999999999996 1 0 
1 28.499999999999996 0 0 -1 
1 0 0 0 -1 
1 0 0 1 0 
1 11.5 28.499999999999996 0 -1 
1 0 -4.7999999999999972 1 0 
1 11.5 28.499999999999996 0 -1 
1 0 0 1 0 
1 11.5 0 -1 0 
1 -5.9164567891575885e-31 -4.7999999999999972 1 0 
1 11.5 0 -1 0 
Curves 12
1 8.8000000000000007 36.299999999999997 11.5 0 1 -2.2204460492503131e-16 
1 37.299999999999997 36.299999999999997 11.5 0 1 -2.2204460492503131e-16 
1 8.8000000000000007 11.5 0 1 0 0 
1 8.8000000000000007 11.5 0 1 0 0 
1 37.299999999999997 36.299999999999997 0 0 1 -2.2204460492503131e-16 
1 37.299999999999997 11.5 0 0 -1 0 
1 37.299999999999997 11.5 0 0 -1 0 
1 8.8000000000000007 36.299999999999997 0 0 1 -2.2204460492503131e-16 
1 37.299999999999997 0 0 -1 0 0 
1 37.299999999999997 0 0 -1 0 0 
1 8.8000000000000007 0 0 0 1 0 
1 8.8000000000000007 0 0 0 1 0 
Polygon3D 0
PolygonOnTriangulations 0
Surfaces 6
1 8.8000000000000007 36.299999999999997 11.5 0 -2.2204460492503131e-16 -1 1 0 0 0 -1 2.2204460492503131e-16 
1 8.8000000000000007 36.299999999999997 0 1 -0 0 0 2.2204460492503131e-16 1 -0 -1 2.2204460492503131e-16 
1 37.299999999999997 36.299999999999997 11.5 -1 0 -0 0 -2.2204460492503131e-16 -1 -0 -1 2.2204460492503131e-16 
1 8.8000000000000007 36.299999999999997 11.5 0 -1 0 0 -0 -1 1 0 0 
1 8.8000000000000007 36.299999999999997 11.5 0 -1 0 0 -0 -1 1 0 0 
1 37.299999999999997 36.299999999999997 0 0 2.2204460492503131e-16 1 -1 0 0 0 -1 2.2204460492503131e-16 
Triangulations 0

TShapes 34
Ve
1e-07
8.8 36.3 11.5
0 0

0101101
*
Ve
1e-07
8.8 41.1 11.5
0 0

0101101
*
Ed
 1e-07 1 1 0
1  1 0 0 4.8
2  1 1 0 0 4.8
2  2 2 0 0 4.8
0

0101000
+34 0 -33 0 *
Ve
1e-07
37.3 36.3 11.5
0 0

0101101
*
Ve
1e-07
37.3 41.1 11.5
0 0

0101101
*
Ed
 1e-07 1 1 0
1  2 0 0 4.8
2  3 1 0 0 4.8
2  4 3 0 0 4.8
0

0101000
+31 0 -30 0 *
Ed
 1e-07 1 1 0
1  3 0 0 28.5
2  5 1 4 0 28.5
2  6 4 5 0 28.5
0

0101000
+34 4 -31 4 *
Ed
 1e-07 1 1 0
1  4 0 0 28.5
2  7 1 8 0 28.5
2  8 5 5 0 28.5
0

0101000
+33 8 -30 8 *
Wi

0101000
+32 0 -29 0 -28 3 +27 7 *
Fa
0  1e-07 1 0

0101000
+26 0 *
Ve
1e-07
37.3 36.3 0
0 0

0101101
*
Ve
1e-07
37.3 41.1 -1.06581410364015e-15
0 0

0101101
*
Ed
 1e-07 1 1 0
1  5 0 0 4.8
2  9 3 0 0 4.8
2  10 6 0 0 4.8
0

0101000
+24 0 -23 0 *
Ed
 1e-07 1 1 0
1  6 0 0 11.5
2  11 3 4 0 11.5
2  12 4 5 0 11.5
0

0101000
+31 4 -24 4 *
Ed
 1e-07 1 1 0
1  7 0 0 11.5
2  13 3 8 0 11.5
2  14 5 5 0 11.5
0

0101000
+30 8 -23 8 *
Wi

0101000
+29 0 -22 0 -21 3 +20 7 *
Fa
0  1e-07 3 0

0101000
+19 0 *
Ve
1e-07
8.8 36.3 0
0 0

0101101
*
Ve
1e-07
8.8 41.1 -1.06581410364015e-15
0 0

0101101
*
Ed
 1e-07 1 1 0
1  8 0 0 4.8
2  15 6 0 0 4.8
2  16 2 0 0 4.8
0

0101000
+17 0 -16 0 *
Ed
 1e-07 1 1 0
1  9 0 0 28.5
2  17 6 4 0 28.5
2  18 4 5 0 28.5
0

0101000
+24 4 -17 4 *
Ed
 1e-07 1 1 0
1  10 0 0 28.5
2  19 6 8 0 28.5
2  20 5 5 0 28.5
0

0101000
+23 8 -16 8 *
Wi

0101000
+22 0 -15 0 -14 3 +13 7 *
Fa
0  1e-07 6 0

0101000
+12 0 *
Ed
 1e-07 1 1 0
1  11 0 0 11.5
2  21 2 4 0 11.5
2  22 4 5 0 11.5
0

0101000
+17 4 -34 4 *
Ed
 1e-07 1 1 0
1  12 0 0 11.5
2  23 2 8 0 11.5
2  24 5 5 0 11.5
0

0101000
+16 8 -33 8 *
Wi

0101000
+15 0 -32 0 -10 3 +9 7 *
Fa
0  1e-07 2 0

0101000
+8 0 *
Wi

0101100
+28 0 +21 0 +14 0 +10 0 *
Fa
0  1e-07 4 0

0101000
-6 1 *
Wi

0101100
+27 0 +20 0 +13 0 +9 0 *
Fa
0  1e-07 5 0

0101000
-4 1 *
Sh

0101100
-25 0 -18 0 -11 0 -7 0 +5 9 -3 10 *
So

1100100
+2 0 *

+1 0 