DBRep_DrawableShape

CASCADE Topology V1, (c) Matra-Datavision
Locations 62
1
              1               0               0               0 
              0               1               0               0 
              0               0               1               0 
1
              1               0               0               0 
              0               1               0               0 
              0               0               1               0 
1
              1               0               0               0 
              0               1               0               0 
              0               0               1               0 
2  2 1 3 1 0
1
              1               0               0               0 
              0               1               0               0 
              0               0               1               0 
1
              1               0               0              -0 
              0               1               0              -0 
              0               0               1              -4 
1
              1               0               0               0 
              0               1               0               0 
              0               0               1               0 
1
              1               0               0               0 
              0               1               0               0 
              0               0               1               0 
1
              1               0               0               0 
              0               1               0               0 
              0               0               1               0 
1
              1               0               0               0 
              0               1               0               0 
              0               0               1               0 
1
              1               0               0               0 
              0               1               0               0 
              0               0               1               0 
1
              1               0               0               0 
              0               1               0               0 
              0               0               1               0 
2  5 -1 6 1 7 1 8 -1 9 1 10 -1 11 1 12 -1 0
2  3 -1 2 -1 0
1
              1               0               0               0 
              0               1               0               0 
              0               0               1               0 
2  15 1 5 -1 6 1 7 1 8 -1 9 1 10 -1 11 1 12 -1 2 1 3 1 0
2  15 -1 0
2  6 -1 5 1 15 -1 0
2  1 -1 3 -1 2 -1 12 1 11 -1 10 1 9 -1 8 1 7 -1 6 -1 5 1 15 -1 0
2  5 -1 6 1 7 1 8 -1 9 1 10 -1 11 1 12 -1 2 1 3 1 0
2  1 -1 0
2  1 -1 3 -1 2 -1 0
2  2 -1 0
2  5 -1 6 1 7 1 8 -1 9 1 10 -1 11 1 12 -1 2 1 0
2  1 -1 3 -1 0
2  7 1 8 -1 9 1 10 -1 11 1 12 -1 2 1 3 1 0
2  3 -1 2 -1 12 1 11 -1 10 1 9 -1 8 1 7 -1 0
2  15 1 5 -1 7 1 8 -1 9 1 10 -1 11 1 12 -1 2 1 3 1 0
2  5 1 15 -1 0
2  1 -1 3 -1 2 -1 12 1 11 -1 10 1 9 -1 8 1 7 -1 5 1 15 -1 0
2  5 -1 7 1 8 -1 9 1 10 -1 11 1 12 -1 2 1 3 1 0
2  7 1 8 -1 9 1 10 -1 11 1 12 -1 0
2  1 -1 3 -1 2 -1 12 1 11 -1 10 1 9 -1 8 1 7 -1 0
1
              1               0               0              -0 
              0               1               0               0 
              0               0               1              -0 
2  34 1 12 -1 0
2  12 1 34 -1 0
2  5 -1 7 1 8 -1 9 1 10 -1 11 1 34 -1 0
2  1 -1 3 -1 2 -1 12 1 34 -1 0
2  15 1 5 -1 0
2  15 1 5 -1 6 1 0
2  9 1 10 -1 11 1 12 -1 2 1 0
2  5 -1 7 1 8 -1 9 1 10 -1 11 1 12 -1 0
2  34 1 12 -1 2 1 3 1 0
2  9 1 10 -1 11 1 12 -1 0
2  5 -1 7 1 8 -1 0
2  1 -1 3 -1 2 -1 12 1 11 -1 10 1 9 -1 0
1
              1               0               0              -0 
              0               1               0               0 
              0               0               1              -0 
2  47 1 10 -1 11 1 12 -1 0
2  5 -1 7 1 8 -1 9 1 47 -1 0
2  10 1 47 -1 0
2  1 -1 3 -1 2 -1 12 1 11 -1 10 1 47 -1 0
2  9 1 10 -1 11 1 12 -1 2 1 3 1 0
2  2 -1 12 1 11 -1 10 1 9 -1 0
2  11 1 12 -1 2 1 3 1 0
2  1 -1 3 -1 2 -1 12 1 11 -1 0
2  47 1 10 -1 0
1
              1               0               0              -0 
              0               1               0              -0 
              0               0               1              -3 
2  47 1 10 -1 57 1 0
2  57 -1 10 1 47 -1 0
2  47 -1 0
2  1 -1 3 -1 2 -1 12 1 11 -1 57 -1 10 1 47 -1 0
2  10 -1 57 1 11 1 12 -1 2 1 3 1 0
Curve2ds 176
1 0 0 0 1 
1 0 -4 1 0 
2 0.79999999999999982 0.79999999999999993 0 1 -1 0 0.80000000000000004
1 -1.5707963267948966 4 1 0 
2 0.79999999999999982 3.6000000000000005 0 1 1 -0 0.80000000000000004
1 -4.7123889803846897 4 1 0 
1 0 0 1 0 
1 0 -4 1 0 
1 0 4.4000000000000004 1 0 
1 0 -4 1 0 
2 23.5 -2 1 0 -0 1 11.672617529928752
1 0 -4 1 0 
1 2 4.4000000000000004 0 1 
1 0 -4 1 0 
1 0 0 1 0 
1 0 -4 1 0 
1 2 34.200000000000003 -1 0 
1 0 -4 1 0 
2 46.200000000000003 0.79999999999999993 0 1 1 -0 0.80000000000000004
1 -1.5707963267948966 4 1 0 
1 -4 34.200000000000003 0 1 
1 0 -4 1 0 
1 47 0 0 1 
1 0 -4 1 0 
1 51 50.299999999999997 -1 0 
1 0 -4 1 0 
2 46.200000000000003 3.6000000000000005 0 1 1 -0 0.80000000000000004
1 0 4 1 0 
1 51 34.200000000000003 0 1 
1 0 -4 1 0 
1 47 4.4000000000000004 -1 0 
1 0 -4 1 0 
1 45 34.200000000000003 1 0 
1 0 -4 1 0 
1 45 4.4000000000000004 0 1 
1 0 -4 1 0 
2 46 45.299999999999997 1 0 0 -1 3.4000000000000004
1 0 -2.545584412271571 1 0 
2 1 45.299999999999997 1 0 0 -1 3.4000000000000004
1 0 -2.545584412271571 1 0 
1 0 0 1 0 
1 0 0 0 1 
1 0.79999999999999993 0 -0 -1 
1 0 0 0 1 
1 3.6000000000000005 0 -0 -1 
1 0 0 0 1 
1 -1.5707963267948966 -0 1 0 
2 0.79999999999999982 0.79999999999999993 0 1 -1 0 0.80000000000000004
1 1.5707963267948966 0 0 1 
1 0.79999999999999982 0 -0 -1 
1 -4.7123889803846897 0 1 0 
2 0.79999999999999982 3.6000000000000005 0 1 1 -0 0.80000000000000004
1 1.5707963267948966 0 0 1 
1 0.79999999999999982 0 -0 -1 
1 0 0 1 0 
1 0 0 1 0 
1 12 0 0 -1 
1 2.9694018390668542 0 0 -1 
1 0 0 1 0 
1 0 4.4000000000000004 1 0 
1 2 0 0 -1 
1 0 0 0 -1 
1 0 0 1 0 
2 23.5 -2 1 0 -0 1 11.67261752992875
1 0.17219081452293902 0 0 -1 
1 35 0 0 -1 
1 29.800000000000004 0 0 -1 
1 0 0 0 -1 
1 0 0 1 0 
1 2 4.4000000000000004 0 1 
1 0 0 1 0 
1 0 0 1 0 
1 46.200000000000003 0 -0 -1 
1 1.5707963267948966 0 0 1 
1 6 0 0 -1 
1 0 0 0 -1 
1 0 0 1 0 
1 2 34.200000000000003 -1 0 
1 -1.5707963267948966 -0 1 0 
2 46.200000000000003 0.79999999999999993 0 1 1 -0 0.80000000000000004
1 0 0 0 1 
1 0.79999999999999993 0 -0 -1 
1 16.099999999999994 0 0 -1 
1 55 0 0 -1 
1 0 0 1 0 
1 -4 34.200000000000003 0 1 
1 0 0 1 0 
1 47 0 0 1 
1 3.6000000000000005 0 -0 -1 
1 1.5707963267948966 0 0 1 
1 0 0 0 -1 
1 16.099999999999994 0 0 -1 
1 0 0 1 0 
1 51 50.299999999999997 -1 0 
1 0 -0 1 0 
2 46.200000000000003 3.6000000000000005 0 1 1 -0 0.80000000000000004
1 0 0 0 1 
1 0.79999999999999716 0 0 -1 
1 0 0 0 -1 
1 6 0 0 -1 
1 0 0 1 0 
1 51 34.200000000000003 0 1 
1 0 0 1 0 
1 47 4.4000000000000004 -1 0 
1 2 0 0 -1 
1 0 0 0 -1 
1 0 0 0 -1 
1 29.800000000000004 0 0 -1 
1 0 0 1 0 
1 45 34.200000000000003 1 0 
1 0 0 1 0 
1 45 4.4000000000000004 0 1 
8 -2.545584412271571 0
1 6.2831853071795862 0 0 1 
8 -2.545584412271571 0
1 0 0 0 1 
1 0 0 1 0 
1 0 -1.7999999999999998 1 0 
8 -2.545584412271571 0
1 6.2831853071795862 0 0 1 
8 -2.545584412271571 0
1 0 0 0 1 
1 0 0 1 0 
1 0 -1.7999999999999998 1 0 
2 46 45.299999999999997 1 0 0 -1 1.6000000000000001
1 0 -4 1 0 
2 1 45.299999999999997 1 0 0 -1 1.6000000000000001
1 0 -4 1 0 
1 21.800000000000001 34.299999999999997 1 0 
1 0 0 1 0 
1 21.800000000000001 30.300000000000001 0 1 
1 0 0 1 0 
1 33.299999999999997 41.100000000000001 0 -1 
1 0 0 1 0 
1 9.8000000000000007 30.300000000000001 1 0 
1 0 0 1 0 
1 4.8000000000000007 41.100000000000001 1 0 
1 0 0 1 0 
1 9.8000000000000007 34.299999999999997 0 -1 
1 0 0 1 0 
1 4.8000000000000007 34.299999999999997 0 1 
1 0 0 1 0 
1 4.8000000000000007 34.299999999999997 1 0 
1 0 0 1 0 
1 0 0 0 -1 
1 6.2831853071795862 0 0 -1 
1 0 0 0 -1 
1 6.2831853071795862 0 0 -1 
1 0 0 0 -1 
1 3.9999999999999964 0 0 -1 
1 0 -3 1 0 
1 17 -6.8000000000000043 1 0 
1 11.499999999999996 0 0 -1 
1 6.8000000000000043 0 0 -1 
1 0 0 0 -1 
1 12 0 0 -1 
1 0 -3 1 0 
1 17 -10.800000000000001 0 1 
1 0 0 0 -1 
1 28.499999999999996 0 0 -1 
1 0 -3 1 0 
1 28.499999999999996 0 0 -1 
1 0 0 0 -1 
1 3.9999999999999964 0 0 -1 
1 0 -3 1 0 
1 5 -10.800000000000001 1 0 
1 0 0 0 -1 
1 6.8000000000000043 0 0 -1 
1 0 -3 1 0 
1 0 0 1 0 
1 0 0 0 -1 
1 5 0 0 -1 
1 0 -3 1 0 
1 5 -6.8000000000000043 0 -1 
1 0 0 0 -1 
1 0 0 0 -1 
1 0 -3 1 0 
1 0 -6.8000000000000043 0 1 
1 0 -3 1 0 
1 0 -6.8000000000000043 1 0 
Curves 88
1 4 0 0 0 1 0 
8 1.5707963267948966 3.1415926535897931
2 4.7999999999999998 0.79999999999999993 -4 0 0 1 0 1 -0 -1 0 0 0.80000000000000004
8 4.7123889803846897 6.2831853071795862
2 4.7999999999999998 3.6000000000000005 -4 -0 -0 -1 0 1 -0 1 -0 0 0.80000000000000004
1 4 0 0 1 0 0 
1 4 4.4000000000000004 0 1 0 0 
2 27.5 -2 -4 0 0 1 1 0 -0 -0 1 0 11.672617529928752
1 6 4.4000000000000004 0 0 1 0 
1 4 0 0 1 0 0 
1 6 34.200000000000003 0 -1 0 0 
8 1.5707963267948966 3.1415926535897931
2 50.200000000000003 0.79999999999999993 -4 -0 -0 -1 0 1 -0 1 -0 0 0.80000000000000004
1 0 34.200000000000003 0 0 1 0 
1 51 0 0 0 1 0 
1 55 50.299999999999997 0 -1 0 0 
8 0 1.5707963267948966
2 50.200000000000003 3.6000000000000005 -4 -0 -0 -1 0 1 -0 1 -0 0 0.80000000000000004
1 55 34.200000000000003 0 0 1 0 
1 51 4.4000000000000004 0 -1 0 0 
1 49 34.200000000000003 0 1 0 0 
1 49 4.4000000000000004 0 0 1 0 
2 50 45.299999999999997 -4 -0 -0 -1 1 0 0 0 -1 0 3.4000000000000004
2 5 45.299999999999997 -4 -0 -0 -1 1 0 0 0 -1 0 3.4000000000000004
1 4 0 0 0 1 0 
1 4 0.79999999999999993 0 -0 -0 -1 
1 4 3.6000000000000005 0 -0 -0 -1 
8 1.5707963267948966 3.1415926535897931
2 4.7999999999999998 0.79999999999999993 0 0 0 1 0 1 -0 -1 0 0 0.80000000000000004
1 4.7999999999999998 -1.1102230246251565e-16 0 -0 -0 -1 
8 4.7123889803846897 6.2831853071795862
2 4.7999999999999998 3.6000000000000005 0 -0 -0 -1 0 1 -0 1 -0 0 0.80000000000000004
1 4.7999999999999998 4.4000000000000004 0 -0 -0 -1 
1 4 0 0 1 0 0 
1 16 4.4408920985006262e-16 0 -0 -0 -1 
1 4 4.4000000000000004 0 1 0 0 
1 6 4.4000000000000004 0 -0 -0 -1 
2 27.5 -2 0 0 0 1 1 0 -0 -0 1 0 11.672617529928752
1 39 0 0 -0 -0 -1 
1 6 34.200000000000003 0 -0 -0 -1 
1 6 4.4000000000000004 0 0 1 0 
1 4 0 0 1 0 0 
1 50.200000000000003 -1.1102230246251565e-16 0 -0 -0 -1 
1 0 34.200000000000003 0 -0 -0 -1 
1 6 34.200000000000003 0 -1 0 0 
8 1.5707963267948966 3.1415926535897931
2 50.200000000000003 0.79999999999999993 0 -0 -0 -1 0 1 -0 1 -0 0 0.80000000000000004
1 51 0.79999999999999993 0 -0 -0 -1 
1 0 50.299999999999997 0 -0 -0 -1 
1 0 34.200000000000003 0 0 1 0 
1 51 0 0 0 1 0 
1 51 3.6000000000000005 0 -0 -0 -1 
1 55 50.299999999999997 0 -0 -0 -1 
1 55 50.299999999999997 0 -1 0 0 
8 0 1.5707963267948966
2 50.200000000000003 3.6000000000000005 0 -0 -0 -1 0 1 -0 1 -0 0 0.80000000000000004
1 50.200000000000003 4.4000000000000004 0 -0 -0 -1 
1 55 34.200000000000003 0 -0 -0 -1 
1 55 34.200000000000003 0 0 1 0 
1 51 4.4000000000000004 0 -1 0 0 
1 49 4.4000000000000004 0 -0 -0 -1 
1 49 34.200000000000003 0 -0 -0 -1 
1 49 34.200000000000003 0 1 0 0 
1 49 4.4000000000000004 0 0 1 0 
1 51.600000000000001 45.299999999999997 -2.2000000000000002 -0.70710678118654691 0 0.70710678118654813 
2 50 45.299999999999997 -2.2000000000000002 -0 -0 -1 1 0 0 0 -1 0 1.6000000000000001
1 6.5999999999999996 45.299999999999997 -2.2000000000000002 -0.70710678118654757 0 0.70710678118654746 
2 5 45.299999999999997 -2.2000000000000002 -0 -0 -1 1 0 0 0 -1 0 1.6000000000000001
2 50 45.299999999999997 0 0 0 -1 1 0 0 0 -1 0 1.6000000000000001
2 5 45.299999999999997 0 0 0 -1 1 0 0 0 -1 0 1.6000000000000001
1 25.800000000000001 34.299999999999997 0 1 0 0 
1 25.800000000000001 30.300000000000001 0 0 1 0 
1 37.299999999999997 41.100000000000001 0 0 -1 0 
1 13.800000000000001 30.300000000000001 0 1 0 0 
1 8.8000000000000007 41.100000000000001 0 1 0 0 
1 13.800000000000001 34.299999999999997 0 0 -1 0 
1 8.8000000000000007 34.299999999999997 0 0 1 0 
1 8.8000000000000007 34.299999999999997 0 1 0 0 
1 51.600000000000001 45.299999999999997 -4 0 0 1 
1 6.5999999999999996 45.299999999999997 -4 0 0 1 
1 25.800000000000001 34.299999999999997 0 -0 -0 -1 
1 25.800000000000001 34.299999999999997 0 1 0 0 
1 37.299999999999997 34.299999999999997 0 -0 -0 -1 
1 25.800000000000001 30.300000000000001 0 -0 -0 -1 
1 25.800000000000001 30.300000000000001 0 0 1 0 
1 37.299999999999997 41.100000000000001 0 -0 -0 -1 
1 37.299999999999997 41.100000000000001 0 0 -1 0 
1 13.800000000000001 30.300000000000001 0 -0 -0 -1 
1 13.800000000000001 30.300000000000001 0 1 0 0 
1 8.8000000000000007 41.100000000000001 0 -0 -0 -1 
1 8.8000000000000007 41.100000000000001 0 1 0 0 
1 13.800000000000001 34.299999999999997 0 -0 -0 -1 
1 13.800000000000001 34.299999999999997 0 0 -1 0 
1 8.8000000000000007 34.299999999999997 0 -0 -0 -1 
1 8.8000000000000007 34.299999999999997 0 0 1 0 
1 8.8000000000000007 34.299999999999997 0 1 0 0 
Polygon3D 0
PolygonOnTriangulations 0
Surfaces 33
1 4 0 0 0 0 1 1 0 -0 -0 1 0 
1 4 0 0 1 0 0 -0 1 0 0 -0 1 
2 4.7999999999999998 0.79999999999999993 0 -0 -0 -1 -1 0 0 -0 -1 0 0.80000000000000004
2 4.7999999999999998 3.6000000000000005 0 -0 -0 -1 -1 0 0 0 1 -0 0.80000000000000004
1 4 0 0 0 -1 0 1 0 0 -0 0 1 
1 4 4.4000000000000004 0 0 -1 0 1 0 0 -0 0 1 
2 27.5 -2 0 0 0 1 1 0 0 0 1 0 11.672617529928752
1 6 4.4000000000000004 0 1 0 0 -0 1 0 0 -0 1 
1 4 0 0 0 -1 0 1 0 0 -0 0 1 
1 6 34.200000000000003 0 0 1 -0 -1 0 0 0 0 1 
2 50.200000000000003 0.79999999999999993 0 -0 -0 -1 1 0 0 0 -1 0 0.80000000000000004
1 0 34.200000000000003 0 1 0 0 -0 1 0 0 -0 1 
1 51 0 0 1 0 0 -0 1 0 0 -0 1 
1 55 50.299999999999997 0 0 1 -0 -1 0 0 0 0 1 
2 50.200000000000003 3.6000000000000005 0 -0 -0 -1 0 1 -0 1 -0 0 0.80000000000000004
1 55 34.200000000000003 0 1 0 0 -0 1 0 0 -0 1 
1 51 4.4000000000000004 0 0 1 -0 -1 0 0 0 0 1 
1 49 34.200000000000003 0 0 -1 0 1 0 0 -0 0 1 
1 49 4.4000000000000004 0 1 0 0 -0 1 0 0 -0 1 
3 50 45.299999999999997 -2.2000000000000002 0 0 1 1 0 0 0 -1 0 1.6000000000000001
-0.7853981633974475
3 5 45.299999999999997 -2.2000000000000002 0 0 1 1 0 0 0 -1 0 1.6000000000000001
-0.78539816339744839
1 4 0 0 0 0 1 1 0 -0 -0 1 0 
2 50 45.299999999999997 -4 0 0 -1 1 0 0 0 -1 0 1.6000000000000001
2 5 45.299999999999997 -4 0 0 -1 1 0 0 0 -1 0 1.6000000000000001
1 25.800000000000001 34.299999999999997 0 0 -1 0 1 0 0 -0 0 1 
1 25.800000000000001 30.300000000000001 0 1 0 0 -0 1 0 0 -0 1 
1 37.299999999999997 41.100000000000001 0 -1 0 0 0 -1 0 0 0 1 
1 13.800000000000001 30.300000000000001 0 0 -1 0 1 0 0 -0 0 1 
1 8.8000000000000007 41.100000000000001 0 0 -1 0 1 0 0 -0 0 1 
1 13.800000000000001 34.299999999999997 0 -1 0 0 0 -1 0 0 0 1 
1 8.8000000000000007 34.299999999999997 0 1 0 0 -0 1 0 0 -0 1 
1 8.8000000000000007 34.299999999999997 0 0 -1 0 1 0 0 -0 0 1 
1 8.8000000000000007 41.100000000000001 0 -0 0 1 1 0 0 0 1 -0 
Triangulations 0

TShapes 220
Ve
1e-07
4 0.8 -4
0 0

0101101
*
Ve
1e-07
4 3.6 -4
0 0

0101101
*
Ed
 1e-07 1 1 0
1  1 0 0.8 3.6
2  1 1 17 0.8 3.6
2  2 2 18 0.8 3.6
0

0101000
+220 19 -219 19 *
Ve
1e-07
4.8 -1.11022302462516e-16 -4
0 0

0101101
*
Ed
 1e-07 1 1 0
1  2 0 1.5707963267949 3.14159265358979
2  3 1 20 1.5707963267949 3.14159265358979
2  4 3 0 1.5707963267949 3.14159265358979
0

0101000
+220 21 -217 21 *
Ve
1e-07
4.8 4.4 -4
0 0

0101101
*
Ed
 1e-07 1 1 0
1  3 0 4.71238898038469 6.28318530717959
2  5 1 20 4.71238898038469 6.28318530717959
2  6 4 0 4.71238898038469 6.28318530717959
0

0101000
+219 21 -215 21 *
Ve
1.0000100116861e-07
16 2.22044604925031e-16 -4
0 0

0101101
*
Ed
 1e-07 1 1 0
1  4 0 0.8 12
2  7 1 17 0.8 12
2  8 5 18 0.8 12
0

0101000
+217 19 -213 19 *
Ve
1e-07
6 4.4 -4
0 0

0101101
*
Ed
 1e-07 1 1 0
1  5 0 0.8 2
2  9 1 17 0.8 2
2  10 6 18 0.8 2
0

0101000
+215 19 -211 19 *
Ve
1.0000100116861e-07
39 0 -4
0 0

0101101
*
Ed
 1e-07 1 1 0
1  6 0 0.172190814522939 2.96940183906685
2  11 1 13 0.172190814522939 2.96940183906685
2  12 7 0 0.172190814522939 2.96940183906685
0

0101000
+209 22 -213 22 *
Ve
1e-07
6 34.2 -4
0 0

0101101
*
Ed
 1e-07 1 1 0
1  7 0 0 29.8
2  13 1 17 0 29.8
2  14 8 18 0 29.8
0

0101000
+211 19 -207 19 *
Ve
1e-07
50.2 -1.11022302462516e-16 -4
0 0

0101101
*
Ed
 1e-07 1 1 0
1  8 0 35 46.2
2  15 1 17 35 46.2
2  16 9 18 35 46.2
0

0101000
-205 19 +209 19 *
Ve
1e-07
0 34.2 -4
0 0

0101101
*
Ed
 1e-07 1 1 0
1  9 0 0 6
2  17 1 17 0 6
2  18 10 18 0 6
0

0101000
+207 19 -203 19 *
Ve
1e-07
51 0.8 -4
0 0

0101101
*
Ed
 1e-07 1 1 0
1  10 0 1.5707963267949 3.14159265358979
2  19 1 20 1.5707963267949 3.14159265358979
2  20 11 0 1.5707963267949 3.14159265358979
0

0101000
+201 21 -205 21 *
Ve
1e-07
0 50.3 -4
0 0

0101101
*
Ed
 1e-07 1 1 0
1  11 0 0 16.1
2  21 1 17 0 16.1
2  22 12 18 0 16.1
0

0101000
+203 19 -199 19 *
Ve
1e-07
51 3.6 -4
0 0

0101101
*
Ed
 1e-07 1 1 0
1  12 0 0.8 3.6
2  23 1 17 0.8 3.6
2  24 13 18 0.8 3.6
0

0101000
+201 19 -197 19 *
Ve
1e-07
55 50.3 -4
0 0

0101101
*
Ed
 1e-07 1 1 0
1  13 0 0 55
2  25 1 17 0 55
2  26 14 18 0 55
0

0101000
+195 19 -199 19 *
Ve
1e-07
50.2 4.4 -4
0 0

0101101
*
Ed
 1e-07 1 1 0
1  14 0 0 1.5707963267949
2  27 1 20 0 1.5707963267949
2  28 15 0 0 1.5707963267949
0

0101000
+193 21 -197 21 *
Ve
1e-07
55 34.2 -4
0 0

0101101
*
Ed
 1e-07 1 1 0
1  15 0 0 16.1
2  29 1 17 0 16.1
2  30 16 18 0 16.1
0

0101000
+191 19 -195 19 *
Ve
1e-07
49 4.4 -4
0 0

0101101
*
Ed
 1e-07 1 1 0
1  16 0 0.799999999999997 2
2  31 1 17 0.799999999999997 2
2  32 17 18 0.799999999999997 2
0

0101000
+193 19 -189 19 *
Ve
1e-07
49 34.2 -4
0 0

0101101
*
Ed
 1e-07 1 1 0
1  17 0 0 6
2  33 1 17 0 6
2  34 18 18 0 6
0

0101000
+187 19 -191 19 *
Ed
 1e-07 1 1 0
1  18 0 0 29.8
2  35 1 17 0 29.8
2  36 19 18 0 29.8
0

0101000
+189 19 -187 19 *
Wi

0101100
-218 16 +216 0 -214 0 +212 16 -210 16 -208 4 -206 16 +204 16 -202 16 -200 0 
-198 16 +196 16 +194 16 -192 0 +190 16 +188 16 +186 16 +185 16 *
Ve
1e-07
53.4 45.3 -4
0 0

0101101
*
Ed
 1e-07 1 1 0
1  19 0 0 6.28318530717959
2  37 1 24 0 6.28318530717959
2  38 20 0 0 6.28318530717959
0

0101100
+183 25 -183 25 *
Wi

0101100
+182 0 *
Ve
1e-07
8.4 45.3 -4
0 0

0101101
*
Ed
 1e-07 1 1 0
1  20 0 0 6.28318530717959
2  39 1 24 0 6.28318530717959
2  40 21 0 0 6.28318530717959
0

0101100
+180 25 -180 25 *
Wi

0101100
+179 0 *
Fa
0  1e-07 1 13

0101000
+184 14 +181 23 +178 23 *
Ve
1e-07
4 0.8 0
0 0

0101101
*
Ve
1e-07
4 3.6 0
0 0

0101101
*
Ed
 1e-07 1 1 0
1  21 0 0.8 3.6
2  41 2 29 0.8 3.6
2  42 22 17 0.8 3.6
0

0101000
+176 30 -175 30 *
Ed
 1e-07 1 1 0
1  22 0 -0 4
2  43 2 26 -0 4
2  44 3 0 -0 4
4 G1 2 26 3 0
0

0101000
+176 21 -220 21 *
Ed
 1e-07 1 1 0
1  23 0 -0 4
2  45 2 26 -0 4
2  46 4 0 -0 4
4 G1 2 26 4 0
0

0101000
+175 21 -219 21 *
Wi

0101100
-174 28 +173 0 -172 0 +218 16 *
Fa
0  1e-07 2 0

0101000
+171 27 *
Ve
1e-07
4.8 -1.11022302462516e-16 0
0 0

0101101
*
Ed
 1e-07 1 1 0
1  24 0 1.5707963267949 3.14159265358979
2  47 3 0 1.5707963267949 3.14159265358979
2  48 22 31 1.5707963267949 3.14159265358979
0

0101000
+176 21 -169 21 *
Ed
 1e-07 1 1 0
1  25 0 -0 4
2  49 3 0 -0 4
2  50 5 26 -0 4
4 G1 3 0 5 26
0

0101000
+169 21 -217 21 *
Wi

0101100
+168 0 -173 0 +167 0 -216 0 *
Fa
0  1e-07 3 0

0101000
+166 0 *
Ve
1e-07
4.8 4.4 0
0 0

0101101
*
Ed
 1e-07 1 1 0
1  26 0 4.71238898038469 6.28318530717959
2  51 4 0 4.71238898038469 6.28318530717959
2  52 22 31 4.71238898038469 6.28318530717959
0

0101000
+175 21 -164 21 *
Ed
 1e-07 1 1 0
1  27 0 -0 4
2  53 4 0 -0 4
2  54 6 26 -0 4
4 G1 4 0 6 26
0

0101000
+164 21 -215 21 *
Wi

0101100
+163 0 -172 0 +162 0 -214 0 *
Fa
0  1e-07 4 0

0101000
+161 0 *
Ve
1.0000100116861e-07
16 4.44089209850063e-16 0
0 0

0101101
*
Ed
 1e-07 1 1 0
1  28 0 0.8 12
2  55 5 29 0.8 12
2  56 22 17 0.8 12
0

0101000
+169 30 -159 30 *
Ed
 1e-07 1 1 0
1  29 0 0 4
2  57 5 32 0 4
2  58 7 0 0 4
0

0101000
+159 22 -213 22 *
Wi

0101100
-158 28 +167 0 -157 4 +212 16 *
Fa
0  1e-07 5 32

0101000
+156 14 *
Ve
1e-07
6 4.4 0
0 0

0101101
*
Ed
 1e-07 1 1 0
1  30 0 0.8 2
2  59 6 29 0.8 2
2  60 22 17 0.8 2
0

0101000
+164 30 -154 30 *
Ed
 1e-07 1 1 0
1  31 0 0 4
2  61 6 0 0 4
2  62 8 0 0 4
0

0101000
+154 33 -211 33 *
Wi

0101100
-153 28 +162 0 -152 26 +210 16 *
Fa
0  1e-07 6 0

0101000
+151 27 *
Ve
1.00001000593079e-07
39 0 0
0 0

0101101
*
Ed
 1e-07 1 1 0
1  32 0 0.172190814522939 2.96940183906685
2  63 7 36 0.172190814522939 2.96940183906685
2  64 22 37 0.172190814522939 2.96940183906685
0

0101000
+149 38 -159 38 *
Ed
 1e-07 1 1 0
1  33 0 0 4
2  65 7 0 0 4
2  66 9 32 0 4
0

0101000
+149 22 -209 22 *
Wi

0101000
-148 35 -157 0 +208 0 +147 0 *
Fa
0  1e-07 7 0

0101000
+146 0 *
Ve
1e-07
6 34.2 0
0 0

0101101
*
Ed
 1e-07 1 1 0
1  34 0 0 4
2  67 8 0 0 4
2  68 10 0 0 4
0

0101000
+144 33 -207 33 *
Ed
 1e-07 1 1 0
1  35 0 0 29.8
2  69 8 29 0 29.8
2  70 22 17 0 29.8
0

0101000
+154 30 -144 30 *
Wi

0101000
+152 0 -143 0 -142 39 +206 40 *
Fa
0  1e-07 8 0

0101000
+141 0 *
Ve
1e-07
50.2 -1.11022302462516e-16 0
0 0

0101101
*
Ed
 1e-07 1 1 0
1  36 0 35 46.2
2  71 9 29 35 46.2
2  72 22 17 35 46.2
0

0101000
-139 30 +149 30 *
Ed
 1e-07 1 1 0
1  37 0 -0 4
2  73 9 26 -0 4
2  74 11 0 -0 4
4 G1 9 26 11 0
0

0101000
+139 21 -205 21 *
Wi

0101100
-138 28 -137 0 +147 4 +204 16 *
Fa
0  1e-07 9 32

0101000
+136 14 *
Ve
1e-07
0 34.2 0
0 0

0101101
*
Ed
 1e-07 1 1 0
1  38 0 0 4
2  75 10 0 0 4
2  76 12 0 0 4
0

0101000
+134 33 -203 33 *
Ed
 1e-07 1 1 0
1  39 0 0 6
2  77 10 29 0 6
2  78 22 17 0 6
0

0101000
+144 30 -134 30 *
Wi

0101000
+143 0 -133 0 -132 39 +202 40 *
Fa
0  1e-07 10 0

0101000
+131 0 *
Ve
1e-07
51 0.8 0
0 0

0101101
*
Ed
 1e-07 1 1 0
1  40 0 1.5707963267949 3.14159265358979
2  79 11 0 1.5707963267949 3.14159265358979
2  80 22 31 1.5707963267949 3.14159265358979
0

0101000
+129 21 -139 21 *
Ed
 1e-07 1 1 0
1  41 0 -0 4
2  81 11 0 -0 4
2  82 13 26 -0 4
4 G1 11 0 13 26
0

0101000
+129 21 -201 21 *
Wi

0101100
+128 0 -127 0 +137 0 -200 0 *
Fa
0  1e-07 11 0

0101000
+126 0 *
Ve
1e-07
0 50.3 0
0 0

0101101
*
Ed
 1e-07 1 1 0
1  42 0 0 4
2  83 12 0 0 4
2  84 14 0 0 4
0

0101000
+124 33 -199 33 *
Ed
 1e-07 1 1 0
1  43 0 0 16.1
2  85 12 29 0 16.1
2  86 22 17 0 16.1
0

0101000
+134 30 -124 30 *
Wi

0101000
+133 0 -123 0 -122 39 +198 40 *
Fa
0  1e-07 12 0

0101000
+121 0 *
Ve
1e-07
51 3.6 0
0 0

0101101
*
Ed
 1e-07 1 1 0
1  44 0 0.8 3.6
2  87 13 29 0.8 3.6
2  88 22 17 0.8 3.6
0

0101000
+129 30 -119 30 *
Ed
 1e-07 1 1 0
1  45 0 -0 4
2  89 13 26 -0 4
2  90 15 0 -0 4
4 G1 13 26 15 0
0

0101000
+119 21 -197 21 *
Wi

0101100
-118 28 +127 0 -117 0 +196 16 *
Fa
0  1e-07 13 0

0101000
+116 27 *
Ve
1e-07
55 50.3 0
0 0

0101101
*
Ed
 1e-07 1 1 0
1  46 0 0 4
2  91 14 0 0 4
2  92 16 0 0 4
0

0101000
+114 33 -195 33 *
Ed
 1e-07 1 1 0
1  47 0 0 55
2  93 14 29 0 55
2  94 22 17 0 55
0

0101000
+114 30 -124 30 *
Wi

0101000
+113 0 -123 0 -112 39 +194 40 *
Fa
0  1e-07 14 0

0101000
+111 0 *
Ve
1e-07
50.2 4.4 0
0 0

0101101
*
Ed
 1e-07 1 1 0
1  48 0 0 1.5707963267949
2  95 15 0 0 1.5707963267949
2  96 22 31 0 1.5707963267949
0

0101000
+109 21 -119 21 *
Ed
 1e-07 1 1 0
1  49 0 -0 4
2  97 15 0 -0 4
2  98 17 26 -0 4
4 G1 15 0 17 26
0

0101000
+109 21 -193 21 *
Wi

0101100
+108 0 -107 0 +117 0 -192 0 *
Fa
0  1e-07 15 0

0101000
+106 0 *
Ve
1e-07
55 34.2 0
0 0

0101101
*
Ed
 1e-07 1 1 0
1  50 0 0 4
2  99 16 0 0 4
2  100 18 0 0 4
0

0101000
+104 33 -191 33 *
Ed
 1e-07 1 1 0
1  51 0 0 16.1
2  101 16 29 0 16.1
2  102 22 17 0 16.1
0

0101000
+104 30 -114 30 *
Wi

0101000
+103 0 -113 0 -102 39 +190 40 *
Fa
0  1e-07 16 0

0101000
+101 0 *
Ve
1e-07
49 4.4 0
0 0

0101101
*
Ed
 1e-07 1 1 0
1  52 0 0.799999999999997 2
2  103 17 29 0.799999999999997 2
2  104 22 17 0.799999999999997 2
0

0101000
+109 30 -99 30 *
Ed
 1e-07 1 1 0
1  53 0 0 4
2  105 17 0 0 4
2  106 19 0 0 4
0

0101000
+99 33 -189 33 *
Wi

0101100
-98 28 +107 0 -97 26 +188 16 *
Fa
0  1e-07 17 0

0101000
+96 27 *
Ve
1e-07
49 34.2 0
0 0

0101101
*
Ed
 1e-07 1 1 0
1  54 0 0 4
2  107 18 0 0 4
2  108 19 0 0 4
0

0101000
+94 33 -187 33 *
Ed
 1e-07 1 1 0
1  55 0 0 6
2  109 18 29 0 6
2  110 22 17 0 6
0

0101000
+94 30 -104 30 *
Wi

0101000
+93 0 -103 0 -92 39 +186 40 *
Fa
0  1e-07 18 0

0101000
+91 0 *
Ed
 1e-07 1 1 0
1  56 0 0 29.8
2  111 19 29 0 29.8
2  112 22 17 0 29.8
0

0101000
+99 30 -94 30 *
Wi

0101000
+97 0 -93 0 -89 39 +185 40 *
Fa
0  1e-07 19 0

0101000
+88 0 *
Ve
1e-07
51.6 45.3 -2.2
0 0

0101101
*
Ed
 1e-07 1 1 0
1  57 0 -2.54558441227157 0
3  113 114CN 20 0 -2.54558441227157 0
0

0101000
+183 25 -86 25 *
Ed
 1e-07 1 1 0
1  58 0 0 6.28318530717959
2  115 20 0 0 6.28318530717959
2  116 23 41 0 6.28318530717959
0

0101100
+86 25 -86 25 *
Wi

0101100
-85 0 +182 0 -84 0 +85 0 *
Fa
0  1e-07 20 0

0101000
+83 0 *
Ve
1e-07
6.6 45.3 -2.2
0 0

0101101
*
Ed
 1e-07 1 1 0
1  59 0 -2.54558441227157 0
3  117 118CN 21 0 -2.54558441227157 0
0

0101000
+180 25 -81 25 *
Ed
 1e-07 1 1 0
1  60 0 0 6.28318530717959
2  119 21 0 0 6.28318530717959
2  120 24 41 0 6.28318530717959
0

0101100
+81 25 -81 25 *
Wi

0101100
-80 0 +179 0 -79 0 +80 0 *
Fa
0  1e-07 21 0

0101000
+78 0 *
Wi

0101100
-174 28 +168 0 -163 0 +158 28 -153 28 -148 43 -142 28 +138 28 -132 28 -128 0 
-122 28 +118 28 +112 28 -108 0 +102 28 +98 28 +92 28 +89 28 *
Ve
2.00001e-07
51.6 45.3 0
0 0

0101101
*
Ed
 1e-07 1 1 0
1  61 0 0 6.28318530717959
2  121 22 45 0 6.28318530717959
2  122 23 0 0 6.28318530717959
0

0101100
+75 46 -75 46 *
Wi

0101100
+74 44 *
Ve
2.00001e-07
6.6 45.3 0
0 0

0101101
*
Ed
 1e-07 1 1 0
1  62 0 0 6.28318530717959
2  123 22 45 0 6.28318530717959
2  124 24 0 0 6.28318530717959
0

0101100
+72 46 -72 46 *
Wi

0101100
+71 44 *
Ve
1e-07
25.8 34.3 0
0 0

0101101
*
Ve
1e-07
37.3 34.3 0
0 0

0101101
*
Ed
 1e-07 1 1 0
1  63 0 0 11.5
2  125 22 49 0 11.5
2  126 25 50 0 11.5
0

0101000
+69 51 -68 51 *
Ve
1e-07
25.8 30.3 0
0 0

0101101
*
Ed
 1e-07 1 1 0
1  64 0 0 4
2  127 22 49 0 4
2  128 26 50 0 4
0

0101000
+66 51 -69 51 *
Ve
1e-07
37.3 41.1 0
0 0

0101101
*
Ed
 1e-07 1 1 0
1  65 0 0 6.8
2  129 22 49 0 6.8
2  130 27 50 0 6.8
0

0101000
+64 51 -68 51 *
Ve
1e-07
13.8 30.3 0
0 0

0101101
*
Ed
 1e-07 1 1 0
1  66 0 0 12
2  131 22 49 0 12
2  132 28 50 0 12
0

0101000
+62 51 -66 51 *
Ve
1e-07
8.8 41.1 0
0 0

0101101
*
Ed
 1e-07 1 1 0
1  67 0 0 28.5
2  133 22 49 0 28.5
2  134 29 50 0 28.5
0

0101000
+60 51 -64 51 *
Ve
1e-07
13.8 34.3 0
0 0

0101101
*
Ed
 1e-07 1 1 0
1  68 0 0 4
2  135 22 49 0 4
2  136 30 50 0 4
0

0101000
+58 51 -62 51 *
Ve
1e-07
8.8 34.3 0
0 0

0101101
*
Ed
 1e-07 1 1 0
1  69 0 0 6.8
2  137 22 49 0 6.8
2  138 31 50 0 6.8
0

0101000
+56 51 -60 51 *
Ed
 1e-07 1 1 0
1  70 0 0 5
2  139 22 49 0 5
2  140 32 50 0 5
0

0101000
+56 51 -58 51 *
Wi

0101100
-67 48 -65 48 +63 48 -61 48 +59 48 -57 48 +55 48 -54 48 *
Fa
0  1e-07 22 42

0101000
+76 14 +73 0 +70 0 +53 0 *
Ed
 1e-07 1 1 0
1  71 0 1.8 4
3  141 142CN 23 0 1.8 4
0

0101000
+86 46 -75 46 *
Wi

0101100
-51 41 -84 0 +74 41 +51 41 *
Fa
0  1e-07 23 0

0101000
+50 53 *
Ed
 1e-07 1 1 0
1  72 0 1.8 4
3  143 144CN 24 0 1.8 4
0

0101000
+81 46 -72 46 *
Wi

0101100
-48 41 -79 0 +71 41 +48 41 *
Fa
0  1e-07 24 0

0101000
+47 53 *
Ve
1e-07
25.8 34.3 -3
0 0

0101101
*
Ed
 1e-07 1 1 0
1  73 0 0 3
2  145 25 0 0 3
2  146 26 0 0 3
0

0101000
+69 55 -45 55 *
Ve
1e-07
37.3 34.3 -3
0 0

0101101
*
Ed
 1e-07 1 1 0
1  74 0 0 11.5
2  147 25 59 0 11.5
2  148 33 60 0 11.5
0

0101000
+45 61 -43 61 *
Ed
 1e-07 1 1 0
1  75 0 0 3
2  149 25 0 0 3
2  150 27 0 0 3
0

0101000
+68 55 -43 55 *
Wi

0101000
+44 0 -67 56 +42 58 -41 0 *
Fa
0  1e-07 25 0

0101000
+40 0 *
Ve
1e-07
25.8 30.3 -3
0 0

0101101
*
Ed
 1e-07 1 1 0
1  76 0 0 3
2  151 26 0 0 3
2  152 28 0 0 3
0

0101000
+66 55 -38 55 *
Ed
 1e-07 1 1 0
1  77 0 0 4
2  153 26 59 0 4
2  154 33 60 0 4
0

0101000
+38 61 -45 61 *
Wi

0101000
+37 0 -65 56 +36 58 -44 0 *
Fa
0  1e-07 26 0

0101000
+35 0 *
Ve
1e-07
37.3 41.1 -3
0 0

0101101
*
Ed
 1e-07 1 1 0
1  78 0 0 3
2  155 27 0 0 3
2  156 29 0 0 3
0

0101000
+64 55 -33 55 *
Ed
 1e-07 1 1 0
1  79 0 0 6.8
2  157 27 59 0 6.8
2  158 33 60 0 6.8
0

0101000
+33 61 -43 61 *
Wi

0101000
+32 0 -63 56 +31 58 -41 0 *
Fa
0  1e-07 27 0

0101000
+30 0 *
Ve
1e-07
13.8 30.3 -3
0 0

0101101
*
Ed
 1e-07 1 1 0
1  80 0 0 3
2  159 28 0 0 3
2  160 30 0 0 3
0

0101000
+62 55 -28 55 *
Ed
 1e-07 1 1 0
1  81 0 0 12
2  161 28 59 0 12
2  162 33 60 0 12
0

0101000
+28 61 -38 61 *
Wi

0101000
+27 0 -61 56 +26 58 -37 0 *
Fa
0  1e-07 28 0

0101000
+25 0 *
Ve
1e-07
8.8 41.1 -3
0 0

0101101
*
Ed
 1e-07 1 1 0
1  82 0 0 3
2  163 29 0 0 3
2  164 31 0 0 3
0

0101000
+60 55 -23 55 *
Ed
 1e-07 1 1 0
1  83 0 0 28.5
2  165 29 59 0 28.5
2  166 33 60 0 28.5
0

0101000
+23 61 -33 61 *
Wi

0101000
+22 0 -59 56 +21 58 -32 0 *
Fa
0  1e-07 29 0

0101000
+20 0 *
Ve
1e-07
13.8 34.3 -3
0 0

0101101
*
Ed
 1e-07 1 1 0
1  84 0 0 3
2  167 30 0 0 3
2  168 32 0 0 3
0

0101000
+58 55 -18 55 *
Ed
 1e-07 1 1 0
1  85 0 0 4
2  169 30 59 0 4
2  170 33 60 0 4
0

0101000
+18 61 -28 61 *
Wi

0101000
+17 0 -57 56 +16 58 -27 0 *
Fa
0  1e-07 30 0

0101000
+15 0 *
Ve
1e-07
8.8 34.3 -3
0 0

0101101
*
Ed
 1e-07 1 1 0
1  86 0 0 3
2  171 31 0 0 3
2  172 32 0 0 3
0

0101000
+56 55 -13 55 *
Ed
 1e-07 1 1 0
1  87 0 0 6.8
2  173 31 59 0 6.8
2  174 33 60 0 6.8
0

0101000
+13 61 -23 61 *
Wi

0101000
+12 0 -55 56 +11 58 -22 0 *
Fa
0  1e-07 31 0

0101000
+10 0 *
Ed
 1e-07 1 1 0
1  88 0 0 5
2  175 32 59 0 5
2  176 33 60 0 5
0

0101000
+13 61 -18 61 *
Wi

0101000
+12 0 -54 56 +8 58 -17 0 *
Fa
0  1e-07 32 0

0101000
+7 0 *
Wi

0101100
+21 0 +31 0 -42 0 -36 0 -26 0 -16 0 -8 0 +11 0 *
Fa
0  1e-07 33 0

0101000
-5 47 *
Sh

0101100
-177 4 -170 26 -165 0 +160 0 +155 4 -150 26 -145 4 -140 26 +135 4 -130 26 
+125 0 -120 26 +115 26 +110 26 +105 0 +100 26 +95 26 +90 26 +87 26 +82 3 
+77 3 +52 4 -49 52 -46 52 -39 54 -34 54 +29 54 -24 54 +19 54 -14 54 
+9 54 -6 54 +4 62 *
So

0100000
+3 0 *
Co

1100000
+2 0 *

+1 1 