DBRep_DrawableShape

CASCADE Topology V1, (c) Matra-Datavision
Locations 10
1
              0               0              -1              -0 
             -1               0               0              -0 
              0               1               0               0 
1
              1               0               0               0 
              0               1               0               0 
              0               0               1               0 
2  1 1 2 -1 0
2  2 1 1 -1 0
2  1 -1 0
1
              1               0               0              55 
              0               1               0              -0 
              0               0               1              -0 
2  1 1 2 -1 6 1 0
2  6 -1 2 1 1 -1 0
2  2 -1 0
2  2 -1 6 1 0
Curve2ds 30
1 0 0 0 -1 
1 2 0 0 -1 
1 3.6612382708038114 0 0 -1 
1 0 0 0 -1 
1 0 0 1 0 
1 0 0 0.81915204428893729 0.57357643635112388 
1 0 -55 1 0 
1 0 0 0.81915204428893729 0.57357643635112388 
1 1.6008891858421634 0 0 -1 
1 0 0 0 -1 
1 0 0 1 0 
1 2.9991108141578362 2.1000000000000014 1 0 
1 0 -55 1 0 
1 2.9991108141578362 2.1000000000000014 1 0 
1 4.1000000000000014 0 0 -1 
1 0 0 0 -1 
1 0 0 1 0 
1 4.5999999999999996 2.1000000000000014 0 -1 
1 0 -55 1 0 
1 4.5999999999999996 2.1000000000000014 0 -1 
1 4.5999999999999996 0 0 -1 
1 0 0 0 -1 
1 0 0 1 0 
1 4.5999999999999996 -2 -1 0 
1 0 -55 1 0 
1 4.5999999999999996 -2 -1 0 
1 0 0 1 0 
1 0 -2 0 1 
1 0 -55 1 0 
1 0 -2 0 1 
Curves 15
1 0 36.29999999999783 13.4 1 -0 -0 
1 0 34.199999999997829 16.399110814157837 1 -0 -0 
1 -36.29999999999783 13.4 0 0.57357643635112388 0.81915204428893729 0 
1 -36.29999999999783 13.4 0 0.57357643635112388 0.81915204428893729 0 
1 0 34.199999999997829 18 1 -0 -0 
1 -34.199999999997829 16.399110814157837 0 0 1 0 
1 -34.199999999997829 16.399110814157837 0 0 1 0 
1 0 38.29999999999783 18 1 -0 -0 
1 -34.199999999997829 18 0 -1 0 0 
1 -34.199999999997829 18 0 -1 0 0 
1 0 38.29999999999783 13.4 1 -0 -0 
1 -38.29999999999783 18 0 0 -1 0 
1 -38.29999999999783 18 0 0 -1 0 
1 -38.29999999999783 13.4 0 1 0 0 
1 -38.29999999999783 13.4 0 1 0 0 
Polygon3D 0
PolygonOnTriangulations 0
Surfaces 7
1 0 36.29999999999783 13.4 -0 -0.81915204428893729 -0.57357643635112388 0 -0.57357643635112388 0.81915204428893729 -1 0 0 
1 0 38.29999999999783 13.4 -0 -0 -1 0 -1 0 -1 0 0 
1 0 34.199999999997829 16.399110814157837 0 -1 0 0 0 1 -1 0 0 
1 0 36.29999999999783 13.4 1 0 0 -0 0 1 0 -1 0 
1 0 36.29999999999783 13.4 1 0 0 -0 0 1 0 -1 0 
1 0 34.199999999997829 18 0 -0 1 0 1 0 -1 0 0 
1 0 38.29999999999783 18 0 1 0 0 0 -1 -1 0 0 
Triangulations 0

TShapes 41
Ve
1e-07
0 36.2999999999978 13.4
0 0

0101101
*
Ve
1e-07
55 36.2999999999978 13.4
0 0

0101101
*
Ed
 1e-07 1 1 0
1  1 0 0 55
2  1 1 0 0 55
2  2 2 0 0 55
0

0101000
+41 0 -40 0 *
Ve
1e-07
0 34.1999999999978 16.3991108141578
0 0

0101101
*
Ve
1e-07
55 34.1999999999978 16.3991108141578
0 0

0101101
*
Ed
 1e-07 1 1 0
1  2 0 0 55
2  3 1 0 0 55
2  4 3 0 0 55
0

0101000
+38 0 -37 0 *
Ed
 1e-07 1 1 0
1  3 0 0 3.66123827080381
2  5 1 4 0 3.66123827080381
2  6 4 5 0 3.66123827080381
0

0101000
+41 4 -38 4 *
Ed
 1e-07 1 1 0
1  4 0 0 3.66123827080381
2  7 1 8 0 3.66123827080381
2  8 5 5 0 3.66123827080381
0

0101000
+40 8 -37 8 *
Wi

0101000
+39 0 -36 0 -35 3 +34 7 *
Fa
0  1e-07 1 0

0101000
+33 0 *
Ve
1e-07
0 34.1999999999978 18
0 0

0101101
*
Ve
1e-07
55 34.1999999999978 18
0 0

0101101
*
Ed
 1e-07 1 1 0
1  5 0 0 55
2  9 3 0 0 55
2  10 6 0 0 55
0

0101000
+31 0 -30 0 *
Ed
 1e-07 1 1 0
1  6 0 0 1.60088918584216
2  11 3 4 0 1.60088918584216
2  12 4 5 0 1.60088918584216
0

0101000
+38 4 -31 4 *
Ed
 1e-07 1 1 0
1  7 0 0 1.60088918584216
2  13 3 8 0 1.60088918584216
2  14 5 5 0 1.60088918584216
0

0101000
+37 8 -30 8 *
Wi

0101000
+36 0 -29 0 -28 3 +27 7 *
Fa
0  1e-07 3 0

0101000
+26 0 *
Ve
1e-07
0 38.2999999999978 18
0 0

0101101
*
Ve
1e-07
55 38.2999999999978 18
0 0

0101101
*
Ed
 1e-07 1 1 0
1  8 0 0 55
2  15 6 0 0 55
2  16 7 0 0 55
0

0101000
+24 0 -23 0 *
Ed
 1e-07 1 1 0
1  9 0 0 4.1
2  17 6 4 0 4.1
2  18 4 5 0 4.1
0

0101000
+31 4 -24 4 *
Ed
 1e-07 1 1 0
1  10 0 0 4.1
2  19 6 8 0 4.1
2  20 5 5 0 4.1
0

0101000
+30 8 -23 8 *
Wi

0101000
+29 0 -22 0 -21 3 +20 7 *
Fa
0  1e-07 6 0

0101000
+19 0 *
Ve
1e-07
0 38.2999999999978 13.4
0 0

0101101
*
Ve
1e-07
55 38.2999999999978 13.4
0 0

0101101
*
Ed
 1e-07 1 1 0
1  11 0 0 55
2  21 7 0 0 55
2  22 2 0 0 55
0

0101000
+17 0 -16 0 *
Ed
 1e-07 1 1 0
1  12 0 0 4.6
2  23 7 4 0 4.6
2  24 4 5 0 4.6
0

0101000
+24 4 -17 4 *
Ed
 1e-07 1 1 0
1  13 0 0 4.6
2  25 7 8 0 4.6
2  26 5 5 0 4.6
0

0101000
+23 8 -16 8 *
Wi

0101000
+22 0 -15 0 -14 3 +13 7 *
Fa
0  1e-07 7 0

0101000
+12 0 *
Ed
 1e-07 1 1 0
1  14 0 0 2
2  27 2 4 0 2
2  28 4 5 0 2
0

0101000
+17 4 -41 4 *
Ed
 1e-07 1 1 0
1  15 0 0 2
2  29 2 8 0 2
2  30 5 5 0 2
0

0101000
+16 8 -40 8 *
Wi

0101000
+15 0 -39 0 -10 3 +9 7 *
Fa
0  1e-07 2 0

0101000
+8 0 *
Wi

0101100
+35 0 +28 0 +21 0 +14 0 +10 0 *
Fa
0  1e-07 4 0

0101000
-6 1 *
Wi

0101100
+34 0 +27 0 +20 0 +13 0 +9 0 *
Fa
0  1e-07 5 0

0101000
-4 1 *
Sh

0101100
-32 0 -25 0 -18 0 -11 0 -7 0 +5 9 -3 10 *
So

1100100
-2 0 *

+1 0 