DBRep_DrawableShape

CASCADE Topology V1, (c) Matra-Datavision
Locations 10
1
              1               0               0              -0 
              0               1               0               0 
              0               0               1              -0 
1
              1               0               0               0 
              0               1               0               0 
              0               0               1               0 
2  1 1 2 -1 0
2  2 1 1 -1 0
2  1 -1 0
1
              1               0               0              -0 
              0               1               0              -0 
              0               0               1          -10000 
2  1 1 2 -1 6 1 0
2  6 -1 2 1 1 -1 0
2  2 -1 0
2  2 -1 6 1 0
Curve2ds 12
1 0.17219081452293902 0 0 -1 
1 23 0 0 -1 
1 2.9694018390668542 0 0 -1 
1 0 0 0 -1 
1 0 0 1 0 
2 11.5 -2 -1 0 0 1 11.67261752992875
1 0 -10000 1 0 
2 11.5 -2 -1 0 0 1 11.67261752992875
1 0 0 1 0 
1 23 4.4408920985006262e-16 -1 -1.9308226515220113e-17 
1 0 -10000 1 0 
1 23 4.4408920985006262e-16 -1 -1.9308226515220113e-17 
Curves 6
1 39 0 0 -0 -0 -1 
1 16 4.4408920985006262e-16 0 -0 -0 -1 
2 27.5 -2 0 0 0 1 1 0 -0 -0 1 0 11.672617529928752
2 27.5 -2 0 0 0 1 1 0 -0 -0 1 0 11.672617529928752
1 16 4.4408920985006262e-16 0 1 -1.9308226515220113e-17 0 
1 16 4.4408920985006262e-16 0 1 -1.9308226515220113e-17 0 
Polygon3D 0
PolygonOnTriangulations 0
Surfaces 4
2 27.5 -2 0 0 0 1 1 0 0 0 1 0 11.672617529928752
1 16 4.4408920985006262e-16 0 -1.9308226515220113e-17 -1 0 1 -1.9308226515220113e-17 0 0 0 1 
1 39 0 0 0 0 -1 -1 0 -0 0 1 0 
1 39 0 0 0 0 -1 -1 0 -0 0 1 0 
Triangulations 0

TShapes 20
Ve
1.00001000593079e-07
39 0 0
0 0

0101101
*
Ve
1.00001000593079e-07
39 0 -10000
0 0

0101101
*
Ed
 1e-07 1 1 0
1  1 0 0 10000
2  1 1 0 0 10000
2  2 2 0 0 10000
0

0101000
+20 0 -19 0 *
Ve
1.0000100116861e-07
16 4.44089209850063e-16 0
0 0

0101101
*
Ve
1.0000100116861e-07
16 4.44089209850063e-16 -10000
0 0

0101101
*
Ed
 1e-07 1 1 0
1  2 0 0 10000
2  3 1 0 0 10000
2  4 2 0 0 10000
0

0101000
+17 0 -16 0 *
Ed
 1e-07 1 1 0
1  3 0 0.172190814522939 2.96940183906685
2  5 1 4 0.172190814522939 2.96940183906685
2  6 3 5 0.172190814522939 2.96940183906685
0

0101000
+20 4 -17 4 *
Ed
 1e-07 1 1 0
1  4 0 0.172190814522939 2.96940183906685
2  7 1 8 0.172190814522939 2.96940183906685
2  8 4 5 0.172190814522939 2.96940183906685
0

0101000
+19 8 -16 8 *
Wi

0101000
+18 0 -15 0 -14 3 +13 7 *
Fa
0  1e-07 1 0

0101000
+12 0 *
Ed
 1e-07 1 1 0
1  5 0 0 23
2  9 2 4 0 23
2  10 3 5 0 23
0

0101000
+17 4 -20 4 *
Ed
 1e-07 1 1 0
1  6 0 0 23
2  11 2 8 0 23
2  12 4 5 0 23
0

0101000
+16 8 -19 8 *
Wi

0101000
+15 0 -18 0 -10 3 +9 7 *
Fa
0  1e-07 2 0

0101000
+8 0 *
Wi

0101100
+14 0 +10 0 *
Fa
0  1e-07 3 0

0101000
-6 1 *
Wi

0101100
+13 0 +9 0 *
Fa
0  1e-07 4 0

0101000
-4 1 *
Sh

0101100
-11 0 -7 0 +5 9 -3 10 *
So

1100100
-2 0 *

+1 0 