G75*
%MOIN*%
%OFA0B0*%
%FSLAX25Y25*%
%IPPOS*%
%LPD*%
%AMOC8*
5,1,8,0,0,1.08239X$1,22.5*
%
%ADD10C,0.00000*%
%ADD11C,0.04362*%
%ADD12C,0.11811*%
%ADD13R,0.05000X0.11024*%
%ADD14C,0.03150*%
D10*
X0001000Y0005100D02*
X0001000Y0060218D01*
X0111236Y0060218D01*
X0111236Y0005100D01*
X0001000Y0005100D01*
X0032082Y0023092D02*
X0032084Y0023204D01*
X0032090Y0023315D01*
X0032100Y0023427D01*
X0032114Y0023538D01*
X0032131Y0023648D01*
X0032153Y0023758D01*
X0032179Y0023867D01*
X0032208Y0023975D01*
X0032241Y0024081D01*
X0032278Y0024187D01*
X0032319Y0024291D01*
X0032364Y0024394D01*
X0032412Y0024495D01*
X0032463Y0024594D01*
X0032518Y0024691D01*
X0032577Y0024786D01*
X0032638Y0024880D01*
X0032703Y0024971D01*
X0032772Y0025059D01*
X0032843Y0025145D01*
X0032917Y0025229D01*
X0032995Y0025309D01*
X0033075Y0025387D01*
X0033158Y0025463D01*
X0033243Y0025535D01*
X0033331Y0025604D01*
X0033421Y0025670D01*
X0033514Y0025732D01*
X0033609Y0025792D01*
X0033706Y0025848D01*
X0033804Y0025900D01*
X0033905Y0025949D01*
X0034007Y0025994D01*
X0034111Y0026036D01*
X0034216Y0026074D01*
X0034323Y0026108D01*
X0034430Y0026138D01*
X0034539Y0026165D01*
X0034648Y0026187D01*
X0034759Y0026206D01*
X0034869Y0026221D01*
X0034981Y0026232D01*
X0035092Y0026239D01*
X0035204Y0026242D01*
X0035316Y0026241D01*
X0035428Y0026236D01*
X0035539Y0026227D01*
X0035650Y0026214D01*
X0035761Y0026197D01*
X0035871Y0026177D01*
X0035980Y0026152D01*
X0036088Y0026124D01*
X0036195Y0026091D01*
X0036301Y0026055D01*
X0036405Y0026015D01*
X0036508Y0025972D01*
X0036610Y0025925D01*
X0036709Y0025874D01*
X0036807Y0025820D01*
X0036903Y0025762D01*
X0036997Y0025701D01*
X0037088Y0025637D01*
X0037177Y0025570D01*
X0037264Y0025499D01*
X0037348Y0025425D01*
X0037430Y0025349D01*
X0037508Y0025269D01*
X0037584Y0025187D01*
X0037657Y0025102D01*
X0037727Y0025015D01*
X0037793Y0024925D01*
X0037857Y0024833D01*
X0037917Y0024739D01*
X0037974Y0024643D01*
X0038027Y0024544D01*
X0038077Y0024444D01*
X0038123Y0024343D01*
X0038166Y0024239D01*
X0038205Y0024134D01*
X0038240Y0024028D01*
X0038271Y0023921D01*
X0038299Y0023812D01*
X0038322Y0023703D01*
X0038342Y0023593D01*
X0038358Y0023482D01*
X0038370Y0023371D01*
X0038378Y0023260D01*
X0038382Y0023148D01*
X0038382Y0023036D01*
X0038378Y0022924D01*
X0038370Y0022813D01*
X0038358Y0022702D01*
X0038342Y0022591D01*
X0038322Y0022481D01*
X0038299Y0022372D01*
X0038271Y0022263D01*
X0038240Y0022156D01*
X0038205Y0022050D01*
X0038166Y0021945D01*
X0038123Y0021841D01*
X0038077Y0021740D01*
X0038027Y0021640D01*
X0037974Y0021541D01*
X0037917Y0021445D01*
X0037857Y0021351D01*
X0037793Y0021259D01*
X0037727Y0021169D01*
X0037657Y0021082D01*
X0037584Y0020997D01*
X0037508Y0020915D01*
X0037430Y0020835D01*
X0037348Y0020759D01*
X0037264Y0020685D01*
X0037177Y0020614D01*
X0037088Y0020547D01*
X0036997Y0020483D01*
X0036903Y0020422D01*
X0036807Y0020364D01*
X0036709Y0020310D01*
X0036610Y0020259D01*
X0036508Y0020212D01*
X0036405Y0020169D01*
X0036301Y0020129D01*
X0036195Y0020093D01*
X0036088Y0020060D01*
X0035980Y0020032D01*
X0035871Y0020007D01*
X0035761Y0019987D01*
X0035650Y0019970D01*
X0035539Y0019957D01*
X0035428Y0019948D01*
X0035316Y0019943D01*
X0035204Y0019942D01*
X0035092Y0019945D01*
X0034981Y0019952D01*
X0034869Y0019963D01*
X0034759Y0019978D01*
X0034648Y0019997D01*
X0034539Y0020019D01*
X0034430Y0020046D01*
X0034323Y0020076D01*
X0034216Y0020110D01*
X0034111Y0020148D01*
X0034007Y0020190D01*
X0033905Y0020235D01*
X0033804Y0020284D01*
X0033706Y0020336D01*
X0033609Y0020392D01*
X0033514Y0020452D01*
X0033421Y0020514D01*
X0033331Y0020580D01*
X0033243Y0020649D01*
X0033158Y0020721D01*
X0033075Y0020797D01*
X0032995Y0020875D01*
X0032917Y0020955D01*
X0032843Y0021039D01*
X0032772Y0021125D01*
X0032703Y0021213D01*
X0032638Y0021304D01*
X0032577Y0021398D01*
X0032518Y0021493D01*
X0032463Y0021590D01*
X0032412Y0021689D01*
X0032364Y0021790D01*
X0032319Y0021893D01*
X0032278Y0021997D01*
X0032241Y0022103D01*
X0032208Y0022209D01*
X0032179Y0022317D01*
X0032153Y0022426D01*
X0032131Y0022536D01*
X0032114Y0022646D01*
X0032100Y0022757D01*
X0032090Y0022869D01*
X0032084Y0022980D01*
X0032082Y0023092D01*
X0052200Y0023092D02*
X0052202Y0023204D01*
X0052208Y0023315D01*
X0052218Y0023427D01*
X0052232Y0023538D01*
X0052249Y0023648D01*
X0052271Y0023758D01*
X0052297Y0023867D01*
X0052326Y0023975D01*
X0052359Y0024081D01*
X0052396Y0024187D01*
X0052437Y0024291D01*
X0052482Y0024394D01*
X0052530Y0024495D01*
X0052581Y0024594D01*
X0052636Y0024691D01*
X0052695Y0024786D01*
X0052756Y0024880D01*
X0052821Y0024971D01*
X0052890Y0025059D01*
X0052961Y0025145D01*
X0053035Y0025229D01*
X0053113Y0025309D01*
X0053193Y0025387D01*
X0053276Y0025463D01*
X0053361Y0025535D01*
X0053449Y0025604D01*
X0053539Y0025670D01*
X0053632Y0025732D01*
X0053727Y0025792D01*
X0053824Y0025848D01*
X0053922Y0025900D01*
X0054023Y0025949D01*
X0054125Y0025994D01*
X0054229Y0026036D01*
X0054334Y0026074D01*
X0054441Y0026108D01*
X0054548Y0026138D01*
X0054657Y0026165D01*
X0054766Y0026187D01*
X0054877Y0026206D01*
X0054987Y0026221D01*
X0055099Y0026232D01*
X0055210Y0026239D01*
X0055322Y0026242D01*
X0055434Y0026241D01*
X0055546Y0026236D01*
X0055657Y0026227D01*
X0055768Y0026214D01*
X0055879Y0026197D01*
X0055989Y0026177D01*
X0056098Y0026152D01*
X0056206Y0026124D01*
X0056313Y0026091D01*
X0056419Y0026055D01*
X0056523Y0026015D01*
X0056626Y0025972D01*
X0056728Y0025925D01*
X0056827Y0025874D01*
X0056925Y0025820D01*
X0057021Y0025762D01*
X0057115Y0025701D01*
X0057206Y0025637D01*
X0057295Y0025570D01*
X0057382Y0025499D01*
X0057466Y0025425D01*
X0057548Y0025349D01*
X0057626Y0025269D01*
X0057702Y0025187D01*
X0057775Y0025102D01*
X0057845Y0025015D01*
X0057911Y0024925D01*
X0057975Y0024833D01*
X0058035Y0024739D01*
X0058092Y0024643D01*
X0058145Y0024544D01*
X0058195Y0024444D01*
X0058241Y0024343D01*
X0058284Y0024239D01*
X0058323Y0024134D01*
X0058358Y0024028D01*
X0058389Y0023921D01*
X0058417Y0023812D01*
X0058440Y0023703D01*
X0058460Y0023593D01*
X0058476Y0023482D01*
X0058488Y0023371D01*
X0058496Y0023260D01*
X0058500Y0023148D01*
X0058500Y0023036D01*
X0058496Y0022924D01*
X0058488Y0022813D01*
X0058476Y0022702D01*
X0058460Y0022591D01*
X0058440Y0022481D01*
X0058417Y0022372D01*
X0058389Y0022263D01*
X0058358Y0022156D01*
X0058323Y0022050D01*
X0058284Y0021945D01*
X0058241Y0021841D01*
X0058195Y0021740D01*
X0058145Y0021640D01*
X0058092Y0021541D01*
X0058035Y0021445D01*
X0057975Y0021351D01*
X0057911Y0021259D01*
X0057845Y0021169D01*
X0057775Y0021082D01*
X0057702Y0020997D01*
X0057626Y0020915D01*
X0057548Y0020835D01*
X0057466Y0020759D01*
X0057382Y0020685D01*
X0057295Y0020614D01*
X0057206Y0020547D01*
X0057115Y0020483D01*
X0057021Y0020422D01*
X0056925Y0020364D01*
X0056827Y0020310D01*
X0056728Y0020259D01*
X0056626Y0020212D01*
X0056523Y0020169D01*
X0056419Y0020129D01*
X0056313Y0020093D01*
X0056206Y0020060D01*
X0056098Y0020032D01*
X0055989Y0020007D01*
X0055879Y0019987D01*
X0055768Y0019970D01*
X0055657Y0019957D01*
X0055546Y0019948D01*
X0055434Y0019943D01*
X0055322Y0019942D01*
X0055210Y0019945D01*
X0055099Y0019952D01*
X0054987Y0019963D01*
X0054877Y0019978D01*
X0054766Y0019997D01*
X0054657Y0020019D01*
X0054548Y0020046D01*
X0054441Y0020076D01*
X0054334Y0020110D01*
X0054229Y0020148D01*
X0054125Y0020190D01*
X0054023Y0020235D01*
X0053922Y0020284D01*
X0053824Y0020336D01*
X0053727Y0020392D01*
X0053632Y0020452D01*
X0053539Y0020514D01*
X0053449Y0020580D01*
X0053361Y0020649D01*
X0053276Y0020721D01*
X0053193Y0020797D01*
X0053113Y0020875D01*
X0053035Y0020955D01*
X0052961Y0021039D01*
X0052890Y0021125D01*
X0052821Y0021213D01*
X0052756Y0021304D01*
X0052695Y0021398D01*
X0052636Y0021493D01*
X0052581Y0021590D01*
X0052530Y0021689D01*
X0052482Y0021790D01*
X0052437Y0021893D01*
X0052396Y0021997D01*
X0052359Y0022103D01*
X0052326Y0022209D01*
X0052297Y0022317D01*
X0052271Y0022426D01*
X0052249Y0022536D01*
X0052232Y0022646D01*
X0052218Y0022757D01*
X0052208Y0022869D01*
X0052202Y0022980D01*
X0052200Y0023092D01*
D11*
X0070291Y0028328D03*
X0077378Y0031478D03*
X0070291Y0034628D03*
X0077378Y0037777D03*
X0070291Y0040927D03*
D12*
X0073835Y0051163D03*
X0073835Y0018092D03*
D13*
X0045291Y0013722D03*
X0037417Y0051596D03*
X0053165Y0051596D03*
D14*
X0053165Y0044470D01*
X0056709Y0040927D01*
X0070291Y0040927D01*
X0062024Y0033643D02*
X0045291Y0033643D01*
X0037417Y0041517D01*
X0037417Y0051596D01*
X0062024Y0033643D02*
X0067339Y0028328D01*
X0070291Y0028328D01*
M02*
